<?xml version="1.0" encoding="utf-8"?>
<!-- Generator: Adobe Illustrator 24.2.1, SVG Export Plug-In . SVG Version: 6.00 Build 0)  -->
<svg version="1.1" id="Layer_1" xmlns="http://www.w3.org/2000/svg" xmlns:xlink="http://www.w3.org/1999/xlink" x="0px" y="0px"
	 viewBox="0 0 267.95 52.22" style="enable-background:new 0 0 267.95 52.22;" xml:space="preserve">
<style type="text/css">
	.st0{fill:none;}
	.st1{clip-path:url(#SVGID_2_);}
	.st2{fill:url(#Fill_1_1_);}
	.st3{clip-path:url(#SVGID_4_);}
	.st4{fill:url(#Fill_7_1_);}
	.st5{clip-path:url(#SVGID_6_);}
	.st6{fill:url(#Fill_4_1_);}
	.st7{clip-path:url(#SVGID_8_);}
	.st8{fill:url(#Fill_10_1_);}
	.st9{clip-path:url(#SVGID_10_);}
	.st10{fill:url(#Fill_13_1_);}
	.st11{clip-path:url(#SVGID_12_);}
	.st12{fill:url(#Fill_16_1_);}
	.st13{clip-path:url(#SVGID_14_);}
	.st14{fill:url(#Fill_19_1_);}
	.st15{clip-path:url(#SVGID_16_);}
	.st16{fill:url(#Fill_22_1_);}
	.st17{clip-path:url(#SVGID_18_);}
	.st18{fill:url(#Fill_25_1_);}
	.st19{clip-path:url(#SVGID_20_);}
	.st20{fill:url(#Fill_28_1_);}
</style>
<g>
	<g id="Group_19" transform="translate(0 -0.002)">
		<g id="Group_17" transform="translate(35.292)">
			<g id="Group_3" transform="translate(5.059)">
				<path id="Clip_2-2" class="st0" d="M9.84,0c-5.4,0.01-9.77,4.38-9.77,9.78l0,0c0,5.4,4.38,9.77,9.77,9.78l0,0
					c5.4-0.01,9.77-4.38,9.77-9.78l0,0C19.6,4.38,15.23,0.01,9.84,0z"/>
				<g>
					<defs>
						<path id="SVGID_1_" d="M9.84,0c-5.4,0.01-9.77,4.38-9.77,9.78l0,0c0,5.4,4.38,9.77,9.77,9.78l0,0
							c5.4-0.01,9.77-4.38,9.77-9.78l0,0C19.6,4.38,15.23,0.01,9.84,0z"/>
					</defs>
					<clipPath id="SVGID_2_">
						<use xlink:href="#SVGID_1_"  style="overflow:visible;"/>
					</clipPath>
					<g id="Group_3-2" class="st1">
						
							<linearGradient id="Fill_1_1_" gradientUnits="userSpaceOnUse" x1="96.0434" y1="-32.3176" x2="96.0434" y2="-31.1116" gradientTransform="matrix(19.548 0 0 -19.555 -1867.6207 -610.3988)">
							<stop  offset="0" style="stop-color:#ED00A3"/>
							<stop  offset="1" style="stop-color:#FF00BA"/>
						</linearGradient>
						<path id="Fill_1" class="st2" d="M9.84,0c-5.4,0.01-9.77,4.38-9.77,9.78l0,0c0,5.4,4.38,9.77,9.77,9.78l0,0
							c5.4-0.01,9.77-4.38,9.77-9.78l0,0C19.6,4.38,15.23,0.01,9.84,0z"/>
					</g>
				</g>
			</g>
			<g id="Group_9" transform="translate(0 23.969)">
				<path id="Clip_8-2" class="st0" d="M0.07,7.41c3,3.69,4.63,8.29,4.61,13.04l0,0C4.6,14.56,9.31,9.71,15.21,9.63
					c0.18,0,0.35,0,0.53,0.01l0,0c5.66,0.29,10,5.31,10,11.14l0,0v6.11c-0.01,0.75,0.59,1.36,1.33,1.37h6.57
					c0.75-0.01,1.34-0.62,1.33-1.37l0,0V20.9c0-11.14-8.52-20.55-19.33-20.79l0,0c-0.14,0-0.29,0-0.43,0l0,0
					C9.32,0.14,3.75,2.82,0.07,7.41"/>
				<g>
					<defs>
						<path id="SVGID_3_" d="M0.07,7.41c3,3.69,4.63,8.29,4.61,13.04l0,0C4.6,14.56,9.31,9.71,15.21,9.63c0.18,0,0.35,0,0.53,0.01
							l0,0c5.66,0.29,10,5.31,10,11.14l0,0v6.11c-0.01,0.75,0.59,1.36,1.33,1.37h6.57c0.75-0.01,1.34-0.62,1.33-1.37l0,0V20.9
							c0-11.14-8.52-20.55-19.33-20.79l0,0c-0.14,0-0.29,0-0.43,0l0,0C9.32,0.14,3.75,2.82,0.07,7.41"/>
					</defs>
					<clipPath id="SVGID_4_">
						<use xlink:href="#SVGID_3_"  style="overflow:visible;"/>
					</clipPath>
					<g id="Group_9-2" class="st3">
						
							<linearGradient id="Fill_7_1_" gradientUnits="userSpaceOnUse" x1="97.7572" y1="-49.2235" x2="96.6252" y2="-49.2235" gradientTransform="matrix(34.9051 0 0 -28.141 -3377.2559 -1371.012)">
							<stop  offset="0" style="stop-color:#4D00EF"/>
							<stop  offset="1" style="stop-color:#080041"/>
						</linearGradient>
						<path id="Fill_7" class="st4" d="M0.07,7.41c3,3.69,4.63,8.29,4.61,13.04l0,0C4.6,14.56,9.31,9.71,15.21,9.63
							c0.18,0,0.35,0,0.53,0.01l0,0c5.66,0.29,10,5.31,10,11.14l0,0v6.11c-0.01,0.75,0.59,1.36,1.33,1.37h6.57
							c0.75-0.01,1.34-0.62,1.33-1.37l0,0V20.9c0-11.14-8.52-20.55-19.33-20.79l0,0c-0.14,0-0.29,0-0.43,0l0,0
							C9.32,0.14,3.75,2.82,0.07,7.41"/>
					</g>
				</g>
			</g>
		</g>
		<g id="Group_4">
			<g id="Group_6" transform="translate(10.461)">
				<path id="Clip_5-2" class="st0" d="M9.73,0C4.36,0.04,0.04,4.41,0.07,9.78l0,0c-0.03,5.36,4.3,9.74,9.66,9.78l0,0
					c5.36-0.04,9.69-4.41,9.66-9.78l0,0C19.41,4.41,15.09,0.04,9.73,0z"/>
				<g>
					<defs>
						<path id="SVGID_5_" d="M9.73,0C4.36,0.04,0.04,4.41,0.07,9.78l0,0c-0.03,5.36,4.3,9.74,9.66,9.78l0,0
							c5.36-0.04,9.69-4.41,9.66-9.78l0,0C19.41,4.41,15.09,0.04,9.73,0z"/>
					</defs>
					<clipPath id="SVGID_6_">
						<use xlink:href="#SVGID_5_"  style="overflow:visible;"/>
					</clipPath>
					<g id="Group_6-2" class="st5">
						
							<linearGradient id="Fill_4_1_" gradientUnits="userSpaceOnUse" x1="126.0365" y1="-32.3176" x2="126.0365" y2="-31.1116" gradientTransform="matrix(19.3202 0 0 -19.555 -2425.3245 -610.3988)">
							<stop  offset="0" style="stop-color:#4D00EF"/>
							<stop  offset="1" style="stop-color:#4D00EF"/>
						</linearGradient>
						<path id="Fill_4" class="st6" d="M9.73,0C4.36,0.04,0.04,4.41,0.07,9.78l0,0c-0.03,5.36,4.3,9.74,9.66,9.78l0,0
							c5.36-0.04,9.69-4.41,9.66-9.78l0,0C19.41,4.41,15.09,0.04,9.73,0z"/>
					</g>
				</g>
			</g>
			<g id="Group_12" transform="translate(0 23.969)">
				<path id="Clip_11-2" class="st0" d="M19.64,0.11C8.65,0.36,0,9.76,0,20.9l0,0v5.98c0,0.75,0.6,1.37,1.35,1.37c0,0,0,0,0,0h6.67
					c0.75,0,1.36-0.62,1.35-1.37c0,0,0,0,0,0l0,0v-6.11c-0.1-5.82,4.36-10.7,10.16-11.14l0,0c5.94-0.26,10.97,4.36,11.23,10.3
					c0.01,0.18,0.01,0.35,0.01,0.53l0,0v6.43c0,0.75,0.6,1.37,1.35,1.37h6.67c0.75,0,1.36-0.62,1.35-1.37c0,0,0,0,0,0l0,0v-6.43
					c0.01-4.76-1.65-9.38-4.69-13.04l0,0c-3.78-4.61-9.42-7.29-15.39-7.3l0,0C19.93,0.11,19.79,0.11,19.64,0.11"/>
				<g>
					<defs>
						<path id="SVGID_7_" d="M19.64,0.11C8.65,0.36,0,9.76,0,20.9l0,0v5.98c0,0.75,0.6,1.37,1.35,1.37c0,0,0,0,0,0h6.67
							c0.75,0,1.36-0.62,1.35-1.37c0,0,0,0,0,0l0,0v-6.11c-0.1-5.82,4.36-10.7,10.16-11.14l0,0c5.94-0.26,10.97,4.36,11.23,10.3
							c0.01,0.18,0.01,0.35,0.01,0.53l0,0v6.43c0,0.75,0.6,1.37,1.35,1.37h6.67c0.75,0,1.36-0.62,1.35-1.37c0,0,0,0,0,0l0,0v-6.43
							c0.01-4.76-1.65-9.38-4.69-13.04l0,0c-3.78-4.61-9.42-7.29-15.39-7.3l0,0C19.93,0.11,19.79,0.11,19.64,0.11"/>
					</defs>
					<clipPath id="SVGID_8_">
						<use xlink:href="#SVGID_7_"  style="overflow:visible;"/>
					</clipPath>
					<g id="Group_12-2" class="st7">
						
							<linearGradient id="Fill_10_1_" gradientUnits="userSpaceOnUse" x1="131.4096" y1="-49.2235" x2="135.6916" y2="-49.2235" gradientTransform="matrix(40.1521 0 0 -28.141 -5276.3652 -1371.012)">
							<stop  offset="0" style="stop-color:#4D00EF"/>
							<stop  offset="1" style="stop-color:#4D00EF"/>
						</linearGradient>
						<path id="Fill_10" class="st8" d="M19.64,0.11C8.65,0.36,0,9.76,0,20.9l0,0v5.98c0,0.75,0.6,1.37,1.35,1.37c0,0,0,0,0,0h6.67
							c0.75,0,1.36-0.62,1.35-1.37c0,0,0,0,0,0l0,0v-6.11c-0.1-5.82,4.36-10.7,10.16-11.14l0,0c5.94-0.26,10.97,4.36,11.23,10.3
							c0.01,0.18,0.01,0.35,0.01,0.53l0,0v6.43c0,0.75,0.6,1.37,1.35,1.37h6.67c0.75,0,1.36-0.62,1.35-1.37c0,0,0,0,0,0l0,0v-6.43
							c0.01-4.76-1.65-9.38-4.69-13.04l0,0c-3.78-4.61-9.42-7.29-15.39-7.3l0,0C19.93,0.11,19.79,0.11,19.64,0.11"/>
					</g>
				</g>
			</g>
		</g>
	</g>
	<g id="Group_15" transform="translate(181 14.998)">
		<path id="Clip_14-2" class="st0" d="M12.16,37c-1.69,0.02-3.37-0.3-4.93-0.95c-1.48-0.65-2.79-1.62-3.84-2.84
			c-2.28-2.78-3.45-6.3-3.29-9.89c-0.16-3.62,1.06-7.17,3.43-9.92c2.26-2.49,5.49-3.87,8.85-3.77c1.04-0.01,2.08,0.12,3.08,0.38
			c0.8,0.19,1.57,0.5,2.29,0.92c0.52,0.32,1.01,0.69,1.46,1.1c0.33,0.28,0.6,0.61,0.82,0.97l0.26,0.36h0.1
			c-0.07-0.49-0.11-0.99-0.11-1.49V2.15C20.15,1.1,20.89,0.14,21.94,0c0.18-0.02,0.36-0.02,0.53,0h2.34
			c1.05-0.15,2.02,0.57,2.18,1.62c0.03,0.18,0.03,0.35,0,0.53v32.08c0.14,1.05-0.6,2.02-1.65,2.16c-0.18,0.02-0.35,0.02-0.53,0
			h-1.97c-1.45,0-2.18-0.65-2.18-1.95v-1.02l0.11-0.92h-0.11c-0.08,0.14-0.17,0.31-0.29,0.49c-0.28,0.38-0.58,0.74-0.9,1.08
			c-0.48,0.53-1.02,0.99-1.62,1.38c-0.76,0.46-1.57,0.82-2.42,1.08C14.38,36.84,13.27,37.01,12.16,37z M13.71,15.22
			C11.85,15.2,10.08,16,8.87,17.4c-1.38,1.65-2.08,3.77-1.97,5.92c-0.1,2.14,0.56,4.24,1.86,5.94c1.19,1.48,3,2.31,4.89,2.25
			c1.83,0.03,3.59-0.73,4.84-2.08c1.31-1.38,1.97-3.46,1.97-6.17c0.05-2.03-0.57-4.02-1.75-5.66
			C17.54,16.02,15.66,15.13,13.71,15.22L13.71,15.22z"/>
		<g>
			<defs>
				<path id="SVGID_9_" d="M12.16,37c-1.69,0.02-3.37-0.3-4.93-0.95c-1.48-0.65-2.79-1.62-3.84-2.84c-2.28-2.78-3.45-6.3-3.29-9.89
					c-0.16-3.62,1.06-7.17,3.43-9.92c2.26-2.49,5.49-3.87,8.85-3.77c1.04-0.01,2.08,0.12,3.08,0.38c0.8,0.19,1.57,0.5,2.29,0.92
					c0.52,0.32,1.01,0.69,1.46,1.1c0.33,0.28,0.6,0.61,0.82,0.97l0.26,0.36h0.1c-0.07-0.49-0.11-0.99-0.11-1.49V2.15
					C20.15,1.1,20.89,0.14,21.94,0c0.18-0.02,0.36-0.02,0.53,0h2.34c1.05-0.15,2.02,0.57,2.18,1.62c0.03,0.18,0.03,0.35,0,0.53
					v32.08c0.14,1.05-0.6,2.02-1.65,2.16c-0.18,0.02-0.35,0.02-0.53,0h-1.97c-1.45,0-2.18-0.65-2.18-1.95v-1.02l0.11-0.92h-0.11
					c-0.08,0.14-0.17,0.31-0.29,0.49c-0.28,0.38-0.58,0.74-0.9,1.08c-0.48,0.53-1.02,0.99-1.62,1.38c-0.76,0.46-1.57,0.82-2.42,1.08
					C14.38,36.84,13.27,37.01,12.16,37z M13.71,15.22C11.85,15.2,10.08,16,8.87,17.4c-1.38,1.65-2.08,3.77-1.97,5.92
					c-0.1,2.14,0.56,4.24,1.86,5.94c1.19,1.48,3,2.31,4.89,2.25c1.83,0.03,3.59-0.73,4.84-2.08c1.31-1.38,1.97-3.46,1.97-6.17
					c0.05-2.03-0.57-4.02-1.75-5.66C17.54,16.02,15.66,15.13,13.71,15.22L13.71,15.22z"/>
			</defs>
			<clipPath id="SVGID_10_">
				<use xlink:href="#SVGID_9_"  style="overflow:visible;"/>
			</clipPath>
			<g id="Group_15-2" class="st9">
				
					<linearGradient id="Fill_13_1_" gradientUnits="userSpaceOnUse" x1="-47.5002" y1="-36.7251" x2="-46.5002" y2="-36.7251" gradientTransform="matrix(26.9253 0 0 -37.0218 1279.0444 -1341.1371)">
					<stop  offset="0" style="stop-color:#ED00A3"/>
					<stop  offset="1" style="stop-color:#FF00BA"/>
				</linearGradient>
				<path id="Fill_13" class="st10" d="M12.16,37c-1.69,0.02-3.37-0.3-4.93-0.95c-1.48-0.65-2.79-1.62-3.84-2.84
					c-2.28-2.78-3.45-6.3-3.29-9.89c-0.16-3.62,1.06-7.17,3.43-9.92c2.26-2.49,5.49-3.87,8.85-3.77c1.04-0.01,2.08,0.12,3.08,0.38
					c0.8,0.19,1.57,0.5,2.29,0.92c0.52,0.32,1.01,0.69,1.46,1.1c0.33,0.28,0.6,0.61,0.82,0.97l0.26,0.36h0.1
					c-0.07-0.49-0.11-0.99-0.11-1.49V2.15C20.15,1.1,20.89,0.14,21.94,0c0.18-0.02,0.36-0.02,0.53,0h2.34
					c1.05-0.15,2.02,0.57,2.18,1.62c0.03,0.18,0.03,0.35,0,0.53v32.08c0.14,1.05-0.6,2.02-1.65,2.16c-0.18,0.02-0.35,0.02-0.53,0
					h-1.97c-1.45,0-2.18-0.65-2.18-1.95v-1.02l0.11-0.92h-0.11c-0.08,0.14-0.17,0.31-0.29,0.49c-0.28,0.38-0.58,0.74-0.9,1.08
					c-0.48,0.53-1.02,0.99-1.62,1.38c-0.76,0.46-1.57,0.82-2.42,1.08C14.38,36.84,13.27,37.01,12.16,37z M13.71,15.22
					C11.85,15.2,10.08,16,8.87,17.4c-1.38,1.65-2.08,3.77-1.97,5.92c-0.1,2.14,0.56,4.24,1.86,5.94c1.19,1.48,3,2.31,4.89,2.25
					c1.83,0.03,3.59-0.73,4.84-2.08c1.31-1.38,1.97-3.46,1.97-6.17c0.05-2.03-0.57-4.02-1.75-5.66
					C17.54,16.02,15.66,15.13,13.71,15.22L13.71,15.22z"/>
			</g>
		</g>
	</g>
	<g id="Group_18" transform="translate(210 22.998)">
		<path id="Clip_17-2" class="st0" d="M14.92,28.34c-1.98,0.02-3.94-0.32-5.79-1c-1.78-0.68-3.42-1.7-4.81-3
			c-1.39-1.27-2.49-2.82-3.24-4.54c-0.74-1.78-1.1-3.69-1.08-5.62c-0.02-1.93,0.34-3.84,1.08-5.61c0.74-1.73,1.85-3.28,3.24-4.55
			c1.39-1.3,3.03-2.32,4.81-3c1.85-0.68,3.82-1.02,5.79-1c1.98-0.02,3.94,0.32,5.8,1.01c1.79,0.69,3.43,1.71,4.83,3.02
			c1.39,1.27,2.5,2.82,3.25,4.55c0.74,1.77,1.11,3.67,1.09,5.58c0.02,1.93-0.35,3.84-1.09,5.62c-0.75,1.73-1.86,3.28-3.26,4.54
			c-1.4,1.3-3.04,2.32-4.83,3C18.86,28.02,16.9,28.36,14.92,28.34z M14.92,5.74c-2.15-0.03-4.22,0.83-5.7,2.39
			c-1.57,1.61-2.41,3.8-2.35,6.05c-0.08,2.26,0.75,4.45,2.32,6.08c1.5,1.55,3.57,2.4,5.73,2.36c2.16,0.04,4.24-0.81,5.75-2.36
			c1.58-1.62,2.42-3.81,2.34-6.07c0.07-2.25-0.79-4.44-2.37-6.05C19.15,6.58,17.07,5.72,14.92,5.74L14.92,5.74z"/>
		<g>
			<defs>
				<path id="SVGID_11_" d="M14.92,28.34c-1.98,0.02-3.94-0.32-5.79-1c-1.78-0.68-3.42-1.7-4.81-3c-1.39-1.27-2.49-2.82-3.24-4.54
					c-0.74-1.78-1.1-3.69-1.08-5.62c-0.02-1.93,0.34-3.84,1.08-5.61c0.74-1.73,1.85-3.28,3.24-4.55c1.39-1.3,3.03-2.32,4.81-3
					c1.85-0.68,3.82-1.02,5.79-1c1.98-0.02,3.94,0.32,5.8,1.01c1.79,0.69,3.43,1.71,4.83,3.02c1.39,1.27,2.5,2.82,3.25,4.55
					c0.74,1.77,1.11,3.67,1.09,5.58c0.02,1.93-0.35,3.84-1.09,5.62c-0.75,1.73-1.86,3.28-3.26,4.54c-1.4,1.3-3.04,2.32-4.83,3
					C18.86,28.02,16.9,28.36,14.92,28.34z M14.92,5.74c-2.15-0.03-4.22,0.83-5.7,2.39c-1.57,1.61-2.41,3.8-2.35,6.05
					c-0.08,2.26,0.75,4.45,2.32,6.08c1.5,1.55,3.57,2.4,5.73,2.36c2.16,0.04,4.24-0.81,5.75-2.36c1.58-1.62,2.42-3.81,2.34-6.07
					c0.07-2.25-0.79-4.44-2.37-6.05C19.15,6.58,17.07,5.72,14.92,5.74L14.92,5.74z"/>
			</defs>
			<clipPath id="SVGID_12_">
				<use xlink:href="#SVGID_11_"  style="overflow:visible;"/>
			</clipPath>
			<g id="Group_18-2" class="st11">
				
					<linearGradient id="Fill_16_1_" gradientUnits="userSpaceOnUse" x1="-77.1292" y1="-48.1581" x2="-76.1292" y2="-48.1581" gradientTransform="matrix(29.888 0 0 -28.3266 2305.2371 -1349.9756)">
					<stop  offset="0" style="stop-color:#ED00A3"/>
					<stop  offset="1" style="stop-color:#FF00BA"/>
				</linearGradient>
				<path id="Fill_16" class="st12" d="M14.92,28.34c-1.98,0.02-3.94-0.32-5.79-1c-1.78-0.68-3.42-1.7-4.81-3
					c-1.39-1.27-2.49-2.82-3.24-4.54c-0.74-1.78-1.1-3.69-1.08-5.62c-0.02-1.93,0.34-3.84,1.08-5.61c0.74-1.73,1.85-3.28,3.24-4.55
					c1.39-1.3,3.03-2.32,4.81-3c1.85-0.68,3.82-1.02,5.79-1c1.98-0.02,3.94,0.32,5.8,1.01c1.79,0.69,3.43,1.71,4.83,3.02
					c1.39,1.27,2.5,2.82,3.25,4.55c0.74,1.77,1.11,3.67,1.09,5.58c0.02,1.93-0.35,3.84-1.09,5.62c-0.75,1.73-1.86,3.28-3.26,4.54
					c-1.4,1.3-3.04,2.32-4.83,3C18.86,28.02,16.9,28.36,14.92,28.34z M14.92,5.74c-2.15-0.03-4.22,0.83-5.7,2.39
					c-1.57,1.61-2.41,3.8-2.35,6.05c-0.08,2.26,0.75,4.45,2.32,6.08c1.5,1.55,3.57,2.4,5.73,2.36c2.16,0.04,4.24-0.81,5.75-2.36
					c1.58-1.62,2.42-3.81,2.34-6.07c0.07-2.25-0.79-4.44-2.37-6.05C19.15,6.58,17.07,5.72,14.92,5.74L14.92,5.74z"/>
			</g>
		</g>
	</g>
	<g id="Group_21" transform="translate(81 22.998)">
		<path id="Clip_20-2" class="st0" d="M26.67,1.7c-1.55,1-2.8,2.38-3.64,4.02h-0.11c-1.12-3.8-3.72-5.7-7.81-5.7l0,0
			c-1.9-0.01-3.75,0.61-5.27,1.76l0,0c-1.49,1.05-2.68,2.46-3.48,4.1h-0.1l0.1-1.25V2.95c0-1.52-0.72-2.28-2.15-2.28H2.17
			c-1.43,0-2.15,0.76-2.15,2.28l0,0v23.11c0,1.52,0.72,2.28,2.15,2.28h2.31c1.43,0,2.15-0.76,2.15-2.28l0,0V15.92
			c-0.05-2.37,0.57-4.71,1.81-6.73l0,0c1.04-1.83,3.01-2.93,5.11-2.87l0,0c1.16-0.15,2.28,0.42,2.86,1.44l0,0
			c0.54,1.3,0.78,2.7,0.71,4.1l0,0v14.21c-0.17,1.08,0.56,2.1,1.64,2.27c0.18,0.03,0.37,0.03,0.56,0.01h2.31
			c1.43,0,2.15-0.76,2.15-2.28l0,0V15.92c-0.06-2.38,0.57-4.72,1.81-6.76l0,0c1.02-1.79,2.94-2.89,5.01-2.85l0,0
			c1.16-0.14,2.3,0.41,2.91,1.41l0,0c0.58,1.29,0.84,2.71,0.76,4.12l0,0v14.22c-0.17,1.08,0.56,2.1,1.64,2.27
			c0.18,0.03,0.37,0.03,0.56,0.01h2.25c1.09,0.13,2.08-0.64,2.21-1.72c0.02-0.19,0.02-0.37-0.01-0.56l0,0V10.54
			c0-7.02-2.92-10.53-8.75-10.53l0,0C30.19,0,28.28,0.59,26.67,1.7"/>
		<g>
			<defs>
				<path id="SVGID_13_" d="M26.67,1.7c-1.55,1-2.8,2.38-3.64,4.02h-0.11c-1.12-3.8-3.72-5.7-7.81-5.7l0,0
					c-1.9-0.01-3.75,0.61-5.27,1.76l0,0c-1.49,1.05-2.68,2.46-3.48,4.1h-0.1l0.1-1.25V2.95c0-1.52-0.72-2.28-2.15-2.28H2.17
					c-1.43,0-2.15,0.76-2.15,2.28l0,0v23.11c0,1.52,0.72,2.28,2.15,2.28h2.31c1.43,0,2.15-0.76,2.15-2.28l0,0V15.92
					c-0.05-2.37,0.57-4.71,1.81-6.73l0,0c1.04-1.83,3.01-2.93,5.11-2.87l0,0c1.16-0.15,2.28,0.42,2.86,1.44l0,0
					c0.54,1.3,0.78,2.7,0.71,4.1l0,0v14.21c-0.17,1.08,0.56,2.1,1.64,2.27c0.18,0.03,0.37,0.03,0.56,0.01h2.31
					c1.43,0,2.15-0.76,2.15-2.28l0,0V15.92c-0.06-2.38,0.57-4.72,1.81-6.76l0,0c1.02-1.79,2.94-2.89,5.01-2.85l0,0
					c1.16-0.14,2.3,0.41,2.91,1.41l0,0c0.58,1.29,0.84,2.71,0.76,4.12l0,0v14.22c-0.17,1.08,0.56,2.1,1.64,2.27
					c0.18,0.03,0.37,0.03,0.56,0.01h2.25c1.09,0.13,2.08-0.64,2.21-1.72c0.02-0.19,0.02-0.37-0.01-0.56l0,0V10.54
					c0-7.02-2.92-10.53-8.75-10.53l0,0C30.19,0,28.28,0.59,26.67,1.7"/>
			</defs>
			<clipPath id="SVGID_14_">
				<use xlink:href="#SVGID_13_"  style="overflow:visible;"/>
			</clipPath>
			<g id="Group_21-2" class="st13">
				
					<linearGradient id="Fill_19_1_" gradientUnits="userSpaceOnUse" x1="50.3318" y1="-48.1514" x2="51.3318" y2="-48.1514" gradientTransform="matrix(40.8999 0 0 -28.3394 -2058.5479 -1350.3993)">
					<stop  offset="0" style="stop-color:#4D00EF"/>
					<stop  offset="1" style="stop-color:#4D00EF"/>
				</linearGradient>
				<path id="Fill_19" class="st14" d="M26.67,1.7c-1.55,1-2.8,2.38-3.64,4.02h-0.11c-1.12-3.8-3.72-5.7-7.81-5.7l0,0
					c-1.9-0.01-3.75,0.61-5.27,1.76l0,0c-1.49,1.05-2.68,2.46-3.48,4.1h-0.1l0.1-1.25V2.95c0-1.52-0.72-2.28-2.15-2.28H2.17
					c-1.43,0-2.15,0.76-2.15,2.28l0,0v23.11c0,1.52,0.72,2.28,2.15,2.28h2.31c1.43,0,2.15-0.76,2.15-2.28l0,0V15.92
					c-0.05-2.37,0.57-4.71,1.81-6.73l0,0c1.04-1.83,3.01-2.93,5.11-2.87l0,0c1.16-0.15,2.28,0.42,2.86,1.44l0,0
					c0.54,1.3,0.78,2.7,0.71,4.1l0,0v14.21c-0.17,1.08,0.56,2.1,1.64,2.27c0.18,0.03,0.37,0.03,0.56,0.01h2.31
					c1.43,0,2.15-0.76,2.15-2.28l0,0V15.92c-0.06-2.38,0.57-4.72,1.81-6.76l0,0c1.02-1.79,2.94-2.89,5.01-2.85l0,0
					c1.16-0.14,2.3,0.41,2.91,1.41l0,0c0.58,1.29,0.84,2.71,0.76,4.12l0,0v14.22c-0.17,1.08,0.56,2.1,1.64,2.27
					c0.18,0.03,0.37,0.03,0.56,0.01h2.25c1.09,0.13,2.08-0.64,2.21-1.72c0.02-0.19,0.02-0.37-0.01-0.56l0,0V10.54
					c0-7.02-2.92-10.53-8.75-10.53l0,0C30.19,0,28.28,0.59,26.67,1.7"/>
			</g>
		</g>
	</g>
	<g id="Group_24" transform="translate(125 22.998)">
		<path id="Clip_23-2" class="st0" d="M15.24,28.34c-2.1,0.03-4.2-0.32-6.18-1.03c-1.82-0.68-3.47-1.73-4.86-3.09
			c-1.35-1.3-2.42-2.85-3.15-4.57c-0.71-1.74-1.07-3.6-1.05-5.48c-0.02-1.94,0.31-3.87,1-5.68c0.67-1.7,1.69-3.25,3-4.53
			C5.32,2.67,6.88,1.66,8.61,1c1.86-0.68,3.82-1.01,5.8-0.99c3.91,0,7.02,1.2,9.23,3.58c2.28,2.55,3.48,5.89,3.34,9.31
			c0,0.61-0.27,1.19-0.72,1.59c-0.46,0.45-1.08,0.7-1.72,0.69H7.24c0.12,2.12,1.1,4.09,2.73,5.46c1.63,1.32,3.68,2.02,5.78,1.97
			c2.16-0.02,4.27-0.62,6.12-1.75c0.43-0.21,0.9-0.33,1.38-0.34c0.74,0.01,1.41,0.43,1.74,1.09l0.67,1.06
			c0.65,0.86,0.49,2.08-0.37,2.73c-0.13,0.1-0.26,0.18-0.41,0.24C21.97,27.42,18.64,28.35,15.24,28.34z M14.24,5.11
			c-1.65-0.04-3.26,0.53-4.51,1.62C8.48,7.87,7.66,9.42,7.41,11.1h12.56c0.04-1.62-0.56-3.19-1.67-4.37
			C17.23,5.65,15.76,5.07,14.24,5.11L14.24,5.11z"/>
		<g>
			<defs>
				<path id="SVGID_15_" d="M15.24,28.34c-2.1,0.03-4.2-0.32-6.18-1.03c-1.82-0.68-3.47-1.73-4.86-3.09
					c-1.35-1.3-2.42-2.85-3.15-4.57c-0.71-1.74-1.07-3.6-1.05-5.48c-0.02-1.94,0.31-3.87,1-5.68c0.67-1.7,1.69-3.25,3-4.53
					C5.32,2.67,6.88,1.66,8.61,1c1.86-0.68,3.82-1.01,5.8-0.99c3.91,0,7.02,1.2,9.23,3.58c2.28,2.55,3.48,5.89,3.34,9.31
					c0,0.61-0.27,1.19-0.72,1.59c-0.46,0.45-1.08,0.7-1.72,0.69H7.24c0.12,2.12,1.1,4.09,2.73,5.46c1.63,1.32,3.68,2.02,5.78,1.97
					c2.16-0.02,4.27-0.62,6.12-1.75c0.43-0.21,0.9-0.33,1.38-0.34c0.74,0.01,1.41,0.43,1.74,1.09l0.67,1.06
					c0.65,0.86,0.49,2.08-0.37,2.73c-0.13,0.1-0.26,0.18-0.41,0.24C21.97,27.42,18.64,28.35,15.24,28.34z M14.24,5.11
					c-1.65-0.04-3.26,0.53-4.51,1.62C8.48,7.87,7.66,9.42,7.41,11.1h12.56c0.04-1.62-0.56-3.19-1.67-4.37
					C17.23,5.65,15.76,5.07,14.24,5.11L14.24,5.11z"/>
			</defs>
			<clipPath id="SVGID_16_">
				<use xlink:href="#SVGID_15_"  style="overflow:visible;"/>
			</clipPath>
			<g id="Group_24-2" class="st15">
				
					<linearGradient id="Fill_22_1_" gradientUnits="userSpaceOnUse" x1="8.4873" y1="-48.1573" x2="9.4873" y2="-48.1573" gradientTransform="matrix(26.9783 0 0 -28.328 -228.9667 -1350.0233)">
					<stop  offset="0" style="stop-color:#4D00EF"/>
					<stop  offset="1" style="stop-color:#4D00EF"/>
				</linearGradient>
				<path id="Fill_22" class="st16" d="M15.24,28.34c-2.1,0.03-4.2-0.32-6.18-1.03c-1.82-0.68-3.47-1.73-4.86-3.09
					c-1.35-1.3-2.42-2.85-3.15-4.57c-0.71-1.74-1.07-3.6-1.05-5.48c-0.02-1.94,0.31-3.87,1-5.68c0.67-1.7,1.69-3.25,3-4.53
					C5.32,2.67,6.88,1.66,8.61,1c1.86-0.68,3.82-1.01,5.8-0.99c3.91,0,7.02,1.2,9.23,3.58c2.28,2.55,3.48,5.89,3.34,9.31
					c0,0.61-0.27,1.19-0.72,1.59c-0.46,0.45-1.08,0.7-1.72,0.69H7.24c0.12,2.12,1.1,4.09,2.73,5.46c1.63,1.32,3.68,2.02,5.78,1.97
					c2.16-0.02,4.27-0.62,6.12-1.75c0.43-0.21,0.9-0.33,1.38-0.34c0.74,0.01,1.41,0.43,1.74,1.09l0.67,1.06
					c0.65,0.86,0.49,2.08-0.37,2.73c-0.13,0.1-0.26,0.18-0.41,0.24C21.97,27.42,18.64,28.35,15.24,28.34z M14.24,5.11
					c-1.65-0.04-3.26,0.53-4.51,1.62C8.48,7.87,7.66,9.42,7.41,11.1h12.56c0.04-1.62-0.56-3.19-1.67-4.37
					C17.23,5.65,15.76,5.07,14.24,5.11L14.24,5.11z"/>
			</g>
		</g>
	</g>
	<g id="Group_27" transform="translate(153 22.998)">
		<path id="Clip_26-2" class="st0" d="M15.25,28.34c-2.1,0.03-4.18-0.32-6.15-1.03c-1.81-0.68-3.46-1.73-4.84-3.09
			c-1.34-1.3-2.41-2.85-3.13-4.57c-0.71-1.74-1.06-3.6-1.04-5.48c-0.02-1.94,0.32-3.87,1-5.68c0.67-1.7,1.68-3.25,2.99-4.53
			C5.37,2.67,6.93,1.66,8.65,1c1.85-0.68,3.8-1.01,5.77-0.99c3.89,0,6.99,1.2,9.19,3.58c2.27,2.56,3.46,5.89,3.32,9.31
			c0,0.61-0.27,1.19-0.72,1.59c-0.46,0.45-1.07,0.7-1.72,0.69H7.29c0.12,2.12,1.1,4.09,2.71,5.46c1.62,1.32,3.66,2.02,5.75,1.97
			c2.15-0.02,4.26-0.62,6.09-1.75c0.43-0.21,0.89-0.33,1.37-0.34c0.74,0.01,1.4,0.43,1.73,1.09l0.66,1.06
			c0.65,0.86,0.49,2.08-0.37,2.74c-0.12,0.09-0.26,0.17-0.4,0.24C21.95,27.42,18.64,28.35,15.25,28.34z M14.25,5.11
			c-1.64-0.04-3.24,0.54-4.48,1.62C8.52,7.88,7.7,9.42,7.45,11.1h12.51C20,9.48,19.41,7.91,18.3,6.73
			C17.23,5.65,15.77,5.07,14.25,5.11L14.25,5.11z"/>
		<g>
			<defs>
				<path id="SVGID_17_" d="M15.25,28.34c-2.1,0.03-4.18-0.32-6.15-1.03c-1.81-0.68-3.46-1.73-4.84-3.09
					c-1.34-1.3-2.41-2.85-3.13-4.57c-0.71-1.74-1.06-3.6-1.04-5.48c-0.02-1.94,0.32-3.87,1-5.68c0.67-1.7,1.68-3.25,2.99-4.53
					C5.37,2.67,6.93,1.66,8.65,1c1.85-0.68,3.8-1.01,5.77-0.99c3.89,0,6.99,1.2,9.19,3.58c2.27,2.56,3.46,5.89,3.32,9.31
					c0,0.61-0.27,1.19-0.72,1.59c-0.46,0.45-1.07,0.7-1.72,0.69H7.29c0.12,2.12,1.1,4.09,2.71,5.46c1.62,1.32,3.66,2.02,5.75,1.97
					c2.15-0.02,4.26-0.62,6.09-1.75c0.43-0.21,0.89-0.33,1.37-0.34c0.74,0.01,1.4,0.43,1.73,1.09l0.66,1.06
					c0.65,0.86,0.49,2.08-0.37,2.74c-0.12,0.09-0.26,0.17-0.4,0.24C21.95,27.42,18.64,28.35,15.25,28.34z M14.25,5.11
					c-1.64-0.04-3.24,0.54-4.48,1.62C8.52,7.88,7.7,9.42,7.45,11.1h12.51C20,9.48,19.41,7.91,18.3,6.73
					C17.23,5.65,15.77,5.07,14.25,5.11L14.25,5.11z"/>
			</defs>
			<clipPath id="SVGID_18_">
				<use xlink:href="#SVGID_17_"  style="overflow:visible;"/>
			</clipPath>
			<g id="Group_27-2" class="st17">
				
					<linearGradient id="Fill_25_1_" gradientUnits="userSpaceOnUse" x1="-19.4848" y1="-48.1573" x2="-18.4848" y2="-48.1573" gradientTransform="matrix(26.8602 0 0 -28.328 523.4516 -1350.0217)">
					<stop  offset="0" style="stop-color:#4D00EF"/>
					<stop  offset="1" style="stop-color:#4D00EF"/>
				</linearGradient>
				<path id="Fill_25" class="st18" d="M15.25,28.34c-2.1,0.03-4.18-0.32-6.15-1.03c-1.81-0.68-3.46-1.73-4.84-3.09
					c-1.34-1.3-2.41-2.85-3.13-4.57c-0.71-1.74-1.06-3.6-1.04-5.48c-0.02-1.94,0.32-3.87,1-5.68c0.67-1.7,1.68-3.25,2.99-4.53
					C5.37,2.67,6.93,1.66,8.65,1c1.85-0.68,3.8-1.01,5.77-0.99c3.89,0,6.99,1.2,9.19,3.58c2.27,2.56,3.46,5.89,3.32,9.31
					c0,0.61-0.27,1.19-0.72,1.59c-0.46,0.45-1.07,0.7-1.72,0.69H7.29c0.12,2.12,1.1,4.09,2.71,5.46c1.62,1.32,3.66,2.02,5.75,1.97
					c2.15-0.02,4.26-0.62,6.09-1.75c0.43-0.21,0.89-0.33,1.37-0.34c0.74,0.01,1.4,0.43,1.73,1.09l0.66,1.06
					c0.65,0.86,0.49,2.08-0.37,2.74c-0.12,0.09-0.26,0.17-0.4,0.24C21.95,27.42,18.64,28.35,15.25,28.34z M14.25,5.11
					c-1.64-0.04-3.24,0.54-4.48,1.62C8.52,7.88,7.7,9.42,7.45,11.1h12.51C20,9.48,19.41,7.91,18.3,6.73
					C17.23,5.65,15.77,5.07,14.25,5.11L14.25,5.11z"/>
			</g>
		</g>
	</g>
	<g id="Group_30" transform="translate(244 14.998)">
		<path id="Clip_29-2" class="st0" d="M2.32,0C1.25-0.16,0.26,0.57,0.1,1.64C0.07,1.82,0.07,2,0.09,2.19l0,0v32.62
			c-0.14,1.07,0.6,2.05,1.67,2.19c0.18,0.02,0.37,0.02,0.55,0h2.28c1.07,0.16,2.06-0.57,2.22-1.64c0.03-0.18,0.03-0.37,0-0.55l0,0
			v-9.43h3.49l6.3,10.11c0.49,0.96,1.5,1.55,2.59,1.51h2.86c0.67,0.1,1.34-0.18,1.75-0.73l0,0c0.27-0.63,0.17-1.35-0.26-1.88l0,0
			l-7.94-11.99v-0.1l6.72-9.28c0.46-0.49,0.59-1.2,0.34-1.82l0,0c-0.37-0.58-1.04-0.88-1.72-0.78H18.4
			c-1.08-0.04-2.1,0.52-2.65,1.46l0,0l-5.61,7.91H6.81V2.19C6.96,1.12,6.21,0.14,5.14,0C4.96-0.03,4.78-0.03,4.59,0H2.32z"/>
		<g>
			<defs>
				<path id="SVGID_19_" d="M2.32,0C1.25-0.16,0.26,0.57,0.1,1.64C0.07,1.82,0.07,2,0.09,2.19l0,0v32.62
					c-0.14,1.07,0.6,2.05,1.67,2.19c0.18,0.02,0.37,0.02,0.55,0h2.28c1.07,0.16,2.06-0.57,2.22-1.64c0.03-0.18,0.03-0.37,0-0.55l0,0
					v-9.43h3.49l6.3,10.11c0.49,0.96,1.5,1.55,2.59,1.51h2.86c0.67,0.1,1.34-0.18,1.75-0.73l0,0c0.27-0.63,0.17-1.35-0.26-1.88l0,0
					l-7.94-11.99v-0.1l6.72-9.28c0.46-0.49,0.59-1.2,0.34-1.82l0,0c-0.37-0.58-1.04-0.88-1.72-0.78H18.4
					c-1.08-0.04-2.1,0.52-2.65,1.46l0,0l-5.61,7.91H6.81V2.19C6.96,1.12,6.21,0.14,5.14,0C4.96-0.03,4.78-0.03,4.59,0H2.32z"/>
			</defs>
			<clipPath id="SVGID_20_">
				<use xlink:href="#SVGID_19_"  style="overflow:visible;"/>
			</clipPath>
			<g id="Group_30-2" class="st19">
				
					<linearGradient id="Fill_28_1_" gradientUnits="userSpaceOnUse" x1="-109.688" y1="-36.7184" x2="-108.688" y2="-36.7184" gradientTransform="matrix(23.8697 0 0 -37.0439 2618.2922 -1341.6929)">
					<stop  offset="0" style="stop-color:#ED00A3"/>
					<stop  offset="1" style="stop-color:#FF00BA"/>
				</linearGradient>
				<path id="Fill_28" class="st20" d="M2.32,0C1.25-0.16,0.26,0.57,0.1,1.64C0.07,1.82,0.07,2,0.09,2.19l0,0v32.62
					c-0.14,1.07,0.6,2.05,1.67,2.19c0.18,0.02,0.37,0.02,0.55,0h2.28c1.07,0.16,2.06-0.57,2.22-1.64c0.03-0.18,0.03-0.37,0-0.55l0,0
					v-9.43h3.49l6.3,10.11c0.49,0.96,1.5,1.55,2.59,1.51h2.86c0.67,0.1,1.34-0.18,1.75-0.73l0,0c0.27-0.63,0.17-1.35-0.26-1.88l0,0
					l-7.94-11.99v-0.1l6.72-9.28c0.46-0.49,0.59-1.2,0.34-1.82l0,0c-0.37-0.58-1.04-0.88-1.72-0.78H18.4
					c-1.08-0.04-2.1,0.52-2.65,1.46l0,0l-5.61,7.91H6.81V2.19C6.96,1.12,6.21,0.14,5.14,0C4.96-0.03,4.78-0.03,4.59,0H2.32z"/>
			</g>
		</g>
	</g>
</g>
</svg>
