<svg id="Meedok-Doctores" xmlns="http://www.w3.org/2000/svg" viewBox="0 0 16 16"><defs><style>.cls-1{fill:#edd1e6;}.cls-2{fill:#fc00b0;}</style></defs><rect class="cls-1" width="16" height="16"/><path class="cls-2" d="M8,3.94A1.49,1.49,0,1,1,6.51,5.43,1.49,1.49,0,0,1,8,3.94Z"/><path class="cls-2" d="M10.35,8.92a3.05,3.05,0,0,0-2.42-1.1,3.1,3.1,0,0,0-3,3.13v.91a.2.2,0,0,0,.21.2h1a.2.2,0,0,0,.2-.2v-.93A1.68,1.68,0,0,1,7.92,9.25a1.65,1.65,0,0,1,1.72,1.64v1a.2.2,0,0,0,.2.2h1a.2.2,0,0,0,.21-.2v-1A3,3,0,0,0,10.35,8.92Z"/></svg>