<svg id="Meedok-Doctores" xmlns="http://www.w3.org/2000/svg" viewBox="0 0 16 16"><defs><style>.cls-1{fill:#fff;}</style></defs><path class="cls-1" d="M6.19,11.41c-.52.57-.49,1,.06,1.36.24.14.18.31,0,.46s-.64.15-.85-.23a1.72,1.72,0,0,1,.21-1.86c.24-.32.65-.53.69-1,0-.22.1-.46-.21-.54s-.53-.13-.69.19a1.4,1.4,0,0,0-.09.17,7.68,7.68,0,0,1-1.21,2.47c-.25.35-.06.79,0,1.19.07.25.34.6-.06.73s-.36-.32-.46-.54A1.88,1.88,0,0,1,4,11.61c.11-.12.37-.3.14-.46s-.54-.3-.81,0a1.57,1.57,0,0,0-.27.55,2,2,0,0,1-.69,1c-.15.09-.31.13-.43,0s-.05-.29.08-.41a2.31,2.31,0,0,0,.57-1c.33-.83.72-1,1.58-.76.3.1.4,0,.42-.26a.64.64,0,0,1,.06-.18c.06-.24.37-.57.26-.65A1.91,1.91,0,0,0,3.9,9H2.72c-.17,0-.39,0-.42-.21s.19-.3.37-.33a3.17,3.17,0,0,1,2,.2A3.52,3.52,0,0,0,5.93,9c.12,0,.26.07.32-.1a.34.34,0,0,0-.14-.41A2.36,2.36,0,0,0,5,8.14a5.39,5.39,0,0,0-1.27,0c-.2,0-.45.07-.5-.21s.2-.31.41-.35a4.9,4.9,0,0,1,1.87,0c.13,0,.27.12.42,0A1.14,1.14,0,0,0,5,7.28a34.1,34.1,0,0,0-4.52,0l-.23,0A.28.28,0,0,1,0,7.05a.24.24,0,0,1,.23-.26c.3,0,.59-.09.89-.1l2.69,0a6.63,6.63,0,0,1,2.67.46,6,6,0,0,0,3.18.51,1.41,1.41,0,0,1,1.1.45,14.1,14.1,0,0,0,4.77,2.7c.16.06.37.1.32.33s-.28.24-.47.2a7.11,7.11,0,0,1-1.79-.71C13,10.33,12.5,10,12,9.67a2.09,2.09,0,0,0-1.48.12,1.48,1.48,0,0,0,.06,1.26A1.59,1.59,0,0,0,12,11.8a.93.93,0,0,1,.87.37c.12.14.19.32,0,.47s-.29.06-.41-.06a.5.5,0,0,0-.37-.19,2,2,0,0,1-1.56-.5c-.17-.16-.21,0-.24.13s-.11.5-.19.74-.05.68-.45.57-.17-.49-.1-.73a5.26,5.26,0,0,0,.21-2.33c0-.32-.15-.45-.47-.43H8.76c-.63,0-.71.1-.55.72a1.92,1.92,0,0,0,.72,1,1,1,0,0,1,.41,1.12c-.07.17-.17.32-.38.26a.27.27,0,0,1-.18-.38c.09-.31-.1-.48-.3-.64a2.09,2.09,0,0,1-.89-1.78c0-.26-.11-.38-.37-.37s-.32.12-.34.35-.07.53-.1.79a1.13,1.13,0,0,0,.31,1,2.76,2.76,0,0,1,.71,1.52c0,.2,0,.4-.25.43s-.29-.15-.31-.33a2.4,2.4,0,0,0-.64-1.29A3.24,3.24,0,0,1,6.19,11.41Z"/><path class="cls-1" d="M5.73,2.82a1,1,0,0,1,1.12-.65,1.19,1.19,0,0,1,.46.1,2.72,2.72,0,0,0,1.82.16.91.91,0,0,0,.56-.32,1.51,1.51,0,0,1,1-.5c.18,0,.37,0,.41.25s-.14.3-.33.31a.72.72,0,0,0-.57.33A.69.69,0,0,0,11,2.44c.16-.13.33-.22.48,0s0,.36-.17.47a1.29,1.29,0,0,1-1.21.22,3.3,3.3,0,0,0-1.68,0,.83.83,0,0,0-.51,1.12c.1.18.22.07.32,0a.76.76,0,0,1,.91.15.65.65,0,0,0,1.07-.1c.1-.13.17-.24.34-.13a.31.31,0,0,1,.13.41,1,1,0,0,1-1.06.62,2,2,0,0,1-.79-.29c-.35-.19-.63,0-.6.36a2.31,2.31,0,0,1-.05,1c0,.14,0,.19.15.25A1.32,1.32,0,0,0,10.25,6a5.81,5.81,0,0,0,.87-1.72A2.4,2.4,0,0,1,13.06,2.4a1.14,1.14,0,0,0,.55-.24.26.26,0,0,1,.42,0c.11.15,0,.3-.09.41a1.25,1.25,0,0,1-.75.37c-.9.11-1.26.75-1.54,1.48-.1.28-.17.56-.27.88a1.1,1.1,0,0,0,1.14-.72c.07-.19.14-.45.41-.35s.19.35.12.56a1.52,1.52,0,0,1-1.37,1.06c-.4.07-.81.09-1.06.51s-.1.37.18.4a1.49,1.49,0,0,0,.83-.15,25.3,25.3,0,0,0,3.81-2.26c.16-.12.32-.26.48-.06s0,.38-.16.51A16.6,16.6,0,0,1,13.62,6.2c-.38.23-.8.39-1.16.64-1.21.83-2.51.43-3.79.29a8.94,8.94,0,0,1-1.58-.47,14.11,14.11,0,0,0-5.37-.47l-.66,0C.89,6.22.74,6.15.74,6s.14-.28.31-.29a19.66,19.66,0,0,1,2.87-.08c.3,0,.6.06.9,0s.5.13.44-.21-.06-.63-.49-.62a1.25,1.25,0,0,1-1.21-.58c-.09-.16-.19-.32,0-.47s.31,0,.43.12a.8.8,0,0,0,.56.33C4.6,4,4.46,4,4.38,3.85a1.61,1.61,0,0,1-.35-1,.29.29,0,0,1,.25-.3.23.23,0,0,1,.29.23,2,2,0,0,0,.55,1.07A5.4,5.4,0,0,1,5.91,5.5c0,.17.11.37.34.28s.11-.27.06-.42a3.1,3.1,0,0,0-.53-1,1.8,1.8,0,0,1-.41-.74c-.08-.28-.06-.54.26-.66,0,0,.12.07.14.13C6.09,4,6.9,4.72,7,5.77a.39.39,0,0,0,.46.38c.26,0,.25-.24.26-.43a2.52,2.52,0,0,0-.19-1,1.84,1.84,0,0,1-.12-1.34c.17-.45-.07-.55-.42-.6a1.05,1.05,0,0,0-.61.06A.7.7,0,0,1,5.73,2.82Z"/><path class="cls-1" d="M15.45,10.29A5.24,5.24,0,0,1,12,8.22c-.27-.32,0-.52.25-.67a7,7,0,0,1,2.13-.76c.21,0,.43-.08.65-.11s.38,0,.41.21-.14.3-.33.33a11.54,11.54,0,0,0-1.73.44c-.27.08-.66.09-.72.37s.31.39.5.56a4.17,4.17,0,0,0,2.4,1.13c.2,0,.45,0,.41.33S15.66,10.29,15.45,10.29Z"/></svg>