<?xml version="1.0" encoding="utf-8"?>
<!-- Generator: Adobe Illustrator 24.2.1, SVG Export Plug-In . SVG Version: 6.00 Build 0)  -->
<svg version="1.1" id="Meedok-Doctores" xmlns="http://www.w3.org/2000/svg" xmlns:xlink="http://www.w3.org/1999/xlink" x="0px"
	 y="0px" viewBox="0 0 16 16" style="enable-background:new 0 0 16 16;" xml:space="preserve">
<style type="text/css">
	.st0{fill:#EDD1E6;}
	.st1{fill:#B5C9E5;}
	.st2{fill:#FFFFFF;}
	.st3{fill:url(#SVGID_1_);}
	.st4{fill:url(#SVGID_2_);}
	.st5{fill:url(#SVGID_3_);}
	.st6{fill:url(#SVGID_4_);}
	.st7{fill:url(#SVGID_5_);}
	.st8{fill:url(#SVGID_6_);}
	.st9{fill:url(#SVGID_7_);}
	.st10{fill:url(#SVGID_8_);}
	.st11{fill:url(#SVGID_9_);}
	.st12{fill:url(#SVGID_10_);}
	.st13{opacity:0.7;fill:#FFFFFF;}
	.st14{fill-rule:evenodd;clip-rule:evenodd;fill:#FFFFFF;}
	.st15{fill:#4A4C74;}
	.st16{fill:#4A4C78;}
	.st17{fill:#686A74;}
	.st18{fill:none;stroke:#FFFFFF;stroke-width:0.8558;stroke-linecap:round;stroke-linejoin:round;stroke-miterlimit:10;}
	.st19{fill:url(#SVGID_11_);}
	.st20{fill:url(#SVGID_12_);}
	.st21{fill:#FC00B0;}
	.st22{fill:url(#Fill_1_15_);}
	.st23{fill:url(#Fill_4_5_);}
	.st24{fill:url(#Fill_7_2_);}
	.st25{fill:#4E00EF;}
	.st26{opacity:0.7;fill:#4E00EF;}
	.st27{fill:url(#SVGID_13_);}
	.st28{fill:url(#SVGID_14_);}
	.st29{fill:url(#SVGID_15_);}
	.st30{fill:url(#SVGID_16_);}
	.st31{fill:url(#SVGID_17_);}
	.st32{fill:url(#SVGID_18_);}
	.st33{fill:url(#SVGID_19_);}
	.st34{fill:url(#SVGID_20_);}
	.st35{fill:url(#SVGID_21_);}
	.st36{fill:url(#SVGID_22_);}
	.st37{fill:#343434;}
	.st38{fill:url(#SVGID_23_);}
	.st39{fill:url(#SVGID_24_);}
	.st40{fill:url(#SVGID_25_);}
	.st41{fill:url(#SVGID_26_);}
	.st42{fill:url(#SVGID_27_);}
	.st43{fill:url(#SVGID_28_);}
	.st44{fill:url(#SVGID_29_);}
	.st45{fill:url(#SVGID_30_);}
	.st46{fill:url(#SVGID_31_);}
	.st47{fill:url(#SVGID_32_);}
	.st48{fill:url(#Fill_9_1_);}
	.st49{fill:url(#SVGID_33_);}
	.st50{fill:url(#SVGID_34_);}
	.st51{fill:url(#SVGID_35_);}
	.st52{fill:url(#SVGID_36_);}
	.st53{fill:url(#SVGID_37_);}
	.st54{fill:url(#SVGID_38_);}
	.st55{fill:url(#SVGID_39_);}
	.st56{fill:url(#SVGID_40_);}
	.st57{fill:none;}
	.st58{clip-path:url(#SVGID_42_);}
	.st59{fill:url(#Fill_1_16_);}
	.st60{fill:#4285F4;}
	.st61{fill:#34A853;}
	.st62{fill:#FBBC05;}
	.st63{fill:#EB4335;}
	.st64{fill-rule:evenodd;clip-rule:evenodd;fill:url(#SVGID_43_);}
	.st65{clip-path:url(#SVGID_45_);fill:#4E00E2;}
	.st66{clip-path:url(#SVGID_47_);fill:#4E00E2;}
	.st67{fill:url(#SVGID_48_);}
	.st68{fill:url(#SVGID_49_);}
	.st69{fill:url(#SVGID_50_);}
	.st70{fill:url(#SVGID_51_);}
	.st71{fill:url(#SVGID_52_);}
	.st72{fill:url(#SVGID_53_);}
</style>
<g>
	<linearGradient id="SVGID_1_" gradientUnits="userSpaceOnUse" x1="-1.818989e-12" y1="8" x2="16" y2="8">
		<stop  offset="0" style="stop-color:#4E00E2"/>
		<stop  offset="1" style="stop-color:#4E00E2"/>
	</linearGradient>
	<path class="st3" d="M7.5,1.04V0.52c0-0.27,0.23-0.5,0.5-0.5c0.27,0,0.5,0.23,0.5,0.5v0.52c2.01,0.12,3.81,0.99,5.14,2.32
		C15.09,4.81,16,6.82,16,9.02c0,0.27-0.23,0.5-0.5,0.5c-0.14,0-0.25-0.06-0.33-0.14c-1.28-1.18-3.07-1.22-4.33-0.02
		c-0.19,0.19-0.48,0.19-0.68,0.02C9.84,9.08,9.49,8.87,9.14,8.71C8.93,8.64,8.71,8.58,8.5,8.54v5.49c0,1.06-0.89,1.95-1.95,1.95
		c-1.08,0-1.95-0.89-1.95-1.95c0-0.29,0.21-0.5,0.5-0.5c0.27,0,0.48,0.21,0.48,0.5c0,0.52,0.44,0.95,0.97,0.95s0.95-0.43,0.95-0.95
		V8.54c-0.21,0.04-0.43,0.1-0.64,0.17c-0.35,0.15-0.7,0.37-1.02,0.68c-0.19,0.17-0.5,0.17-0.7-0.02c-1.26-1.2-3.05-1.14-4.31,0.02
		C0.5,9.7,0,9.43,0,8.99C0,6.8,0.91,4.81,2.36,3.36C3.69,2.03,5.49,1.16,7.5,1.04z M12.95,4.08C11.67,2.8,9.93,2.03,8,2.03
		S4.33,2.8,3.05,4.08C2.01,5.12,1.29,6.47,1.06,8c1.45-0.79,3.15-0.66,4.44,0.37c1.53-1.16,3.46-1.16,4.99,0
		c1.29-1.02,3-1.16,4.44-0.37C14.71,6.47,13.99,5.12,12.95,4.08z"/>
</g>
</svg>
