<?xml version="1.0" encoding="utf-8"?>
<!-- Generator: Adobe Illustrator 24.2.1, SVG Export Plug-In . SVG Version: 6.00 Build 0)  -->
<svg version="1.1" id="Meedok-Doctores" xmlns="http://www.w3.org/2000/svg" xmlns:xlink="http://www.w3.org/1999/xlink" x="0px"
	 y="0px" viewBox="0 0 16 16" style="enable-background:new 0 0 16 16;" xml:space="preserve">
<style type="text/css">
	.st0{fill:#EDD1E6;}
	.st1{fill:#B5C9E5;}
	.st2{fill:#FFFFFF;}
	.st3{fill:url(#SVGID_1_);}
	.st4{fill:url(#SVGID_2_);}
	.st5{fill:url(#SVGID_3_);}
	.st6{fill:url(#SVGID_4_);}
	.st7{fill:url(#SVGID_5_);}
	.st8{fill:url(#SVGID_6_);}
	.st9{fill:url(#SVGID_7_);}
	.st10{fill:url(#SVGID_8_);}
	.st11{fill:url(#SVGID_9_);}
	.st12{fill:url(#SVGID_10_);}
	.st13{opacity:0.7;fill:#FFFFFF;}
	.st14{fill-rule:evenodd;clip-rule:evenodd;fill:#FFFFFF;}
	.st15{fill:#4A4C74;}
	.st16{fill:#4A4C78;}
	.st17{fill:#686A74;}
	.st18{fill:none;stroke:#FFFFFF;stroke-width:0.8558;stroke-linecap:round;stroke-linejoin:round;stroke-miterlimit:10;}
	.st19{fill:url(#SVGID_11_);}
	.st20{fill:url(#SVGID_12_);}
	.st21{fill:#FC00B0;}
	.st22{fill:url(#Fill_1_15_);}
	.st23{fill:url(#Fill_4_5_);}
	.st24{fill:url(#Fill_7_2_);}
	.st25{fill:#4E00EF;}
	.st26{opacity:0.7;fill:#4E00EF;}
	.st27{fill:url(#SVGID_13_);}
	.st28{fill:url(#SVGID_14_);}
	.st29{fill:url(#SVGID_15_);}
	.st30{fill:url(#SVGID_16_);}
	.st31{fill:url(#SVGID_17_);}
	.st32{fill:url(#SVGID_18_);}
	.st33{fill:url(#SVGID_19_);}
	.st34{fill:url(#SVGID_20_);}
	.st35{fill:url(#SVGID_21_);}
	.st36{fill:url(#SVGID_22_);}
	.st37{fill:#343434;}
	.st38{fill:url(#SVGID_23_);}
	.st39{fill:url(#SVGID_24_);}
	.st40{fill:url(#SVGID_25_);}
	.st41{fill:url(#SVGID_26_);}
	.st42{fill:url(#SVGID_27_);}
	.st43{fill:url(#SVGID_28_);}
	.st44{fill:url(#SVGID_29_);}
	.st45{fill:url(#SVGID_30_);}
	.st46{fill:url(#SVGID_31_);}
	.st47{fill:url(#SVGID_32_);}
	.st48{fill:url(#Fill_9_1_);}
	.st49{fill:url(#SVGID_33_);}
	.st50{fill:url(#SVGID_34_);}
	.st51{fill:url(#SVGID_35_);}
	.st52{fill:url(#SVGID_36_);}
	.st53{fill:url(#SVGID_37_);}
	.st54{fill:url(#SVGID_38_);}
	.st55{fill:url(#SVGID_39_);}
	.st56{fill:url(#SVGID_40_);}
	.st57{fill:none;}
	.st58{clip-path:url(#SVGID_42_);}
	.st59{fill:url(#Fill_1_16_);}
	.st60{fill:#4285F4;}
	.st61{fill:#34A853;}
	.st62{fill:#FBBC05;}
	.st63{fill:#EB4335;}
	.st64{fill-rule:evenodd;clip-rule:evenodd;fill:url(#SVGID_43_);}
	.st65{clip-path:url(#SVGID_45_);fill:#4E00E2;}
	.st66{clip-path:url(#SVGID_47_);fill:#4E00E2;}
	.st67{fill:url(#SVGID_48_);}
	.st68{fill:url(#SVGID_49_);}
	.st69{fill:url(#SVGID_50_);}
	.st70{fill:url(#SVGID_51_);}
	.st71{fill:url(#SVGID_52_);}
	.st72{fill:url(#SVGID_53_);}
</style>
<g>
	<g>
		<g>
			<defs>
				<path id="SVGID_44_" d="M14.09,9.78c-0.15-0.1-0.35-0.07-0.46,0.08c-1.16,1.64-3.04,2.62-5.04,2.62c-3.4,0-6.17-2.77-6.17-6.17
					c0-2.48,1.48-4.71,3.77-5.68C6.36,0.56,6.44,0.37,6.37,0.2S6.1-0.04,5.94,0.03C3.41,1.1,1.77,3.56,1.77,6.31
					c0,3.65,2.88,6.64,6.49,6.81v2.22H6.41c-0.18,0-0.33,0.15-0.33,0.33c0,0.18,0.15,0.33,0.33,0.33h4.37
					c0.18,0,0.33-0.15,0.33-0.33c0-0.18-0.15-0.33-0.33-0.33H8.92v-2.23c2.09-0.1,4.03-1.16,5.25-2.88
					C14.27,10.09,14.24,9.89,14.09,9.78z"/>
			</defs>
			<clipPath id="SVGID_1_">
				<use xlink:href="#SVGID_44_"  style="overflow:visible;"/>
			</clipPath>
			<rect x="14.23" y="-0.04" style="clip-path:url(#SVGID_1_);fill:#4E00E2;" width="0.04" height="16.04"/>
		</g>
		<g>
			<g>
				<defs>
					<path id="SVGID_46_" d="M10.78,16.11H6.41c-0.24,0-0.44-0.2-0.44-0.44s0.2-0.44,0.44-0.44h1.75v-2.01
						C4.51,13,1.66,9.98,1.66,6.31c0-2.79,1.66-5.3,4.23-6.38c0.11-0.04,0.23-0.05,0.33,0c0.11,0.04,0.19,0.13,0.24,0.23
						c0.09,0.22-0.01,0.48-0.23,0.57c-2.25,0.95-3.7,3.14-3.7,5.58c0,3.34,2.72,6.06,6.06,6.06c1.97,0,3.82-0.96,4.95-2.57
						c0.14-0.2,0.41-0.24,0.61-0.1c0.2,0.14,0.24,0.41,0.11,0.61c-1.2,1.7-3.15,2.79-5.23,2.92v2.01h1.75c0.24,0,0.44,0.2,0.44,0.44
						S11.02,16.11,10.78,16.11z"/>
				</defs>
				<clipPath id="SVGID_2_">
					<use xlink:href="#SVGID_46_"  style="overflow:visible;"/>
				</clipPath>
				<rect x="1.88" y="0.1" style="clip-path:url(#SVGID_2_);fill:#4E00E2;" width="12.27" height="15.79"/>
				<rect x="1.66" y="-0.12" style="clip-path:url(#SVGID_2_);fill:#4E00E2;" width="12.67" height="16.23"/>
				<rect x="14.34" y="-0.12" style="clip-path:url(#SVGID_2_);fill:#4E00E2;" width="0.06" height="16.23"/>
			</g>
		</g>
	</g>
	<linearGradient id="SVGID_3_" gradientUnits="userSpaceOnUse" x1="3.9572" y1="6.3782" x2="13.2274" y2="6.3782">
		<stop  offset="0" style="stop-color:#DE0091"/>
		<stop  offset="1" style="stop-color:#FF00A8"/>
	</linearGradient>
	<path class="st5" d="M4.4,4.41C3.87,5.53,3.81,6.79,4.23,7.95C4.6,8.97,5.3,9.8,6.19,10.34c0.02,0.02,0.04,0.03,0.07,0.04
		c0.69,0.41,1.5,0.64,2.33,0.64c0.53,0,1.06-0.09,1.57-0.28c1.16-0.42,2.09-1.27,2.62-2.39c0.53-1.12,0.58-2.38,0.17-3.54
		C12.58,3.79,11.88,2.96,11,2.42c0,0,0,0,0,0c-0.02-0.02-0.05-0.03-0.07-0.04c-0.69-0.41-1.49-0.64-2.33-0.64
		c-0.53,0-1.06,0.09-1.57,0.28C5.86,2.44,4.93,3.29,4.4,4.41z M6.76,3.93c0.02-0.7,0.2-1.19,0.48-1.29
		c0.04-0.01,0.08-0.02,0.13-0.02c0.36,0,0.89,0.42,1.41,1.16C8.48,3.93,8.15,4.07,7.8,4.19c-0.34,0.12-0.69,0.22-1.02,0.3
		C6.77,4.3,6.76,4.11,6.76,3.93z M8.03,4.81c0.39-0.14,0.76-0.3,1.11-0.48C9.36,4.7,9.57,5.13,9.76,5.61L7.21,6.53
		C7.05,6.06,6.94,5.59,6.86,5.15C7.24,5.06,7.63,4.95,8.03,4.81z M12.43,5.34c0.19,0.7,0.19,1.43-0.01,2.12
		c-0.44-0.05-0.93-0.04-1.46,0.03C10.88,7.02,10.76,6.51,10.59,6L12.43,5.34z M10.32,7.61C9.94,7.7,9.55,7.81,9.16,7.95
		c-0.39,0.14-0.76,0.3-1.11,0.48C7.83,8.05,7.62,7.62,7.43,7.15l2.55-0.92C10.13,6.7,10.25,7.17,10.32,7.61z M10.42,8.83
		c-0.02,0.7-0.2,1.19-0.48,1.29c0,0,0,0,0,0c0,0,0,0,0,0c-0.35,0.13-0.95-0.3-1.54-1.14c0.31-0.16,0.64-0.3,0.98-0.42
		c0.34-0.12,0.69-0.22,1.02-0.3C10.42,8.46,10.43,8.65,10.42,8.83z M6.59,6.75L4.75,7.42C4.56,6.72,4.57,5.99,4.76,5.3
		c0.18,0.02,0.36,0.03,0.56,0.03c0.29,0,0.59-0.02,0.9-0.07C6.3,5.74,6.43,6.24,6.59,6.75z M4.97,8.03l1.84-0.66
		c0.2,0.51,0.42,0.97,0.66,1.39c-0.45,0.28-0.83,0.58-1.14,0.9C5.75,9.25,5.28,8.69,4.97,8.03z M6.93,9.99
		c0.25-0.24,0.55-0.47,0.9-0.68c0.3,0.44,0.62,0.79,0.94,1.04c-0.06,0-0.11,0.01-0.17,0.01C8.01,10.36,7.44,10.23,6.93,9.99z
		 M11,9.55c0.04-0.21,0.07-0.45,0.08-0.7c0.01-0.22,0-0.46-0.02-0.7c0.4-0.06,0.79-0.07,1.13-0.05C11.9,8.68,11.5,9.17,11,9.55z
		 M12.21,4.73l-1.84,0.66C10.17,4.88,9.95,4.42,9.71,4c0.45-0.28,0.83-0.58,1.14-0.9C11.43,3.51,11.91,4.06,12.21,4.73z M10.26,2.77
		c-0.25,0.24-0.55,0.47-0.9,0.68c-0.3-0.44-0.62-0.79-0.94-1.04c0.06,0,0.11-0.01,0.17-0.01C9.18,2.4,9.74,2.53,10.26,2.77z
		 M6.19,3.21c-0.04,0.21-0.07,0.45-0.08,0.7c-0.01,0.22,0,0.46,0.02,0.7C5.73,4.67,5.35,4.68,5,4.66C5.28,4.08,5.69,3.59,6.19,3.21z
		"/>
</g>
</svg>
