<?xml version="1.0" encoding="utf-8"?>
<svg xmlns="http://www.w3.org/2000/svg" viewBox="0 0 24 24" fill="#596269"><path d="M 7 1.78125 C 6.625 1.789063 6.246094 1.863281 6 2 C 5.253906 2.410156 4.433594 4.128906 0 5 C 0 5 0.292969 5.582031 1 6 C 2.179688 6.695313 4 7 7 7 C 7.0625 6.949219 8.28125 6.007813 9.28125 6.25 C 9.105469 5.867188 9 5.445313 9 5 C 9 4.800781 9.015625 4.144531 9 4 C 8.910156 3.0625 8.589844 2.386719 8 2 C 7.742188 1.828125 7.375 1.773438 7 1.78125 Z M 17 1.78125 C 16.625 1.773438 16.257813 1.828125 16 2 C 15.410156 2.386719 15.089844 3.0625 15 4 C 14.984375 4.144531 15 4.800781 15 5 C 15 5.445313 14.894531 5.867188 14.71875 6.25 C 15.71875 6.007813 16.9375 6.949219 17 7 C 20 7 21.820313 6.695313 23 6 C 23.707031 5.582031 24 5 24 5 C 19.566406 4.128906 18.746094 2.410156 18 2 C 17.753906 1.863281 17.375 1.789063 17 1.78125 Z M 11.96875 3 C 10.878906 3.015625 10 3.90625 10 5 C 10 5.691406 10.339844 6.296875 10.875 6.65625 C 10.867188 6.917969 11.0625 9.875 11.0625 9.875 L 12 10 L 12.9375 9.875 C 12.9375 9.875 13.109375 6.988281 13.125 6.65625 C 13.796875 6.203125 14.179688 5.347656 13.9375 4.4375 C 13.753906 3.742188 13.140625 3.214844 12.4375 3.0625 C 12.273438 3.027344 12.125 2.996094 11.96875 3 Z M 8.96875 7.1875 C 8.59375 7.214844 8.175781 7.371094 7.78125 7.71875 C 7.296875 8.144531 6.628906 9.128906 7.25 10.78125 C 7.507813 11.464844 8.300781 11.847656 9.25 12.09375 C 8.976563 12.339844 8.75 12.625 8.65625 13 C 8.375 14.136719 9.335938 14.828125 10.46875 15.34375 C 9.796875 15.820313 9.335938 16.492188 9.5 17.46875 C 9.617188 18.167969 10.183594 18.472656 10.8125 18.6875 C 10.507813 18.917969 10.289063 19.242188 10.25 19.71875 C 10.210938 20.621094 10.707031 20.917969 10.90625 21.03125 C 10.910156 21.03125 10.902344 21.0625 10.90625 21.0625 C 11.039063 21.136719 11.195313 21.167969 11.34375 21.21875 C 11.195313 21.398438 11.117188 21.648438 11.21875 22 C 11.109375 21.644531 11.511719 21.527344 12.03125 21.40625 C 12.542969 21.527344 12.953125 21.648438 12.84375 22 C 13.125 21.039063 12.179688 20.867188 11.5625 20.5625 C 11.5625 20.5625 11.53125 20.5625 11.53125 20.5625 C 11.378906 20.488281 10.992188 20.316406 11.03125 19.8125 C 11.054688 19.5 11.5 19.238281 12.03125 19.0625 C 12.558594 19.234375 12.964844 19.457031 13 19.9375 C 13.019531 20.214844 12.636719 20.507813 12.53125 20.5625 C 12.777344 20.691406 13.011719 20.828125 13.15625 21.03125 C 13.175781 21.019531 13.902344 20.582031 13.84375 19.71875 C 13.707031 17.683594 10.320313 18.535156 10.5 16.84375 C 10.53125 16.53125 11.195313 16.269531 12.03125 15.96875 C 12.878906 16.269531 13.5625 16.535156 13.59375 16.84375 C 13.644531 17.300781 13.429688 17.554688 13.09375 17.75 C 13.460938 17.882813 13.8125 18.058594 14.0625 18.3125 C 14.320313 18.113281 14.5 17.84375 14.5625 17.46875 C 14.75 16.363281 14.308594 15.921875 13.3125 15.3125 C 12.347656 14.722656 9.800781 13.96875 9.78125 13.53125 C 9.753906 13.003906 10.707031 12.699219 11.90625 12.5 C 13.175781 12.648438 14.214844 12.785156 14.25 13.25 C 14.28125 13.664063 13.445313 14.195313 12.6875 14.34375 C 13.164063 14.527344 13.773438 14.847656 14.0625 15.09375 C 14.976563 14.597656 15.589844 13.988281 15.34375 13 C 14.695313 10.398438 9.003906 11.183594 8.40625 10.15625 C 7.925781 9.332031 8.945313 9.191406 9.46875 9 C 9.988281 8.808594 10.367188 8.425781 10.1875 7.8125 C 10.082031 7.453125 9.59375 7.144531 8.96875 7.1875 Z M 15.03125 7.1875 C 14.394531 7.140625 13.917969 7.453125 13.8125 7.8125 C 13.632813 8.425781 14.011719 8.808594 14.53125 9 C 15.050781 9.191406 16.105469 9.332031 15.625 10.15625 C 15.433594 10.480469 14.742188 10.621094 13.84375 10.75 C 14.59375 10.972656 15.234375 11.300781 15.625 11.8125 C 16.199219 11.574219 16.632813 11.226563 16.8125 10.75 C 17.433594 9.097656 16.785156 8.109375 16.28125 7.71875 C 15.84375 7.378906 15.414063 7.214844 15.03125 7.1875 Z" fill="#596269"/></svg>
