<svg id="Meedok-Doctores" xmlns="http://www.w3.org/2000/svg" viewBox="0 0 16 16"><defs><style>.cls-1{fill:#fff;}</style></defs><path class="cls-1" d="M13.42,1.15H11.86V.46A.45.45,0,0,0,11.41,0,.46.46,0,0,0,11,.46V2.84a.87.87,0,0,0-.45.77.91.91,0,0,0,1.82,0,.87.87,0,0,0-.46-.77V2.06h1.56a1.69,1.69,0,0,1,1.69,1.69v1.4H.89V3.75A1.69,1.69,0,0,1,2.58,2.06h.8V1.15h-.8A2.6,2.6,0,0,0,0,3.75V13.4A2.6,2.6,0,0,0,2.58,16H13.42A2.6,2.6,0,0,0,16,13.4V3.75A2.6,2.6,0,0,0,13.42,1.15ZM15.11,13.4a1.68,1.68,0,0,1-1.69,1.69H2.58A1.69,1.69,0,0,1,.89,13.4V6.06H15.12V13.4Z"/><path class="cls-1" d="M3.71,9.81h.76a1,1,0,1,0,0-2H3.71a1,1,0,0,0-1,1A1,1,0,0,0,3.71,9.81Z"/><path class="cls-1" d="M7.63,9.81h.76a1,1,0,0,0,0-2H7.63a1,1,0,1,0,0,2Z"/><path class="cls-1" d="M11.54,9.81h.76a1,1,0,0,0,0-2h-.76a1,1,0,0,0,0,2Z"/><path class="cls-1" d="M3.71,13.27h.76a1,1,0,0,0,0-2H3.71a1,1,0,0,0-1,1A1,1,0,0,0,3.71,13.27Z"/><path class="cls-1" d="M7.63,13.27h.76a1,1,0,0,0,0-2H7.63a1,1,0,1,0,0,2Z"/><path class="cls-1" d="M11.54,13.27h.76a1,1,0,0,0,0-2h-.76a1,1,0,0,0,0,2Z"/><path class="cls-1" d="M4.59,4.51a.91.91,0,0,0,.46-1.69V2h5.16V1.15H5.05V.46A.46.46,0,0,0,4.59,0a.45.45,0,0,0-.45.46V2.84a.86.86,0,0,0-.46.77A.9.9,0,0,0,4.59,4.51Z"/></svg>