<svg id="Meedok-Doctores" xmlns="http://www.w3.org/2000/svg" viewBox="0 0 16 16"><defs><style>.cls-1{fill:#fff;}</style></defs><path class="cls-1" d="M11.36,13.25l.82-3,.18.68a.23.23,0,0,0,.24.18h3.15A.25.25,0,0,0,16,10.9a.26.26,0,0,0-.25-.26h-3l-.37-1.37a.25.25,0,0,0-.31-.17.23.23,0,0,0-.17.17l-.78,2.83-.83-4.18a.24.24,0,0,0-.27-.2.24.24,0,0,0-.22.2l-.55,2.87H6.05a.26.26,0,0,0-.18.07A.28.28,0,0,0,5.8,11a.24.24,0,0,0,.07.18.25.25,0,0,0,.17.08H7.65l0,.13a7.4,7.4,0,0,0-.08.75A1.46,1.46,0,0,1,7,13.42a1.81,1.81,0,0,1-1.24.22A6.48,6.48,0,0,1,2.5,12.7c-1.25-.8-2-1.69-2-2.52A5.45,5.45,0,0,1,1,7.63l.12-.28a5.93,5.93,0,0,0,.57-2.06A3.16,3.16,0,0,0,1.49,3.9a2,2,0,0,0-1-1.12.27.27,0,0,0-.12,0h0a.26.26,0,0,0-.17.09.26.26,0,0,0,.08.38A1.53,1.53,0,0,1,1,4.08a2.81,2.81,0,0,1,.14,1.18A5.59,5.59,0,0,1,.64,7.17l-.12.27A6.12,6.12,0,0,0,0,10.21c0,1,.8,2,2.23,2.91a7.1,7.1,0,0,0,3.48,1,2.32,2.32,0,0,0,1.58-.31A2,2,0,0,0,8,12.2a7.64,7.64,0,0,1,.1-.82v-.09H9.5a.25.25,0,0,0,.24-.21l.35-1.81.79,4a.21.21,0,0,0,.1.16.23.23,0,0,0,.18,0A.23.23,0,0,0,11.36,13.25Z"/><path class="cls-1" d="M2.31,2.57a.24.24,0,0,0,0,.08l.45,1.14,0,0a1.52,1.52,0,0,0-.37,1,1.45,1.45,0,0,0,.38,1,.25.25,0,0,0,.35,0,.25.25,0,0,0,0-.36.89.89,0,0,1-.25-.59A1,1,0,0,1,3.29,4a1.94,1.94,0,0,1,1-.34,2,2,0,0,1,1.87.89l0,.07-.05.06a3.18,3.18,0,0,0-.66,1.26l0,.09h0a2.15,2.15,0,0,1-1,1.28,5.22,5.22,0,0,1-.91.24,5.44,5.44,0,0,0-.63.13.26.26,0,0,0-.18.3.24.24,0,0,0,.3.18l.53-.1a4.44,4.44,0,0,0,1.09-.3A2.59,2.59,0,0,0,6,6.12l0,0A2.64,2.64,0,0,1,7.83,4.19.25.25,0,0,0,8,3.89a.26.26,0,0,0-.27-.2h0a3.24,3.24,0,0,0-1,.48l-.1.07-.07-.1a1.66,1.66,0,0,0-.31-.35l-.08-.07.44-.64a.25.25,0,0,0-.06-.35.27.27,0,0,0-.15-.05.26.26,0,0,0-.21.12l-.43.65-.09,0a3,3,0,0,0-.78-.23h-.1V2.1a.26.26,0,0,0-.25-.26h0a.26.26,0,0,0-.22.26v1H4.16a2.68,2.68,0,0,0-.86.25l-.11.06-.4-1a.24.24,0,0,0-.25-.16.21.21,0,0,0-.17.08A.3.3,0,0,0,2.31,2.57Z"/><path class="cls-1" d="M7.13,5.93a.25.25,0,0,0-.22-.08.2.2,0,0,0-.16.09.26.26,0,0,0,0,.19.31.31,0,0,0,.06.13L7.89,7.53a1.66,1.66,0,0,1,.48,1,2.87,2.87,0,0,1-.2,1.05.25.25,0,0,0,0,.19.25.25,0,0,0,.14.13.25.25,0,0,0,.19,0,.25.25,0,0,0,.13-.14A3.23,3.23,0,0,0,8.87,8.5a2.26,2.26,0,0,0-.61-1.3Z"/></svg>