<svg id="Meedok-Doctores" xmlns="http://www.w3.org/2000/svg" viewBox="0 0 16 16"><defs><style>.cls-1{fill:#fff;}</style></defs><path class="cls-1" d="M.24,8.72A.22.22,0,0,1,0,8.6a.24.24,0,0,1,.1-.33,10.08,10.08,0,0,0,2.1-1.61A5,5,0,0,1,5,5c1.41-.31,1.78-.66,1.81-1.74,0-.2,0-.49,0-.49l.47,0a5,5,0,0,1,0,.54c0,1.46-.77,1.89-2.19,2.2A4.54,4.54,0,0,0,2.57,7,11,11,0,0,1,.35,8.7.22.22,0,0,1,.24,8.72Z"/><path class="cls-1" d="M8.73,4A2.36,2.36,0,0,1,7.3,3.48a3.68,3.68,0,0,1-1-1.74l-.07-.22a.24.24,0,0,1,.14-.31.25.25,0,0,1,.31.15l.08.23a3.22,3.22,0,0,0,.8,1.52,1.52,1.52,0,0,0,2,.08,2.92,2.92,0,0,0,.75-1.76.24.24,0,1,1,.48,0,3.43,3.43,0,0,1-.91,2.09A1.63,1.63,0,0,1,8.73,4Z"/><path class="cls-1" d="M15.76,5.14h0a8.75,8.75,0,0,1-2.15-.69l-.23-.11a2.3,2.3,0,0,0-1.81.07l-.23.1c-.47.2-.84.35-1.18,0a2.51,2.51,0,0,1-.46-1.34A.24.24,0,0,1,9.87,3a.24.24,0,0,1,.26.21,2.49,2.49,0,0,0,.3,1c.11.1.24.06.68-.13l.25-.1a2.66,2.66,0,0,1,2.17-.06l.24.1a8.11,8.11,0,0,0,2,.66.24.24,0,0,1-.05.47Z"/><path class="cls-1" d="M8.09,14.8a.23.23,0,0,1-.23-.21,7.24,7.24,0,0,0-.43-1.87,8.19,8.19,0,0,0-1.49-2.23c-.84-1-1.05-1-1.39-1A2.24,2.24,0,0,0,3.32,10,.24.24,0,0,1,3,9.66,2.46,2.46,0,0,1,4.59,9c.51,0,.83.17,1.71,1.18a8.79,8.79,0,0,1,1.57,2.36,7.71,7.71,0,0,1,.46,2,.24.24,0,0,1-.21.27Z"/><path class="cls-1" d="M10.49,12.65a2.82,2.82,0,0,1-1.14-.26A5.06,5.06,0,0,1,7.17,9.73L7,9.35A2.75,2.75,0,0,0,4.5,8.05a.24.24,0,0,1-.22-.26.24.24,0,0,1,.25-.22A3.15,3.15,0,0,1,7.4,9.13l.2.4a4.65,4.65,0,0,0,2,2.42,1.82,1.82,0,0,0,1.68,0A1.53,1.53,0,0,0,12,10.75a.24.24,0,0,1,.27-.21.24.24,0,0,1,.21.26,2.06,2.06,0,0,1-1,1.61A2,2,0,0,1,10.49,12.65Z"/><path class="cls-1" d="M13.81,14.25a.24.24,0,0,1-.24-.22,10.66,10.66,0,0,1,.22-2.61.29.29,0,0,1,.08-.13,2.71,2.71,0,0,0,.59-.74c.19-.33.19-.57-.51-1.39l-.24-.26c-.62-.69-1.4-1.54-.27-2.84a.25.25,0,0,1,.34,0,.24.24,0,0,1,0,.34c-.85,1-.36,1.52.26,2.21l.25.27c.66.77.93,1.28.57,1.93a3.24,3.24,0,0,1-.64.82,10.39,10.39,0,0,0-.19,2.4.25.25,0,0,1-.23.25Z"/><circle class="cls-1" cx="14.35" cy="9.88" r="0.35"/><circle class="cls-1" cx="10.4" cy="10.84" r="0.35"/></svg>