<svg id="Meedok-Doctores" xmlns="http://www.w3.org/2000/svg" viewBox="0 0 16 16"><defs><style>.cls-1{fill:#fff;}</style></defs><g id="configuracion"><path id="Fill_1" data-name="Fill 1" class="cls-1" d="M7.1,16h0a.9.9,0,0,1-.9-.88l0-.74a1,1,0,0,0-.46-.77l-1.44-.83a.83.83,0,0,0-.46-.11.8.8,0,0,0-.43.1l-.66.35a.88.88,0,0,1-.42.11.9.9,0,0,1-.79-.45l-.9-1.56A.91.91,0,0,1,.93,10l.64-.39A1.05,1.05,0,0,0,2,8.83V7.17a1,1,0,0,0-.44-.78L.93,6A.91.91,0,0,1,.62,4.78l.9-1.56a.91.91,0,0,1,1.21-.34l.66.35a.91.91,0,0,0,.43.1.92.92,0,0,0,.46-.11l1.44-.83a1,1,0,0,0,.46-.77l0-.74A.9.9,0,0,1,7.1,0H8.9a.9.9,0,0,1,.9.88l0,.74a1,1,0,0,0,.46.77l1.44.83a.83.83,0,0,0,.46.11.86.86,0,0,0,.44-.1l.65-.35a.91.91,0,0,1,1.21.34l.9,1.56A.91.91,0,0,1,15.07,6l-.64.39a1.05,1.05,0,0,0-.43.78V8.83a1,1,0,0,0,.44.78l.63.39a.91.91,0,0,1,.31,1.22l-.9,1.56a.91.91,0,0,1-1.21.34l-.66-.35a.91.91,0,0,0-.43-.1.92.92,0,0,0-.46.11l-1.44.83a1,1,0,0,0-.46.77l0,.74a.9.9,0,0,1-.9.88ZM8,4.44a3.56,3.56,0,0,0-1.76,6.64A3.51,3.51,0,0,0,11,9.81l0,0A3.56,3.56,0,0,0,8,4.44Z"/></g></svg>