<?xml version="1.0" encoding="utf-8"?>
<!-- Generator: Adobe Illustrator 24.2.1, SVG Export Plug-In . SVG Version: 6.00 Build 0)  -->
<svg version="1.1" id="Meedok-Doctores" xmlns="http://www.w3.org/2000/svg" xmlns:xlink="http://www.w3.org/1999/xlink" x="0px"
	 y="0px" viewBox="0 0 16 16" style="enable-background:new 0 0 16 16;" xml:space="preserve">
<style type="text/css">
	.st0{fill:#EDD1E6;}
	.st1{fill:#B5C9E5;}
	.st2{fill:#FFFFFF;}
	.st3{fill:url(#SVGID_1_);}
	.st4{fill:url(#SVGID_2_);}
	.st5{fill:url(#SVGID_3_);}
	.st6{fill:url(#SVGID_4_);}
	.st7{fill:url(#SVGID_5_);}
	.st8{fill:url(#SVGID_6_);}
	.st9{fill:url(#SVGID_7_);}
	.st10{fill:url(#SVGID_8_);}
	.st11{fill:url(#SVGID_9_);}
	.st12{fill:url(#SVGID_10_);}
	.st13{opacity:0.7;fill:#FFFFFF;}
	.st14{fill-rule:evenodd;clip-rule:evenodd;fill:#FFFFFF;}
	.st15{fill:#4A4C74;}
	.st16{fill:#4A4C78;}
	.st17{fill:#686A74;}
	.st18{fill:none;stroke:#FFFFFF;stroke-width:0.8558;stroke-linecap:round;stroke-linejoin:round;stroke-miterlimit:10;}
	.st19{fill:url(#SVGID_11_);}
	.st20{fill:url(#SVGID_12_);}
	.st21{fill:#FC00B0;}
	.st22{fill:url(#Fill_1_15_);}
	.st23{fill:url(#Fill_4_5_);}
	.st24{fill:url(#Fill_7_2_);}
	.st25{fill:#4E00EF;}
	.st26{opacity:0.7;fill:#4E00EF;}
	.st27{fill:url(#SVGID_13_);}
	.st28{fill:url(#SVGID_14_);}
	.st29{fill:url(#SVGID_15_);}
	.st30{fill:url(#SVGID_16_);}
	.st31{fill:url(#SVGID_17_);}
	.st32{fill:url(#SVGID_18_);}
	.st33{fill:url(#SVGID_19_);}
	.st34{fill:url(#SVGID_20_);}
	.st35{fill:url(#SVGID_21_);}
	.st36{fill:url(#SVGID_22_);}
	.st37{fill:#343434;}
	.st38{fill:url(#SVGID_23_);}
	.st39{fill:url(#SVGID_24_);}
	.st40{fill:url(#SVGID_25_);}
	.st41{fill:url(#SVGID_26_);}
	.st42{fill:url(#SVGID_27_);}
	.st43{fill:url(#SVGID_28_);}
	.st44{fill:url(#SVGID_29_);}
	.st45{fill:url(#SVGID_30_);}
	.st46{fill:url(#SVGID_31_);}
	.st47{fill:url(#SVGID_32_);}
	.st48{fill:url(#Fill_9_1_);}
	.st49{fill:url(#SVGID_33_);}
	.st50{fill:url(#SVGID_34_);}
	.st51{fill:url(#SVGID_35_);}
	.st52{fill:url(#SVGID_36_);}
	.st53{fill:url(#SVGID_37_);}
	.st54{fill:url(#SVGID_38_);}
	.st55{fill:url(#SVGID_39_);}
	.st56{fill:url(#SVGID_40_);}
	.st57{fill:none;}
	.st58{clip-path:url(#SVGID_42_);}
	.st59{fill:url(#Fill_1_16_);}
	.st60{fill:#4285F4;}
	.st61{fill:#34A853;}
	.st62{fill:#FBBC05;}
	.st63{fill:#EB4335;}
	.st64{fill-rule:evenodd;clip-rule:evenodd;fill:url(#SVGID_43_);}
	.st65{clip-path:url(#SVGID_45_);fill:#4E00E2;}
	.st66{clip-path:url(#SVGID_47_);fill:#4E00E2;}
	.st67{fill:url(#SVGID_48_);}
	.st68{fill:url(#SVGID_49_);}
	.st69{fill:url(#SVGID_50_);}
	.st70{fill:url(#SVGID_51_);}
	.st71{fill:url(#SVGID_52_);}
	.st72{fill:url(#SVGID_53_);}
</style>
<g>
	<g>
		<g>
			<path class="st25" d="M9.35,3.83c0.84,0,1.53,0.69,1.53,1.53c0,0.84-0.69,1.53-1.53,1.53S7.82,6.21,7.82,5.36
				C7.82,4.52,8.51,3.83,9.35,3.83z"/>
			<path class="st25" d="M11.76,8.94c-0.59-0.71-1.49-1.15-2.48-1.13C7.56,7.85,6.2,9.3,6.2,11.03v0.93c0,0.12,0.09,0.21,0.21,0.21
				h1.05c0.12,0,0.21-0.09,0.21-0.21v-0.95c0-0.9,0.69-1.68,1.59-1.72c0.96-0.05,1.76,0.72,1.76,1.68v0.99
				c0,0.12,0.09,0.21,0.21,0.21h1.05c0.12,0,0.21-0.09,0.21-0.21v-0.99C12.5,10.19,12.22,9.49,11.76,8.94z"/>
		</g>
		<g>
			<path class="st25" d="M8.51,11.35c-0.1,0-0.16-0.05-0.16-0.15v-0.05c0-0.1,0.05-0.15,0.16-0.15h0.65v-0.68
				c0-0.1,0.05-0.15,0.16-0.15h0.07c0.1,0,0.15,0.05,0.15,0.15V11h0.65c0.1,0,0.15,0.05,0.15,0.15v0.05c0,0.1-0.05,0.15-0.15,0.15
				H9.54v0.67c0,0.1-0.05,0.15-0.15,0.15H9.32c-0.1,0-0.16-0.05-0.16-0.15v-0.67H8.51z"/>
		</g>
	</g>
	<path class="st25" d="M12.95,0.8c0.75,0,1.35,0.6,1.35,1.35v11.7c0,0.75-0.6,1.35-1.35,1.35h-9.9c-0.75,0-1.35-0.6-1.35-1.35V2.15
		C1.7,1.4,2.3,0.8,3.05,0.8H12.95 M12.95,0h-9.9C1.86,0,0.9,0.96,0.9,2.15v11.7C0.9,15.04,1.86,16,3.05,16h9.9
		c1.18,0,2.15-0.96,2.15-2.15V2.15C15.1,0.96,14.14,0,12.95,0L12.95,0z"/>
	<path class="st25" d="M2.6,13.68V2.32c0-0.34,0.28-0.62,0.62-0.62h0.56c0.34,0,0.62,0.28,0.62,0.62v11.36
		c0,0.34-0.28,0.62-0.62,0.62H3.22C2.88,14.3,2.6,14.02,2.6,13.68z"/>
</g>
</svg>
