<?xml version="1.0" encoding="utf-8"?>
<!-- Generator: Adobe Illustrator 24.2.1, SVG Export Plug-In . SVG Version: 6.00 Build 0)  -->
<svg version="1.1" id="Meedok-Doctores" xmlns="http://www.w3.org/2000/svg" xmlns:xlink="http://www.w3.org/1999/xlink" x="0px"
	 y="0px" viewBox="0 0 16 16" style="enable-background:new 0 0 16 16;" xml:space="preserve">
<style type="text/css">
	.st0{fill:#FFFFFF;}
	.st1{fill:#EF00A5;}
	.st2{fill:#4E00EF;}
	.st3{opacity:0.7;fill:#FFFFFF;}
</style>
<g id="Group_5" transform="translate(0 -0.095)">
	<path id="Fill_1_3_" class="st0" d="M5.27,10.38V8.73h1.91V6.8h1.65v1.92h1.93v1.63H8.83v1.94H7.2v-1.91H5.27z"/>
	<g id="Group_4">
		<g>
			<g id="Group_4-2">
				<path id="Fill_2" class="st0" d="M8.01,16.09c-1.55,0-3.1,0-4.59-0.01c-1.31,0.01-2.37-1.04-2.38-2.35c0-0.03,0-0.07,0-0.1
					v-2.58c0-2.17,0-3.93,0-6.56h0.01c0-0.6,0-0.95,0-1.23c0-0.54,0.01-0.76-0.01-2c-0.04-0.38,0.1-0.75,0.37-1.01
					c0.12-0.11,0.27-0.16,0.42-0.16h12.27c0.2,0,0.39,0.08,0.53,0.23c0.23,0.26,0.34,0.6,0.31,0.95c-0.02,1.24-0.02,1.46-0.01,2
					c0,0.28,0,0.62,0,1.23h0.01c0,1.26,0,2.44,0,3.81v5.34c0.03,1.31-1,2.4-2.31,2.43c-0.01,0-0.03,0-0.04,0
					C11.06,16.09,9.52,16.09,8.01,16.09z M2.38,4.74c0,2.5,0,4.22,0,6.32v2.58c-0.04,0.57,0.39,1.06,0.96,1.09c0.03,0,0.06,0,0.09,0
					c1.5,0,3,0,4.47,0c1.59,0,3.17,0,4.7-0.01c0.56,0.01,1.02-0.45,1.03-1.01c0-0.02,0-0.04,0-0.07V8.31c0-1.44,0-2.54,0-3.57
					L2.38,4.74L2.38,4.74z M11.55,1.79V3.1h1.47V1.79L11.55,1.79z M8.69,1.79V3.1h1.47V1.79L8.69,1.79z M5.84,1.79V3.1h1.47V1.79
					L5.84,1.79z M2.99,1.79V3.1h1.47V1.79L2.99,1.79z"/>
			</g>
		</g>
	</g>
</g>
</svg>
