<?xml version="1.0" encoding="utf-8"?>
<!-- Generator: Adobe Illustrator 24.2.1, SVG Export Plug-In . SVG Version: 6.00 Build 0)  -->
<svg version="1.1" id="Meedok-Doctores" xmlns="http://www.w3.org/2000/svg" xmlns:xlink="http://www.w3.org/1999/xlink" x="0px"
	 y="0px" viewBox="0 0 16 16" style="enable-background:new 0 0 16 16;" xml:space="preserve">
<style type="text/css">
	.st0{fill:#EDD1E6;}
	.st1{fill:#B5C9E5;}
	.st2{fill:#FFFFFF;}
	.st3{fill:url(#SVGID_1_);}
	.st4{fill:url(#SVGID_2_);}
	.st5{fill:url(#SVGID_3_);}
	.st6{fill:url(#SVGID_4_);}
	.st7{fill:url(#SVGID_5_);}
	.st8{fill:url(#SVGID_6_);}
	.st9{fill:url(#SVGID_7_);}
	.st10{fill:url(#SVGID_8_);}
	.st11{fill:url(#SVGID_9_);}
	.st12{fill:url(#SVGID_10_);}
	.st13{opacity:0.7;fill:#FFFFFF;}
	.st14{fill-rule:evenodd;clip-rule:evenodd;fill:#FFFFFF;}
	.st15{fill:#4A4C74;}
	.st16{fill:#4A4C78;}
	.st17{fill:#686A74;}
	.st18{fill:none;stroke:#FFFFFF;stroke-width:0.8558;stroke-linecap:round;stroke-linejoin:round;stroke-miterlimit:10;}
	.st19{fill:url(#SVGID_11_);}
	.st20{fill:url(#SVGID_12_);}
	.st21{fill:#FC00B0;}
	.st22{fill:url(#Fill_1_15_);}
	.st23{fill:url(#Fill_4_5_);}
	.st24{fill:url(#Fill_7_2_);}
	.st25{fill:#4E00EF;}
	.st26{opacity:0.7;fill:#4E00EF;}
	.st27{fill:url(#SVGID_13_);}
	.st28{fill:url(#SVGID_14_);}
	.st29{fill:url(#SVGID_15_);}
	.st30{fill:url(#SVGID_16_);}
	.st31{fill:url(#SVGID_17_);}
	.st32{fill:url(#SVGID_18_);}
	.st33{fill:url(#SVGID_19_);}
	.st34{fill:url(#SVGID_20_);}
	.st35{fill:url(#SVGID_21_);}
	.st36{fill:url(#SVGID_22_);}
	.st37{fill:#343434;}
	.st38{fill:url(#SVGID_23_);}
	.st39{fill:url(#SVGID_24_);}
	.st40{fill:url(#SVGID_25_);}
	.st41{fill:url(#SVGID_26_);}
	.st42{fill:url(#SVGID_27_);}
	.st43{fill:url(#SVGID_28_);}
	.st44{fill:url(#SVGID_29_);}
	.st45{fill:url(#SVGID_30_);}
	.st46{fill:url(#SVGID_31_);}
	.st47{fill:url(#SVGID_32_);}
	.st48{fill:url(#Fill_9_1_);}
	.st49{fill:url(#SVGID_33_);}
	.st50{fill:url(#SVGID_34_);}
	.st51{fill:url(#SVGID_35_);}
	.st52{fill:url(#SVGID_36_);}
	.st53{fill:url(#SVGID_37_);}
	.st54{fill:url(#SVGID_38_);}
	.st55{fill:url(#SVGID_39_);}
	.st56{fill:url(#SVGID_40_);}
	.st57{fill:none;}
	.st58{clip-path:url(#SVGID_42_);}
	.st59{fill:url(#Fill_1_16_);}
	.st60{fill:#4285F4;}
	.st61{fill:#34A853;}
	.st62{fill:#FBBC05;}
	.st63{fill:#EB4335;}
	.st64{fill-rule:evenodd;clip-rule:evenodd;fill:url(#SVGID_43_);}
	.st65{clip-path:url(#SVGID_45_);fill:#4E00E2;}
	.st66{clip-path:url(#SVGID_47_);fill:#4E00E2;}
	.st67{fill:url(#SVGID_48_);}
	.st68{fill:url(#SVGID_49_);}
	.st69{fill:url(#SVGID_50_);}
	.st70{fill:url(#SVGID_51_);}
	.st71{fill:url(#SVGID_52_);}
	.st72{fill:url(#SVGID_53_);}
</style>
<g>
	<linearGradient id="SVGID_1_" gradientUnits="userSpaceOnUse" x1="2.018240e-04" y1="7.9986" x2="15.9998" y2="7.9986">
		<stop  offset="0" style="stop-color:#4E00E2"/>
		<stop  offset="1" style="stop-color:#4E00E2"/>
	</linearGradient>
	<path style="fill-rule:evenodd;clip-rule:evenodd;fill:url(#SVGID_1_);" d="M8.34,4.27c0.3,0.03,0.59,0.09,0.86,0.18l0.56-1.26
		C9.51,3.01,9.36,2.78,9.43,2.63c0.09-0.21,0.53-0.22,0.98-0.02c0.45,0.2,0.73,0.53,0.64,0.74c-0.07,0.16-0.33,0.2-0.65,0.13
		L9.83,4.73c0.2,0.11,0.38,0.24,0.56,0.38l2.3-2.3c-0.26-0.36-0.35-0.72-0.19-0.89c0.2-0.2,0.72-0.02,1.15,0.42
		c0.43,0.43,0.62,0.95,0.42,1.15c-0.16,0.16-0.53,0.08-0.89-0.19l-2.3,2.3c0.19,0.23,0.35,0.47,0.48,0.74l1.29-0.49
		c-0.05-0.32,0-0.58,0.16-0.64c0.21-0.08,0.53,0.22,0.7,0.68c0.17,0.46,0.14,0.89-0.07,0.97c-0.16,0.06-0.38-0.09-0.55-0.37
		l-1.29,0.49c0.06,0.21,0.1,0.44,0.12,0.67h3.26c0.07-0.44,0.26-0.76,0.49-0.76C15.77,6.89,16,7.39,16,8c0,0.61-0.23,1.11-0.52,1.11
		c-0.23,0-0.43-0.32-0.49-0.76h-3.26c-0.03,0.3-0.09,0.59-0.18,0.86l1.26,0.56c0.19-0.26,0.41-0.41,0.57-0.34
		c0.21,0.09,0.22,0.53,0.02,0.98c-0.2,0.45-0.53,0.73-0.74,0.64c-0.16-0.07-0.2-0.33-0.13-0.65l-1.26-0.56
		c-0.11,0.2-0.24,0.38-0.38,0.56l2.3,2.3c0.36-0.26,0.72-0.35,0.89-0.19c0.2,0.2,0.02,0.72-0.42,1.15
		c-0.43,0.43-0.95,0.62-1.15,0.42c-0.16-0.16-0.08-0.53,0.19-0.89l-2.3-2.3c-0.23,0.19-0.47,0.35-0.74,0.48l0.49,1.29
		c0.32-0.05,0.58,0,0.64,0.16c0.08,0.21-0.22,0.53-0.68,0.7c-0.46,0.17-0.89,0.14-0.97-0.07c-0.06-0.16,0.09-0.38,0.37-0.55
		L9.01,11.6c-0.21,0.06-0.44,0.1-0.67,0.12v3.26c0.44,0.07,0.76,0.26,0.76,0.49C9.11,15.77,8.61,16,8,16
		c-0.61,0-1.11-0.23-1.11-0.52c0-0.23,0.32-0.43,0.76-0.49v-3.26c-0.3-0.03-0.59-0.09-0.86-0.18L6.23,12.8
		c0.26,0.19,0.41,0.41,0.34,0.57c-0.09,0.21-0.53,0.22-0.98,0.02c-0.45-0.2-0.73-0.53-0.64-0.74c0.07-0.16,0.33-0.2,0.65-0.13
		l0.56-1.26c-0.2-0.11-0.38-0.24-0.56-0.38l-2.3,2.3c0.26,0.36,0.35,0.72,0.19,0.89c-0.2,0.2-0.72,0.02-1.15-0.42
		c-0.43-0.43-0.62-0.95-0.42-1.15c0.16-0.16,0.53-0.08,0.89,0.19l2.3-2.3c-0.19-0.23-0.35-0.47-0.48-0.74l-1.29,0.49
		c0.05,0.32,0,0.58-0.16,0.64c-0.21,0.08-0.53-0.22-0.7-0.68S2.34,9.22,2.56,9.13C2.72,9.07,2.93,9.23,3.11,9.5l1.29-0.49
		c-0.06-0.21-0.1-0.44-0.12-0.67H1.01C0.95,8.79,0.75,9.11,0.52,9.11C0.23,9.11,0,8.61,0,8c0-0.61,0.23-1.11,0.52-1.11
		c0.23,0,0.43,0.32,0.49,0.76h3.26c0.03-0.3,0.09-0.59,0.18-0.86L3.2,6.23C3.01,6.49,2.78,6.63,2.63,6.56
		C2.42,6.47,2.41,6.03,2.61,5.59c0.2-0.45,0.53-0.73,0.74-0.64C3.5,5.02,3.55,5.29,3.48,5.6l1.26,0.56c0.11-0.2,0.24-0.38,0.38-0.56
		l-2.3-2.3C2.46,3.57,2.09,3.66,1.93,3.49c-0.2-0.2-0.02-0.72,0.42-1.15c0.43-0.43,0.95-0.62,1.15-0.42
		C3.66,2.09,3.57,2.45,3.3,2.81l2.3,2.3c0.23-0.19,0.47-0.35,0.74-0.48L5.85,3.35c-0.32,0.05-0.58,0-0.64-0.16
		c-0.08-0.21,0.22-0.53,0.68-0.7c0.46-0.17,0.89-0.14,0.97,0.07C6.93,2.71,6.77,2.93,6.5,3.1l0.49,1.29
		c0.21-0.06,0.44-0.1,0.67-0.12V1.01C7.21,0.94,6.89,0.75,6.89,0.52C6.89,0.23,7.39,0,8,0c0.61,0,1.11,0.23,1.11,0.52
		c0,0.23-0.32,0.43-0.76,0.49V4.27L8.34,4.27z"/>
</g>
</svg>
