<?xml version="1.0" encoding="utf-8"?>
<!-- Generator: Adobe Illustrator 24.2.1, SVG Export Plug-In . SVG Version: 6.00 Build 0)  -->
<svg version="1.1" id="Meedok-Doctores" xmlns="http://www.w3.org/2000/svg" xmlns:xlink="http://www.w3.org/1999/xlink" x="0px"
	 y="0px" viewBox="0 0 16 16" style="enable-background:new 0 0 16 16;" xml:space="preserve">
<style type="text/css">
	.st0{fill:#FFFFFF;}
	.st1{fill:url(#SVGID_1_);}
	.st2{fill:url(#SVGID_2_);}
	.st3{fill:url(#SVGID_3_);}
	.st4{fill:url(#SVGID_4_);}
	.st5{fill:url(#SVGID_5_);}
	.st6{fill:url(#SVGID_6_);}
	.st7{fill:url(#SVGID_7_);}
	.st8{fill:url(#SVGID_8_);}
	.st9{fill:url(#SVGID_9_);}
	.st10{fill:url(#SVGID_10_);}
	.st11{opacity:0.7;fill:#FFFFFF;}
	.st12{fill-rule:evenodd;clip-rule:evenodd;fill:#FFFFFF;}
</style>
<g>
	<g id="Group_3_8_" transform="translate(8.262)">
		<g>
			<g id="Group_3-2_7_">
				<path id="Fill_1_10_" class="st0" d="M-0.26,0.02c1.6,0,2.9,1.3,2.9,2.9s-1.3,2.9-2.9,2.9s-2.9-1.3-2.9-2.9
					C-3.16,1.32-1.86,0.02-0.26,0.02"/>
			</g>
		</g>
	</g>
	<g id="Group_6_2_" transform="translate(0.262 18)">
		<g>
			<g id="Group_6-2_2_">
				<path id="Fill_4_3_" class="st0" d="M12.4-8.21c-1.18-1.42-2.95-2.22-4.79-2.18c-3.34,0.12-5.98,2.87-5.95,6.21v1.79
					c0,0.23,0.18,0.41,0.41,0.41c0,0,0,0,0,0h2.02c0.23,0,0.41-0.18,0.41-0.41l0,0v-1.83C4.48-5.97,5.83-7.43,7.57-7.55
					c1.79-0.09,3.31,1.29,3.4,3.08c0,0.05,0,0.1,0,0.15v1.92c0,0.23,0.18,0.41,0.41,0.41l0,0h2.02c0.23,0,0.41-0.18,0.41-0.41l0,0
					v-1.92C13.82-5.74,13.32-7.12,12.4-8.21"/>
			</g>
		</g>
	</g>
	<path id="Fill_7_1_" class="st0" d="M11.3,6.28c-0.26,0-0.39-0.12-0.39-0.36V5.79c0-0.24,0.13-0.36,0.39-0.36h1.6V3.75
		c0-0.24,0.13-0.36,0.39-0.36h0.18c0.25,0,0.38,0.12,0.38,0.36v1.68h1.61c0.25,0,0.38,0.12,0.38,0.36v0.13
		c0,0.24-0.13,0.36-0.38,0.36h-1.61v1.67c0,0.24-0.13,0.36-0.38,0.36h-0.18c-0.26,0-0.39-0.12-0.39-0.36V6.28H11.3z"/>
</g>
</svg>
