<svg id="Meedok-Doctores" xmlns="http://www.w3.org/2000/svg" viewBox="0 0 16 16"><defs><style>.cls-1{fill:#fff;}</style></defs><path class="cls-1" d="M8.58,4a11.59,11.59,0,0,0-.76,2.63c-.11.54-.2,1.09-.28,1.62s-.17,1.08-.28,1.62c-.07.31-.17.62-.26.92s-.18.59-.25.89A1.46,1.46,0,0,0,7,12.83a1.27,1.27,0,0,0,1,.48A1.34,1.34,0,0,0,9,12.84a1.24,1.24,0,0,0,.21-1.08,15.87,15.87,0,0,1-.49-5.21,8.19,8.19,0,0,1,.17-1.07,7.37,7.37,0,0,1,.3-1.09A17.29,17.29,0,0,1,11.5.26,11,11,0,0,0,8.58,4Z"/><path class="cls-1" d="M16,6.66V6H12.51a9.08,9.08,0,0,0-1.18,0,1.51,1.51,0,0,0-.91.41c-.68.65-.4,1.59,0,2.57l.08.18a4,4,0,0,1,.19.46l.1.28a8.3,8.3,0,0,1,.47,1.54,2.82,2.82,0,0,1-1.48,3.2,4.5,4.5,0,0,1-3.23.17,2.88,2.88,0,0,1-1.9-1.71V13.1a.17.17,0,0,1,0-.1,2,2,0,0,1-.11-.7,3.81,3.81,0,0,1,.34-1.51c.18-.42.4-.87.62-1.31s.31-.64.47-1a2.36,2.36,0,0,0,.23-1A2.37,2.37,0,0,0,6.07,7,1.4,1.4,0,0,0,4.92,6H0v.65H4.8c.54.13.63.4.66.5a1.33,1.33,0,0,1,0,.39,1.58,1.58,0,0,1-.18.69c-.07.18-.18.39-.27.58s-.13.26-.18.37l-.11.22c-.18.37-.37.74-.53,1.13a4.61,4.61,0,0,0-.39,1.76,4.14,4.14,0,0,0,.13.89v0s0,0,0,.05l0,0v0a3.64,3.64,0,0,0,2.33,2.12A4.87,4.87,0,0,0,8,15.74,4.38,4.38,0,0,0,10,15.27a3.42,3.42,0,0,0,1.86-3.92,11,11,0,0,0-.6-1.92c0-.09-.06-.16-.09-.23s0-.15-.08-.24l-.07-.17c-.37-.95-.5-1.52-.15-1.87l0,0a1.46,1.46,0,0,1,.54-.2,4,4,0,0,1,.78,0H16Z"/><path class="cls-1" d="M1.16,12.15a.47.47,0,0,0,0,.94.47.47,0,1,0,0-.94Z"/><circle class="cls-1" cx="2.26" cy="10.65" r="0.47"/><circle class="cls-1" cx="1.65" cy="8.3" r="0.47"/><circle class="cls-1" cx="13.45" cy="10.22" r="0.47"/><path class="cls-1" d="M14.09,12.61a.47.47,0,1,0,.47.47A.47.47,0,0,0,14.09,12.61Z"/><circle class="cls-1" cx="14.7" cy="8.3" r="0.47"/></svg>