<svg id="Meedok-Doctores" xmlns="http://www.w3.org/2000/svg" viewBox="0 0 16 16"><defs><style>.cls-1{fill:#fff;}</style></defs><path class="cls-1" d="M14.65,7.7H8.35a.24.24,0,0,1,0-.48h6.3a.78.78,0,0,0,.87-.74.77.77,0,0,0-.86-.73H8.6a.24.24,0,0,1,0-.48h6.06A1.25,1.25,0,0,1,16,6.48,1.26,1.26,0,0,1,14.65,7.7Z"/><path class="cls-1" d="M11.13,9.65H8.35a.24.24,0,0,1-.24-.24.24.24,0,0,1,.24-.24h2.78A.78.78,0,0,0,12,8.43a.77.77,0,0,0-.86-.73H8.35a.24.24,0,0,1,0-.48h2.79a1.24,1.24,0,0,1,1.34,1.21A1.26,1.26,0,0,1,11.13,9.65Z"/><path class="cls-1" d="M10.72,11.6H8.35a.24.24,0,1,1,0-.47h2.37a.79.79,0,0,0,.87-.75.77.77,0,0,0-.86-.73H8.35a.24.24,0,0,1-.24-.24.24.24,0,0,1,.24-.24h2.38a1.22,1.22,0,1,1,0,2.43Z"/><path class="cls-1" d="M10.27,13.56H5.38a3.53,3.53,0,0,1-2.22-.63,2.92,2.92,0,0,0-1.87-.54h-1a.24.24,0,1,1,0-.47H1.29a3.41,3.41,0,0,1,2.13.61,3.11,3.11,0,0,0,2,.55h4.89a.8.8,0,0,0,.88-.74.77.77,0,0,0-.87-.74H8.35a.24.24,0,1,1,0-.47h1.93a1.24,1.24,0,0,1,1.35,1.21A1.27,1.27,0,0,1,10.27,13.56Z"/><path class="cls-1" d="M1.45,6H.24a.24.24,0,0,1,0-.48H1.45c.25,0,.31-.06.53-.27l1-.93c.53-.5.89-.85,1.1-1.07a2.12,2.12,0,0,1,1.46-.6c.32,0,1-.07,1.57-.13l1.3-.11a.93.93,0,0,1,1,.91.92.92,0,0,1-.65,1.13l-.59.16A5.63,5.63,0,0,0,6.91,5l-.26.23H8.6a.24.24,0,0,1,0,.48H6.5c-.29,0-.4-.13-.43-.24s-.12-.34.55-.85A4.76,4.76,0,0,1,8,4.18L8.54,4c.23-.07.37-.2.32-.62,0-.15-.09-.5-.47-.48L7.11,3l-1.58.13a1.61,1.61,0,0,0-1.15.46L3.27,4.7l-1,.91A1.05,1.05,0,0,1,1.45,6Z"/><path class="cls-1" d="M15.51,9.8a7.25,7.25,0,0,0-.88-1.22,6.93,6.93,0,0,0-.89,1.22.94.94,0,0,0,.89,1.48A.94.94,0,0,0,15.51,9.8Z"/></svg>