<svg id="Meedok-Doctores" xmlns="http://www.w3.org/2000/svg" xmlns:xlink="http://www.w3.org/1999/xlink" viewBox="0 0 16 16"><defs><style>.cls-1{fill:#b5c9e5;}.cls-2{fill:url(#linear-gradient);}.cls-3{fill:url(#linear-gradient-2);}.cls-4{fill:url(#linear-gradient-3);}</style><linearGradient id="linear-gradient" x1="6.53" y1="5.51" x2="9.49" y2="5.51" gradientUnits="userSpaceOnUse"><stop offset="0" stop-color="#4e00ec"/><stop offset="1" stop-color="#4e00ec"/></linearGradient><linearGradient id="linear-gradient-2" x1="5.01" y1="9.91" x2="11.01" y2="9.91" xlink:href="#linear-gradient"/><linearGradient id="linear-gradient-3" x1="7.15" y1="10.94" x2="8.96" y2="10.94" xlink:href="#linear-gradient"/></defs><rect class="cls-1" width="16" height="16"/><g id="Group_9" data-name="Group 9"><g id="Group_3" data-name="Group 3"><g id="Group_3-2" data-name="Group 3-2"><path id="Fill_1" data-name="Fill 1" class="cls-2" d="M8,4A1.49,1.49,0,1,1,6.53,5.51h0A1.49,1.49,0,0,1,8,4"/></g></g><g id="Group_6" data-name="Group 6"><g id="Group_6-2" data-name="Group 6-2"><path id="Fill_4" data-name="Fill 4" class="cls-3" d="M10.31,8.92a3,3,0,0,0-5.3,2v.88a.2.2,0,0,0,.2.2h1a.2.2,0,0,0,.2-.2h0v-.9A1.63,1.63,0,0,1,7.93,9.24a1.61,1.61,0,0,1,1.68,1.52v1a.2.2,0,0,0,.2.2h1a.2.2,0,0,0,.2-.2h0v-.95a3,3,0,0,0-.7-1.91"/></g></g><path id="Fill_7" data-name="Fill 7" class="cls-4" d="M7.29,11.1c-.1,0-.14,0-.14-.13v-.05c0-.09,0-.13.14-.13h.59v-.62c0-.09,0-.13.14-.13h.07c.09,0,.14,0,.14.13v.62h.59c.09,0,.14,0,.14.13V11c0,.09-.05.13-.14.13H8.23v.61a.13.13,0,0,1-.14.14H8a.12.12,0,0,1-.14-.14V11.1Z"/></g></svg>