<svg id="Meedok-Doctores" xmlns="http://www.w3.org/2000/svg" viewBox="0 0 16 16"><defs><style>.cls-1{fill:#edd1e6;}.cls-2{fill:#fc00b0;}</style></defs><rect class="cls-1" width="16" height="16"/><g id="Group_9" data-name="Group 9"><g id="Group_3" data-name="Group 3"><g id="Group_3-2" data-name="Group 3-2"><path id="Fill_1" data-name="Fill 1" class="cls-2" d="M8,3.94A1.52,1.52,0,0,1,8,7,1.52,1.52,0,0,1,6.49,5.45h0A1.52,1.52,0,0,1,8,3.94"/></g></g><g id="Group_6" data-name="Group 6"><g id="Group_6-2" data-name="Group 6-2"><path id="Fill_4" data-name="Fill 4" class="cls-2" d="M10.36,8.94a3.06,3.06,0,0,0-2.42-1.1,3.11,3.11,0,0,0-3,3.12v.9a.2.2,0,0,0,.21.2h1a.2.2,0,0,0,.2-.2h0v-.92A1.67,1.67,0,0,1,7.93,9.27a1.62,1.62,0,0,1,1.71,1.55v1a.21.21,0,0,0,.21.2h1a.21.21,0,0,0,.21-.2h0v-1a3,3,0,0,0-.72-2"/></g></g><path id="Fill_7" data-name="Fill 7" class="cls-2" d="M7.27,11.17A.13.13,0,0,1,7.13,11v0c0-.09,0-.13.14-.13h.6v-.63c0-.09,0-.14.15-.14h.07a.13.13,0,0,1,.14.14v.63h.6c.1,0,.15,0,.15.13v0c0,.09-.05.14-.15.14h-.6v.63c0,.09-.05.13-.14.13H8c-.1,0-.15,0-.15-.13v-.63Z"/></g></svg>