<?xml version="1.0" encoding="utf-8"?>
<!-- Generator: Adobe Illustrator 24.2.1, SVG Export Plug-In . SVG Version: 6.00 Build 0)  -->
<svg version="1.1" id="Meedok-Doctores" xmlns="http://www.w3.org/2000/svg" xmlns:xlink="http://www.w3.org/1999/xlink" x="0px"
	 y="0px" viewBox="0 0 16 16" style="enable-background:new 0 0 16 16;" xml:space="preserve">
<style type="text/css">
	.st0{fill:#EDD1E6;}
	.st1{fill:#B5C9E5;}
	.st2{fill:#FFFFFF;}
	.st3{fill:url(#SVGID_1_);}
	.st4{fill:url(#SVGID_2_);}
	.st5{fill:url(#SVGID_3_);}
	.st6{fill:url(#SVGID_4_);}
	.st7{fill:url(#SVGID_5_);}
	.st8{fill:url(#SVGID_6_);}
	.st9{fill:url(#SVGID_7_);}
	.st10{fill:url(#SVGID_8_);}
	.st11{fill:url(#SVGID_9_);}
	.st12{fill:url(#SVGID_10_);}
	.st13{opacity:0.7;fill:#FFFFFF;}
	.st14{fill-rule:evenodd;clip-rule:evenodd;fill:#FFFFFF;}
	.st15{fill:#4A4C74;}
	.st16{fill:#4A4C78;}
	.st17{fill:#686A74;}
	.st18{fill:none;stroke:#FFFFFF;stroke-width:0.8558;stroke-linecap:round;stroke-linejoin:round;stroke-miterlimit:10;}
	.st19{fill:url(#SVGID_11_);}
	.st20{fill:url(#SVGID_12_);}
	.st21{fill:#FC00B0;}
	.st22{fill:url(#Fill_1_15_);}
	.st23{fill:url(#Fill_4_5_);}
	.st24{fill:url(#Fill_7_2_);}
	.st25{fill:#4E00EF;}
	.st26{opacity:0.7;fill:#4E00EF;}
	.st27{fill:url(#SVGID_13_);}
	.st28{fill:url(#SVGID_14_);}
	.st29{fill:url(#SVGID_15_);}
	.st30{fill:url(#SVGID_16_);}
	.st31{fill:url(#SVGID_17_);}
	.st32{fill:url(#SVGID_18_);}
	.st33{fill:url(#SVGID_19_);}
	.st34{fill:url(#SVGID_20_);}
	.st35{fill:url(#SVGID_21_);}
	.st36{fill:url(#SVGID_22_);}
	.st37{fill:#343434;}
	.st38{fill:url(#SVGID_23_);}
	.st39{fill:url(#SVGID_24_);}
	.st40{fill:url(#SVGID_25_);}
	.st41{fill:url(#SVGID_26_);}
	.st42{fill:url(#SVGID_27_);}
	.st43{fill:url(#SVGID_28_);}
	.st44{fill:url(#SVGID_29_);}
	.st45{fill:url(#SVGID_30_);}
	.st46{fill:url(#SVGID_31_);}
	.st47{fill:url(#SVGID_32_);}
	.st48{fill:url(#Fill_9_1_);}
	.st49{fill:url(#SVGID_33_);}
	.st50{fill:url(#SVGID_34_);}
	.st51{fill:url(#SVGID_35_);}
	.st52{fill:url(#SVGID_36_);}
	.st53{fill:url(#SVGID_37_);}
	.st54{fill:url(#SVGID_38_);}
	.st55{fill:url(#SVGID_39_);}
	.st56{fill:url(#SVGID_40_);}
	.st57{fill:none;}
	.st58{clip-path:url(#SVGID_42_);}
	.st59{fill:url(#Fill_1_16_);}
	.st60{fill:#4285F4;}
	.st61{fill:#34A853;}
	.st62{fill:#FBBC05;}
	.st63{fill:#EB4335;}
	.st64{fill-rule:evenodd;clip-rule:evenodd;fill:url(#SVGID_43_);}
	.st65{clip-path:url(#SVGID_45_);fill:#4E00E2;}
	.st66{clip-path:url(#SVGID_47_);fill:#4E00E2;}
	.st67{fill:url(#SVGID_48_);}
	.st68{fill:url(#SVGID_49_);}
	.st69{fill:url(#SVGID_50_);}
	.st70{fill:url(#SVGID_51_);}
	.st71{fill:url(#SVGID_52_);}
	.st72{fill:url(#SVGID_53_);}
</style>
<linearGradient id="SVGID_1_" gradientUnits="userSpaceOnUse" x1="0.5712" y1="8.0002" x2="15.4288" y2="8.0002">
	<stop  offset="0" style="stop-color:#4E00EC"/>
	<stop  offset="1" style="stop-color:#4E00EC"/>
</linearGradient>
<path class="st3" d="M5.97,6.33v6c0.01,0.18-0.13,0.33-0.31,0.33c-0.01,0-0.02,0-0.03,0H4.96c-0.18,0.01-0.33-0.13-0.34-0.31
	c0-0.01,0-0.02,0-0.03v-6C4.62,6.15,4.76,6.01,4.93,6c0.01,0,0.02,0,0.03,0h0.67c0.18-0.01,0.33,0.13,0.34,0.31
	C5.97,6.32,5.97,6.32,5.97,6.33L5.97,6.33L5.97,6.33z M8.68,6.33v6c0.01,0.18-0.13,0.33-0.31,0.33c-0.01,0-0.02,0-0.03,0H7.66
	c-0.18,0.01-0.33-0.13-0.34-0.31c0-0.01,0-0.02,0-0.03v-6C7.32,6.15,7.46,6.01,7.64,6c0.01,0,0.02,0,0.03,0h0.67
	c0.18-0.01,0.33,0.13,0.34,0.31C8.67,6.32,8.67,6.32,8.68,6.33L8.68,6.33z M11.38,6.33v6c0.01,0.18-0.13,0.33-0.31,0.33
	c-0.01,0-0.02,0-0.03,0h-0.67c-0.18,0.01-0.33-0.13-0.34-0.31c0-0.01,0-0.02,0-0.03l0-6C10.02,6.15,10.16,6.01,10.34,6
	c0.01,0,0.02,0,0.03,0h0.68c0.18-0.01,0.33,0.13,0.34,0.31C11.38,6.32,11.38,6.32,11.38,6.33L11.38,6.33z M12.73,13.88V4H3.27v9.87
	c0,0.25,0.08,0.5,0.23,0.7c0.05,0.06,0.09,0.09,0.11,0.09h8.78c0.02,0,0.06-0.03,0.11-0.09C12.65,14.37,12.73,14.13,12.73,13.88
	L12.73,13.88z M5.64,2.67h4.73L9.86,1.45c-0.04-0.06-0.11-0.1-0.18-0.11H6.33C6.26,1.35,6.2,1.39,6.15,1.45L5.64,2.67L5.64,2.67z
	 M15.43,3v0.67C15.44,3.84,15.3,3.99,15.12,4c-0.01,0-0.02,0-0.03,0h-1.01v9.87c0,0.58-0.16,1.07-0.5,1.5
	C13.25,15.79,12.85,16,12.39,16H3.61c-0.46,0-0.86-0.2-1.19-0.61c-0.33-0.41-0.5-0.9-0.5-1.47V4H0.91C0.73,4.01,0.58,3.87,0.57,3.69
	c0-0.01,0-0.02,0-0.03V3C0.56,2.82,0.7,2.67,0.88,2.67c0.01,0,0.02,0,0.03,0h3.26l0.74-1.74C5.01,0.67,5.2,0.45,5.48,0.27
	C5.75,0.09,6.03,0,6.31,0h3.38c0.28,0,0.56,0.09,0.83,0.27c0.27,0.18,0.46,0.4,0.57,0.66l0.74,1.74h3.26
	c0.18-0.01,0.33,0.13,0.34,0.31C15.43,2.98,15.43,2.99,15.43,3z"/>
</svg>
