<?xml version="1.0" encoding="utf-8"?>
<!-- Generator: Adobe Illustrator 24.2.1, SVG Export Plug-In . SVG Version: 6.00 Build 0)  -->
<svg version="1.1" id="Meedok-Doctores" xmlns="http://www.w3.org/2000/svg" xmlns:xlink="http://www.w3.org/1999/xlink" x="0px"
	 y="0px" viewBox="0 0 16 16" style="enable-background:new 0 0 16 16;" xml:space="preserve">
<style type="text/css">
	.st0{fill:#FFFFFF;}
	.st1{fill:url(#SVGID_1_);}
	.st2{fill:url(#SVGID_2_);}
	.st3{fill:url(#SVGID_3_);}
	.st4{fill:url(#SVGID_4_);}
	.st5{fill:url(#SVGID_5_);}
	.st6{fill:url(#SVGID_6_);}
	.st7{fill:url(#SVGID_7_);}
	.st8{fill:url(#SVGID_8_);}
	.st9{fill:url(#SVGID_9_);}
	.st10{fill:url(#SVGID_10_);}
	.st11{opacity:0.7;fill:#FFFFFF;}
	.st12{fill-rule:evenodd;clip-rule:evenodd;fill:#FFFFFF;}
</style>
<g id="Group_14" transform="translate(0 -0.5)">
	<g id="Group_3_7_">
		<g>
			<g id="Group_3-2_6_">
				<path id="Fill_1_9_" class="st0" d="M9.5,15.64c-2.66,0-4.83-2.15-4.83-4.82v-0.54C2.01,9.95,0.01,7.69,0,5.01V2.35
					c0-0.04,0-0.09,0.01-0.13c0.07-0.55,0.57-0.93,1.12-0.86s0.93,0.57,0.86,1.12c-0.05,0.37-0.3,0.69-0.66,0.81v1.73
					c0,2.21,1.79,4,4,4c2.21,0,4-1.79,4-4V3.29c-0.52-0.18-0.79-0.75-0.6-1.27S9.48,1.23,10,1.41c0.35,0.12,0.6,0.44,0.65,0.81
					c0.01,0.04,0.01,0.09,0.01,0.13v2.66C10.66,7.69,8.66,9.95,6,10.28v0.54c0,1.93,1.57,3.5,3.5,3.49c1.78,0,3.27-1.34,3.47-3.1
					c-1.23-0.38-1.93-1.69-1.55-2.92c0.38-1.23,1.69-1.93,2.92-1.55c1.23,0.38,1.93,1.69,1.55,2.92c-0.23,0.75-0.83,1.34-1.58,1.56
					C14.1,13.73,12.01,15.65,9.5,15.64z M13.67,8c-0.55,0-1,0.45-0.99,1c0,0.55,0.45,1,1,0.99c0.55,0,0.99-0.45,0.99-1
					C14.67,8.45,14.22,8,13.67,8z"/>
			</g>
		</g>
	</g>
</g>
</svg>
