<svg id="Meedok-Doctores" xmlns="http://www.w3.org/2000/svg" viewBox="0 0 16 16"><defs><style>.cls-1{fill:#fff;}</style></defs><path class="cls-1" d="M15,11.3c1.15-2.51,1.24-4.83.27-6.55A4.72,4.72,0,0,0,11.5,2.5a3.15,3.15,0,0,0-2.65.83.81.81,0,0,1-.75.23.73.73,0,0,1-.55-.42A7.23,7.23,0,0,1,7.12.27a.28.28,0,0,0-.55,0,7.64,7.64,0,0,0,.49,3.1,1.3,1.3,0,0,0,1,.76,1.39,1.39,0,0,0,1.24-.4,2.54,2.54,0,0,1,2.19-.67,4.13,4.13,0,0,1,3.31,2,4.82,4.82,0,0,1,.59,2.69l0,.23-.81-.26a1.85,1.85,0,0,0-1.23,0l-1.11.4a1.44,1.44,0,0,1-1.06-.06l-.62-.31a1.81,1.81,0,0,0-1.42-.11L8,8V7.46A1.39,1.39,0,0,0,7.14,6.1C4.84,5.11,4.79.94,4.8.47a.28.28,0,0,0-.28-.3.28.28,0,0,0-.29.28c0,.52.06,5.05,2.68,6.18a.9.9,0,0,1,.52.83c0,2.33-.48,3.05-.85,3.25s-.71,0-1.24-.34a2.53,2.53,0,0,0-2.59-.5C1,10.61.26,13.88.08,15.69a.29.29,0,0,0,.06.21.29.29,0,0,0,.19.1h0a.28.28,0,0,0,.28-.25C.77,14.48,1.43,11,3,10.35a2,2,0,0,1,2,.43,1.81,1.81,0,0,0,1.84.4c.58-.3.94-1.11,1.09-2.47V8.6l1.31-.41a1.35,1.35,0,0,1,1,.08l.62.31a1.94,1.94,0,0,0,1.5.09l1.11-.39a1.33,1.33,0,0,1,.86,0l.93.28,0,.15a9.81,9.81,0,0,1-.77,2.39,7,7,0,0,1-5.56,4.2,3.94,3.94,0,0,1-3.69-1.72c-.19-.3-.73-1.12-1.39-1.12l-.19,0c-.68.17-1.17,1.35-1.35,3.24a.27.27,0,0,0,.25.29.28.28,0,0,0,.3-.25c.08-1.06.43-2.61.92-2.74.22-.06.58.25,1,.86a4.43,4.43,0,0,0,4.2,2A7.51,7.51,0,0,0,15,11.3Z"/><path class="cls-1" d="M9.6,9.61a.55.55,0,0,0-.55.55.55.55,0,0,0,.55.55.54.54,0,0,0,.55-.55A.55.55,0,0,0,9.6,9.61Z"/><path class="cls-1" d="M10.24,12.16a.55.55,0,1,0,.55.55A.55.55,0,0,0,10.24,12.16Z"/><path class="cls-1" d="M12.29,10.21a.55.55,0,0,0-.55.55.55.55,0,1,0,1.1,0A.55.55,0,0,0,12.29,10.21Z"/><circle class="cls-1" cx="7.62" cy="13.25" r="0.46"/></svg>