<svg id="Meedok-Doctores" xmlns="http://www.w3.org/2000/svg" viewBox="0 0 16 16"><defs><style>.cls-1{fill:#fff;}</style></defs><path class="cls-1" d="M5.56,3.07A1.54,1.54,0,0,1,5.56,0a1.54,1.54,0,1,1,0,3.07Zm0-2.59A1.06,1.06,0,1,0,6.62,1.54,1.06,1.06,0,0,0,5.56.48Z"/><path class="cls-1" d="M11.74,15.68a.82.82,0,0,1-.81-.64L9.87,10.8a.83.83,0,0,1,0-.35l0-.54L8.73,11.28l-.05,3.58a.83.83,0,0,1-1.66,0L7.07,11a.82.82,0,0,1,.18-.52l2-2.4L7.8,5.79l-.17.92a.83.83,0,0,1-.53.63l-2,.74A.85.85,0,0,1,4,7.59.83.83,0,0,1,4.5,6.52l1.58-.58.5-2.59,0-.11a.51.51,0,0,1,.08-.17,1.39,1.39,0,0,1,1.08-.66h3a.81.81,0,0,1,.7.4l1.14,1.83a.83.83,0,0,1-1.41.88h0l-.9-1.43H9.27l2,3.2a.89.89,0,0,1,.13.48l.21,3.11.94,3.78a.81.81,0,0,1-.09.63.87.87,0,0,1-.52.38ZM10.06,9h.07a.22.22,0,0,1,.16.22l.05,1.2a.13.13,0,0,1,0,.06.43.43,0,0,0,0,.16l1.06,4.25A.36.36,0,0,0,12,15a.36.36,0,0,0,0-.27l-.95-3.82-.22-3.18a.49.49,0,0,0-.05-.23L8.64,4a.23.23,0,0,1,0-.24.27.27,0,0,1,.21-.12h1.63a.24.24,0,0,1,.2.11l1,1.55a.36.36,0,0,0,.49.12.35.35,0,0,0,.11-.49L11.1,3.06a.35.35,0,0,0-.3-.17h-3c-.1,0-.38,0-.69.46,0,0,0,.07,0,.08L6.53,6.16a.24.24,0,0,1-.16.18L4.67,7a.34.34,0,0,0-.21.45.35.35,0,0,0,.45.21l2-.74a.34.34,0,0,0,.22-.27L7.45,5.1a.22.22,0,0,1,.19-.19.24.24,0,0,1,.25.1L9.7,7.94a.24.24,0,0,1,0,.28L7.62,10.75a.37.37,0,0,0-.08.22l0,3.87a.32.32,0,0,0,.1.25.33.33,0,0,0,.25.11.36.36,0,0,0,.36-.35l0-3.66A.27.27,0,0,1,8.3,11L9.87,9.12A.25.25,0,0,1,10.06,9Z"/><path class="cls-1" d="M3.47,16a.24.24,0,0,1-.24-.24V8.88a1.13,1.13,0,0,1,2.26,0,.24.24,0,1,1-.47,0,.66.66,0,0,0-.66-.65.65.65,0,0,0-.65.65v6.88A.24.24,0,0,1,3.47,16Z"/></svg>