<svg id="Meedok-Doctores" xmlns="http://www.w3.org/2000/svg" viewBox="0 0 16 16"><defs><style>.cls-1{fill:#fff;}</style></defs><path class="cls-1" d="M1.55,9.14h0A.54.54,0,0,1,1.15,9,.8.8,0,0,1,1,8.43c0-.09,0-.19,0-.31a2.53,2.53,0,0,0-.31-.65C.52,7.26.36,7,.18,6.64A2.12,2.12,0,0,1,.11,5.09,2.24,2.24,0,0,1,1.28,3.78a6.66,6.66,0,0,1,3.11-.62h.2a1.24,1.24,0,0,0,.93-.27l.22-.13A4.15,4.15,0,0,1,8,2a.25.25,0,1,1,0,.5,3.66,3.66,0,0,0-2,.69l-.22.14a1.68,1.68,0,0,1-1.19.35H4.39a6.28,6.28,0,0,0-2.89.58,1.75,1.75,0,0,0-.92,1A1.61,1.61,0,0,0,.63,6.41c.17.34.32.6.45.81A3,3,0,0,1,1.45,8c0,.14,0,.26,0,.36a1,1,0,0,0,0,.24c.05,0,.12,0,.21-.11a.25.25,0,0,1,.36.34A.75.75,0,0,1,1.55,9.14Z"/><path class="cls-1" d="M8,14c-.54,0-1.23-.09-1.45-.53a1.11,1.11,0,0,1,0-.85,2.68,2.68,0,0,0,.08-.73,3.88,3.88,0,0,0-.4-1.36l-.11-.24a4.47,4.47,0,0,1-.44-1.54,9.07,9.07,0,0,1-.06-1.33,4.23,4.23,0,0,0,0-.83,3.73,3.73,0,0,0-.23-.87A3.23,3.23,0,0,0,5.08,6a1.5,1.5,0,0,0-.23.48A1.92,1.92,0,0,0,4.78,7a3,3,0,0,1-.21,1.07,1.83,1.83,0,0,1-1.5,1.23,1.43,1.43,0,0,1-1.35-.44,1.46,1.46,0,0,1-.27-1.22A1.62,1.62,0,0,1,2,6.79a.8.8,0,0,1-.85-.16A1.1,1.1,0,0,1,.82,5.7a1.61,1.61,0,0,1,1-1.21,3.07,3.07,0,0,1,2.17-.33,3.3,3.3,0,0,1,1.27.66A2.51,2.51,0,0,1,6,6.53a5.4,5.4,0,0,1,0,.93,7.85,7.85,0,0,0,0,1.25,3.93,3.93,0,0,0,.4,1.4l.12.25a4.43,4.43,0,0,1,.43,1.54,2.77,2.77,0,0,1-.09.87.62.62,0,0,0,0,.5c.07.13.41.26,1,.26A.25.25,0,0,1,8,14ZM2.21,6.2l.12,0a.77.77,0,0,1,.42.43A.24.24,0,0,1,2.63,7a1.25,1.25,0,0,0-.7.77.94.94,0,0,0,.19.8A1,1,0,0,0,3,8.79a1.35,1.35,0,0,0,1.1-.91A3,3,0,0,0,4.29,7a2.52,2.52,0,0,1,.08-.58,2.17,2.17,0,0,1,.67-1l-.13-.12a3.07,3.07,0,0,0-1.08-.57A2.65,2.65,0,0,0,2,4.93a1.18,1.18,0,0,0-.7.82.63.63,0,0,0,.17.5.37.37,0,0,0,.49,0A.55.55,0,0,1,2.21,6.2Z"/><path class="cls-1" d="M2.53,7a.25.25,0,0,1-.12-.47,2.61,2.61,0,0,1,.84-.25l.31-.07c.3-.07.39-.09.77-.63s.48-.71.49-.72a.24.24,0,0,1,.33-.09.26.26,0,0,1,.1.34s-.1.16-.51.75-.64.73-1.06.84l-.34.06a2.59,2.59,0,0,0-.7.21A.2.2,0,0,1,2.53,7Z"/><path class="cls-1" d="M7.56,12H7.5a.22.22,0,0,1-.15-.27,2.87,2.87,0,0,0,0-1.1A3.82,3.82,0,0,0,7,9.44c-.09-.21-.2-.45-.3-.75a3.73,3.73,0,0,1-.17-1.37,9.07,9.07,0,0,0,0-1,2.45,2.45,0,0,0-1.2-2A.22.22,0,0,1,5.26,4a.23.23,0,0,1,.31,0A2.93,2.93,0,0,1,7,6.3c0,.42,0,.74,0,1a3.46,3.46,0,0,0,.15,1.23,5.48,5.48,0,0,0,.29.71,4.57,4.57,0,0,1,.39,1.26,3.28,3.28,0,0,1-.05,1.28A.21.21,0,0,1,7.56,12Z"/><path class="cls-1" d="M14.45,9.14a.74.74,0,0,1-.55-.28.25.25,0,0,1,.36-.34.3.3,0,0,0,.19.12h0a.54.54,0,0,0,.06-.25c0-.1,0-.22,0-.36a3,3,0,0,1,.37-.81c.13-.21.28-.47.46-.81a1.67,1.67,0,0,0,0-1.17,1.75,1.75,0,0,0-.92-1,6.28,6.28,0,0,0-2.89-.58H11.4a1.68,1.68,0,0,1-1.19-.35L10,3.16a3.69,3.69,0,0,0-2-.69A.25.25,0,0,1,8,2a4.07,4.07,0,0,1,2.26.78l.22.13a1.24,1.24,0,0,0,.93.27h.2a6.66,6.66,0,0,1,3.11.62,2.24,2.24,0,0,1,1.17,1.31,2.12,2.12,0,0,1-.07,1.55c-.18.35-.34.62-.47.83a2.53,2.53,0,0,0-.31.65c0,.11,0,.22,0,.31a.8.8,0,0,1-.15.52.54.54,0,0,1-.39.19Z"/><path class="cls-1" d="M8,14a.25.25,0,0,1,0-.5c.61,0,.94-.13,1-.26a.62.62,0,0,0,0-.5,2.77,2.77,0,0,1-.09-.87,4.43,4.43,0,0,1,.43-1.54l.12-.25a3.93,3.93,0,0,0,.4-1.4,7.85,7.85,0,0,0,0-1.25,5.4,5.4,0,0,1,0-.93,2.51,2.51,0,0,1,.82-1.71,3.3,3.3,0,0,1,1.27-.66,3.12,3.12,0,0,1,2.17.33,1.61,1.61,0,0,1,.95,1.21,1.1,1.1,0,0,1-.34.93.85.85,0,0,1-.83.18,1.6,1.6,0,0,1,.54.81,1.46,1.46,0,0,1-.27,1.22,1.43,1.43,0,0,1-1.35.44,1.83,1.83,0,0,1-1.5-1.23A3,3,0,0,1,11.22,7a1.92,1.92,0,0,0-.07-.48A1.5,1.5,0,0,0,10.92,6a3.23,3.23,0,0,0-.23-.27,3.73,3.73,0,0,0-.23.87,4.23,4.23,0,0,0,0,.83,9.07,9.07,0,0,1-.06,1.33,4.47,4.47,0,0,1-.44,1.54l-.11.24a3.88,3.88,0,0,0-.4,1.36,2.68,2.68,0,0,0,.08.73,1.11,1.11,0,0,1-.05.85C9.23,13.94,8.54,14,8,14Zm3-8.7a2.17,2.17,0,0,1,.37.41,2.27,2.27,0,0,1,.3.63,2.52,2.52,0,0,1,.08.58,2.93,2.93,0,0,0,.18.93A1.38,1.38,0,0,0,13,8.79a1,1,0,0,0,.88-.24.94.94,0,0,0,.19-.8,1.28,1.28,0,0,0-.7-.77.25.25,0,0,1-.12-.33.79.79,0,0,1,.42-.43.46.46,0,0,1,.36,0,.37.37,0,0,0,.49,0,.63.63,0,0,0,.17-.5,1.18,1.18,0,0,0-.7-.82,2.65,2.65,0,0,0-1.82-.29,3.07,3.07,0,0,0-1.08.57Z"/><path class="cls-1" d="M13.48,7a.24.24,0,0,1-.12,0,2.59,2.59,0,0,0-.7-.21l-.33-.06c-.43-.11-.62-.2-1.07-.84s-.5-.74-.51-.75a.26.26,0,0,1,.1-.34.23.23,0,0,1,.33.09s.1.16.49.72.47.56.77.63l.31.07a2.61,2.61,0,0,1,.84.25.25.25,0,0,1,.1.34A.24.24,0,0,1,13.48,7Z"/><path class="cls-1" d="M8.44,12a.21.21,0,0,1-.21-.16,3.53,3.53,0,0,1-.05-1.28,4.25,4.25,0,0,1,.4-1.26,7.53,7.53,0,0,0,.28-.71A3.46,3.46,0,0,0,9,7.32a10,10,0,0,1,0-1A2.88,2.88,0,0,1,10.44,4a.22.22,0,0,1,.3,0,.23.23,0,0,1-.05.31,2.44,2.44,0,0,0-1.21,2,9.07,9.07,0,0,0,0,1,3.53,3.53,0,0,1-.17,1.37,6.47,6.47,0,0,1-.3.75,3.82,3.82,0,0,0-.36,1.14,3.14,3.14,0,0,0,0,1.1A.22.22,0,0,1,8.5,12Z"/></svg>