<?xml version="1.0" encoding="utf-8"?>
<!-- Generator: Adobe Illustrator 24.2.1, SVG Export Plug-In . SVG Version: 6.00 Build 0)  -->
<svg version="1.1" id="Meedok-Doctores" xmlns="http://www.w3.org/2000/svg" xmlns:xlink="http://www.w3.org/1999/xlink" x="0px"
	 y="0px" viewBox="0 0 16 16" style="enable-background:new 0 0 16 16;" xml:space="preserve">
<style type="text/css">
	.st0{fill:#EDD1E6;}
	.st1{fill:#B5C9E5;}
	.st2{fill:#FFFFFF;}
	.st3{fill:url(#SVGID_1_);}
	.st4{fill:url(#SVGID_2_);}
	.st5{fill:url(#SVGID_3_);}
	.st6{fill:url(#SVGID_4_);}
	.st7{fill:url(#SVGID_5_);}
	.st8{fill:url(#SVGID_6_);}
	.st9{fill:url(#SVGID_7_);}
	.st10{fill:url(#SVGID_8_);}
	.st11{fill:url(#SVGID_9_);}
	.st12{fill:url(#SVGID_10_);}
	.st13{opacity:0.7;fill:#FFFFFF;}
	.st14{fill-rule:evenodd;clip-rule:evenodd;fill:#FFFFFF;}
	.st15{fill:#4A4C74;}
	.st16{fill:#4A4C78;}
	.st17{fill:#686A74;}
	.st18{fill:none;stroke:#FFFFFF;stroke-width:0.8558;stroke-linecap:round;stroke-linejoin:round;stroke-miterlimit:10;}
	.st19{fill:url(#SVGID_11_);}
	.st20{fill:url(#SVGID_12_);}
	.st21{fill:#FC00B0;}
	.st22{fill:url(#Fill_1_15_);}
	.st23{fill:url(#Fill_4_5_);}
	.st24{fill:url(#Fill_7_2_);}
	.st25{fill:#4E00EF;}
	.st26{opacity:0.7;fill:#4E00EF;}
	.st27{fill:url(#SVGID_13_);}
	.st28{fill:url(#SVGID_14_);}
	.st29{fill:url(#SVGID_15_);}
	.st30{fill:url(#SVGID_16_);}
	.st31{fill:url(#SVGID_17_);}
	.st32{fill:url(#SVGID_18_);}
	.st33{fill:url(#SVGID_19_);}
	.st34{fill:url(#SVGID_20_);}
	.st35{fill:url(#SVGID_21_);}
	.st36{fill:url(#SVGID_22_);}
	.st37{fill:#343434;}
	.st38{fill:url(#SVGID_23_);}
	.st39{fill:url(#SVGID_24_);}
	.st40{fill:url(#SVGID_25_);}
	.st41{fill:url(#SVGID_26_);}
	.st42{fill:url(#SVGID_27_);}
	.st43{fill:url(#SVGID_28_);}
	.st44{fill:url(#SVGID_29_);}
	.st45{fill:url(#SVGID_30_);}
	.st46{fill:url(#SVGID_31_);}
	.st47{fill:url(#SVGID_32_);}
	.st48{fill:url(#Fill_9_1_);}
	.st49{fill:url(#SVGID_33_);}
	.st50{fill:url(#SVGID_34_);}
	.st51{fill:url(#SVGID_35_);}
	.st52{fill:url(#SVGID_36_);}
	.st53{fill:url(#SVGID_37_);}
	.st54{fill:url(#SVGID_38_);}
	.st55{fill:url(#SVGID_39_);}
	.st56{fill:url(#SVGID_40_);}
	.st57{fill:none;}
	.st58{clip-path:url(#SVGID_42_);}
	.st59{fill:url(#Fill_1_16_);}
	.st60{fill:#4285F4;}
	.st61{fill:#34A853;}
	.st62{fill:#FBBC05;}
	.st63{fill:#EB4335;}
	.st64{fill-rule:evenodd;clip-rule:evenodd;fill:url(#SVGID_43_);}
	.st65{clip-path:url(#SVGID_45_);fill:#4E00E2;}
	.st66{clip-path:url(#SVGID_47_);fill:#4E00E2;}
	.st67{fill:url(#SVGID_48_);}
	.st68{fill:url(#SVGID_49_);}
	.st69{fill:url(#SVGID_50_);}
	.st70{fill:url(#SVGID_51_);}
	.st71{fill:url(#SVGID_52_);}
	.st72{fill:url(#SVGID_53_);}
</style>
<g>
	<g>
		<g>
			<path class="st25" d="M10.15,0.44c0.77,0,1.4,0.63,1.4,1.4c0,0.77-0.63,1.4-1.4,1.4c-0.77,0-1.4-0.63-1.4-1.4
				C8.75,1.07,9.38,0.44,10.15,0.44z"/>
		</g>
		<g>
			<path class="st25" d="M5.72,0.44c0.77,0,1.4,0.63,1.4,1.4c0,0.77-0.63,1.4-1.4,1.4s-1.4-0.63-1.4-1.4
				C4.31,1.07,4.94,0.44,5.72,0.44z"/>
		</g>
		<g>
			<path class="st25" d="M5.66,4.1C4.07,4.13,2.83,5.47,2.83,7.05V7.9c0,0.11,0.09,0.19,0.19,0.19h0.96c0.11,0,0.19-0.09,0.19-0.19
				V7.03c0-0.83,0.64-1.54,1.46-1.58C6.53,5.4,7.26,6.11,7.26,6.99c0-0.71,0.25-1.35,0.68-1.86C7.39,4.48,6.57,4.08,5.66,4.1z"/>
			<path class="st26" d="M10.22,4.1C9.3,4.08,8.48,4.48,7.94,5.13c0.42,0.5,0.68,1.15,0.68,1.86c0-0.88,0.73-1.58,1.62-1.54
				c0.83,0.04,1.46,0.76,1.46,1.58V7.9c0,0.11,0.09,0.19,0.19,0.19h0.96c0.11,0,0.19-0.09,0.19-0.19V7.05
				C13.05,5.47,11.8,4.13,10.22,4.1z"/>
			<path class="st25" d="M7.26,6.99V7.9c0,0.11,0.09,0.19,0.19,0.19h0.96c0.11,0,0.19-0.09,0.19-0.19V6.99
				c0-0.71-0.25-1.35-0.68-1.86C7.52,5.64,7.26,6.28,7.26,6.99z"/>
		</g>
	</g>
	<g id="Group_3_10_" transform="translate(0 28.767)">
		<path id="Clip_2-2" class="st57" d="M9.5-13.21L9.5-13.21c-0.24,0-0.46-0.03-0.68-0.09l-4.03-1.12c-0.74-0.21-1.54-0.04-2.14,0.44
			l-0.82,0.66L0-15.54l3.34-2.63c0.56-0.44,1.32-0.55,1.98-0.28l5.01,2.04c0.32,0.13,0.48,0.49,0.35,0.82
			c-0.13,0.33-0.5,0.49-0.84,0.37l-3.38-1.32c-0.01,0-0.01-0.01-0.02-0.01C6.27-16.62,6.07-16.52,6-16.34
			c-0.03,0.09-0.03,0.18,0.01,0.26c0.04,0.08,0.11,0.15,0.2,0.18l3.38,1.32c0.14,0.05,0.28,0.08,0.43,0.09c0.02,0,0.04,0,0.07,0
			c0.71,0,1.31-0.55,1.35-1.27c0.01-0.01,0.03-0.01,0.04-0.02l3.54-2.28c0.27-0.18,0.63-0.12,0.84,0.12
			c0.01,0.02,0.02,0.03,0.03,0.04c0.2,0.28,0.14,0.68-0.14,0.88c0,0-0.01,0-0.01,0.01l-4.8,3.35C10.51-13.37,10.01-13.21,9.5-13.21z
			 M11.26-16.47L11.26-16.47c-0.14-0.25-0.36-0.44-0.62-0.56l2.69-1.75c0.15-0.1,0.36-0.07,0.48,0.07l0.32,0.39L11.26-16.47
			L11.26-16.47z M9.87-17.35L9.87-17.35L9.2-17.62L11.34-19c0.16-0.09,0.36-0.06,0.48,0.07l0.17,0.2L9.87-17.35L9.87-17.35z"/>
		<g>
			<defs>
				<path id="SVGID_41_" d="M9.5-13.21L9.5-13.21c-0.24,0-0.46-0.03-0.68-0.09l-4.03-1.12c-0.74-0.21-1.54-0.04-2.14,0.44
					l-0.82,0.66L0-15.54l3.34-2.63c0.56-0.44,1.32-0.55,1.98-0.28l5.01,2.04c0.32,0.13,0.48,0.49,0.35,0.82
					c-0.13,0.33-0.5,0.49-0.84,0.37l-3.38-1.32c-0.01,0-0.01-0.01-0.02-0.01C6.27-16.62,6.07-16.52,6-16.34
					c-0.03,0.09-0.03,0.18,0.01,0.26c0.04,0.08,0.11,0.15,0.2,0.18l3.38,1.32c0.14,0.05,0.28,0.08,0.43,0.09c0.02,0,0.04,0,0.07,0
					c0.71,0,1.31-0.55,1.35-1.27c0.01-0.01,0.03-0.01,0.04-0.02l3.54-2.28c0.27-0.18,0.63-0.12,0.84,0.12
					c0.01,0.02,0.02,0.03,0.03,0.04c0.2,0.28,0.14,0.68-0.14,0.88c0,0-0.01,0-0.01,0.01l-4.8,3.35
					C10.51-13.37,10.01-13.21,9.5-13.21z M11.26-16.47L11.26-16.47c-0.14-0.25-0.36-0.44-0.62-0.56l2.69-1.75
					c0.15-0.1,0.36-0.07,0.48,0.07l0.32,0.39L11.26-16.47L11.26-16.47z M9.87-17.35L9.87-17.35L9.2-17.62L11.34-19
					c0.16-0.09,0.36-0.06,0.48,0.07l0.17,0.2L9.87-17.35L9.87-17.35z"/>
			</defs>
			<clipPath id="SVGID_1_">
				<use xlink:href="#SVGID_41_"  style="overflow:visible;"/>
			</clipPath>
			<g id="Group_3-2_9_" style="clip-path:url(#SVGID_1_);">
				
					<linearGradient id="Fill_1_15_" gradientUnits="userSpaceOnUse" x1="-2391.4475" y1="26.7457" x2="-2391.1758" y2="26.7457" gradientTransform="matrix(58.8866 0 0 -21.5347 140824.2031 559.8264)">
					<stop  offset="0" style="stop-color:#E8009C"/>
					<stop  offset="1" style="stop-color:#FF00B3"/>
				</linearGradient>
				<path id="Fill_1_12_" class="st22" d="M9.5-13.21L9.5-13.21c-0.24,0-0.46-0.03-0.68-0.09l-4.03-1.12
					c-0.74-0.21-1.54-0.04-2.14,0.44l-0.82,0.66L0-15.54l3.34-2.63c0.56-0.44,1.32-0.55,1.98-0.28l5.01,2.04
					c0.32,0.13,0.48,0.49,0.35,0.82c-0.13,0.33-0.5,0.49-0.84,0.37l-3.38-1.32c-0.01,0-0.01-0.01-0.02-0.01
					C6.27-16.62,6.07-16.52,6-16.34c-0.03,0.09-0.03,0.18,0.01,0.26c0.04,0.08,0.11,0.15,0.2,0.18l3.38,1.32
					c0.14,0.05,0.28,0.08,0.43,0.09c0.02,0,0.04,0,0.07,0c0.71,0,1.31-0.55,1.35-1.27c0.01-0.01,0.03-0.01,0.04-0.02l3.54-2.28
					c0.27-0.18,0.63-0.12,0.84,0.12c0.01,0.02,0.02,0.03,0.03,0.04c0.2,0.28,0.14,0.68-0.14,0.88c0,0-0.01,0-0.01,0.01l-4.8,3.35
					C10.51-13.37,10.01-13.21,9.5-13.21z M11.26-16.47L11.26-16.47c-0.14-0.25-0.36-0.44-0.62-0.56l2.69-1.75
					c0.15-0.1,0.36-0.07,0.48,0.07l0.32,0.39L11.26-16.47L11.26-16.47z M9.87-17.35L9.87-17.35L9.2-17.62L11.34-19
					c0.16-0.09,0.36-0.06,0.48,0.07l0.17,0.2L9.87-17.35L9.87-17.35z"/>
			</g>
		</g>
	</g>
</g>
</svg>
