<?xml version="1.0" encoding="utf-8"?>
<!-- Generator: Adobe Illustrator 24.2.1, SVG Export Plug-In . SVG Version: 6.00 Build 0)  -->
<svg version="1.1" id="Meedok-Doctores" xmlns="http://www.w3.org/2000/svg" xmlns:xlink="http://www.w3.org/1999/xlink" x="0px"
	 y="0px" viewBox="0 0 16 16" style="enable-background:new 0 0 16 16;" xml:space="preserve">
<style type="text/css">
	.st0{fill:#EDD1E6;}
	.st1{fill:#B5C9E5;}
	.st2{fill:#FFFFFF;}
	.st3{fill:url(#SVGID_1_);}
	.st4{fill:url(#SVGID_2_);}
	.st5{fill:url(#SVGID_3_);}
	.st6{fill:url(#SVGID_4_);}
	.st7{fill:url(#SVGID_5_);}
	.st8{fill:url(#SVGID_6_);}
	.st9{fill:url(#SVGID_7_);}
	.st10{fill:url(#SVGID_8_);}
	.st11{fill:url(#SVGID_9_);}
	.st12{fill:url(#SVGID_10_);}
	.st13{opacity:0.7;fill:#FFFFFF;}
	.st14{fill-rule:evenodd;clip-rule:evenodd;fill:#FFFFFF;}
	.st15{fill:#4A4C74;}
	.st16{fill:#4A4C78;}
	.st17{fill:#686A74;}
	.st18{fill:none;stroke:#FFFFFF;stroke-width:0.8558;stroke-linecap:round;stroke-linejoin:round;stroke-miterlimit:10;}
	.st19{fill:url(#SVGID_11_);}
	.st20{fill:url(#SVGID_12_);}
	.st21{fill:#FC00B0;}
	.st22{fill:url(#Fill_1_15_);}
	.st23{fill:url(#Fill_4_5_);}
	.st24{fill:url(#Fill_7_2_);}
	.st25{fill:#4E00EF;}
	.st26{opacity:0.7;fill:#4E00EF;}
	.st27{fill:url(#SVGID_13_);}
	.st28{fill:url(#SVGID_14_);}
	.st29{fill:url(#SVGID_15_);}
	.st30{fill:url(#SVGID_16_);}
	.st31{fill:url(#SVGID_17_);}
	.st32{fill:url(#SVGID_18_);}
	.st33{fill:url(#SVGID_19_);}
	.st34{fill:url(#SVGID_20_);}
	.st35{fill:url(#SVGID_21_);}
	.st36{fill:url(#SVGID_22_);}
	.st37{fill:#343434;}
	.st38{fill:url(#SVGID_23_);}
	.st39{fill:url(#SVGID_24_);}
	.st40{fill:url(#SVGID_25_);}
	.st41{fill:url(#SVGID_26_);}
	.st42{fill:url(#SVGID_27_);}
	.st43{fill:url(#SVGID_28_);}
	.st44{fill:url(#SVGID_29_);}
	.st45{fill:url(#SVGID_30_);}
	.st46{fill:url(#SVGID_31_);}
	.st47{fill:url(#SVGID_32_);}
	.st48{fill:url(#Fill_9_1_);}
	.st49{fill:url(#SVGID_33_);}
	.st50{fill:url(#SVGID_34_);}
	.st51{fill:url(#SVGID_35_);}
	.st52{fill:url(#SVGID_36_);}
	.st53{fill:url(#SVGID_37_);}
	.st54{fill:url(#SVGID_38_);}
	.st55{fill:url(#SVGID_39_);}
	.st56{fill:url(#SVGID_40_);}
	.st57{fill:none;}
	.st58{clip-path:url(#SVGID_42_);}
	.st59{fill:url(#Fill_1_16_);}
	.st60{fill:#4285F4;}
	.st61{fill:#34A853;}
	.st62{fill:#FBBC05;}
	.st63{fill:#EB4335;}
	.st64{fill-rule:evenodd;clip-rule:evenodd;fill:url(#SVGID_43_);}
	.st65{clip-path:url(#SVGID_45_);fill:#4E00E2;}
	.st66{clip-path:url(#SVGID_47_);fill:#4E00E2;}
	.st67{fill:url(#SVGID_48_);}
	.st68{fill:url(#SVGID_49_);}
	.st69{fill:url(#SVGID_50_);}
	.st70{fill:url(#SVGID_51_);}
	.st71{fill:url(#SVGID_52_);}
	.st72{fill:url(#SVGID_53_);}
</style>
<g>
	<path class="st25" d="M14.09,4.45c0-0.09-0.04-0.18-0.1-0.25l-4.02-4.1C9.9,0.04,9.81,0,9.72,0H3.66C2.7,0,1.91,0.79,1.91,1.75
		v12.49C1.91,15.21,2.7,16,3.66,16h8.67c0.97,0,1.75-0.79,1.75-1.75V4.45z M10.04,1.18l3.03,3.09h-2.51c-0.29,0-0.53-0.24-0.53-0.53
		L10.04,1.18z M12.34,15.3H3.66c-0.58,0-1.05-0.47-1.05-1.05V1.75c0-0.58,0.47-1.05,1.05-1.05h5.67v3.05c0,0.68,0.55,1.23,1.23,1.23
		h2.82v9.27C13.39,14.83,12.92,15.3,12.34,15.3z"/>
	<g>
		<path class="st25" d="M11.51,7.69H6.78c-0.19,0-0.35,0.16-0.35,0.35c0,0.19,0.16,0.35,0.35,0.35h4.73c0.19,0,0.35-0.16,0.35-0.35
			C11.86,7.85,11.7,7.69,11.51,7.69z"/>
		<path class="st25" d="M4.67,7.52c-0.29,0-0.53,0.24-0.53,0.53c0,0.29,0.24,0.53,0.53,0.53l0,0h0.01c0.29,0,0.53-0.24,0.53-0.53
			C5.2,7.75,4.97,7.52,4.67,7.52C4.67,7.52,4.67,7.52,4.67,7.52z"/>
		<path class="st25" d="M11.51,9.97H6.78c-0.19,0-0.35,0.16-0.35,0.35c0,0.19,0.16,0.35,0.35,0.35h4.73c0.19,0,0.35-0.16,0.35-0.35
			C11.86,10.13,11.7,9.97,11.51,9.97z"/>
		<path class="st25" d="M4.67,9.8c-0.29,0-0.53,0.24-0.53,0.53c0,0.29,0.24,0.53,0.53,0.53h0.01c0.29,0,0.53-0.24,0.53-0.53
			C5.2,10.03,4.97,9.8,4.67,9.8C4.67,9.8,4.67,9.8,4.67,9.8z"/>
		<path class="st25" d="M11.51,12.25H6.78c-0.19,0-0.35,0.16-0.35,0.35c0,0.19,0.16,0.35,0.35,0.35h4.73c0.19,0,0.35-0.16,0.35-0.35
			C11.86,12.41,11.7,12.25,11.51,12.25z"/>
		<path class="st25" d="M4.67,12.08c-0.29,0-0.53,0.24-0.53,0.53c0,0.29,0.24,0.53,0.53,0.53l0,0h0.01c0.29,0,0.53-0.24,0.53-0.53
			C5.2,12.31,4.97,12.08,4.67,12.08C4.67,12.08,4.67,12.08,4.67,12.08z"/>
	</g>
	<g>
		<g>
			<path class="st25" d="M5.74,2.34c0.38,0,0.69,0.31,0.69,0.69c0,0.38-0.31,0.69-0.69,0.69c-0.38,0-0.69-0.31-0.69-0.69
				C5.05,2.65,5.36,2.34,5.74,2.34z"/>
			<path class="st25" d="M6.83,4.65C6.56,4.33,6.16,4.13,5.71,4.14C4.93,4.15,4.32,4.81,4.32,5.59v0.42c0,0.05,0.04,0.1,0.1,0.1
				h0.47c0.05,0,0.1-0.04,0.1-0.1V5.58c0-0.41,0.31-0.76,0.72-0.78c0.43-0.02,0.8,0.33,0.8,0.76v0.45c0,0.05,0.04,0.1,0.1,0.1h0.47
				c0.05,0,0.1-0.04,0.1-0.1V5.56C7.16,5.21,7.04,4.89,6.83,4.65z"/>
		</g>
	</g>
</g>
</svg>
