<?xml version="1.0" encoding="utf-8"?>
<!-- Generator: Adobe Illustrator 24.2.1, SVG Export Plug-In . SVG Version: 6.00 Build 0)  -->
<svg version="1.1" id="Meedok-Doctores" xmlns="http://www.w3.org/2000/svg" xmlns:xlink="http://www.w3.org/1999/xlink" x="0px"
	 y="0px" viewBox="0 0 16 16" style="enable-background:new 0 0 16 16;" xml:space="preserve">
<style type="text/css">
	.st0{fill:#FFFFFF;}
	.st1{fill:url(#SVGID_1_);}
	.st2{fill:url(#SVGID_2_);}
	.st3{fill:url(#SVGID_3_);}
	.st4{fill:url(#SVGID_4_);}
	.st5{fill:url(#SVGID_5_);}
	.st6{fill:url(#SVGID_6_);}
	.st7{fill:url(#SVGID_7_);}
	.st8{fill:url(#SVGID_8_);}
	.st9{fill:url(#SVGID_9_);}
	.st10{fill:url(#SVGID_10_);}
	.st11{opacity:0.7;fill:#FFFFFF;}
	.st12{fill-rule:evenodd;clip-rule:evenodd;fill:#FFFFFF;}
</style>
<g>
	<path class="st0" d="M14.8,2.52H7.66c-0.1,0-0.2-0.05-0.26-0.14L6.48,1.03c-0.22-0.33-0.6-0.53-1-0.53H1.2C0.54,0.5,0,1.04,0,1.71
		v12.59c0,0.66,0.54,1.2,1.2,1.2H14.8c0.66,0,1.2-0.54,1.2-1.2V3.72C16,3.06,15.46,2.52,14.8,2.52z M15.1,14.29
		c0,0.17-0.14,0.31-0.31,0.31H1.2c-0.17,0-0.31-0.14-0.31-0.31V1.71C0.9,1.54,1.03,1.4,1.2,1.4h4.28c0.1,0,0.2,0.05,0.26,0.13
		l0.92,1.35c0.22,0.33,0.6,0.53,1,0.53h7.14c0.17,0,0.31,0.14,0.31,0.31V14.29z"/>
	<g>
		<g>
			<path class="st0" d="M8,5.95c0.62,0,1.12,0.5,1.12,1.12c0,0.62-0.5,1.12-1.12,1.12s-1.12-0.5-1.12-1.12
				C6.88,6.45,7.38,5.95,8,5.95z"/>
			<path class="st0" d="M9.76,9.68C9.33,9.17,8.68,8.84,7.95,8.86C6.69,8.88,5.7,9.95,5.7,11.21v0.68c0,0.09,0.07,0.16,0.16,0.16
				h0.77c0.09,0,0.16-0.07,0.16-0.16v-0.69c0-0.66,0.51-1.23,1.17-1.26c0.7-0.03,1.29,0.53,1.29,1.23v0.73
				c0,0.09,0.07,0.16,0.16,0.16h0.77c0.09,0,0.16-0.07,0.16-0.16v-0.73C10.3,10.6,10.1,10.08,9.76,9.68z"/>
		</g>
	</g>
	<g>
		<g>
			<path class="st0" d="M10.91,9.63c-0.17,0-0.32-0.14-0.32-0.32V7.06c0-0.17,0.14-0.32,0.32-0.32c0.17,0,0.32,0.14,0.32,0.32v2.25
				C11.23,9.48,11.08,9.63,10.91,9.63z"/>
		</g>
		<g>
			<path class="st0" d="M12.04,8.5H9.78c-0.17,0-0.32-0.14-0.32-0.32c0-0.17,0.14-0.32,0.32-0.32h2.25c0.17,0,0.32,0.14,0.32,0.32
				C12.35,8.36,12.21,8.5,12.04,8.5z"/>
		</g>
	</g>
</g>
</svg>
