<?xml version="1.0" encoding="utf-8"?>
<!-- Generator: Adobe Illustrator 24.2.1, SVG Export Plug-In . SVG Version: 6.00 Build 0)  -->
<svg version="1.1" id="Meedok-Doctores" xmlns="http://www.w3.org/2000/svg" xmlns:xlink="http://www.w3.org/1999/xlink" x="0px"
	 y="0px" viewBox="0 0 16 16" style="enable-background:new 0 0 16 16;" xml:space="preserve">
<style type="text/css">
	.st0{fill:#FFFFFF;}
	.st1{fill:url(#SVGID_1_);}
	.st2{fill:url(#SVGID_2_);}
	.st3{fill:url(#SVGID_3_);}
	.st4{fill:url(#SVGID_4_);}
	.st5{fill:url(#SVGID_5_);}
	.st6{fill:url(#SVGID_6_);}
	.st7{fill:url(#SVGID_7_);}
	.st8{fill:url(#SVGID_8_);}
	.st9{fill:url(#SVGID_9_);}
	.st10{fill:url(#SVGID_10_);}
	.st11{opacity:0.7;fill:#FFFFFF;}
</style>
<g>
	<g id="Group_3_6_">
		<path id="Fill_1_8_" class="st0" d="M8,16c-4.42,0-8-3.58-8-8s3.58-8,8-8s8,3.58,8,8C15.99,12.42,12.42,15.99,8,16z M8,1.45
			C4.39,1.45,1.45,4.39,1.45,8S4.39,14.55,8,14.55s6.55-2.93,6.55-6.55C14.54,4.39,11.61,1.46,8,1.45z M10.92,11.64
			c-0.19,0-0.38-0.08-0.52-0.21L7.48,8.52C7.35,8.38,7.27,8.19,7.27,8V3.39c0-0.4,0.33-0.73,0.73-0.73c0.4,0,0.73,0.33,0.73,0.73
			l0,0v4.3l2.7,2.7c0.28,0.28,0.29,0.74,0,1.03C11.3,11.57,11.11,11.64,10.92,11.64L10.92,11.64z"/>
	</g>
</g>
</svg>
