<svg id="Meedok-Doctores" xmlns="http://www.w3.org/2000/svg" viewBox="0 0 16 16"><defs><style>.cls-1{fill:#fff;}</style></defs><g id="Group_3" data-name="Group 3"><g id="Group_3-2" data-name="Group 3-2"><path id="Fill_1" data-name="Fill 1" class="cls-1" d="M2.6,16.08a2.56,2.56,0,0,1-1.78-.72,2.41,2.41,0,0,1-.74-1.73V7.08A2.39,2.39,0,0,1,1,5.21L6.45.66a2.56,2.56,0,0,1,3.26,0l5.46,4.55a2.42,2.42,0,0,1,.91,1.87v6.54a2.5,2.5,0,0,1-2.52,2.46ZM8.07,1.86A.62.62,0,0,0,7.62,2L2.16,6.57a.63.63,0,0,0-.25.51v6.54a.67.67,0,0,0,.2.48.7.7,0,0,0,.49.2H13.53a.7.7,0,0,0,.7-.67V7.08A.67.67,0,0,0,14,6.57L8.53,2A.65.65,0,0,0,8.07,1.86Z"/></g></g></svg>