<?xml version="1.0" encoding="utf-8"?>
<!-- Generator: Adobe Illustrator 24.2.1, SVG Export Plug-In . SVG Version: 6.00 Build 0)  -->
<svg version="1.1" id="Meedok-Doctores" xmlns="http://www.w3.org/2000/svg" xmlns:xlink="http://www.w3.org/1999/xlink" x="0px"
	 y="0px" viewBox="0 0 16 16" style="enable-background:new 0 0 16 16;" xml:space="preserve">
<style type="text/css">
	.st0{fill:#EDD1E6;}
	.st1{fill:#B5C9E5;}
	.st2{fill:#FFFFFF;}
	.st3{fill:url(#SVGID_1_);}
	.st4{fill:url(#SVGID_2_);}
	.st5{fill:url(#SVGID_3_);}
	.st6{fill:url(#SVGID_4_);}
	.st7{fill:url(#SVGID_5_);}
	.st8{fill:url(#SVGID_6_);}
	.st9{fill:url(#SVGID_7_);}
	.st10{fill:url(#SVGID_8_);}
	.st11{fill:url(#SVGID_9_);}
	.st12{fill:url(#SVGID_10_);}
	.st13{opacity:0.7;fill:#FFFFFF;}
	.st14{fill-rule:evenodd;clip-rule:evenodd;fill:#FFFFFF;}
	.st15{fill:#4A4C74;}
	.st16{fill:#4A4C78;}
	.st17{fill:#686A74;}
	.st18{fill:none;stroke:#FFFFFF;stroke-width:0.8558;stroke-linecap:round;stroke-linejoin:round;stroke-miterlimit:10;}
	.st19{fill:url(#SVGID_11_);}
	.st20{fill:url(#SVGID_12_);}
	.st21{fill:#FC00B0;}
	.st22{fill:url(#Fill_1_15_);}
	.st23{fill:url(#Fill_4_5_);}
	.st24{fill:url(#Fill_7_2_);}
	.st25{fill:#4E00EF;}
	.st26{opacity:0.7;fill:#4E00EF;}
	.st27{fill:url(#SVGID_13_);}
	.st28{fill:url(#SVGID_14_);}
	.st29{fill:url(#SVGID_15_);}
	.st30{fill:url(#SVGID_16_);}
	.st31{fill:url(#SVGID_17_);}
	.st32{fill:url(#SVGID_18_);}
	.st33{fill:url(#SVGID_19_);}
	.st34{fill:url(#SVGID_20_);}
	.st35{fill:url(#SVGID_21_);}
	.st36{fill:url(#SVGID_22_);}
	.st37{fill:#343434;}
	.st38{fill:url(#SVGID_23_);}
	.st39{fill:url(#SVGID_24_);}
	.st40{fill:url(#SVGID_25_);}
	.st41{fill:url(#SVGID_26_);}
	.st42{fill:url(#SVGID_27_);}
	.st43{fill:url(#SVGID_28_);}
	.st44{fill:url(#SVGID_29_);}
	.st45{fill:url(#SVGID_30_);}
	.st46{fill:url(#SVGID_31_);}
	.st47{fill:url(#SVGID_32_);}
	.st48{fill:url(#Fill_9_1_);}
	.st49{fill:url(#SVGID_33_);}
	.st50{fill:url(#SVGID_34_);}
	.st51{fill:url(#SVGID_35_);}
	.st52{fill:url(#SVGID_36_);}
	.st53{fill:url(#SVGID_37_);}
	.st54{fill:url(#SVGID_38_);}
	.st55{fill:url(#SVGID_39_);}
	.st56{fill:url(#SVGID_40_);}
	.st57{fill:none;}
	.st58{clip-path:url(#SVGID_42_);}
	.st59{fill:url(#Fill_1_16_);}
	.st60{fill:#4285F4;}
	.st61{fill:#34A853;}
	.st62{fill:#FBBC05;}
	.st63{fill:#EB4335;}
	.st64{fill-rule:evenodd;clip-rule:evenodd;fill:url(#SVGID_43_);}
	.st65{clip-path:url(#SVGID_45_);fill:#4E00E2;}
	.st66{clip-path:url(#SVGID_47_);fill:#4E00E2;}
	.st67{fill:url(#SVGID_48_);}
	.st68{fill:url(#SVGID_49_);}
	.st69{fill:url(#SVGID_50_);}
	.st70{fill:url(#SVGID_51_);}
	.st71{fill:url(#SVGID_52_);}
	.st72{fill:url(#SVGID_53_);}
</style>
<g id="Group_8" transform="translate(40)">
	<g id="Group_3-3">
		<g>
			<g id="Group_3-4">
				<path id="Fill_1-2" class="st25" d="M-32,16c-2.15,0-2.44-0.01-3.3-0.05c-0.66-0.01-1.32-0.14-1.94-0.37
					c-0.53-0.2-1.02-0.52-1.42-0.92c-0.41-0.4-0.72-0.88-0.92-1.42c-0.23-0.62-0.36-1.28-0.37-1.94C-39.99,10.43-40,10.14-40,8
					c0-2.15,0.01-2.44,0.05-3.3c0.01-0.66,0.14-1.32,0.37-1.94c0.2-0.53,0.52-1.01,0.92-1.41c0.4-0.41,0.88-0.72,1.42-0.93
					c0.62-0.23,1.28-0.36,1.94-0.37C-34.43,0.01-34.15,0-32,0c2.17,0,2.45,0.01,3.3,0.05c0.66,0.01,1.32,0.14,1.94,0.37
					c0.53,0.2,1.02,0.52,1.42,0.92c0.41,0.4,0.72,0.88,0.93,1.42c0.23,0.62,0.36,1.28,0.37,1.94C-24,5.55-24,5.83-24,8
					c0,2.15-0.01,2.44-0.05,3.3c-0.01,0.66-0.14,1.32-0.37,1.94c-0.42,1.08-1.27,1.93-2.34,2.34c-0.62,0.23-1.28,0.36-1.94,0.37
					C-29.56,15.99-29.85,16-32,16z M-31.99,1.45c-2.11,0-2.36,0.01-3.23,0.05c-0.51,0.01-1.01,0.1-1.49,0.27
					c-0.35,0.13-0.66,0.33-0.92,0.6c-0.27,0.26-0.47,0.57-0.6,0.92c-0.18,0.48-0.27,0.98-0.28,1.49c-0.04,0.85-0.05,1.13-0.05,3.23
					s0.01,2.36,0.05,3.23c0.01,0.51,0.1,1.01,0.28,1.49c0.13,0.35,0.33,0.66,0.6,0.92c0.26,0.26,0.57,0.47,0.92,0.59
					c0.48,0.18,0.98,0.27,1.49,0.27c0.85,0.04,1.13,0.05,3.23,0.05s2.36-0.01,3.23-0.05c0.51-0.01,1.01-0.1,1.49-0.27
					c0.7-0.27,1.25-0.82,1.52-1.52c0.18-0.48,0.27-0.98,0.27-1.49c0.04-0.87,0.05-1.13,0.05-3.23s-0.01-2.36-0.05-3.23
					c-0.01-0.51-0.1-1.01-0.27-1.49c-0.13-0.35-0.33-0.66-0.6-0.92c-0.26-0.27-0.57-0.47-0.92-0.6c-0.48-0.18-0.98-0.27-1.49-0.27
					C-29.62,1.46-29.88,1.45-31.99,1.45L-31.99,1.45z"/>
			</g>
		</g>
	</g>
	<path id="Fill_4_4_" class="st25" d="M-32,12c-2.21,0-4-1.79-4-4s1.79-4,4-4s4,1.79,4,4C-28,10.21-29.79,12-32,12z M-32,5.41
		c-1.43,0-2.59,1.16-2.59,2.59s1.16,2.59,2.59,2.59S-29.4,9.43-29.4,8C-29.41,6.57-30.57,5.41-32,5.41z"/>
	<path id="Fill_6" class="st25" d="M-26.86,3.71c0,0.47-0.38,0.86-0.86,0.86s-0.86-0.38-0.86-0.86s0.38-0.86,0.86-0.86
		S-26.86,3.24-26.86,3.71"/>
</g>
</svg>
