<?xml version="1.0" encoding="utf-8"?>
<!-- Generator: Adobe Illustrator 24.2.1, SVG Export Plug-In . SVG Version: 6.00 Build 0)  -->
<svg version="1.1" id="Meedok-Doctores" xmlns="http://www.w3.org/2000/svg" xmlns:xlink="http://www.w3.org/1999/xlink" x="0px"
	 y="0px" viewBox="0 0 16 16" style="enable-background:new 0 0 16 16;" xml:space="preserve">
<style type="text/css">
	.st0{fill:#EDD1E6;}
	.st1{fill:#B5C9E5;}
	.st2{fill:#FFFFFF;}
	.st3{fill:url(#SVGID_1_);}
	.st4{fill:url(#SVGID_2_);}
	.st5{fill:url(#SVGID_3_);}
	.st6{fill:url(#SVGID_4_);}
	.st7{fill:url(#SVGID_5_);}
	.st8{fill:url(#SVGID_6_);}
	.st9{fill:url(#SVGID_7_);}
	.st10{fill:url(#SVGID_8_);}
	.st11{fill:url(#SVGID_9_);}
	.st12{fill:url(#SVGID_10_);}
	.st13{opacity:0.7;fill:#FFFFFF;}
	.st14{fill-rule:evenodd;clip-rule:evenodd;fill:#FFFFFF;}
	.st15{fill:#4A4C74;}
	.st16{fill:#4A4C78;}
	.st17{fill:#686A74;}
	.st18{fill:none;stroke:#FFFFFF;stroke-width:0.8558;stroke-linecap:round;stroke-linejoin:round;stroke-miterlimit:10;}
	.st19{fill:url(#SVGID_11_);}
	.st20{fill:url(#SVGID_12_);}
	.st21{fill:#FC00B0;}
	.st22{fill:url(#Fill_1_15_);}
	.st23{fill:url(#Fill_4_5_);}
	.st24{fill:url(#Fill_7_2_);}
	.st25{fill:#4E00EF;}
	.st26{opacity:0.7;fill:#4E00EF;}
	.st27{fill:url(#SVGID_13_);}
	.st28{fill:url(#SVGID_14_);}
	.st29{fill:url(#SVGID_15_);}
	.st30{fill:url(#SVGID_16_);}
	.st31{fill:url(#SVGID_17_);}
	.st32{fill:url(#SVGID_18_);}
	.st33{fill:url(#SVGID_19_);}
	.st34{fill:url(#SVGID_20_);}
	.st35{fill:url(#SVGID_21_);}
	.st36{fill:url(#SVGID_22_);}
	.st37{fill:#343434;}
	.st38{fill:url(#SVGID_23_);}
	.st39{fill:url(#SVGID_24_);}
	.st40{fill:url(#SVGID_25_);}
	.st41{fill:url(#SVGID_26_);}
	.st42{fill:url(#SVGID_27_);}
	.st43{fill:url(#SVGID_28_);}
	.st44{fill:url(#SVGID_29_);}
	.st45{fill:url(#SVGID_30_);}
	.st46{fill:url(#SVGID_31_);}
	.st47{fill:url(#SVGID_32_);}
	.st48{fill:url(#Fill_9_1_);}
	.st49{fill:url(#SVGID_33_);}
	.st50{fill:url(#SVGID_34_);}
	.st51{fill:url(#SVGID_35_);}
	.st52{fill:url(#SVGID_36_);}
	.st53{fill:url(#SVGID_37_);}
	.st54{fill:url(#SVGID_38_);}
	.st55{fill:url(#SVGID_39_);}
	.st56{fill:url(#SVGID_40_);}
	.st57{fill:none;}
	.st58{clip-path:url(#SVGID_42_);}
	.st59{fill:url(#Fill_1_16_);}
	.st60{fill:#4285F4;}
	.st61{fill:#34A853;}
	.st62{fill:#FBBC05;}
	.st63{fill:#EB4335;}
	.st64{fill-rule:evenodd;clip-rule:evenodd;fill:url(#SVGID_43_);}
	.st65{clip-path:url(#SVGID_45_);fill:#4E00E2;}
	.st66{clip-path:url(#SVGID_47_);fill:#4E00E2;}
	.st67{fill:url(#SVGID_48_);}
	.st68{fill:url(#SVGID_49_);}
	.st69{fill:url(#SVGID_50_);}
	.st70{fill:url(#SVGID_51_);}
	.st71{fill:url(#SVGID_52_);}
	.st72{fill:url(#SVGID_53_);}
</style>
<linearGradient id="SVGID_1_" gradientUnits="userSpaceOnUse" x1="0.9143" y1="7.9991" x2="15.5594" y2="7.9991">
	<stop  offset="0" style="stop-color:#4E00E2"/>
	<stop  offset="1" style="stop-color:#4E00E2"/>
</linearGradient>
<path class="st3" d="M15.39,13.83l-2.64-5.06l-0.49-0.94L10.9,5.22l-0.02-4.33h0.46c0.25,0,0.44-0.2,0.44-0.44S11.59,0,11.35,0H5.13
	C4.88,0,4.68,0.2,4.68,0.44s0.2,0.44,0.44,0.44h0.46l0,1.23v0l0,0.19v0l0,1.64v0.09l0,1.18L4.11,8.03l0,0L3.49,9.21l-2.4,4.61
	c-0.38,0.73-0.1,1.62,0.62,2.01C1.92,15.94,2.16,16,2.41,16h11.67c0.82,0,1.49-0.67,1.49-1.49C15.56,14.27,15.5,14.04,15.39,13.83
	L15.39,13.83z M6.41,5.54c0.03-0.06,0.05-0.13,0.05-0.2l0-0.89h1.33c0.25,0,0.44-0.2,0.44-0.44s-0.2-0.44-0.44-0.44H6.46l0-0.89
	h1.32c0.25,0,0.44-0.2,0.44-0.44s-0.2-0.44-0.44-0.44H6.47l0-0.89H10l0.02,4.44c0,0.07,0.02,0.14,0.05,0.2l1.49,2.85
	c-0.21,0.04-0.43,0.05-0.65,0.05c-0.71,0-1.04-0.33-1.46-0.76c-0.51-0.63-1.28-1-2.09-1.02C6.74,6.68,6.14,6.83,5.6,7.1L6.41,5.54z
	 M14.58,14.82c-0.11,0.18-0.3,0.29-0.51,0.29H2.41c-0.33,0-0.6-0.26-0.6-0.59c0-0.1,0.02-0.19,0.07-0.28l2.93-5.63c0,0,0,0,0,0
	c0,0,0,0,0,0c0.63-0.47,1.6-1.05,2.54-1.05c0.71,0,1.04,0.33,1.46,0.76c0.51,0.63,1.28,1,2.09,1.02c0.36,0.01,0.72-0.04,1.07-0.13
	l2.63,5.04C14.7,14.42,14.7,14.64,14.58,14.82L14.58,14.82z"/>
<linearGradient id="SVGID_2_" gradientUnits="userSpaceOnUse" x1="10.0144" y1="12.888" x2="12.681" y2="12.888">
	<stop  offset="0" style="stop-color:#4E00E2"/>
	<stop  offset="1" style="stop-color:#4E00E2"/>
</linearGradient>
<path class="st4" d="M11.35,11.55c-0.74,0-1.33,0.6-1.33,1.33c0,0.74,0.6,1.33,1.33,1.33s1.33-0.6,1.33-1.33l0,0
	C12.68,12.15,12.08,11.56,11.35,11.55z M11.35,13.33c-0.25,0-0.44-0.2-0.44-0.44s0.2-0.44,0.44-0.44s0.44,0.2,0.44,0.44
	C11.79,13.13,11.59,13.33,11.35,13.33z"/>
<linearGradient id="SVGID_3_" gradientUnits="userSpaceOnUse" x1="5.1255" y1="10.6658" x2="8.681" y2="10.6658">
	<stop  offset="0" style="stop-color:#4E00E2"/>
	<stop  offset="1" style="stop-color:#4E00E2"/>
</linearGradient>
<path class="st5" d="M6.9,8.89c-0.98,0-1.78,0.8-1.78,1.78s0.8,1.78,1.78,1.78s1.78-0.8,1.78-1.78l0,0C8.68,9.68,7.88,8.89,6.9,8.89
	z M6.9,11.55c-0.49,0-0.89-0.4-0.89-0.89c0-0.49,0.4-0.89,0.89-0.89s0.89,0.4,0.89,0.89l0,0C7.79,11.16,7.39,11.55,6.9,11.55z"/>
</svg>
