<?xml version="1.0" encoding="utf-8"?>
<!-- Generator: Adobe Illustrator 24.2.1, SVG Export Plug-In . SVG Version: 6.00 Build 0)  -->
<svg version="1.1" id="Layer_1" xmlns="http://www.w3.org/2000/svg" xmlns:xlink="http://www.w3.org/1999/xlink" x="0px" y="0px"
	 viewBox="0 0 16 16" style="enable-background:new 0 0 16 16;" xml:space="preserve">
<g>
	<path d="M8,9.41c-0.52,0-0.94-0.42-0.94-0.94V0.94C7.06,0.42,7.48,0,8,0c0.52,0,0.94,0.42,0.94,0.94v7.53
		C8.94,8.99,8.52,9.41,8,9.41z"/>
	<path d="M8,16c-4.16,0-7.53-3.38-7.52-7.54C0.48,6,1.68,3.7,3.7,2.3c0.41-0.32,1-0.24,1.32,0.17c0.32,0.41,0.24,1-0.17,1.32
		C4.83,3.8,4.8,3.82,4.77,3.84c-2.56,1.78-3.19,5.3-1.41,7.86s5.3,3.19,7.86,1.41s3.19-5.3,1.41-7.86
		c-0.38-0.55-0.86-1.02-1.41-1.41c-0.41-0.32-0.49-0.91-0.17-1.32c0.3-0.38,0.83-0.48,1.24-0.22c3.41,2.38,4.24,7.07,1.86,10.48
		C12.76,14.8,10.46,16,8,16z"/>
</g>
</svg>
