<?xml version="1.0" encoding="utf-8"?>
<!-- Generator: Adobe Illustrator 24.2.1, SVG Export Plug-In . SVG Version: 6.00 Build 0)  -->
<svg version="1.1" id="Meedok-Doctores" xmlns="http://www.w3.org/2000/svg" xmlns:xlink="http://www.w3.org/1999/xlink" x="0px"
	 y="0px" viewBox="0 0 54.23 16" style="enable-background:new 0 0 54.23 16;" xml:space="preserve">
<style type="text/css">
	.st0{fill:#EDD1E6;}
	.st1{fill:#B5C9E5;}
	.st2{fill:#FFFFFF;}
	.st3{fill:url(#SVGID_1_);}
	.st4{fill:url(#SVGID_2_);}
	.st5{fill:url(#SVGID_3_);}
	.st6{fill:url(#SVGID_4_);}
	.st7{fill:url(#SVGID_5_);}
	.st8{fill:url(#SVGID_6_);}
	.st9{fill:url(#SVGID_7_);}
	.st10{fill:url(#SVGID_8_);}
	.st11{fill:url(#SVGID_9_);}
	.st12{fill:url(#SVGID_10_);}
	.st13{opacity:0.7;fill:#FFFFFF;}
	.st14{fill-rule:evenodd;clip-rule:evenodd;fill:#FFFFFF;}
	.st15{fill:#4A4C74;}
	.st16{fill:#4A4C78;}
	.st17{fill:#686A74;}
	.st18{fill:none;stroke:#FFFFFF;stroke-width:0.8558;stroke-linecap:round;stroke-linejoin:round;stroke-miterlimit:10;}
	.st19{fill:url(#SVGID_11_);}
	.st20{fill:url(#SVGID_12_);}
	.st21{fill:#FC00B0;}
	.st22{fill:url(#Fill_1_15_);}
	.st23{fill:url(#Fill_4_5_);}
	.st24{fill:url(#Fill_7_2_);}
	.st25{fill:#4E00EF;}
	.st26{opacity:0.7;fill:#4E00EF;}
	.st27{fill:url(#SVGID_13_);}
	.st28{fill:url(#SVGID_14_);}
	.st29{fill:url(#SVGID_15_);}
	.st30{fill:url(#SVGID_16_);}
	.st31{fill:url(#SVGID_17_);}
	.st32{fill:url(#SVGID_18_);}
	.st33{fill:url(#SVGID_19_);}
	.st34{fill:url(#SVGID_20_);}
	.st35{fill:url(#SVGID_21_);}
	.st36{fill:url(#SVGID_22_);}
	.st37{fill:#343434;}
	.st38{fill:url(#SVGID_23_);}
	.st39{fill:url(#SVGID_24_);}
	.st40{fill:url(#SVGID_25_);}
	.st41{fill:url(#SVGID_26_);}
	.st42{fill:url(#SVGID_27_);}
	.st43{fill:url(#SVGID_28_);}
	.st44{fill:url(#SVGID_29_);}
	.st45{fill:url(#SVGID_30_);}
	.st46{fill:url(#SVGID_31_);}
	.st47{fill:url(#SVGID_32_);}
	.st48{fill:url(#Fill_9_1_);}
	.st49{fill:url(#SVGID_33_);}
	.st50{fill:url(#SVGID_34_);}
	.st51{fill:url(#SVGID_35_);}
	.st52{fill:url(#SVGID_36_);}
	.st53{fill:url(#SVGID_37_);}
	.st54{fill:url(#SVGID_38_);}
	.st55{fill:url(#SVGID_39_);}
	.st56{fill:url(#SVGID_40_);}
	.st57{fill:none;}
	.st58{clip-path:url(#SVGID_42_);}
	.st59{fill:url(#Fill_1_16_);}
	.st60{fill:#4285F4;}
	.st61{fill:#34A853;}
	.st62{fill:#FBBC05;}
	.st63{fill:#EB4335;}
	.st64{fill-rule:evenodd;clip-rule:evenodd;fill:url(#SVGID_43_);}
	.st65{clip-path:url(#SVGID_45_);fill:#4E00E2;}
	.st66{clip-path:url(#SVGID_47_);fill:#4E00E2;}
	.st67{fill:url(#SVGID_48_);}
	.st68{fill:url(#SVGID_49_);}
	.st69{fill:url(#SVGID_50_);}
	.st70{fill:url(#SVGID_51_);}
	.st71{fill:url(#SVGID_52_);}
	.st72{fill:url(#SVGID_53_);}
</style>
<g>
	<g>
		<g>
			<g>
				
					<linearGradient id="SVGID_1_" gradientUnits="userSpaceOnUse" x1="-3403.8147" y1="4.1885" x2="-3403.8147" y2="-0.3911" gradientTransform="matrix(-1 0 0 1 -3392.8662 0)">
					<stop  offset="0" style="stop-color:#E9009B"/>
					<stop  offset="1" style="stop-color:#FF00B2"/>
				</linearGradient>
				<path class="st3" d="M10.95,0c1.05,0,1.9,0.85,1.9,1.9c0,1.05-0.85,1.9-1.9,1.9s-1.9-0.85-1.9-1.9C9.05,0.85,9.9,0,10.95,0z"/>
			</g>
			
				<linearGradient id="SVGID_2_" gradientUnits="userSpaceOnUse" x1="-4359.46" y1="1053.8242" x2="-4351.6387" y2="1053.8242" gradientTransform="matrix(-1 0 0 -1 -4344.6011 1061.4695)">
				<stop  offset="0" style="stop-color:#4D00ED"/>
				<stop  offset="1" style="stop-color:#080043"/>
			</linearGradient>
			<path class="st4" d="M11.03,4.94C9.8,4.92,8.69,5.47,7.95,6.34C8.52,7.02,8.86,7.9,8.86,8.85c0-1.18,0.99-2.14,2.19-2.08
				c1.12,0.06,1.98,1.02,1.98,2.14v1.17c0,0.15,0.12,0.26,0.26,0.26h1.3c0.15,0,0.26-0.12,0.26-0.26V8.94
				C14.86,6.8,13.17,4.99,11.03,4.94z"/>
			<g>
				
					<linearGradient id="SVGID_3_" gradientUnits="userSpaceOnUse" x1="-3397.8196" y1="4.1885" x2="-3397.8196" y2="-0.3911" gradientTransform="matrix(-1 0 0 1 -3392.8662 0)">
					<stop  offset="0" style="stop-color:#4E00EC"/>
					<stop  offset="1" style="stop-color:#4E00EC"/>
				</linearGradient>
				<path class="st5" d="M4.95,0C6,0,6.85,0.85,6.85,1.9c0,1.05-0.85,1.9-1.9,1.9s-1.9-0.85-1.9-1.9C3.05,0.85,3.91,0,4.95,0z"/>
				<linearGradient id="SVGID_4_" gradientUnits="userSpaceOnUse" x1="1.0425" y1="7.6453" x2="34.5358" y2="7.6453">
					<stop  offset="0" style="stop-color:#4E00EC"/>
					<stop  offset="1" style="stop-color:#4E00EC"/>
				</linearGradient>
				<path class="st6" d="M7.95,6.34c-0.73-0.88-1.85-1.43-3.08-1.4c-2.14,0.05-3.83,1.85-3.83,4v1.15c0,0.15,0.12,0.26,0.26,0.26
					h1.3c0.15,0,0.26-0.12,0.26-0.26V8.91c0-1.12,0.86-2.09,1.98-2.14c1.2-0.06,2.19,0.9,2.19,2.08v1.24c0,0.15,0.12,0.26,0.26,0.26
					h1.3c0.15,0,0.26-0.12,0.26-0.26V8.85C8.86,7.9,8.52,7.02,7.95,6.34z"/>
			</g>
		</g>
		<linearGradient id="SVGID_5_" gradientUnits="userSpaceOnUse" x1="36.4795" y1="6.7151" x2="41.5792" y2="6.7151">
			<stop  offset="0" style="stop-color:#E9009B"/>
			<stop  offset="1" style="stop-color:#FF00B2"/>
		</linearGradient>
		<path class="st7" d="M36.48,7.66c0-0.81,0.22-1.46,0.65-1.95c0.43-0.49,0.99-0.74,1.68-0.74c0.21,0,0.4,0.03,0.58,0.08
			c0.18,0.05,0.33,0.11,0.43,0.18c0.11,0.07,0.2,0.14,0.28,0.22c0.08,0.07,0.13,0.14,0.16,0.19l0.05,0.07h0.02
			c-0.01-0.09-0.02-0.18-0.02-0.29V3.5c0-0.28,0.14-0.42,0.41-0.42h0.44c0.28,0,0.41,0.14,0.41,0.42v6.31
			c0,0.28-0.14,0.42-0.41,0.42h-0.37c-0.28,0-0.41-0.13-0.41-0.38v-0.2l0.02-0.18h-0.02c-0.01,0.03-0.03,0.06-0.06,0.1
			c-0.02,0.04-0.08,0.11-0.17,0.21c-0.09,0.1-0.19,0.19-0.31,0.27c-0.11,0.08-0.27,0.15-0.46,0.21c-0.19,0.06-0.4,0.1-0.62,0.1
			c-0.69,0-1.25-0.25-1.66-0.75C36.69,9.11,36.48,8.46,36.48,7.66z M37.77,7.66c0,0.48,0.12,0.87,0.35,1.17
			c0.24,0.3,0.54,0.44,0.93,0.44c0.36,0,0.67-0.14,0.92-0.41c0.25-0.27,0.37-0.68,0.37-1.21c0-0.43-0.11-0.8-0.33-1.11
			c-0.22-0.31-0.54-0.47-0.95-0.47c-0.36,0-0.67,0.14-0.92,0.43C37.89,6.78,37.77,7.17,37.77,7.66z"/>
		<linearGradient id="SVGID_6_" gradientUnits="userSpaceOnUse" x1="42.2324" y1="7.6486" x2="47.9155" y2="7.6486">
			<stop  offset="0" style="stop-color:#E9009B"/>
			<stop  offset="1" style="stop-color:#FF00B2"/>
		</linearGradient>
		<path class="st8" d="M43.05,9.59c-0.55-0.51-0.82-1.16-0.82-1.94c0-0.78,0.27-1.43,0.82-1.94c0.55-0.51,1.22-0.76,2.02-0.76
			c0.8,0,1.47,0.26,2.02,0.77c0.55,0.51,0.83,1.16,0.83,1.93c0,0.78-0.28,1.43-0.83,1.94c-0.55,0.51-1.22,0.76-2.02,0.76
			C44.27,10.35,43.6,10.1,43.05,9.59z M43.54,7.65c0,0.47,0.15,0.86,0.44,1.16c0.29,0.3,0.66,0.45,1.09,0.45
			c0.43,0,0.8-0.15,1.09-0.45c0.3-0.3,0.45-0.69,0.45-1.16c0-0.47-0.15-0.85-0.45-1.15c-0.3-0.3-0.66-0.46-1.09-0.46
			c-0.43,0-0.79,0.15-1.08,0.46C43.69,6.8,43.54,7.18,43.54,7.65z"/>
		<linearGradient id="SVGID_7_" gradientUnits="userSpaceOnUse" x1="16.8796" y1="7.6486" x2="24.9628" y2="7.6486">
			<stop  offset="0" style="stop-color:#4E00EC"/>
			<stop  offset="1" style="stop-color:#4E00EC"/>
		</linearGradient>
		<path class="st9" d="M16.88,9.92V5.5c0-0.29,0.14-0.44,0.42-0.44h0.4c0.28,0,0.42,0.15,0.42,0.44v0.32l-0.02,0.24h0.02
			c0.15-0.3,0.37-0.56,0.69-0.78c0.31-0.22,0.66-0.34,1.04-0.34c0.81,0,1.32,0.36,1.54,1.09h0.02c0.15-0.3,0.39-0.55,0.72-0.77
			c0.33-0.21,0.69-0.32,1.08-0.32c1.15,0,1.73,0.67,1.73,2.01v2.96c0,0.29-0.15,0.44-0.44,0.44h-0.45c-0.29,0-0.44-0.15-0.44-0.44
			V7.2c0-0.35-0.05-0.61-0.15-0.79c-0.1-0.18-0.29-0.27-0.58-0.27c-0.42,0-0.75,0.18-0.99,0.54c-0.24,0.36-0.36,0.79-0.36,1.29v1.94
			c0,0.29-0.14,0.44-0.42,0.44h-0.46c-0.29,0-0.44-0.15-0.44-0.44V7.2c0-0.34-0.05-0.6-0.14-0.78c-0.09-0.18-0.28-0.27-0.56-0.27
			c-0.44,0-0.77,0.18-1.01,0.55c-0.24,0.37-0.36,0.79-0.36,1.29v1.94c0,0.29-0.14,0.44-0.42,0.44H17.3
			C17.02,10.35,16.88,10.21,16.88,9.92z"/>
		<linearGradient id="SVGID_8_" gradientUnits="userSpaceOnUse" x1="25.5911" y1="7.6486" x2="30.5042" y2="7.6486">
			<stop  offset="0" style="stop-color:#4E00EC"/>
			<stop  offset="1" style="stop-color:#4E00EC"/>
		</linearGradient>
		<path class="st10" d="M25.59,7.65c0-0.8,0.24-1.45,0.73-1.95c0.49-0.5,1.12-0.75,1.89-0.75c0.72,0,1.28,0.23,1.68,0.68
			c0.41,0.46,0.61,1.05,0.61,1.78c0,0.11-0.04,0.22-0.13,0.3c-0.09,0.09-0.19,0.13-0.31,0.13h-3.15c0.04,0.45,0.21,0.79,0.5,1.04
			c0.29,0.25,0.64,0.37,1.05,0.37c0.38,0,0.76-0.11,1.11-0.33c0.26-0.12,0.45-0.07,0.57,0.14l0.12,0.2
			c0.13,0.24,0.08,0.43-0.14,0.57c-0.54,0.34-1.12,0.52-1.75,0.52c-0.83,0-1.5-0.26-2.01-0.79C25.85,9.04,25.59,8.41,25.59,7.65z
			 M26.94,7.06h2.29c-0.01-0.35-0.11-0.63-0.3-0.84c-0.2-0.21-0.44-0.31-0.74-0.31c-0.32,0-0.6,0.1-0.82,0.31
			C27.14,6.43,27,6.71,26.94,7.06z"/>
		<linearGradient id="SVGID_9_" gradientUnits="userSpaceOnUse" x1="31.0185" y1="7.6486" x2="35.9316" y2="7.6486">
			<stop  offset="0" style="stop-color:#4E00EC"/>
			<stop  offset="1" style="stop-color:#4E00EC"/>
		</linearGradient>
		<path class="st11" d="M31.02,7.65c0-0.8,0.24-1.45,0.73-1.95c0.49-0.5,1.12-0.75,1.89-0.75c0.72,0,1.28,0.23,1.68,0.68
			c0.41,0.46,0.61,1.05,0.61,1.78c0,0.11-0.04,0.22-0.13,0.3c-0.09,0.09-0.19,0.13-0.31,0.13h-3.15c0.04,0.45,0.21,0.79,0.5,1.04
			c0.29,0.25,0.64,0.37,1.05,0.37c0.38,0,0.76-0.11,1.11-0.33c0.26-0.12,0.45-0.07,0.57,0.14l0.12,0.2
			c0.13,0.24,0.08,0.43-0.14,0.57c-0.54,0.34-1.12,0.52-1.75,0.52c-0.83,0-1.5-0.26-2.01-0.79C31.27,9.04,31.02,8.41,31.02,7.65z
			 M32.37,7.06h2.29c-0.01-0.35-0.11-0.63-0.3-0.84c-0.2-0.21-0.44-0.31-0.74-0.31c-0.32,0-0.6,0.1-0.82,0.31
			C32.57,6.43,32.43,6.71,32.37,7.06z"/>
		<linearGradient id="SVGID_10_" gradientUnits="userSpaceOnUse" x1="48.5614" y1="6.7151" x2="53.1841" y2="6.7151">
			<stop  offset="0" style="stop-color:#E9009B"/>
			<stop  offset="1" style="stop-color:#FF00B2"/>
		</linearGradient>
		<path class="st12" d="M48.56,9.92V3.51c0-0.29,0.14-0.43,0.43-0.43h0.44c0.29,0,0.43,0.14,0.43,0.43v3.46h0.65l1.09-1.56
			c0.12-0.19,0.29-0.29,0.51-0.29h0.49c0.17,0,0.28,0.05,0.33,0.15s0.03,0.22-0.07,0.36l-1.3,1.82v0.02l1.54,2.36
			c0.09,0.15,0.11,0.27,0.05,0.37c-0.05,0.1-0.17,0.14-0.34,0.14h-0.55c-0.23,0-0.39-0.1-0.5-0.3l-1.22-1.99h-0.68v1.86
			c0,0.29-0.14,0.43-0.43,0.43h-0.44C48.7,10.35,48.56,10.21,48.56,9.92z"/>
	</g>
	<g>
		<path class="st37" d="M6.63,13.97c0.1,0,0.16,0.05,0.16,0.16l0.03,1.64c0,0.11-0.05,0.17-0.16,0.17H6.48
			c-0.11,0-0.16-0.06-0.16-0.17l0.03-1.64c0-0.11,0.05-0.16,0.16-0.16H6.63z M6.81,13.33v0.14c0,0.11-0.05,0.16-0.16,0.16H6.5
			c-0.11,0-0.16-0.05-0.16-0.16v-0.14c0-0.11,0.05-0.16,0.16-0.16h0.16C6.76,13.17,6.81,13.22,6.81,13.33z"/>
		<path class="st37" d="M7.41,14.98v-2.43c0-0.11,0.05-0.16,0.16-0.16h1.33c0.11,0,0.16,0.05,0.16,0.16v0.11
			c0,0.11-0.05,0.16-0.16,0.16H7.9v0.72h0.77c0.11,0,0.16,0.05,0.16,0.16v0.11c0,0.11-0.05,0.16-0.16,0.16H7.9v0.74h1.05
			c0.11,0,0.16,0.05,0.16,0.16v0.11c0,0.11-0.05,0.16-0.16,0.16H7.56C7.46,15.15,7.41,15.09,7.41,14.98z"/>
		<path class="st37" d="M9.47,14.98v-1.66c0-0.11,0.05-0.16,0.16-0.16h0.15c0.11,0,0.16,0.05,0.16,0.16v0.12l-0.01,0.09h0.01
			c0.05-0.11,0.14-0.21,0.26-0.29c0.12-0.09,0.27-0.13,0.45-0.13c0.46,0,0.69,0.25,0.69,0.75v1.11c0,0.11-0.05,0.16-0.16,0.16h-0.17
			c-0.11,0-0.16-0.05-0.16-0.16v-1.01c0-0.13-0.02-0.23-0.07-0.3c-0.04-0.07-0.13-0.1-0.24-0.1c-0.17,0-0.31,0.06-0.41,0.19
			c-0.1,0.12-0.16,0.28-0.16,0.46v0.77c0,0.11-0.05,0.16-0.16,0.16H9.63C9.53,15.15,9.47,15.09,9.47,14.98z"/>
		<path class="st37" d="M12.77,14.53v-1.98c0-0.11,0.05-0.16,0.16-0.16h0.17c0.11,0,0.16,0.05,0.16,0.16v1.94
			c0,0.15,0.05,0.23,0.16,0.24c0.08,0.01,0.12,0.05,0.12,0.14V15c0,0.11-0.05,0.17-0.16,0.17c-0.08,0-0.15-0.01-0.21-0.02
			c-0.06-0.01-0.12-0.04-0.19-0.08c-0.06-0.04-0.12-0.11-0.15-0.2C12.79,14.78,12.77,14.66,12.77,14.53z"/>
		<path class="st37" d="M13.86,14.98v-1.66c0-0.11,0.05-0.16,0.16-0.16h0.17c0.11,0,0.16,0.05,0.16,0.16v1.66
			c0,0.11-0.05,0.16-0.16,0.16h-0.17C13.91,15.15,13.86,15.09,13.86,14.98z M14.09,12.92c-0.06,0-0.09-0.02-0.11-0.05
			c-0.02-0.04-0.01-0.08,0.02-0.13l0.14-0.23c0.04-0.08,0.11-0.11,0.19-0.11h0.14c0.07,0,0.11,0.02,0.13,0.06s0,0.08-0.04,0.14
			l-0.17,0.24c-0.05,0.06-0.12,0.1-0.2,0.1H14.09z"/>
		<path class="st37" d="M14.84,14.98v-1.66c0-0.11,0.05-0.16,0.16-0.16h0.15c0.11,0,0.16,0.05,0.16,0.16v0.12l-0.01,0.09h0.01
			c0.05-0.11,0.14-0.21,0.26-0.29c0.12-0.09,0.27-0.13,0.45-0.13c0.46,0,0.69,0.25,0.69,0.75v1.11c0,0.11-0.05,0.16-0.16,0.16h-0.17
			c-0.11,0-0.16-0.05-0.16-0.16v-1.01c0-0.13-0.02-0.23-0.07-0.3c-0.04-0.07-0.13-0.1-0.24-0.1c-0.17,0-0.31,0.06-0.41,0.19
			c-0.1,0.12-0.16,0.28-0.16,0.46v0.77c0,0.11-0.05,0.16-0.16,0.16H15C14.89,15.15,14.84,15.09,14.84,14.98z"/>
		<path class="st37" d="M17.05,14.16c0-0.31,0.09-0.56,0.28-0.75c0.19-0.19,0.43-0.29,0.73-0.29c0.27,0,0.49,0.09,0.65,0.26
			c0.16,0.17,0.23,0.4,0.23,0.68c0,0.04-0.02,0.08-0.05,0.12c-0.03,0.03-0.07,0.05-0.12,0.05h-1.21c0.02,0.17,0.08,0.3,0.19,0.4
			c0.11,0.1,0.25,0.14,0.41,0.14c0.15,0,0.29-0.04,0.43-0.13c0.1-0.05,0.17-0.03,0.22,0.05l0.05,0.08c0.05,0.09,0.03,0.17-0.05,0.22
			c-0.21,0.13-0.43,0.2-0.67,0.2c-0.32,0-0.58-0.1-0.77-0.3C17.15,14.69,17.05,14.45,17.05,14.16z M17.57,13.93h0.88
			c0-0.13-0.04-0.24-0.12-0.32s-0.17-0.12-0.28-0.12c-0.12,0-0.23,0.04-0.32,0.12C17.65,13.69,17.59,13.8,17.57,13.93z"/>
		<path class="st37" d="M19.14,14.6c0-0.14,0.04-0.25,0.11-0.35s0.18-0.16,0.3-0.21c0.13-0.04,0.25-0.08,0.37-0.09
			s0.24-0.03,0.37-0.03h0.08v-0.05c0-0.23-0.12-0.35-0.37-0.35c-0.13,0-0.27,0.04-0.41,0.11c-0.1,0.04-0.17,0.02-0.22-0.07
			l-0.04-0.07c-0.05-0.1-0.03-0.17,0.06-0.22c0.21-0.11,0.43-0.16,0.65-0.16c0.26,0,0.46,0.07,0.6,0.21s0.22,0.33,0.22,0.58v1.08
			c0,0.11-0.05,0.16-0.16,0.16h-0.13c-0.11,0-0.16-0.05-0.16-0.16v-0.08l0.01-0.09h-0.01c0,0.01-0.01,0.02-0.02,0.04
			c-0.01,0.02-0.03,0.05-0.07,0.09c-0.04,0.04-0.08,0.08-0.12,0.11c-0.04,0.03-0.1,0.06-0.18,0.09c-0.07,0.03-0.15,0.04-0.23,0.04
			c-0.18,0-0.34-0.06-0.47-0.17S19.14,14.78,19.14,14.6z M19.63,14.56c0,0.07,0.03,0.13,0.08,0.18c0.05,0.05,0.13,0.08,0.22,0.08
			c0.13,0,0.24-0.05,0.33-0.16c0.08-0.11,0.13-0.23,0.13-0.36v-0.07h-0.08C19.86,14.22,19.63,14.33,19.63,14.56z"/>
		<path class="st37" d="M22.18,14.16c0-0.29,0.1-0.54,0.3-0.74c0.2-0.2,0.46-0.3,0.78-0.3c0.24,0,0.46,0.07,0.65,0.2
			c0.08,0.05,0.09,0.13,0.03,0.22l-0.05,0.08c-0.05,0.08-0.12,0.09-0.22,0.04c-0.12-0.08-0.25-0.12-0.38-0.12
			c-0.18,0-0.32,0.06-0.44,0.18c-0.11,0.12-0.17,0.26-0.17,0.44s0.06,0.32,0.17,0.44c0.11,0.12,0.26,0.18,0.45,0.18
			c0.15,0,0.3-0.05,0.44-0.15c0.1-0.05,0.17-0.04,0.22,0.05l0.04,0.07c0.05,0.09,0.04,0.16-0.04,0.22c-0.21,0.15-0.44,0.23-0.7,0.23
			c-0.32,0-0.58-0.1-0.78-0.3S22.18,14.45,22.18,14.16z"/>
		<path class="st37" d="M24.54,14.9c-0.21-0.2-0.32-0.44-0.32-0.74s0.11-0.55,0.32-0.75c0.21-0.2,0.47-0.29,0.77-0.29
			c0.31,0,0.56,0.1,0.78,0.3c0.21,0.2,0.32,0.44,0.32,0.74c0,0.3-0.11,0.55-0.32,0.74c-0.21,0.2-0.47,0.29-0.78,0.29
			C25.01,15.2,24.75,15.1,24.54,14.9z M24.72,14.16c0,0.18,0.06,0.33,0.17,0.45c0.11,0.12,0.25,0.17,0.42,0.17s0.31-0.06,0.42-0.17
			s0.17-0.26,0.17-0.45c0-0.18-0.06-0.33-0.17-0.44s-0.25-0.18-0.42-0.18c-0.16,0-0.3,0.06-0.42,0.18
			C24.78,13.83,24.72,13.98,24.72,14.16z"/>
		<path class="st37" d="M26.77,14.98v-1.66c0-0.11,0.05-0.16,0.16-0.16h0.15c0.11,0,0.16,0.05,0.16,0.16v0.12l-0.01,0.09h0.01
			c0.05-0.11,0.14-0.21,0.26-0.29c0.12-0.09,0.27-0.13,0.45-0.13c0.46,0,0.69,0.25,0.69,0.75v1.11c0,0.11-0.05,0.16-0.16,0.16H28.3
			c-0.11,0-0.16-0.05-0.16-0.16v-1.01c0-0.13-0.02-0.23-0.07-0.3c-0.04-0.07-0.13-0.1-0.24-0.1c-0.17,0-0.31,0.06-0.41,0.19
			c-0.1,0.12-0.16,0.28-0.16,0.46v0.77c0,0.11-0.05,0.16-0.16,0.16h-0.17C26.82,15.15,26.77,15.09,26.77,14.98z"/>
		<path class="st37" d="M30.18,14.44v-0.86h-0.1c-0.11,0-0.16-0.05-0.16-0.16v-0.07c0-0.11,0.05-0.16,0.16-0.16h0.11v-0.4
			c0-0.11,0.05-0.16,0.16-0.16h0.16c0.11,0,0.16,0.05,0.16,0.16v0.4h0.29c0.11,0,0.16,0.05,0.16,0.16v0.07
			c0,0.11-0.05,0.16-0.16,0.16h-0.29v0.77c0,0.22,0.11,0.35,0.32,0.37c0.06,0,0.1,0.02,0.13,0.04c0.02,0.02,0.04,0.06,0.04,0.12V15
			c0,0.11-0.07,0.16-0.2,0.16c-0.21,0-0.38-0.06-0.54-0.18C30.26,14.87,30.18,14.69,30.18,14.44z"/>
		<path class="st37" d="M31.46,14.44v-1.11c0-0.11,0.05-0.16,0.16-0.16h0.17c0.11,0,0.16,0.05,0.16,0.16v1.01
			c0,0.13,0.02,0.23,0.07,0.3c0.04,0.07,0.13,0.1,0.24,0.1c0.17,0,0.31-0.06,0.41-0.19c0.1-0.13,0.15-0.29,0.15-0.47v-0.75
			c0-0.11,0.05-0.16,0.16-0.16h0.17c0.11,0,0.16,0.05,0.16,0.16v1.66c0,0.11-0.05,0.16-0.16,0.16h-0.15c-0.11,0-0.16-0.05-0.16-0.16
			v-0.12l0.01-0.09h-0.01c-0.05,0.11-0.14,0.21-0.26,0.29c-0.12,0.08-0.27,0.12-0.42,0.12C31.69,15.2,31.46,14.94,31.46,14.44z"/>
		<path class="st37" d="M34.84,14.98v-2.43c0-0.11,0.05-0.16,0.16-0.16h0.78c0.43,0,0.77,0.12,1.03,0.37s0.38,0.58,0.38,1.01
			c0,0.43-0.13,0.77-0.38,1.02c-0.25,0.25-0.6,0.37-1.03,0.37H35C34.89,15.15,34.84,15.09,34.84,14.98z M35.34,14.72h0.42
			c0.29,0,0.51-0.08,0.67-0.25c0.16-0.16,0.24-0.4,0.24-0.71c0-0.3-0.08-0.53-0.25-0.7c-0.17-0.17-0.39-0.25-0.67-0.25h-0.42V14.72z
			"/>
		<path class="st37" d="M37.79,14.9c-0.21-0.2-0.32-0.44-0.32-0.74s0.11-0.55,0.32-0.75c0.21-0.2,0.47-0.29,0.77-0.29
			c0.31,0,0.56,0.1,0.78,0.3c0.21,0.2,0.32,0.44,0.32,0.74c0,0.3-0.11,0.55-0.32,0.74c-0.21,0.2-0.47,0.29-0.78,0.29
			C38.26,15.2,38,15.1,37.79,14.9z M37.98,14.16c0,0.18,0.06,0.33,0.17,0.45c0.11,0.12,0.25,0.17,0.42,0.17s0.31-0.06,0.42-0.17
			s0.17-0.26,0.17-0.45c0-0.18-0.06-0.33-0.17-0.44s-0.25-0.18-0.42-0.18c-0.16,0-0.3,0.06-0.42,0.18
			C38.03,13.83,37.98,13.98,37.98,14.16z"/>
		<path class="st37" d="M39.89,14.16c0-0.29,0.1-0.54,0.3-0.74c0.2-0.2,0.46-0.3,0.78-0.3c0.24,0,0.46,0.07,0.65,0.2
			c0.08,0.05,0.09,0.13,0.03,0.22l-0.05,0.08c-0.05,0.08-0.12,0.09-0.22,0.04c-0.12-0.08-0.25-0.12-0.38-0.12
			c-0.18,0-0.32,0.06-0.44,0.18c-0.11,0.12-0.17,0.26-0.17,0.44s0.06,0.32,0.17,0.44c0.11,0.12,0.26,0.18,0.45,0.18
			c0.15,0,0.3-0.05,0.44-0.15c0.1-0.05,0.17-0.04,0.22,0.05l0.04,0.07c0.05,0.09,0.04,0.16-0.04,0.22c-0.21,0.15-0.44,0.23-0.7,0.23
			c-0.32,0-0.58-0.1-0.78-0.3S39.89,14.45,39.89,14.16z"/>
		<path class="st37" d="M42.19,14.44v-0.86h-0.1c-0.11,0-0.16-0.05-0.16-0.16v-0.07c0-0.11,0.05-0.16,0.16-0.16h0.11v-0.4
			c0-0.11,0.05-0.16,0.16-0.16h0.16c0.11,0,0.16,0.05,0.16,0.16v0.4h0.29c0.11,0,0.16,0.05,0.16,0.16v0.07
			c0,0.11-0.05,0.16-0.16,0.16h-0.29v0.77c0,0.22,0.11,0.35,0.32,0.37c0.06,0,0.1,0.02,0.13,0.04c0.02,0.02,0.04,0.06,0.04,0.12V15
			c0,0.11-0.07,0.16-0.2,0.16c-0.21,0-0.38-0.06-0.54-0.18C42.27,14.87,42.19,14.69,42.19,14.44z"/>
		<path class="st37" d="M43.67,14.9c-0.21-0.2-0.32-0.44-0.32-0.74s0.11-0.55,0.32-0.75c0.21-0.2,0.47-0.29,0.77-0.29
			c0.31,0,0.56,0.1,0.78,0.3c0.21,0.2,0.32,0.44,0.32,0.74c0,0.3-0.11,0.55-0.32,0.74c-0.21,0.2-0.47,0.29-0.78,0.29
			C44.13,15.2,43.88,15.1,43.67,14.9z M43.85,14.16c0,0.18,0.06,0.33,0.17,0.45c0.11,0.12,0.25,0.17,0.42,0.17s0.31-0.06,0.42-0.17
			s0.17-0.26,0.17-0.45c0-0.18-0.06-0.33-0.17-0.44s-0.25-0.18-0.42-0.18c-0.16,0-0.3,0.06-0.42,0.18
			C43.91,13.83,43.85,13.98,43.85,14.16z"/>
		<path class="st37" d="M45.89,14.98v-1.66c0-0.11,0.05-0.16,0.16-0.16h0.15c0.11,0,0.16,0.05,0.16,0.16v0.19l-0.01,0.14h0.01
			c0.04-0.13,0.12-0.25,0.22-0.35c0.1-0.1,0.22-0.15,0.35-0.15c0.1,0,0.15,0.05,0.15,0.16v0.15c0,0.11-0.06,0.16-0.17,0.16
			c-0.17,0-0.3,0.07-0.4,0.21c-0.09,0.14-0.14,0.31-0.14,0.51v0.64c0,0.11-0.05,0.16-0.16,0.16h-0.17
			C45.95,15.15,45.89,15.09,45.89,14.98z"/>
		<path class="st37" d="M47.57,14.35c-0.1,0-0.16-0.05-0.16-0.16l-0.03-1.64c0-0.11,0.05-0.17,0.16-0.17h0.18
			c0.11,0,0.17,0.06,0.16,0.17l-0.03,1.64c0,0.11-0.05,0.16-0.16,0.16H47.57z M47.4,14.98v-0.14c0-0.11,0.05-0.16,0.16-0.16h0.16
			c0.11,0,0.16,0.05,0.16,0.16v0.14c0,0.11-0.05,0.16-0.16,0.16h-0.16C47.45,15.15,47.4,15.09,47.4,14.98z"/>
	</g>
</g>
</svg>
