<?xml version="1.0" encoding="utf-8"?>
<!-- Generator: Adobe Illustrator 24.2.1, SVG Export Plug-In . SVG Version: 6.00 Build 0)  -->
<svg version="1.1" id="Meedok-Doctores" xmlns="http://www.w3.org/2000/svg" xmlns:xlink="http://www.w3.org/1999/xlink" x="0px"
	 y="0px" viewBox="0 0 54.23 16" style="enable-background:new 0 0 54.23 16;" xml:space="preserve">
<style type="text/css">
	.st0{fill:#EDD1E6;}
	.st1{fill:#B5C9E5;}
	.st2{fill:#FFFFFF;}
	.st3{fill:url(#SVGID_1_);}
	.st4{fill:url(#SVGID_2_);}
	.st5{fill:url(#SVGID_3_);}
	.st6{fill:url(#SVGID_4_);}
	.st7{fill:url(#SVGID_5_);}
	.st8{fill:url(#SVGID_6_);}
	.st9{fill:url(#SVGID_7_);}
	.st10{fill:url(#SVGID_8_);}
	.st11{fill:url(#SVGID_9_);}
	.st12{fill:url(#SVGID_10_);}
	.st13{opacity:0.7;fill:#FFFFFF;}
	.st14{fill-rule:evenodd;clip-rule:evenodd;fill:#FFFFFF;}
	.st15{fill:#4A4C74;}
	.st16{fill:#4A4C78;}
	.st17{fill:#686A74;}
	.st18{fill:none;stroke:#FFFFFF;stroke-width:0.8558;stroke-linecap:round;stroke-linejoin:round;stroke-miterlimit:10;}
	.st19{fill:url(#SVGID_11_);}
	.st20{fill:url(#SVGID_12_);}
	.st21{fill:#FC00B0;}
	.st22{fill:url(#Fill_1_15_);}
	.st23{fill:url(#Fill_4_5_);}
	.st24{fill:url(#Fill_7_2_);}
	.st25{fill:#4E00EF;}
	.st26{opacity:0.7;fill:#4E00EF;}
	.st27{font-family:'MuseoSansRounded-700';}
	.st28{font-size:4.3629px;}
	.st29{fill:url(#SVGID_13_);}
	.st30{fill:url(#SVGID_14_);}
	.st31{fill:url(#SVGID_15_);}
	.st32{fill:url(#SVGID_16_);}
	.st33{fill:url(#SVGID_17_);}
	.st34{fill:url(#SVGID_18_);}
	.st35{fill:url(#SVGID_19_);}
	.st36{fill:url(#SVGID_20_);}
	.st37{fill:url(#SVGID_21_);}
	.st38{fill:url(#SVGID_22_);}
	.st39{fill:#343434;}
	.st40{fill:url(#SVGID_23_);}
	.st41{fill:url(#SVGID_24_);}
	.st42{fill:url(#SVGID_25_);}
	.st43{fill:url(#SVGID_26_);}
	.st44{fill:url(#SVGID_27_);}
	.st45{fill:url(#SVGID_28_);}
	.st46{fill:url(#SVGID_29_);}
	.st47{fill:url(#SVGID_30_);}
	.st48{fill:url(#SVGID_31_);}
	.st49{fill:url(#SVGID_32_);}
	.st50{fill:url(#Fill_9_1_);}
	.st51{fill:url(#SVGID_33_);}
	.st52{fill:url(#SVGID_34_);}
	.st53{fill:url(#SVGID_35_);}
	.st54{fill:url(#SVGID_36_);}
	.st55{fill:url(#SVGID_37_);}
	.st56{fill:url(#SVGID_38_);}
	.st57{fill:url(#SVGID_39_);}
	.st58{fill:url(#SVGID_40_);}
	.st59{fill:none;}
	.st60{clip-path:url(#SVGID_42_);}
	.st61{fill:url(#Fill_1_16_);}
	.st62{fill:#4285F4;}
	.st63{fill:#34A853;}
	.st64{fill:#FBBC05;}
	.st65{fill:#EB4335;}
	.st66{fill-rule:evenodd;clip-rule:evenodd;fill:url(#SVGID_43_);}
	.st67{clip-path:url(#SVGID_45_);fill:#4E00E2;}
	.st68{clip-path:url(#SVGID_47_);fill:#4E00E2;}
	.st69{fill:url(#SVGID_48_);}
	.st70{fill:url(#SVGID_49_);}
	.st71{fill:url(#SVGID_50_);}
	.st72{fill:url(#SVGID_51_);}
	.st73{fill:url(#SVGID_52_);}
	.st74{fill:url(#SVGID_53_);}
</style>
<g>
	<g>
		<g>
			<g>
				<g>
					<path class="st25" d="M10.73,0c1.06,0,1.92,0.86,1.92,1.92c0,1.06-0.86,1.92-1.92,1.92S8.81,2.98,8.81,1.92
						C8.81,0.86,9.67,0,10.73,0z"/>
				</g>
				<g>
					<path class="st25" d="M4.66,0c1.06,0,1.92,0.86,1.92,1.92c0,1.06-0.86,1.92-1.92,1.92S2.73,2.98,2.73,1.92
						C2.73,0.86,3.6,0,4.66,0z"/>
				</g>
				<g>
					<path class="st25" d="M4.57,5.01C2.4,5.05,0.69,6.89,0.69,9.06v1.17c0,0.15,0.12,0.27,0.27,0.27h1.32
						c0.15,0,0.27-0.12,0.27-0.27l0-1.19c0-1.14,0.87-2.11,2.01-2.17C5.76,6.8,6.77,7.77,6.77,8.97c0-0.97,0.35-1.85,0.93-2.54
						C6.95,5.54,5.82,4.98,4.57,5.01z"/>
					<path class="st26" d="M10.82,5.01C9.56,4.98,8.44,5.54,7.69,6.43C8.27,7.12,8.62,8,8.62,8.97c0-1.2,1.01-2.17,2.22-2.11
						c1.13,0.06,2.01,1.03,2.01,2.17v1.19c0,0.15,0.12,0.27,0.27,0.27h1.32c0.15,0,0.27-0.12,0.27-0.27V9.06
						C14.69,6.89,12.99,5.05,10.82,5.01z"/>
					<path class="st25" d="M6.77,8.97v1.25c0,0.15,0.12,0.27,0.27,0.27h1.32c0.15,0,0.27-0.12,0.27-0.27V8.97
						c0-0.97-0.35-1.85-0.93-2.54C7.12,7.12,6.77,8,6.77,8.97z"/>
				</g>
			</g>
			<path class="st25" d="M36.6,7.76c0-0.82,0.22-1.48,0.66-1.98c0.44-0.5,1.01-0.75,1.7-0.75c0.21,0,0.41,0.03,0.59,0.08
				C39.74,5.17,39.89,5.23,40,5.3c0.11,0.07,0.2,0.14,0.28,0.22c0.08,0.08,0.13,0.14,0.16,0.19l0.05,0.07h0.02
				c-0.01-0.09-0.02-0.19-0.02-0.3V3.55c0-0.29,0.14-0.43,0.42-0.43h0.45c0.28,0,0.42,0.14,0.42,0.43v6.39
				c0,0.29-0.14,0.43-0.42,0.43h-0.38c-0.28,0-0.42-0.13-0.42-0.39v-0.2l0.02-0.18h-0.02c-0.01,0.03-0.03,0.06-0.06,0.1
				c-0.02,0.04-0.08,0.11-0.17,0.21c-0.09,0.11-0.2,0.2-0.31,0.28c-0.12,0.08-0.27,0.15-0.46,0.21c-0.19,0.06-0.4,0.1-0.63,0.1
				c-0.7,0-1.26-0.25-1.69-0.76C36.82,9.23,36.6,8.58,36.6,7.76z M37.91,7.76c0,0.49,0.12,0.89,0.36,1.18
				c0.24,0.3,0.55,0.45,0.94,0.45c0.37,0,0.68-0.14,0.93-0.41c0.25-0.28,0.38-0.69,0.38-1.23c0-0.44-0.11-0.81-0.34-1.13
				c-0.22-0.32-0.54-0.47-0.96-0.47c-0.37,0-0.68,0.14-0.93,0.43C38.04,6.87,37.91,7.27,37.91,7.76z"/>
			<path class="st25" d="M43.27,9.72c-0.55-0.52-0.83-1.17-0.83-1.97c0-0.79,0.28-1.45,0.83-1.97c0.55-0.52,1.24-0.78,2.04-0.78
				c0.81,0,1.49,0.26,2.05,0.78c0.56,0.52,0.84,1.17,0.84,1.96c0,0.79-0.28,1.45-0.84,1.97c-0.56,0.52-1.24,0.78-2.05,0.78
				C44.5,10.49,43.82,10.23,43.27,9.72z M43.76,7.75c0,0.48,0.15,0.87,0.45,1.18c0.3,0.3,0.67,0.46,1.1,0.46
				c0.44,0,0.81-0.15,1.11-0.46c0.3-0.3,0.45-0.7,0.45-1.18c0-0.47-0.15-0.86-0.46-1.17c-0.3-0.31-0.67-0.46-1.1-0.46
				c-0.43,0-0.8,0.15-1.1,0.46C43.91,6.89,43.76,7.28,43.76,7.75z"/>
			<path class="st25" d="M16.74,10.05V5.58c0-0.29,0.14-0.44,0.43-0.44h0.41c0.29,0,0.43,0.15,0.43,0.44V5.9l-0.02,0.24h0.02
				c0.15-0.3,0.38-0.57,0.7-0.79c0.32-0.23,0.67-0.34,1.06-0.34c0.82,0,1.34,0.37,1.56,1.1h0.02c0.15-0.3,0.4-0.56,0.73-0.78
				c0.33-0.22,0.7-0.33,1.1-0.33c1.17,0,1.75,0.68,1.75,2.04v3c0,0.29-0.15,0.44-0.44,0.44h-0.45c-0.29,0-0.44-0.15-0.44-0.44V7.3
				c0-0.35-0.05-0.62-0.15-0.8c-0.1-0.18-0.3-0.27-0.58-0.27c-0.43,0-0.76,0.18-1,0.55c-0.24,0.37-0.36,0.8-0.36,1.31v1.96
				c0,0.29-0.14,0.44-0.43,0.44h-0.46c-0.29,0-0.44-0.15-0.44-0.44V7.3c0-0.34-0.05-0.61-0.14-0.79c-0.09-0.19-0.29-0.28-0.57-0.28
				c-0.44,0-0.78,0.19-1.02,0.56c-0.24,0.37-0.36,0.81-0.36,1.3v1.96c0,0.29-0.14,0.44-0.43,0.44h-0.46
				C16.89,10.49,16.74,10.34,16.74,10.05z"/>
			<path class="st25" d="M25.57,7.75c0-0.81,0.25-1.47,0.74-1.98c0.49-0.51,1.13-0.76,1.92-0.76c0.73,0,1.29,0.23,1.7,0.69
				c0.41,0.46,0.62,1.06,0.62,1.8c0,0.12-0.04,0.22-0.13,0.31c-0.09,0.09-0.2,0.13-0.32,0.13H26.9c0.04,0.45,0.21,0.8,0.5,1.06
				c0.29,0.25,0.65,0.38,1.07,0.38c0.39,0,0.77-0.11,1.13-0.34c0.26-0.12,0.45-0.08,0.57,0.14l0.12,0.21
				c0.13,0.25,0.08,0.44-0.14,0.57c-0.55,0.35-1.14,0.52-1.78,0.52c-0.84,0-1.52-0.27-2.04-0.8C25.83,9.17,25.57,8.52,25.57,7.75z
				 M26.94,7.16h2.32c-0.01-0.36-0.11-0.64-0.31-0.85C28.75,6.1,28.5,6,28.2,6c-0.33,0-0.61,0.1-0.83,0.31
				C27.14,6.52,27,6.8,26.94,7.16z"/>
			<path class="st25" d="M31.07,7.75c0-0.81,0.25-1.47,0.74-1.98c0.49-0.51,1.13-0.76,1.92-0.76c0.73,0,1.29,0.23,1.7,0.69
				c0.41,0.46,0.62,1.06,0.62,1.8c0,0.12-0.04,0.22-0.13,0.31c-0.09,0.09-0.2,0.13-0.32,0.13H32.4c0.04,0.45,0.21,0.8,0.5,1.06
				c0.29,0.25,0.65,0.38,1.07,0.38c0.39,0,0.77-0.11,1.13-0.34c0.26-0.12,0.45-0.08,0.57,0.14l0.12,0.21
				c0.13,0.25,0.08,0.44-0.14,0.57c-0.55,0.35-1.14,0.52-1.78,0.52c-0.84,0-1.52-0.27-2.04-0.8C31.33,9.17,31.07,8.52,31.07,7.75z
				 M32.44,7.16h2.32c-0.01-0.36-0.11-0.64-0.31-0.85C34.25,6.1,34,6,33.7,6c-0.33,0-0.61,0.1-0.83,0.31
				C32.64,6.52,32.5,6.8,32.44,7.16z"/>
			<path class="st25" d="M48.85,10.06v-6.5c0-0.29,0.15-0.44,0.44-0.44h0.45c0.29,0,0.44,0.15,0.44,0.44v3.51h0.65l1.1-1.58
				c0.12-0.19,0.29-0.29,0.52-0.29h0.5c0.17,0,0.29,0.05,0.34,0.16c0.05,0.1,0.03,0.23-0.07,0.36l-1.32,1.85v0.02l1.56,2.39
				c0.09,0.15,0.11,0.28,0.05,0.37c-0.06,0.1-0.17,0.15-0.34,0.15H52.6c-0.23,0-0.4-0.1-0.51-0.3l-1.24-2.01h-0.69v1.88
				c0,0.29-0.15,0.44-0.44,0.44h-0.45C48.99,10.49,48.85,10.35,48.85,10.06z"/>
		</g>
		<text transform="matrix(1 0 0 1 3.4683 15.0446)" class="st25 st27 st28">¡En línea con tu Doctor!</text>
	</g>
</g>
</svg>
