<?xml version="1.0" encoding="utf-8"?>
<!-- Generator: Adobe Illustrator 24.2.1, SVG Export Plug-In . SVG Version: 6.00 Build 0)  -->
<svg version="1.1" id="Meedok-Doctores" xmlns="http://www.w3.org/2000/svg" xmlns:xlink="http://www.w3.org/1999/xlink" x="0px"
	 y="0px" viewBox="0 0 16 16" style="enable-background:new 0 0 16 16;" xml:space="preserve">
<style type="text/css">
	.st0{fill:#FFFFFF;}
	.st1{fill:none;}
	.st2{clip-path:url(#SVGID_2_);}
	.st3{fill:#EF00A5;}
	.st4{fill:#4E00EF;}
	.st5{opacity:0.7;fill:#FFFFFF;}
</style>
<g>
	<g>
		<path class="st0" d="M11.47,2.01c1.21,0,2.2,0.99,2.2,2.2c0,1.21-0.99,2.2-2.2,2.2s-2.2-0.99-2.2-2.2
			C9.27,2.99,10.26,2.01,11.47,2.01z"/>
	</g>
	<g>
		<path class="st0" d="M4.53,2.01c1.21,0,2.2,0.99,2.2,2.2c0,1.21-0.99,2.2-2.2,2.2s-2.2-0.99-2.2-2.2
			C2.33,2.99,3.32,2.01,4.53,2.01z"/>
	</g>
	<g>
		<path class="st5" d="M11.57,7.73C10.14,7.7,8.85,8.34,8,9.35c0.66,0.79,1.06,1.8,1.06,2.9c0-1.37,1.15-2.48,2.54-2.41
			c1.3,0.06,2.29,1.18,2.29,2.48v1.36c0,0.17,0.14,0.31,0.31,0.31h1.51c0.17,0,0.31-0.14,0.31-0.31v-1.33
			C16,9.88,14.05,7.78,11.57,7.73z"/>
		<path class="st0" d="M8,9.35C7.15,8.34,5.86,7.7,4.43,7.73C1.95,7.78,0,9.88,0,12.36v1.33c0,0.17,0.14,0.31,0.31,0.31h1.51
			c0.17,0,0.31-0.14,0.31-0.31v-1.36c0-1.3,1-2.42,2.29-2.48c1.39-0.07,2.54,1.04,2.54,2.41v1.43c0,0.17,0.14,0.31,0.31,0.31h1.51
			c0.17,0,0.31-0.14,0.31-0.31v-1.43C9.06,11.15,8.66,10.14,8,9.35z"/>
	</g>
</g>
</svg>
