<svg id="Meedok-Doctores" xmlns="http://www.w3.org/2000/svg" viewBox="0 0 16 16"><defs><style>.cls-1{fill:#fff;}</style></defs><g id="Group_9" data-name="Group 9"><g id="Group_3" data-name="Group 3"><g id="Group_3-2" data-name="Group 3-2"><path id="Fill_1" data-name="Fill 1" class="cls-1" d="M8.24,0a3,3,0,1,1-3,3h0a3,3,0,0,1,3-3"/></g></g><g id="Group_6" data-name="Group 6"><g id="Group_6-2" data-name="Group 6-2"><path id="Fill_4" data-name="Fill 4" class="cls-1" d="M12.63,9.84A6,6,0,0,0,2,13.83v1.76a.41.41,0,0,0,.41.41h2a.4.4,0,0,0,.41-.4h0v-1.8A3.28,3.28,0,0,1,7.84,10.5a3.21,3.21,0,0,1,3.37,3,.86.86,0,0,1,0,.16v1.9a.4.4,0,0,0,.4.4h2a.4.4,0,0,0,.41-.4h0V13.7a6,6,0,0,0-1.41-3.86"/></g></g><path id="Fill_7" data-name="Fill 7" class="cls-1" d="M6.55,14.24c-.19,0-.29-.09-.29-.27v-.1c0-.17.1-.26.29-.26H7.73V12.37c0-.18.1-.27.29-.27h.14a.24.24,0,0,1,.27.27v1.24h1.2a.24.24,0,0,1,.27.26V14a.24.24,0,0,1-.27.27H8.43v1.23a.24.24,0,0,1-.27.27H8c-.19,0-.29-.09-.29-.27V14.24Z"/></g></svg>