<svg id="Meedok-Doctores" xmlns="http://www.w3.org/2000/svg" viewBox="0 0 16 16"><defs><style>.cls-1{fill:#fff;}</style></defs><path class="cls-1" d="M9.4,7.77H7.7a.27.27,0,0,1-.27-.27V5.77a.27.27,0,0,0-.27-.27h-1a.27.27,0,0,0-.26.27V7.5a.27.27,0,0,1-.27.27H4A.27.27,0,0,0,3.68,8V9A.27.27,0,0,0,4,9.28H5.68A.27.27,0,0,1,6,9.54v1.68a.27.27,0,0,0,.27.27h.94a.27.27,0,0,0,.27-.27V9.49a.27.27,0,0,1,.27-.27H9.4A.27.27,0,0,0,9.67,9V8A.27.27,0,0,0,9.4,7.77Z"/><path class="cls-1" d="M1,14.72h0a5.6,5.6,0,0,0,1.47,0l.12,0h.1l.18,0a6.88,6.88,0,0,0,.72-.18h.05l0,0a6,6,0,0,0,2,.59,6.24,6.24,0,0,0,1,.05,6.67,6.67,0,0,0,5.19-2.5,6.55,6.55,0,0,0,1.4-3.3V9.3a5.85,5.85,0,0,0,0-.6V8.6l.11,0A1.62,1.62,0,0,0,14.3,8a3.25,3.25,0,0,0,.55-1.35V6.41s0-.1,0-.15A1.06,1.06,0,0,0,15,6.07l.21-.61.21-.6.21-.6c.1-.27.19-.55.28-.83A2.06,2.06,0,0,0,16,2.74a1.53,1.53,0,0,0-.43-1.18,3.13,3.13,0,0,0-.75-.47l0,0-.07,0a1,1,0,0,0-.47-.18.3.3,0,0,0-.18.06.53.53,0,0,0-.26.43.44.44,0,0,0,.27.3h0a.3.3,0,0,0,.12,0,.43.43,0,0,0,.21,0l.07,0a.72.72,0,0,1,.21-.05c.3,0,.54.38.69.7a2.53,2.53,0,0,1-.25,1.88L15,4.51c-.1.27-.21.55-.31.83s-.21.56-.31.83l0,0,0,0a.35.35,0,0,0-.21.29c-.2,1.29-.89,1.39-1.1,1.39H13c-.33,0-.6-.21-.82-.64l-.07-.12a2.21,2.21,0,0,1-.2-.64.33.33,0,0,0-.17-.23l-.07,0V6.18s0,0,0,0l0,0-.16-.46c-.26-.72-.58-1.61-.86-2.49A1.33,1.33,0,0,1,11,1.73a.57.57,0,0,1,.42-.16.26.26,0,0,1,.14.05h0l.06,0a.43.43,0,0,0,.14,0h0a.46.46,0,0,0,.49-.42.4.4,0,0,0-.11-.3.34.34,0,0,0-.31-.09,1,1,0,0,0-.39.1l-.24.08a1.53,1.53,0,0,0-1,.77,2,2,0,0,0-.14,1.54c.16.49.32,1,.49,1.5s.33,1,.5,1.52v.08a.37.37,0,0,0,0,.21,4.22,4.22,0,0,0,.23.79,2.26,2.26,0,0,0,.84,1l.27.14h.2v.13a3.66,3.66,0,0,1,0,.57,5.5,5.5,0,0,1-1.2,2.9A5.92,5.92,0,0,1,5.9,14.43a6,6,0,0,1-1.8-.53l-.23-.11-.37.07a2.87,2.87,0,0,1-.68.15.8.8,0,0,1-.26,0l-.1,0a4.38,4.38,0,0,1-1.3,0h0L1,14H.63l1.14-1.13.37-.43L1.81,12A6,6,0,0,1,.74,7.7,5.78,5.78,0,0,1,2,4.74,5.88,5.88,0,0,1,6.07,2.53h.08l0,.08a1,1,0,0,0,.9.58,1,1,0,0,0,1-1,1,1,0,0,0-1-1,1,1,0,0,0-.92.61l0,.06H6.06A6.5,6.5,0,0,0,1.47,4.36,6.53,6.53,0,0,0,.06,7.65a6.63,6.63,0,0,0,1.15,4.73l.07.09-1,1a.73.73,0,0,0-.19.71C.2,14.46.51,14.65,1,14.72Z"/></svg>