<?xml version="1.0" encoding="utf-8"?>
<!-- Generator: Adobe Illustrator 24.2.1, SVG Export Plug-In . SVG Version: 6.00 Build 0)  -->
<svg version="1.1" id="Meedok-Doctores" xmlns="http://www.w3.org/2000/svg" xmlns:xlink="http://www.w3.org/1999/xlink" x="0px"
	 y="0px" viewBox="0 0 16 16" style="enable-background:new 0 0 16 16;" xml:space="preserve">
<style type="text/css">
	.st0{fill:#FFFFFF;}
</style>
<g id="Group_3">
	<g id="Group_3-2">
		<path id="Fill_1" class="st0" d="M14.68,16H1.36c-0.64,0.02-1.18-0.48-1.2-1.12c0-0.01,0-0.01,0-0.02c-0.01-0.06-0.01-0.12,0-0.18
			l1-9.36C1.27,4.56,1.92,3.99,2.69,4h2V3.33C4.69,1.49,6.18,0,8.02,0s3.33,1.49,3.33,3.33c0,0,0,0,0,0V4h2
			c0.75,0.02,1.38,0.58,1.48,1.32l1,9.36c0.08,0.64-0.36,1.22-1,1.31L14.68,16z M2.69,5.33C2.62,5.35,2.57,5.4,2.54,5.47l-1,9.2h13
			l-1-9.2c-0.03-0.07-0.09-0.12-0.16-0.14h-2v2C11.34,7.7,11,7.96,10.64,7.91c-0.31-0.04-0.55-0.28-0.58-0.58v-2h-4v2
			C6.06,7.69,5.77,7.99,5.4,8C5.39,8,5.38,8,5.36,8C4.99,8,4.69,7.7,4.69,7.33l0,0l0,0v-2H2.69z M8.02,1.33c-1.1,0-2,0.9-2,2V4h4
			V3.33C10.02,2.23,9.13,1.33,8.02,1.33z"/>
	</g>
</g>
<path id="Fill_4" class="st0" d="M5.9,11.36v-1.18h1.37V8.79h1.18v1.38h1.39v1.17H8.46v1.38H7.28v-1.36H5.9z"/>
</svg>
