<?xml version="1.0" encoding="utf-8"?>
<!-- Generator: Adobe Illustrator 24.2.1, SVG Export Plug-In . SVG Version: 6.00 Build 0)  -->
<svg version="1.1" id="Meedok-Doctores" xmlns="http://www.w3.org/2000/svg" xmlns:xlink="http://www.w3.org/1999/xlink" x="0px"
	 y="0px" viewBox="0 0 16 16" style="enable-background:new 0 0 16 16;" xml:space="preserve">
<style type="text/css">
	.st0{fill:#EDD1E6;}
	.st1{fill:#B5C9E5;}
	.st2{fill:#FFFFFF;}
	.st3{fill:url(#SVGID_1_);}
	.st4{fill:url(#SVGID_2_);}
	.st5{fill:url(#SVGID_3_);}
	.st6{fill:url(#SVGID_4_);}
	.st7{fill:url(#SVGID_5_);}
	.st8{fill:url(#SVGID_6_);}
	.st9{fill:url(#SVGID_7_);}
	.st10{fill:url(#SVGID_8_);}
	.st11{fill:url(#SVGID_9_);}
	.st12{fill:url(#SVGID_10_);}
	.st13{opacity:0.7;fill:#FFFFFF;}
	.st14{fill-rule:evenodd;clip-rule:evenodd;fill:#FFFFFF;}
	.st15{fill:#4A4C74;}
	.st16{fill:#4A4C78;}
	.st17{fill:#686A74;}
	.st18{fill:none;stroke:#FFFFFF;stroke-width:0.8558;stroke-linecap:round;stroke-linejoin:round;stroke-miterlimit:10;}
	.st19{fill:url(#SVGID_11_);}
	.st20{fill:url(#SVGID_12_);}
	.st21{fill:#FC00B0;}
	.st22{fill:url(#Fill_1_15_);}
	.st23{fill:url(#Fill_4_5_);}
	.st24{fill:url(#Fill_7_2_);}
	.st25{fill:#4E00EF;}
	.st26{opacity:0.7;fill:#4E00EF;}
	.st27{fill:url(#SVGID_13_);}
	.st28{fill:url(#SVGID_14_);}
	.st29{fill:url(#SVGID_15_);}
	.st30{fill:url(#SVGID_16_);}
	.st31{fill:url(#SVGID_17_);}
	.st32{fill:url(#SVGID_18_);}
	.st33{fill:url(#SVGID_19_);}
	.st34{fill:url(#SVGID_20_);}
	.st35{fill:url(#SVGID_21_);}
	.st36{fill:url(#SVGID_22_);}
	.st37{fill:#343434;}
	.st38{fill:url(#SVGID_23_);}
	.st39{fill:url(#SVGID_24_);}
	.st40{fill:url(#SVGID_25_);}
	.st41{fill:url(#SVGID_26_);}
	.st42{fill:url(#SVGID_27_);}
	.st43{fill:url(#SVGID_28_);}
	.st44{fill:url(#SVGID_29_);}
	.st45{fill:url(#SVGID_30_);}
	.st46{fill:url(#SVGID_31_);}
	.st47{fill:url(#SVGID_32_);}
	.st48{fill:url(#Fill_9_1_);}
	.st49{fill:url(#SVGID_33_);}
	.st50{fill:url(#SVGID_34_);}
	.st51{fill:url(#SVGID_35_);}
	.st52{fill:url(#SVGID_36_);}
	.st53{fill:url(#SVGID_37_);}
	.st54{fill:url(#SVGID_38_);}
	.st55{fill:url(#SVGID_39_);}
	.st56{fill:url(#SVGID_40_);}
	.st57{fill:none;}
	.st58{clip-path:url(#SVGID_42_);}
	.st59{fill:url(#Fill_1_16_);}
	.st60{fill:#4285F4;}
	.st61{fill:#34A853;}
	.st62{fill:#FBBC05;}
	.st63{fill:#EB4335;}
	.st64{fill-rule:evenodd;clip-rule:evenodd;fill:url(#SVGID_43_);}
	.st65{clip-path:url(#SVGID_45_);fill:#4E00E2;}
	.st66{clip-path:url(#SVGID_47_);fill:#4E00E2;}
	.st67{fill:url(#SVGID_48_);}
	.st68{fill:url(#SVGID_49_);}
	.st69{fill:url(#SVGID_50_);}
	.st70{fill:url(#SVGID_51_);}
	.st71{fill:url(#SVGID_52_);}
	.st72{fill:url(#SVGID_53_);}
</style>
<g>
	<linearGradient id="SVGID_1_" gradientUnits="userSpaceOnUse" x1="-1.818989e-12" y1="8" x2="16" y2="8">
		<stop  offset="0" style="stop-color:#4E00E2"/>
		<stop  offset="1" style="stop-color:#4E00E2"/>
	</linearGradient>
	<path class="st3" d="M8,0C3.59,0,0,3.59,0,8s3.59,8,8,8s8-3.59,8-8S12.41,0,8,0z M0.81,8c0-1.22,0.31-2.37,0.85-3.38
		c0.1,0.05,0.2,0.09,0.3,0.1c0.67,0.07,0.54,1.21,1.07,1.55C3.56,6.6,3.77,7.05,3.77,7.05s0.07,1.71,0.74,2.04
		c0.67,0.34,0.94,1.01,0.74,1.75c-0.2,0.74-0.2,1.68,0.27,2.29c0.47,0.61,1.75,0.54,1.48,0c-0.27-0.54-0.67-0.61-0.53-0.94
		c0.14-0.34,1.07-0.88,1.27-1.41c0.2-0.54,1.62-1.28,2.09-2.09s-1.01-1.28-1.8-1.21C7.25,7.54,6.8,7.01,6.13,6.28
		S5.19,6.13,4.45,6.26C3.7,6.4,3.44,5.79,3.1,4.99S3.7,4.72,3.97,3.83s0.88-0.19,1.39-0.06C5.89,3.91,6.2,3.84,6.4,3.1
		s1.42-0.54,1.62-1.01S6.8,2.16,5.66,1.62c-0.19-0.09-0.28-0.19-0.3-0.3C6.18,0.99,7.07,0.81,8,0.81c2.45,0,4.61,1.23,5.91,3.11
		c-0.12,0.21-0.26,0.36-0.44,0.28c-0.43-0.19-0.32,0.41-0.76,0.27c-0.44-0.14-1.3-0.07-1.52,0.58c-0.22,0.65-0.39,0.95,0.17,1.52
		s0.62,0.85,0.62,1.21c0,0.36,0.3,0.49,0.86,0.38c0.56-0.11,1.03-0.28,1.01,0.22c-0.02,0.5-0.48,0.57-0.12,0.94
		c0.36,0.36,0.85,0.88-0.15,1.2c-0.99,0.33-1.09,0.72-0.99,1.37c0.1,0.64-0.32,0.86,0.34,1.33c-1.29,1.23-3.03,1.98-4.95,1.98
		C4.03,15.19,0.81,11.97,0.81,8z"/>
</g>
</svg>
