<svg id="Meedok-Doctores" xmlns="http://www.w3.org/2000/svg" viewBox="0 0 16 16"><defs><style>.cls-1{fill:#fff;}</style></defs><path class="cls-1" d="M10.22,16a2.51,2.51,0,0,1-2.47-2.26A.25.25,0,0,1,8,13.47a.24.24,0,0,1,.28.22,2,2,0,0,0,2,1.81c1.76,0,1.93-2,1.94-2.1a.25.25,0,0,1,.49,0A2.57,2.57,0,0,1,10.22,16Z"/><path class="cls-1" d="M12.19,14.71h-.07a.25.25,0,0,1-.24-.25.25.25,0,0,1,.26-.24A2,2,0,0,0,14,13a1.8,1.8,0,0,0-.11-1.68,1,1,0,0,0-.86-.44.92.92,0,0,0-.71.37.24.24,0,0,1-.34.08.23.23,0,0,1-.08-.33A1.32,1.32,0,0,1,13,10.42a1.49,1.49,0,0,1,1.28.64,2.3,2.3,0,0,1,.18,2.14A2.42,2.42,0,0,1,12.19,14.71Z"/><path class="cls-1" d="M10.17,13.84a1.18,1.18,0,0,1-.56-.15.25.25,0,0,1-.09-.34.24.24,0,0,1,.33-.09.58.58,0,0,0,.78-.16.61.61,0,0,0,0-.75.24.24,0,0,1,0-.35A.25.25,0,0,1,11,12a1.14,1.14,0,0,1-.86,1.83Z"/><path class="cls-1" d="M12.13,9.12a.25.25,0,0,1,0-.5.93.93,0,0,0,.84-1,.86.86,0,0,0-.72-.95.25.25,0,0,1,.06-.5,1.37,1.37,0,0,1,1.16,1.46,1.44,1.44,0,0,1-1.3,1.47Z"/><path class="cls-1" d="M14.4,12.21a.25.25,0,0,1-.22-.12.26.26,0,0,1,.1-.34A2.09,2.09,0,0,0,13.18,8a.26.26,0,0,1-.24-.26.25.25,0,0,1,.27-.24,2.59,2.59,0,0,1,1.31,4.7Z"/><path class="cls-1" d="M14.37,8.38l-.1,0A.24.24,0,0,1,14.15,8a3.34,3.34,0,0,0,.16-2.75,3.28,3.28,0,0,0-2.09-1.75.25.25,0,0,1,.15-.47,3.77,3.77,0,0,1,2.4,2,3.87,3.87,0,0,1-.17,3.16A.27.27,0,0,1,14.37,8.38Z"/><path class="cls-1" d="M12.11,4.05A.15.15,0,0,1,12,4a.24.24,0,0,1-.14-.32,2.2,2.2,0,0,0-.9-3,1.61,1.61,0,0,0-1.63,0,2.69,2.69,0,0,0-.86.78c-.15.19-.28.35-.49.35a.25.25,0,1,1,0-.49s0-.1.1-.16A3.14,3.14,0,0,1,9.1.3a2.09,2.09,0,0,1,2.11,0c1.34.69,1.75,2,1.13,3.62A.25.25,0,0,1,12.11,4.05Z"/><path class="cls-1" d="M10.54,4.42a.33.33,0,0,1-.14,0A.25.25,0,0,1,10.33,4a.62.62,0,0,0-.08-.82.59.59,0,0,0-.79-.06.25.25,0,0,1-.35-.06.24.24,0,0,1,.06-.34,1.09,1.09,0,0,1,1.43.1,1.13,1.13,0,0,1,.14,1.46A.26.26,0,0,1,10.54,4.42Z"/><path class="cls-1" d="M13.54,4.18l-.1,0a.25.25,0,0,1-.13-.32,1.36,1.36,0,0,0-.06-1.16,1.13,1.13,0,0,0-.95-.48.25.25,0,0,1,0-.49,1.57,1.57,0,0,1,1.34.71A1.85,1.85,0,0,1,13.77,4,.25.25,0,0,1,13.54,4.18Z"/><path class="cls-1" d="M5.78,16a2.57,2.57,0,0,1-2.43-2.57.25.25,0,0,1,.23-.26.24.24,0,0,1,.26.23c0,.08.18,2.1,1.94,2.1a2,2,0,0,0,2-1.81A.25.25,0,0,1,8,13.47a.25.25,0,0,1,.23.27A2.51,2.51,0,0,1,5.78,16Z"/><path class="cls-1" d="M3.81,14.71a2.42,2.42,0,0,1-2.3-1.51,2.3,2.3,0,0,1,.18-2.14A1.48,1.48,0,0,1,3,10.42,1.37,1.37,0,0,1,4.09,11a.25.25,0,0,1-.43.25A.92.92,0,0,0,3,10.91a1,1,0,0,0-.86.44A1.8,1.8,0,0,0,2,13a2,2,0,0,0,1.88,1.18.26.26,0,0,1,.26.24.25.25,0,0,1-.24.25Z"/><path class="cls-1" d="M5.83,13.84A1.06,1.06,0,0,1,5,13.4,1.06,1.06,0,0,1,5,12a.25.25,0,0,1,.35,0,.24.24,0,0,1,0,.35.61.61,0,0,0,0,.75.58.58,0,0,0,.78.16.24.24,0,0,1,.33.09.25.25,0,0,1-.09.34A1.18,1.18,0,0,1,5.83,13.84Z"/><path class="cls-1" d="M3.87,9.12h0a1.44,1.44,0,0,1-1.3-1.47A1.37,1.37,0,0,1,3.71,6.19a.25.25,0,0,1,.06.5.86.86,0,0,0-.72.95.93.93,0,0,0,.84,1,.25.25,0,0,1,0,.5Z"/><path class="cls-1" d="M1.6,12.21l-.12,0a2.59,2.59,0,0,1,1.31-4.7.25.25,0,0,1,.27.24A.26.26,0,0,1,2.82,8a2.09,2.09,0,0,0-1.1,3.77.25.25,0,0,1,.09.34A.22.22,0,0,1,1.6,12.21Z"/><path class="cls-1" d="M1.63,8.38a.27.27,0,0,1-.23-.14,3.87,3.87,0,0,1-.17-3.16,3.77,3.77,0,0,1,2.4-2,.25.25,0,0,1,.31.16.25.25,0,0,1-.15.31,3.27,3.27,0,0,0-2.1,1.75A3.34,3.34,0,0,0,1.85,8a.24.24,0,0,1-.12.33Z"/><path class="cls-1" d="M3.89,4.05a.25.25,0,0,1-.23-.16C3,2.28,3.45,1,4.79.27A2.09,2.09,0,0,1,6.9.3a3.14,3.14,0,0,1,1,.91c.06.06.12.15.15.17a.22.22,0,0,1,.22.24A.26.26,0,0,1,8,1.86c-.21,0-.34-.16-.49-.35A2.69,2.69,0,0,0,6.65.73,1.61,1.61,0,0,0,5,.71a2.2,2.2,0,0,0-.9,3A.24.24,0,0,1,4,4,.15.15,0,0,1,3.89,4.05Z"/><path class="cls-1" d="M5.46,4.42a.26.26,0,0,1-.2-.11A1.13,1.13,0,0,1,5.4,2.85a1.09,1.09,0,0,1,1.43-.1.24.24,0,0,1,.06.34.25.25,0,0,1-.35.06.59.59,0,0,0-.79.06A.62.62,0,0,0,5.67,4a.25.25,0,0,1-.07.35A.33.33,0,0,1,5.46,4.42Z"/><path class="cls-1" d="M2.46,4.18A.25.25,0,0,1,2.23,4a1.83,1.83,0,0,1,.1-1.6,1.57,1.57,0,0,1,1.34-.71.23.23,0,0,1,.26.23.24.24,0,0,1-.23.26,1.13,1.13,0,0,0-1,.48,1.36,1.36,0,0,0-.06,1.16.25.25,0,0,1-.14.32Z"/><path class="cls-1" d="M8,11.85H8a.25.25,0,0,1-.21-.22L7.48,9H6a.24.24,0,0,1-.21-.13.25.25,0,0,1,0-.24L8.15,4.37a.28.28,0,0,1,.28-.12.25.25,0,0,1,.18.24V7.14H10a.26.26,0,0,1,.21.11.26.26,0,0,1,0,.24l-2,4.22A.26.26,0,0,1,8,11.85ZM6.42,8.46H7.71A.25.25,0,0,1,8,8.68l.21,2L9.61,7.63H8.37a.25.25,0,0,1-.25-.24V5.44Z"/></svg>