<?xml version="1.0" encoding="utf-8"?>
<!-- Generator: Adobe Illustrator 24.2.1, SVG Export Plug-In . SVG Version: 6.00 Build 0)  -->
<svg version="1.1" id="Meedok-Doctores" xmlns="http://www.w3.org/2000/svg" xmlns:xlink="http://www.w3.org/1999/xlink" x="0px"
	 y="0px" viewBox="0 0 16 16" style="enable-background:new 0 0 16 16;" xml:space="preserve">
<style type="text/css">
	.st0{fill:#EDD1E6;}
	.st1{fill:#B5C9E5;}
	.st2{fill:#FFFFFF;}
	.st3{fill:url(#SVGID_1_);}
	.st4{fill:url(#SVGID_2_);}
	.st5{fill:url(#SVGID_3_);}
	.st6{fill:url(#SVGID_4_);}
	.st7{fill:url(#SVGID_5_);}
	.st8{fill:url(#SVGID_6_);}
	.st9{fill:url(#SVGID_7_);}
	.st10{fill:url(#SVGID_8_);}
	.st11{fill:url(#SVGID_9_);}
	.st12{fill:url(#SVGID_10_);}
	.st13{opacity:0.7;fill:#FFFFFF;}
	.st14{fill-rule:evenodd;clip-rule:evenodd;fill:#FFFFFF;}
	.st15{fill:#4A4C74;}
	.st16{fill:#4A4C78;}
	.st17{fill:#686A74;}
	.st18{fill:none;stroke:#FFFFFF;stroke-width:0.8558;stroke-linecap:round;stroke-linejoin:round;stroke-miterlimit:10;}
	.st19{fill:url(#SVGID_11_);}
	.st20{fill:url(#SVGID_12_);}
	.st21{fill:#FC00B0;}
	.st22{fill:url(#Fill_1_15_);}
	.st23{fill:url(#Fill_4_5_);}
	.st24{fill:url(#Fill_7_2_);}
	.st25{fill:#4E00EF;}
	.st26{opacity:0.7;fill:#4E00EF;}
	.st27{fill:url(#SVGID_13_);}
	.st28{fill:url(#SVGID_14_);}
	.st29{fill:url(#SVGID_15_);}
	.st30{fill:url(#SVGID_16_);}
	.st31{fill:url(#SVGID_17_);}
	.st32{fill:url(#SVGID_18_);}
	.st33{fill:url(#SVGID_19_);}
	.st34{fill:url(#SVGID_20_);}
	.st35{fill:url(#SVGID_21_);}
	.st36{fill:url(#SVGID_22_);}
	.st37{fill:#343434;}
	.st38{fill:url(#SVGID_23_);}
	.st39{fill:url(#SVGID_24_);}
	.st40{fill:url(#SVGID_25_);}
	.st41{fill:url(#SVGID_26_);}
	.st42{fill:url(#SVGID_27_);}
	.st43{fill:url(#SVGID_28_);}
	.st44{fill:url(#SVGID_29_);}
	.st45{fill:url(#SVGID_30_);}
	.st46{fill:url(#SVGID_31_);}
	.st47{fill:url(#SVGID_32_);}
	.st48{fill:url(#Fill_9_1_);}
	.st49{fill:url(#SVGID_33_);}
	.st50{fill:url(#SVGID_34_);}
	.st51{fill:url(#SVGID_35_);}
	.st52{fill:url(#SVGID_36_);}
	.st53{fill:url(#SVGID_37_);}
	.st54{fill:url(#SVGID_38_);}
	.st55{fill:url(#SVGID_39_);}
	.st56{fill:url(#SVGID_40_);}
	.st57{fill:none;}
	.st58{clip-path:url(#SVGID_42_);}
	.st59{fill:url(#Fill_1_16_);}
	.st60{fill:#4285F4;}
	.st61{fill:#34A853;}
	.st62{fill:#FBBC05;}
	.st63{fill:#EB4335;}
	.st64{fill-rule:evenodd;clip-rule:evenodd;fill:url(#SVGID_43_);}
	.st65{clip-path:url(#SVGID_45_);fill:#4E00E2;}
	.st66{clip-path:url(#SVGID_47_);fill:#4E00E2;}
	.st67{fill:url(#SVGID_48_);}
	.st68{fill:url(#SVGID_49_);}
	.st69{fill:url(#SVGID_50_);}
	.st70{fill:url(#SVGID_51_);}
	.st71{fill:url(#SVGID_52_);}
	.st72{fill:url(#SVGID_53_);}
</style>
<path class="st25" d="M12.03,0H3.97C2.34,0,1.02,1.32,1.02,2.94v10.11c0,1.63,1.32,2.94,2.94,2.94h5.09c1.18,0,2.31-0.51,3.09-1.39
	l1.8-2.03c0.67-0.75,1.03-1.73,1.03-2.73v-6.9C14.98,1.32,13.66,0,12.03,0z M3.97,15.02C2.88,15.02,2,14.14,2,13.06V2.94
	c0-1.08,0.88-1.96,1.96-1.96h8.07c1.08,0,1.96,0.88,1.96,1.96v6.9c0,0.15-0.01,0.3-0.04,0.45c-0.05-0.02-0.1-0.02-0.15-0.03h-2.78
	c-0.78,0.01-1.41,0.63-1.43,1.4l-0.07,3.3C9.37,15,9.22,15.02,9.06,15.02L3.97,15.02z M11.41,13.96c-0.26,0.28-0.56,0.52-0.9,0.7
	l0.07-2.94c0.01-0.25,0.21-0.44,0.45-0.44h2.62c-0.12,0.24-0.27,0.46-0.45,0.65L11.41,13.96z"/>
<path class="st25" d="M10.73,7.27h-1.7C8.88,7.27,8.76,7.15,8.76,7V5.27c0-0.15-0.12-0.27-0.27-0.27h-1c-0.15,0-0.27,0.12-0.27,0.27
	V7c0,0.15-0.12,0.27-0.27,0.27H5.27c-0.15,0-0.27,0.12-0.27,0.27v0.97c0,0.15,0.12,0.27,0.27,0.27H7c0.15,0,0.27,0.12,0.27,0.27
	v1.67c0,0.15,0.12,0.27,0.27,0.27h0.95c0.15,0,0.27-0.12,0.27-0.27V9c0-0.15,0.12-0.27,0.27-0.27h1.7c0.15,0,0.27-0.12,0.27-0.27
	V7.54C10.99,7.39,10.87,7.27,10.73,7.27z"/>
</svg>
