<svg id="Meedok-Doctores" xmlns="http://www.w3.org/2000/svg" viewBox="0 0 16 16"><defs><style>.cls-1{fill:#fff;}</style></defs><path class="cls-1" d="M10,14.05a1.95,1.95,0,1,1-3.9,0Z"/><path class="cls-1" d="M8.9,2.45a3.28,3.28,0,0,1,2.32,3.14V7.37a6.35,6.35,0,0,0,1.47,4.06,2.86,2.86,0,0,1,.22.3H3.1a3.06,3.06,0,0,1,.21-.29A6.35,6.35,0,0,0,4.78,7.38V5.54a3.18,3.18,0,0,1,.65-1.95A3.22,3.22,0,0,1,7.09,2.45,7,7,0,0,1,8,2.33,7,7,0,0,1,8.9,2.45ZM8,0A1.29,1.29,0,0,0,6.72,1.19,4.54,4.54,0,0,0,3.47,5.54V7.38A5,5,0,0,1,2.3,10.6,3.86,3.86,0,0,0,1.44,13H14.56a3.8,3.8,0,0,0-.87-2.44,5.1,5.1,0,0,1-1.17-3.23V5.59A4.59,4.59,0,0,0,9.27,1.2,1.27,1.27,0,0,0,8,0Z"/></svg>