<svg id="Meedok-Doctores" xmlns="http://www.w3.org/2000/svg" viewBox="0 0 16 16"><defs><style>.cls-1{fill:#fff;}</style></defs><path class="cls-1" d="M12.34,5.1a3.78,3.78,0,0,0-3.9.27h0a6.21,6.21,0,0,1,1.88-3.18.3.3,0,0,0,.05-.42.29.29,0,0,0-.42,0s0,0,0,0A6.68,6.68,0,0,0,8.63,3.28,4.14,4.14,0,0,0,4.57,0a.29.29,0,0,0-.29.3,4.15,4.15,0,0,0,3.8,4.15,5.74,5.74,0,0,0-.29,1.08l-.23-.16a3.75,3.75,0,0,0-5.24.9A3.8,3.8,0,0,0,1.63,8.6l.06,1.22A7.81,7.81,0,0,0,4.4,15.35a2.58,2.58,0,0,0,1.35.59H6.1A2.56,2.56,0,0,0,8,15.17a2.6,2.6,0,0,0,3.6.2,7.78,7.78,0,0,0,2.71-5.53l.06-1.21A3.79,3.79,0,0,0,12.34,5.1ZM4.88.63A3.56,3.56,0,0,1,8.12,3.86,3.56,3.56,0,0,1,4.88.63Zm8.84,9.16a7.22,7.22,0,0,1-2.5,5.11,2,2,0,0,1-2.85-.23l-.12-.15h0A.29.29,0,0,0,8,14.39H8a.35.35,0,0,0-.25.14A2,2,0,0,1,5,15l-.15-.11A7.21,7.21,0,0,1,2.28,9.79l0-1.19a3.17,3.17,0,0,1,3-3.32,3.21,3.21,0,0,1,2,.58l.59.44a.3.3,0,0,0,.34,0l.6-.44a3.16,3.16,0,0,1,5,2.74Z"/></svg>