<svg id="Meedok-Doctores" xmlns="http://www.w3.org/2000/svg" viewBox="0 0 16 16"><defs><style>.cls-1{fill:#fff;}</style></defs><path class="cls-1" d="M11.91,2.05s-1.47,0-2,.9a2.9,2.9,0,0,0-2-.8A2.74,2.74,0,0,0,6,2.92a2.73,2.73,0,0,0-2-.87.28.28,0,0,0-.28.29A.27.27,0,0,0,4,2.62s1.5.07,1.62.84a.27.27,0,0,0,.28.25H6a.22.22,0,0,0,.21-.12l0,0A2.26,2.26,0,0,1,8,2.68a2.33,2.33,0,0,1,1.63.73l.26.23,0,0a.25.25,0,0,0,.15,0h.08a.26.26,0,0,0,.2-.24c.12-.78,1.61-.85,1.62-.85a.27.27,0,0,0,.28-.28A.3.3,0,0,0,11.91,2.05Z"/><path class="cls-1" d="M14.77,2.45h0A3,3,0,0,0,11.69,0,4.78,4.78,0,0,0,9.76.41,5.13,5.13,0,0,1,8,.84,5.27,5.27,0,0,1,6.24.41,4.78,4.78,0,0,0,4.31,0,3,3,0,0,0,1.23,2.44s-.63,2.12,1.19,5a6.33,6.33,0,0,1,.65,3.81A4.48,4.48,0,0,0,5.63,15.9h0a1,1,0,0,0,.38.08.85.85,0,0,0,.57-.24,2.62,2.62,0,0,0,.46-1.94c0-1.52,0-2.47.29-2.79A.91.91,0,0,1,8,10.87a1,1,0,0,1,.63.16c.32.32.33,1.27.3,2.79a2.64,2.64,0,0,0,.45,1.94A.8.8,0,0,0,10,16a.86.86,0,0,0,.4-.1A4.52,4.52,0,0,0,13,11.26a6.34,6.34,0,0,1,.64-3.85A6.56,6.56,0,0,0,14.77,2.45Zm-2.4,8.85a3.91,3.91,0,0,1-2.26,4.07.52.52,0,0,1-.16,0,.22.22,0,0,1-.17-.07c-.1-.1-.33-.45-.3-1.54,0-1.87,0-2.74-.45-3.22a1.38,1.38,0,0,0-1-.37,1.26,1.26,0,0,0-1,.37c-.48.48-.48,1.28-.45,3.22,0,1.09-.2,1.44-.29,1.54A.23.23,0,0,1,6,15.4l-.12,0v0l0,0a3.87,3.87,0,0,1-2.24-4.07,6.77,6.77,0,0,0-.72-4.18A6.27,6.27,0,0,1,1.79,2.56v0h0a2.4,2.4,0,0,1,2.51-2A3.81,3.81,0,0,1,6,.9,5.27,5.27,0,0,0,8,1.41,5.29,5.29,0,0,0,10,.9,3.85,3.85,0,0,1,11.69.54a2.35,2.35,0,0,1,2.51,2s0,0,0,0a6.3,6.3,0,0,1-1.12,4.52s0,0,0,0A8,8,0,0,0,12.37,11.3Z"/></svg>