<?xml version="1.0" encoding="utf-8"?>
<!-- Generator: Adobe Illustrator 24.2.1, SVG Export Plug-In . SVG Version: 6.00 Build 0)  -->
<svg version="1.1" id="Meedok-Doctores" xmlns="http://www.w3.org/2000/svg" xmlns:xlink="http://www.w3.org/1999/xlink" x="0px"
	 y="0px" viewBox="0 0 16 16" style="enable-background:new 0 0 16 16;" xml:space="preserve">
<style type="text/css">
	.st0{fill:#EDD1E6;}
	.st1{fill:#B5C9E5;}
	.st2{fill:#FFFFFF;}
	.st3{fill:url(#SVGID_1_);}
	.st4{fill:url(#SVGID_2_);}
	.st5{fill:url(#SVGID_3_);}
	.st6{fill:url(#SVGID_4_);}
	.st7{fill:url(#SVGID_5_);}
	.st8{fill:url(#SVGID_6_);}
	.st9{fill:url(#SVGID_7_);}
	.st10{fill:url(#SVGID_8_);}
	.st11{fill:url(#SVGID_9_);}
	.st12{fill:url(#SVGID_10_);}
	.st13{opacity:0.7;fill:#FFFFFF;}
	.st14{fill-rule:evenodd;clip-rule:evenodd;fill:#FFFFFF;}
	.st15{fill:#4A4C74;}
	.st16{fill:#4A4C78;}
	.st17{fill:#686A74;}
	.st18{fill:none;stroke:#FFFFFF;stroke-width:0.8558;stroke-linecap:round;stroke-linejoin:round;stroke-miterlimit:10;}
	.st19{fill:url(#SVGID_11_);}
	.st20{fill:url(#SVGID_12_);}
	.st21{fill:#FC00B0;}
	.st22{fill:url(#Fill_1_15_);}
	.st23{fill:url(#Fill_4_5_);}
	.st24{fill:url(#Fill_7_2_);}
	.st25{fill:#4E00EF;}
	.st26{opacity:0.7;fill:#4E00EF;}
	.st27{fill:url(#SVGID_13_);}
	.st28{fill:url(#SVGID_14_);}
	.st29{fill:url(#SVGID_15_);}
	.st30{fill:url(#SVGID_16_);}
	.st31{fill:url(#SVGID_17_);}
	.st32{fill:url(#SVGID_18_);}
	.st33{fill:url(#SVGID_19_);}
	.st34{fill:url(#SVGID_20_);}
	.st35{fill:url(#SVGID_21_);}
	.st36{fill:url(#SVGID_22_);}
	.st37{fill:#343434;}
	.st38{fill:url(#SVGID_23_);}
	.st39{fill:url(#SVGID_24_);}
	.st40{fill:url(#SVGID_25_);}
	.st41{fill:url(#SVGID_26_);}
	.st42{fill:url(#SVGID_27_);}
	.st43{fill:url(#SVGID_28_);}
	.st44{fill:url(#SVGID_29_);}
	.st45{fill:url(#SVGID_30_);}
	.st46{fill:url(#SVGID_31_);}
	.st47{fill:url(#SVGID_32_);}
	.st48{fill:url(#Fill_9_1_);}
	.st49{fill:url(#SVGID_33_);}
	.st50{fill:url(#SVGID_34_);}
	.st51{fill:url(#SVGID_35_);}
	.st52{fill:url(#SVGID_36_);}
	.st53{fill:url(#SVGID_37_);}
	.st54{fill:url(#SVGID_38_);}
	.st55{fill:url(#SVGID_39_);}
	.st56{fill:url(#SVGID_40_);}
	.st57{fill:none;}
	.st58{clip-path:url(#SVGID_42_);}
	.st59{fill:url(#Fill_1_16_);}
	.st60{fill:#4285F4;}
	.st61{fill:#34A853;}
	.st62{fill:#FBBC05;}
	.st63{fill:#EB4335;}
	.st64{fill-rule:evenodd;clip-rule:evenodd;fill:url(#SVGID_43_);}
	.st65{clip-path:url(#SVGID_45_);fill:#4E00E2;}
	.st66{clip-path:url(#SVGID_47_);fill:#4E00E2;}
	.st67{fill:url(#SVGID_48_);}
	.st68{fill:url(#SVGID_49_);}
	.st69{fill:url(#SVGID_50_);}
	.st70{fill:url(#SVGID_51_);}
	.st71{fill:url(#SVGID_52_);}
	.st72{fill:url(#SVGID_53_);}
</style>
<g>
</g>
<path d="M2.07,4.51c0.19,0.24,0.15,0.6-0.09,0.79C1.73,5.5,1.38,5.46,1.18,5.21L0.12,3.89c-0.19-0.24-0.15-0.6,0.09-0.79
	c0.24-0.19,0.6-0.15,0.79,0.09L2.07,4.51z M5.61,3.3c0.04,0,0.08,0,0.12-0.01c0.31-0.07,0.5-0.37,0.43-0.67c0,0,0,0,0,0L5.8,0.93
	c-0.07-0.3-0.37-0.5-0.67-0.43c-0.3,0.07-0.5,0.37-0.43,0.67l0.36,1.68C5.12,3.11,5.35,3.3,5.61,3.3z M14.02,5.31
	c0.24,0.19,0.6,0.15,0.79-0.09l1.06-1.33c0.19-0.24,0.15-0.6-0.09-0.79c-0.24-0.19-0.6-0.15-0.79,0.09l0,0l-1.06,1.33
	C13.74,4.76,13.78,5.11,14.02,5.31C14.02,5.31,14.02,5.31,14.02,5.31z M10.39,3.3c0.27,0,0.49-0.19,0.55-0.45l0.36-1.68
	c0.07-0.3-0.13-0.61-0.43-0.67c-0.3-0.07-0.61,0.13-0.67,0.43l0,0L9.84,2.61c-0.07,0.31,0.13,0.61,0.43,0.67c0,0,0,0,0,0
	C10.31,3.3,10.35,3.3,10.39,3.3z M3.65,5.47C4.93,4.6,6.45,4.14,8,4.16c1.55-0.02,3.07,0.44,4.35,1.31
	c1.08,0.72,2.11,1.75,3.26,3.26c0.5,0.66,0.5,1.57,0,2.22c-1.14,1.5-2.18,2.54-3.26,3.26c-1.28,0.87-2.8,1.33-4.35,1.31
	c-1.55,0.02-3.07-0.44-4.35-1.31c-1.08-0.72-2.11-1.75-3.26-3.26c-0.5-0.66-0.5-1.57,0-2.22C1.54,7.22,2.57,6.19,3.65,5.47
	L3.65,5.47z M8,5.29c-3.14,0-5.08,1.98-6.71,4.12c-0.19,0.25-0.19,0.6,0,0.86C2.92,12.4,4.86,14.39,8,14.39s5.08-1.98,6.71-4.12
	c0.19-0.25,0.19-0.6,0-0.86C13.08,7.27,11.14,5.29,8,5.29z M5.65,12.48c0.64,0.56,1.45,0.87,2.3,0.86c0.08,0,0.17,0,0.25,0
	c1.93-0.14,3.39-1.81,3.25-3.75c-0.14-1.93-1.81-3.39-3.75-3.25c-0.34,0.02-0.68,0.1-1,0.22C6.42,6.68,6.27,7.01,6.39,7.3
	c0.08,0.22,0.29,0.36,0.52,0.36c0.07,0,0.14-0.01,0.2-0.04c1.23-0.47,2.6,0.14,3.07,1.37c0.47,1.23-0.14,2.6-1.37,3.07
	c-1.23,0.47-2.6-0.14-3.07-1.37c-0.17-0.44-0.2-0.93-0.1-1.39C5.7,9,5.49,8.7,5.19,8.65C4.9,8.6,4.62,8.77,4.54,9.05
	C4.25,10.31,4.68,11.63,5.65,12.48z"/>
</svg>

