<svg id="Meedok-Doctores" xmlns="http://www.w3.org/2000/svg" viewBox="0 0 16 16"><defs><style>.cls-1{fill:#fff;}</style></defs><path class="cls-1" d="M13.67,14,13,13c-.94-1.3-1.5-2.09-2.4-3.54a.25.25,0,1,0-.43.27c.91,1.46,1.51,2.3,2.42,3.57l.53.73L11,15.41l-.5-.67c-.61-.81-1-1.3-1.68-2.38a.25.25,0,0,0-.42.27h0c.72,1.08,1.11,1.61,1.7,2.4l.64.85a.25.25,0,0,0,.34.07l2.51-1.63a.24.24,0,0,0,.07-.34Z"/><path class="cls-1" d="M12.6,4.24a.28.28,0,0,0,0-.22L11.1.91h0C10.73.3,9,0,8,0S5.27.3,4.9.91h0L3.4,4a.28.28,0,0,0,0,.22c.23.45.42.79.58,1.11.45.84.77,1.44,1.43,2.52A.26.26,0,0,0,5.63,8a.19.19,0,0,0,.12,0,.25.25,0,0,0,.09-.34c-.66-1.07-1-1.67-1.41-2.5L4,4.24a10.19,10.19,0,0,1,2.47-.8c.42.8.85,1.46.85,1.46a.24.24,0,0,0,.35,0,.25.25,0,0,0,.07-.32S7.31,4,7,3.37A7.17,7.17,0,0,1,8,3.3a9.72,9.72,0,0,1,4,.94A99.42,99.42,0,0,1,5,15.41l-2.1-1.35a79.12,79.12,0,0,0,6.2-9.82A.24.24,0,0,0,9,3.91a.26.26,0,0,0-.32.1A80.38,80.38,0,0,1,2.33,14a.25.25,0,0,0,.06.35h0L4.92,16a.25.25,0,0,0,.33-.06A97.86,97.86,0,0,0,12.59,4.25ZM8,2.79a10.11,10.11,0,0,0-3.84.8l1.16-2.4A4.77,4.77,0,0,1,8,.5a4.77,4.77,0,0,1,2.68.69L11.84,3.6A9.94,9.94,0,0,0,8,2.79Z"/></svg>