<svg id="Meedok-Doctores" xmlns="http://www.w3.org/2000/svg" viewBox="0 0 16 16"><defs><style>.cls-1{fill:#fff;}</style></defs><path class="cls-1" d="M11.11,8.58a.9.9,0,0,0-.73-.18,3,3,0,0,1-2.11-.35A.87.87,0,0,0,7.4,8a4.9,4.9,0,0,1-.87.23,6.15,6.15,0,0,0-1.33.38c-.49.24-1.35.71-1.53,1.44A1.24,1.24,0,0,0,4,11.18a13.53,13.53,0,0,0,1,1.13,1.88,1.88,0,0,1,.62,1,10.47,10.47,0,0,1,0,2.16.5.5,0,0,0,.12.39A.46.46,0,0,0,6,16H9.38a.55.55,0,0,0,.37-.15.49.49,0,0,0,.14-.36c0-.38,0-1.16,0-2.09s.38-1.07,1.13-1.55c.25-.16.54-.34.87-.58a1,1,0,0,0,.47-.82C12.38,9.78,11.69,9.05,11.11,8.58Zm.78,1.87a.54.54,0,0,1-.27.44,8.8,8.8,0,0,1-.86.56c-.76.48-1.31.8-1.36,1.93,0,.93,0,1.73,0,2.13v0h0L6,15.51H6v0a9,9,0,0,0,0-2.31A2.24,2.24,0,0,0,5.24,12a13.12,13.12,0,0,1-.93-1.07.78.78,0,0,1-.18-.69c.09-.38.56-.78,1.27-1.11h0a6.88,6.88,0,0,1,1.22-.35,5.08,5.08,0,0,0,1-.27h0a.33.33,0,0,1,.2-.05.35.35,0,0,1,.2.05,3.41,3.41,0,0,0,2.45.4A.43.43,0,0,1,10.8,9C11.51,9.53,11.89,10.07,11.89,10.45Z"/><path class="cls-1" d="M4.07,7A2.47,2.47,0,0,0,5.15,8a1.8,1.8,0,0,0,.58.11A2.11,2.11,0,0,0,6.53,8a6.38,6.38,0,0,0,.89-.48l.23-.14.19-.11a2.31,2.31,0,0,0,1.91.65,2.24,2.24,0,0,0,1-.34h0A2.41,2.41,0,0,0,11.65,6,1.9,1.9,0,0,0,11,4.47c-1.5-1.34-1.5-1.45-1.51-2s0-2.17,0-2.18V0H5.33l0,.27a8.86,8.86,0,0,1,.15,2.37,4.76,4.76,0,0,1-.86,1.29,5.81,5.81,0,0,0-.83,1.2,1.86,1.86,0,0,0-.2.83A2.51,2.51,0,0,0,4.07,7Zm.2-1.63A5.28,5.28,0,0,1,5,4.24,4.92,4.92,0,0,0,6,2.8,7.82,7.82,0,0,0,5.87.47H9v2c0,.8.12,1,1.65,2.4a1.4,1.4,0,0,1,.56,1.09,2,2,0,0,1-.74,1.23,2.35,2.35,0,0,1-.75.26A1.8,1.8,0,0,1,8.31,7,1.37,1.37,0,0,1,8.87,7a.24.24,0,0,0,0-.48A2.8,2.8,0,0,0,7.4,7l-.24.14a5.72,5.72,0,0,1-.8.44,1.48,1.48,0,0,1-1,0,2.13,2.13,0,0,1-.86-.85A1.86,1.86,0,0,1,4.13,6,1.15,1.15,0,0,1,4.27,5.33Z"/></svg>