<svg id="Meedok-Doctores" xmlns="http://www.w3.org/2000/svg" viewBox="0 0 16 16"><defs><style>.cls-1{fill:#fff;}</style></defs><path class="cls-1" d="M14.15,15.68a.28.28,0,0,0,.23-.15.31.31,0,0,0,0-.33l-.19-.31-.24-.39A10.45,10.45,0,0,1,13,12.55a2.59,2.59,0,0,1,0-1.8,7.17,7.17,0,0,1,.43-1l.34-.65c.11-.19.21-.39.31-.58a6.29,6.29,0,0,0,.74-3.71,5,5,0,0,0-1.56-3.14A6.19,6.19,0,0,0,9.89.08l-.16,0A1.35,1.35,0,0,1,9.38,0H8.33a.51.51,0,0,1-.2,0L8,.06A6.5,6.5,0,0,0,3.09,3.74a3.9,3.9,0,0,0-.37,2.1.3.3,0,0,0,.29.3H3a.32.32,0,0,0,.28-.32.2.2,0,0,0,0-.07,3.7,3.7,0,0,1,.37-1.88A6,6,0,0,1,8.91.58a4.84,4.84,0,0,1,.92.08,5.49,5.49,0,0,1,3,1.43A4.7,4.7,0,0,1,14.2,6.3a6.71,6.71,0,0,1-.85,2.33l0,0a12.43,12.43,0,0,0-.9,1.92,3.09,3.09,0,0,0,0,2,7.83,7.83,0,0,0,.4,1,19.1,19.1,0,0,0,1.08,1.91.33.33,0,0,0,.27.17Z"/><path class="cls-1" d="M7.7,15.48c-.09-.19-.19-.37-.28-.55v0A1.74,1.74,0,0,0,6,14l-.43-.05a6.35,6.35,0,0,1-2.12-.49.25.25,0,0,0-.32.13.28.28,0,0,0,.06.35,1.28,1.28,0,0,0,.28.16,4.76,4.76,0,0,0,1.1.3l1,.14.41.05a1.1,1.1,0,0,1,.85.58v0a5.68,5.68,0,0,1,.28.55.7.7,0,0,0,.23.29h.17C7.8,15.84,7.82,15.75,7.7,15.48Z"/><path class="cls-1" d="M10.61,14.87l-.42-.71L10,13.88a18.11,18.11,0,0,0-1.35-2.05A2.86,2.86,0,0,0,7,10.75a9.61,9.61,0,0,0-1.76-.13h-2A.19.19,0,0,1,3,10.34c0-.08,0-.15.07-.22l0,0a.35.35,0,0,0,0-.27.32.32,0,0,0-.23-.14l-.39-.09-.4-.08c-.16,0-.26-.06-.3-.14s0-.18.09-.32l.41-.68.66-1.13a.3.3,0,0,0-.09-.42.27.27,0,0,0-.21,0,.35.35,0,0,0-.2.16l-.2.34c-.31.53-.64,1.08-.95,1.62a.75.75,0,0,0-.07.66.77.77,0,0,0,.52.45,3.26,3.26,0,0,0,.48.11.27.27,0,0,1,.19.11.28.28,0,0,1,0,.22,1,1,0,0,0-.07.15.87.87,0,0,1-.07.17.31.31,0,0,0,0,.31.2.2,0,0,1,0,.24.34.34,0,0,0,0,.27.33.33,0,0,0,.2.18.34.34,0,0,1,.24.43c0,.07,0,.14,0,.2a.83.83,0,0,0,0,.15.29.29,0,0,0,.22.35.28.28,0,0,0,.34-.22l.06-.22a1,1,0,0,1,0-.17A.75.75,0,0,0,3,11.39l0,0,0-.13.07,0v0H5.86a3.21,3.21,0,0,1,2.79,1.57c.51.78,1,1.59,1.45,2.37a.37.37,0,0,0,.23.2.23.23,0,0,0,.21,0C10.68,15.23,10.71,15.06,10.61,14.87Z"/><path class="cls-1" d="M9.51,10.42a1,1,0,0,0,.76.23,1,1,0,0,0,.79-.63,3,3,0,0,1,.65-.95,1.53,1.53,0,0,0,.34-.42,1.5,1.5,0,0,0,0-1.58,1.49,1.49,0,0,0-2.64,0,.26.26,0,0,0,0,.33.26.26,0,0,0,.29.09A.35.35,0,0,0,10,7.34a.92.92,0,0,1,1.71.3,1,1,0,0,1-.32,1,3.47,3.47,0,0,0-.84,1.2.41.41,0,0,1-.45.28.42.42,0,0,1-.32-.4.28.28,0,0,0-.28-.26h0a.28.28,0,0,0-.26.31A.94.94,0,0,0,9.51,10.42Z"/></svg>