<svg id="Meedok-Doctores" xmlns="http://www.w3.org/2000/svg" xmlns:xlink="http://www.w3.org/1999/xlink" viewBox="0 0 16 16"><defs><style>.cls-1{fill:#b5c9e5;}.cls-2{fill:url(#linear-gradient);}.cls-3{fill:url(#linear-gradient-2);}</style><linearGradient id="linear-gradient" x1="-579.1" y1="7.23" x2="-579.1" y2="3.63" gradientTransform="matrix(-1, 0, 0, 1, -571.1, 0)" gradientUnits="userSpaceOnUse"><stop offset="0" stop-color="#4e00ec"/><stop offset="1" stop-color="#4e00ec"/></linearGradient><linearGradient id="linear-gradient-2" x1="4.93" y1="9.94" x2="31.23" y2="9.94" gradientTransform="matrix(1, 0, 0, 1, 0, 0)" xlink:href="#linear-gradient"/></defs><rect class="cls-1" width="16" height="16"/><path class="cls-2" d="M8,3.94A1.49,1.49,0,1,1,6.51,5.43,1.49,1.49,0,0,1,8,3.94Z"/><path class="cls-3" d="M10.35,8.92a3.05,3.05,0,0,0-2.42-1.1,3.1,3.1,0,0,0-3,3.13v.91a.2.2,0,0,0,.21.2h1a.2.2,0,0,0,.2-.2v-.93A1.68,1.68,0,0,1,7.92,9.25a1.65,1.65,0,0,1,1.72,1.64v1a.2.2,0,0,0,.2.2h1a.2.2,0,0,0,.21-.2v-1A3,3,0,0,0,10.35,8.92Z"/></svg>