<?xml version="1.0" encoding="utf-8"?>
<!-- Generator: Adobe Illustrator 24.2.1, SVG Export Plug-In . SVG Version: 6.00 Build 0)  -->
<svg version="1.1" id="Meedok-Doctores" xmlns="http://www.w3.org/2000/svg" xmlns:xlink="http://www.w3.org/1999/xlink" x="0px"
	 y="0px" viewBox="0 0 16 16" style="enable-background:new 0 0 16 16;" xml:space="preserve">
<style type="text/css">
	.st0{fill:#FFFFFF;}
</style>
<g>
	<path class="st0" d="M13.6,2.4H2.4C1.07,2.4,0,3.47,0,4.8v6.4c0,1.33,1.07,2.4,2.4,2.4h11.2c1.33,0,2.4-1.07,2.4-2.4V4.8
		C16,3.47,14.93,2.4,13.6,2.4z M2.4,4h11.2c0.44,0,0.8,0.36,0.8,0.8v0.8H1.6V4.8C1.6,4.36,1.96,4,2.4,4z M13.6,12H2.4
		c-0.44,0-0.8-0.36-0.8-0.8v-4h12.8v4C14.4,11.64,14.04,12,13.6,12z M5.6,10.4c0,0.44-0.36,0.8-0.8,0.8H3.2
		c-0.44,0-0.8-0.36-0.8-0.8c0-0.44,0.36-0.8,0.8-0.8h1.6C5.24,9.6,5.6,9.96,5.6,10.4z"/>
</g>
</svg>
