<svg id="Meedok-Doctores" xmlns="http://www.w3.org/2000/svg" viewBox="0 0 16 16"><defs><style>.cls-1{fill:#fff;}</style></defs><path class="cls-1" d="M12,5.71V3.83A3.84,3.84,0,0,0,8.17,0H7.83A3.84,3.84,0,0,0,4,3.83V5.71A1.71,1.71,0,0,0,2.29,7.43v5.31A3.26,3.26,0,0,0,5.54,16h4.92a3.26,3.26,0,0,0,3.25-3.26V7.43A1.71,1.71,0,0,0,12,5.71ZM5.14,3.83A2.7,2.7,0,0,1,7.83,1.14h.34a2.7,2.7,0,0,1,2.69,2.69V5.71H5.14Zm7.43,8.91a2.12,2.12,0,0,1-2.11,2.12H5.54a2.12,2.12,0,0,1-2.11-2.12h0V7.43A.56.56,0,0,1,4,6.86h8a.56.56,0,0,1,.57.57Z"/><path class="cls-1" d="M8.57,10.7v1.87a.57.57,0,0,1-1.14,0V10.7a1.14,1.14,0,1,1,1.14,0Z"/></svg>