<svg id="Meedok-Doctores" xmlns="http://www.w3.org/2000/svg" viewBox="0 0 16 16"><defs><style>.cls-1{fill:#fff;}</style></defs><path class="cls-1" d="M8,14.84a.28.28,0,0,1-.27-.28V11.11a.27.27,0,0,1,.54,0v3.45A.28.28,0,0,1,8,14.84Z"/><path class="cls-1" d="M9.16,16A1.43,1.43,0,0,1,8,15.41a1.44,1.44,0,0,1-2.6-.85V7.23L2.76,4.6a1.06,1.06,0,0,1-.32-.77,1.1,1.1,0,0,1,.32-.78,1.12,1.12,0,0,1,.77-.32h0a1.08,1.08,0,0,1,.78.32l2,2H9.69l2-2a1.1,1.1,0,0,1,1.87.78,1.06,1.06,0,0,1-.32.77L10.6,7.23v7.33A1.44,1.44,0,0,1,9.16,16Zm-.89-1.44a.89.89,0,0,0,1.78,0V7.12a.25.25,0,0,1,.09-.19l2.71-2.71h0A.51.51,0,0,0,13,3.83a.51.51,0,0,0-.16-.39.55.55,0,0,0-.77,0L10,5.51a.27.27,0,0,1-.19.08H6.19A.27.27,0,0,1,6,5.51L3.92,3.44a.55.55,0,0,0-.39-.16h0a.55.55,0,0,0-.38.16A.51.51,0,0,0,3,3.83a.54.54,0,0,0,.16.39L5.86,6.93A.25.25,0,0,1,6,7.12v7.44a.89.89,0,1,0,1.78,0,.27.27,0,0,1,.54,0Z"/><path class="cls-1" d="M8,4.45a2.23,2.23,0,1,1,2.23-2.22A2.23,2.23,0,0,1,8,4.45ZM8,.55A1.68,1.68,0,1,0,9.7,2.23,1.68,1.68,0,0,0,8,.55Z"/></svg>