<svg id="Meedok-Doctores" xmlns="http://www.w3.org/2000/svg" viewBox="0 0 16 16"><defs><style>.cls-1{fill:#fff;}</style></defs><g id="Group_7" data-name="Group 7"><g id="Group_3" data-name="Group 3"><g id="Group_3-2" data-name="Group 3-2"><path id="Fill_1" data-name="Fill 1" class="cls-1" d="M8,0A2.9,2.9,0,1,1,5.1,2.9,2.9,2.9,0,0,1,8,0"/></g></g><g id="Group_6" data-name="Group 6"><g id="Group_6-2" data-name="Group 6-2"><path id="Fill_4" data-name="Fill 4" class="cls-1" d="M12.66,9.77A6.06,6.06,0,0,0,7.87,7.59,6.16,6.16,0,0,0,1.92,13.8v1.79a.41.41,0,0,0,.41.41h2a.41.41,0,0,0,.41-.41h0V13.76a3.3,3.3,0,0,1,3.08-3.33,3.26,3.26,0,0,1,3.4,3.09v2.07a.41.41,0,0,0,.41.41h2a.41.41,0,0,0,.41-.41h0V13.67a6,6,0,0,0-1.42-3.9"/></g></g></g></svg>