<?xml version="1.0" encoding="utf-8"?>
<!-- Generator: Adobe Illustrator 24.2.1, SVG Export Plug-In . SVG Version: 6.00 Build 0)  -->
<svg version="1.1" id="Meedok-Doctores" xmlns="http://www.w3.org/2000/svg" xmlns:xlink="http://www.w3.org/1999/xlink" x="0px"
	 y="0px" viewBox="0 0 16 16" style="enable-background:new 0 0 16 16;" xml:space="preserve">
<style type="text/css">
	.st0{fill:#EDD1E6;}
	.st1{fill:#B5C9E5;}
	.st2{fill:#FFFFFF;}
	.st3{fill:url(#SVGID_1_);}
	.st4{fill:url(#SVGID_2_);}
	.st5{fill:url(#SVGID_3_);}
	.st6{fill:url(#SVGID_4_);}
	.st7{fill:url(#SVGID_5_);}
	.st8{fill:url(#SVGID_6_);}
	.st9{fill:url(#SVGID_7_);}
	.st10{fill:url(#SVGID_8_);}
	.st11{fill:url(#SVGID_9_);}
	.st12{fill:url(#SVGID_10_);}
	.st13{opacity:0.7;fill:#FFFFFF;}
	.st14{fill-rule:evenodd;clip-rule:evenodd;fill:#FFFFFF;}
	.st15{fill:#4A4C74;}
	.st16{fill:#4A4C78;}
	.st17{fill:#686A74;}
	.st18{fill:none;stroke:#FFFFFF;stroke-width:0.8558;stroke-linecap:round;stroke-linejoin:round;stroke-miterlimit:10;}
	.st19{fill:url(#SVGID_11_);}
	.st20{fill:url(#SVGID_12_);}
	.st21{fill:#FC00B0;}
	.st22{fill:url(#Fill_1_15_);}
	.st23{fill:url(#Fill_4_5_);}
	.st24{fill:url(#Fill_7_2_);}
	.st25{fill:#4E00EF;}
	.st26{opacity:0.7;fill:#4E00EF;}
	.st27{fill:url(#SVGID_13_);}
	.st28{fill:url(#SVGID_14_);}
	.st29{fill:url(#SVGID_15_);}
	.st30{fill:url(#SVGID_16_);}
	.st31{fill:url(#SVGID_17_);}
	.st32{fill:url(#SVGID_18_);}
	.st33{fill:url(#SVGID_19_);}
	.st34{fill:url(#SVGID_20_);}
	.st35{fill:url(#SVGID_21_);}
	.st36{fill:url(#SVGID_22_);}
	.st37{fill:#343434;}
	.st38{fill:url(#SVGID_23_);}
	.st39{fill:url(#SVGID_24_);}
	.st40{fill:url(#SVGID_25_);}
	.st41{fill:url(#SVGID_26_);}
	.st42{fill:url(#SVGID_27_);}
	.st43{fill:url(#SVGID_28_);}
	.st44{fill:url(#SVGID_29_);}
	.st45{fill:url(#SVGID_30_);}
	.st46{fill:url(#SVGID_31_);}
	.st47{fill:url(#SVGID_32_);}
	.st48{fill:url(#Fill_9_1_);}
	.st49{fill:url(#SVGID_33_);}
	.st50{fill:url(#SVGID_34_);}
	.st51{fill:url(#SVGID_35_);}
	.st52{fill:url(#SVGID_36_);}
	.st53{fill:url(#SVGID_37_);}
	.st54{fill:url(#SVGID_38_);}
	.st55{fill:url(#SVGID_39_);}
	.st56{fill:url(#SVGID_40_);}
	.st57{fill:none;}
	.st58{clip-path:url(#SVGID_42_);}
	.st59{fill:url(#Fill_1_16_);}
	.st60{fill:#4285F4;}
	.st61{fill:#34A853;}
	.st62{fill:#FBBC05;}
	.st63{fill:#EB4335;}
	.st64{fill-rule:evenodd;clip-rule:evenodd;fill:url(#SVGID_43_);}
	.st65{clip-path:url(#SVGID_45_);fill:#4E00E2;}
	.st66{clip-path:url(#SVGID_47_);fill:#4E00E2;}
	.st67{fill:url(#SVGID_48_);}
	.st68{fill:url(#SVGID_49_);}
	.st69{fill:url(#SVGID_50_);}
	.st70{fill:url(#SVGID_51_);}
	.st71{fill:url(#SVGID_52_);}
	.st72{fill:url(#SVGID_53_);}
</style>
<g>
	<g>
		<g>
			<path class="st25" d="M9.25,5.84c0.44,0,0.79,0.36,0.79,0.79c0,0.44-0.36,0.79-0.79,0.79S8.46,7.07,8.46,6.63
				C8.46,6.19,8.82,5.84,9.25,5.84z"/>
		</g>
		<g>
			<path class="st25" d="M6.75,5.84c0.44,0,0.79,0.36,0.79,0.79c0,0.44-0.36,0.79-0.79,0.79c-0.44,0-0.79-0.36-0.79-0.79
				C5.95,6.19,6.31,5.84,6.75,5.84z"/>
		</g>
		<g>
			<path class="st25" d="M6.71,7.9c-0.89,0.02-1.6,0.78-1.6,1.67v0.48c0,0.06,0.05,0.11,0.11,0.11h0.54c0.06,0,0.11-0.05,0.11-0.11
				V9.56c0-0.47,0.36-0.87,0.83-0.9c0.5-0.02,0.92,0.38,0.92,0.87c0-0.4,0.14-0.76,0.38-1.05C7.69,8.12,7.23,7.89,6.71,7.9z"/>
			<path class="st26" d="M9.29,7.9C8.77,7.89,8.31,8.12,8,8.49c0.24,0.28,0.38,0.65,0.38,1.05c0-0.49,0.41-0.89,0.92-0.87
				c0.47,0.02,0.83,0.43,0.83,0.9v0.49c0,0.06,0.05,0.11,0.11,0.11h0.54c0.06,0,0.11-0.05,0.11-0.11V9.57
				C10.89,8.68,10.18,7.92,9.29,7.9z"/>
			<path class="st25" d="M7.62,9.54v0.52c0,0.06,0.05,0.11,0.11,0.11h0.54c0.06,0,0.11-0.05,0.11-0.11V9.54
				c0-0.4-0.14-0.76-0.38-1.05C7.76,8.77,7.62,9.14,7.62,9.54z"/>
		</g>
	</g>
	<g>
		<path class="st25" d="M10.51,0.72c0.79,0,1.44,0.64,1.44,1.44v11.69c0,0.79-0.64,1.44-1.44,1.44H5.49c-0.79,0-1.44-0.64-1.44-1.44
			V2.15c0-0.79,0.64-1.44,1.44-1.44L10.51,0.72 M10.51,0H5.49C4.3,0,3.33,0.96,3.33,2.15v11.69C3.33,15.04,4.3,16,5.49,16h5.03
			c1.19,0,2.15-0.96,2.15-2.15V2.15C12.67,0.96,11.7,0,10.51,0z"/>
		<path class="st25" d="M6.44,0.14h3.12c0.1,0,0.18,0.08,0.18,0.18v0.8c0,0.1-0.08,0.18-0.18,0.18H6.44c-0.1,0-0.18-0.08-0.18-0.18
			v-0.8C6.26,0.22,6.34,0.14,6.44,0.14z"/>
	</g>
</g>
</svg>
