<?xml version="1.0" encoding="utf-8"?>
<!-- Generator: Adobe Illustrator 24.2.1, SVG Export Plug-In . SVG Version: 6.00 Build 0)  -->
<svg version="1.1" id="Meedok-Doctores" xmlns="http://www.w3.org/2000/svg" xmlns:xlink="http://www.w3.org/1999/xlink" x="0px"
	 y="0px" viewBox="0 0 16 16" style="enable-background:new 0 0 16 16;" xml:space="preserve">
<style type="text/css">
	.st0{fill:#EDD1E6;}
	.st1{fill:#B5C9E5;}
	.st2{fill:#FFFFFF;}
	.st3{fill:url(#SVGID_1_);}
	.st4{fill:url(#SVGID_2_);}
	.st5{fill:url(#SVGID_3_);}
	.st6{fill:url(#SVGID_4_);}
	.st7{fill:url(#SVGID_5_);}
	.st8{fill:url(#SVGID_6_);}
	.st9{fill:url(#SVGID_7_);}
	.st10{fill:url(#SVGID_8_);}
	.st11{fill:url(#SVGID_9_);}
	.st12{fill:url(#SVGID_10_);}
	.st13{opacity:0.7;fill:#FFFFFF;}
	.st14{fill-rule:evenodd;clip-rule:evenodd;fill:#FFFFFF;}
	.st15{fill:#4A4C74;}
	.st16{fill:#4A4C78;}
	.st17{fill:#686A74;}
	.st18{fill:none;stroke:#FFFFFF;stroke-width:0.8558;stroke-linecap:round;stroke-linejoin:round;stroke-miterlimit:10;}
	.st19{fill:url(#SVGID_11_);}
	.st20{fill:url(#SVGID_12_);}
	.st21{fill:#FC00B0;}
	.st22{fill:url(#Fill_1_15_);}
	.st23{fill:url(#Fill_4_5_);}
	.st24{fill:url(#Fill_7_2_);}
	.st25{fill:#4E00EF;}
	.st26{opacity:0.7;fill:#4E00EF;}
	.st27{fill:url(#SVGID_13_);}
	.st28{fill:url(#SVGID_14_);}
	.st29{fill:url(#SVGID_15_);}
	.st30{fill:url(#SVGID_16_);}
	.st31{fill:url(#SVGID_17_);}
	.st32{fill:url(#SVGID_18_);}
	.st33{fill:url(#SVGID_19_);}
	.st34{fill:url(#SVGID_20_);}
	.st35{fill:url(#SVGID_21_);}
	.st36{fill:url(#SVGID_22_);}
	.st37{fill:#343434;}
	.st38{fill:url(#SVGID_23_);}
	.st39{fill:url(#SVGID_24_);}
	.st40{fill:url(#SVGID_25_);}
	.st41{fill:url(#SVGID_26_);}
	.st42{fill:url(#SVGID_27_);}
	.st43{fill:url(#SVGID_28_);}
	.st44{fill:url(#SVGID_29_);}
	.st45{fill:url(#SVGID_30_);}
	.st46{fill:url(#SVGID_31_);}
	.st47{fill:url(#SVGID_32_);}
	.st48{fill:url(#Fill_9_1_);}
	.st49{fill:url(#SVGID_33_);}
	.st50{fill:url(#SVGID_34_);}
	.st51{fill:url(#SVGID_35_);}
	.st52{fill:url(#SVGID_36_);}
	.st53{fill:url(#SVGID_37_);}
	.st54{fill:url(#SVGID_38_);}
	.st55{fill:url(#SVGID_39_);}
	.st56{fill:url(#SVGID_40_);}
	.st57{fill:none;}
	.st58{clip-path:url(#SVGID_42_);}
	.st59{fill:url(#Fill_1_16_);}
	.st60{fill:#4285F4;}
	.st61{fill:#34A853;}
	.st62{fill:#FBBC05;}
	.st63{fill:#EB4335;}
	.st64{fill-rule:evenodd;clip-rule:evenodd;fill:url(#SVGID_43_);}
	.st65{clip-path:url(#SVGID_45_);fill:#4E00E2;}
	.st66{clip-path:url(#SVGID_47_);fill:#4E00E2;}
	.st67{fill:url(#SVGID_48_);}
	.st68{fill:url(#SVGID_49_);}
	.st69{fill:url(#SVGID_50_);}
	.st70{fill:url(#SVGID_51_);}
	.st71{fill:url(#SVGID_52_);}
	.st72{fill:url(#SVGID_53_);}
</style>
<g>
	<g>
		<path class="st25" d="M10.55,11.74v2.11c0,0.79-0.64,1.44-1.44,1.44H4.08c-0.79,0-1.44-0.64-1.44-1.44V2.15
			c0-0.79,0.64-1.44,1.44-1.44h5.03c0.79,0,1.44,0.64,1.44,1.44v2.11h0.72V2.15C11.26,0.96,10.3,0,9.11,0H4.08
			C2.89,0,1.93,0.96,1.93,2.15v11.69c0,1.19,0.96,2.15,2.15,2.15h5.03c1.19,0,2.15-0.96,2.15-2.15v-2.11H10.55z"/>
		<path class="st25" d="M5.03,0.14h3.12c0.1,0,0.18,0.08,0.18,0.18v0.8c0,0.1-0.08,0.18-0.18,0.18H5.03c-0.1,0-0.18-0.08-0.18-0.18
			v-0.8C4.85,0.22,4.94,0.14,5.03,0.14z"/>
	</g>
	<g>
		<path class="st25" d="M6.24,4.75c-0.54,0-0.98,0.44-0.98,0.98v0.83v1.07v2.65c0,0.54,0.44,0.98,0.98,0.98h6.85
			c0.54,0,0.98-0.44,0.98-0.98V7.62V6.56V5.73c0-0.54-0.44-0.98-0.98-0.98L6.24,4.75z M6.24,5.3h6.85c0.24,0,0.43,0.19,0.43,0.43
			v0.55H5.81V5.73C5.81,5.49,6,5.3,6.24,5.3z M5.81,6.83h7.71v0.52H5.81V6.83z M5.81,7.9h7.71v2.37c0,0.24-0.19,0.43-0.43,0.43H6.24
			c-0.24,0-0.43-0.19-0.43-0.43V7.9z M6.6,8.66c-0.15,0.01-0.27,0.14-0.25,0.3C6.35,9.1,6.48,9.22,6.62,9.21h1.92
			c0.15,0,0.28-0.12,0.28-0.27c0-0.15-0.12-0.28-0.27-0.28c0,0-0.01,0-0.01,0H6.62C6.61,8.66,6.61,8.66,6.6,8.66z M6.62,9.49
			c-0.15,0-0.28,0.12-0.28,0.27c0,0.15,0.12,0.28,0.27,0.28c0,0,0.01,0,0.01,0h0.82c0.15,0,0.28-0.12,0.28-0.27S7.61,9.49,7.46,9.49
			c0,0-0.01,0-0.01,0H6.62z"/>
	</g>
</g>
</svg>
