<?xml version="1.0" encoding="utf-8"?>
<!-- Generator: Adobe Illustrator 24.2.1, SVG Export Plug-In . SVG Version: 6.00 Build 0)  -->
<svg version="1.1" id="Layer_1" xmlns="http://www.w3.org/2000/svg" xmlns:xlink="http://www.w3.org/1999/xlink" x="0px" y="0px"
	 viewBox="0 0 588.94 116.94" style="enable-background:new 0 0 588.94 116.94;" xml:space="preserve">
<style type="text/css">
	.st0{fill:url(#SVGID_1_);}
	.st1{fill:url(#SVGID_2_);}
	.st2{fill:url(#SVGID_3_);}
	.st3{fill:url(#SVGID_4_);}
	.st4{fill:url(#SVGID_5_);}
	.st5{fill:url(#SVGID_6_);}
	.st6{fill:url(#SVGID_7_);}
	.st7{fill:url(#SVGID_8_);}
	.st8{fill:url(#SVGID_9_);}
	.st9{fill:url(#SVGID_10_);}
</style>
<g>
	<g>
		<g>
			
				<linearGradient id="SVGID_1_" gradientUnits="userSpaceOnUse" x1="1524.8912" y1="47.3056" x2="1524.8912" y2="-4.421" gradientTransform="matrix(-1 0 0 1 1636.7791 0)">
				<stop  offset="0" style="stop-color:#4E00EC"/>
				<stop  offset="1" style="stop-color:#4E00EC"/>
			</linearGradient>
			<path class="st0" d="M111.89,0c11.82,0,21.44,9.62,21.44,21.44c0,11.82-9.62,21.44-21.44,21.44s-21.44-9.62-21.44-21.44
				C90.45,9.62,100.06,0,111.89,0z"/>
		</g>
		
			<linearGradient id="SVGID_2_" gradientUnits="userSpaceOnUse" x1="528.9835" y1="519.6906" x2="617.3297" y2="519.6906" gradientTransform="matrix(-1 0 0 -1 685.0444 606.0408)">
			<stop  offset="0" style="stop-color:#4D00ED"/>
			<stop  offset="1" style="stop-color:#080043"/>
		</linearGradient>
		<path class="st1" d="M112.85,55.81c-13.97-0.3-26.52,5.93-34.81,15.83c6.43,7.67,10.32,17.56,10.32,28.33
			c0-13.37,11.21-24.18,24.73-23.51c12.65,0.62,22.36,11.53,22.36,24.19v13.27c0,1.64,1.33,2.98,2.98,2.98h14.68
			c1.64,0,2.98-1.33,2.98-2.98v-12.99C156.06,76.75,137.03,56.32,112.85,55.81z"/>
		<g>
			
				<linearGradient id="SVGID_3_" gradientUnits="userSpaceOnUse" x1="1592.6062" y1="47.3056" x2="1592.6062" y2="-4.421" gradientTransform="matrix(-1 0 0 1 1636.7791 0)">
				<stop  offset="0" style="stop-color:#4E00EC"/>
				<stop  offset="1" style="stop-color:#4E00EC"/>
			</linearGradient>
			<path class="st2" d="M44.17,0C56,0,65.62,9.62,65.62,21.44c0,11.82-9.62,21.44-21.44,21.44s-21.44-9.62-21.44-21.44
				C22.73,9.62,32.35,0,44.17,0z"/>
			<linearGradient id="SVGID_4_" gradientUnits="userSpaceOnUse" x1="0" y1="86.3502" x2="378.3089" y2="86.3502">
				<stop  offset="0" style="stop-color:#4E00EC"/>
				<stop  offset="1" style="stop-color:#4E00EC"/>
			</linearGradient>
			<path class="st3" d="M78.03,71.64c-8.3-9.9-20.85-16.13-34.81-15.83C19.03,56.32,0,76.75,0,100.94v12.99
				c0,1.64,1.33,2.98,2.98,2.98h14.68c1.64,0,2.98-1.33,2.98-2.98v-13.27c0-12.66,9.71-23.57,22.36-24.2
				c13.52-0.67,24.73,10.14,24.73,23.51v13.95c0,1.64,1.33,2.98,2.98,2.98h14.68c1.64,0,2.98-1.33,2.98-2.98V99.97
				C88.35,89.2,84.46,79.32,78.03,71.64z"/>
		</g>
	</g>
	<linearGradient id="SVGID_5_" gradientUnits="userSpaceOnUse" x1="400.2633" y1="75.8433" x2="457.8655" y2="75.8433">
		<stop  offset="0" style="stop-color:#4E00EC"/>
		<stop  offset="1" style="stop-color:#4E00EC"/>
	</linearGradient>
	<path class="st4" d="M400.26,86.54c0-9.11,2.45-16.45,7.34-22.03c4.89-5.58,11.21-8.37,18.95-8.37c2.35,0,4.55,0.28,6.6,0.85
		c2.05,0.57,3.68,1.25,4.9,2.05c1.21,0.8,2.26,1.61,3.13,2.45c0.87,0.84,1.46,1.56,1.76,2.16l0.57,0.8h0.23
		c-0.15-0.99-0.23-2.09-0.23-3.3V39.53c0-3.19,1.55-4.78,4.67-4.78h5.01c3.11,0,4.67,1.59,4.67,4.78v71.26
		c0,3.19-1.56,4.78-4.67,4.78h-4.21c-3.11,0-4.67-1.44-4.67-4.33v-2.28l0.23-2.05h-0.23c-0.15,0.3-0.36,0.67-0.63,1.08
		c-0.27,0.42-0.91,1.22-1.94,2.39c-1.02,1.18-2.18,2.2-3.47,3.07c-1.29,0.87-3.02,1.67-5.18,2.39c-2.16,0.72-4.5,1.08-7,1.08
		c-7.82,0-14.08-2.81-18.78-8.42C402.61,102.9,400.26,95.58,400.26,86.54z M414.83,86.54c0,5.46,1.33,9.87,3.98,13.21
		c2.66,3.34,6.15,5.01,10.47,5.01c4.1,0,7.55-1.54,10.36-4.61c2.81-3.07,4.21-7.65,4.21-13.72c0-4.86-1.25-9.05-3.76-12.58
		c-2.5-3.53-6.07-5.29-10.7-5.29c-4.1,0-7.55,1.61-10.36,4.84C416.24,76.62,414.83,81.01,414.83,86.54z"/>
	<linearGradient id="SVGID_6_" gradientUnits="userSpaceOnUse" x1="465.2427" y1="86.3881" x2="529.4337" y2="86.3881">
		<stop  offset="0" style="stop-color:#4E00EC"/>
		<stop  offset="1" style="stop-color:#4E00EC"/>
	</linearGradient>
	<path class="st5" d="M474.51,108.3c-6.18-5.76-9.27-13.06-9.27-21.91c0-8.85,3.09-16.15,9.27-21.91
		c6.18-5.76,13.77-8.64,22.77-8.64c9,0,16.61,2.9,22.83,8.7c6.22,5.8,9.33,13.08,9.33,21.85c0,8.85-3.11,16.15-9.33,21.91
		c-6.22,5.76-13.83,8.64-22.83,8.64C488.28,116.94,480.69,114.06,474.51,108.3z M480,86.39c0,5.34,1.66,9.71,4.98,13.1
		c3.32,3.39,7.42,5.09,12.3,5.09c4.88,0,9-1.7,12.36-5.09c3.36-3.39,5.03-7.76,5.03-13.1c0-5.26-1.7-9.61-5.09-13.04
		c-3.39-3.43-7.49-5.15-12.3-5.15c-4.81,0-8.89,1.72-12.24,5.15C481.68,76.78,480,81.12,480,86.39z"/>
	<linearGradient id="SVGID_7_" gradientUnits="userSpaceOnUse" x1="178.8809" y1="86.3881" x2="270.1819" y2="86.3881">
		<stop  offset="0" style="stop-color:#4E00EC"/>
		<stop  offset="1" style="stop-color:#4E00EC"/>
	</linearGradient>
	<path class="st6" d="M178.88,112.02V62.16c0-3.28,1.6-4.92,4.8-4.92h4.57c3.2,0,4.8,1.64,4.8,4.92v3.63l-0.23,2.69h0.23
		c1.64-3.35,4.23-6.3,7.78-8.84c3.55-2.53,7.47-3.8,11.76-3.8c9.13,0,14.94,4.1,17.44,12.29h0.23c1.72-3.35,4.43-6.24,8.13-8.66
		c3.71-2.42,7.78-3.63,12.23-3.63c13.03,0,19.55,7.57,19.55,22.71v33.48c0,3.28-1.64,4.92-4.92,4.92h-5.03
		c-3.28,0-4.92-1.64-4.92-4.92V81.35c0-3.9-0.57-6.87-1.7-8.9c-1.13-2.03-3.3-3.04-6.5-3.04c-4.76,0-8.49,2.05-11.18,6.15
		c-2.69,4.1-4.04,8.95-4.04,14.57v21.89c0,3.28-1.6,4.92-4.8,4.92h-5.15c-3.28,0-4.92-1.64-4.92-4.92V81.35
		c0-3.82-0.53-6.77-1.58-8.84c-1.05-2.07-3.18-3.1-6.38-3.1c-4.92,0-8.72,2.07-11.41,6.2c-2.69,4.14-4.04,8.97-4.04,14.51v21.89
		c0,3.28-1.6,4.92-4.8,4.92h-5.15C180.48,116.94,178.88,115.3,178.88,112.02z"/>
	<linearGradient id="SVGID_8_" gradientUnits="userSpaceOnUse" x1="277.2779" y1="86.3881" x2="332.7724" y2="86.3881">
		<stop  offset="0" style="stop-color:#4E00EC"/>
		<stop  offset="1" style="stop-color:#4E00EC"/>
	</linearGradient>
	<path class="st7" d="M277.28,86.39c0-9,2.75-16.34,8.24-22.03c5.49-5.68,12.62-8.52,21.4-8.52c8.08,0,14.42,2.57,18.99,7.72
		c4.58,5.15,6.87,11.84,6.87,20.08c0,1.3-0.5,2.44-1.49,3.43c-0.99,0.99-2.17,1.49-3.55,1.49h-35.59c0.46,5.03,2.33,8.96,5.61,11.79
		c3.28,2.82,7.25,4.23,11.9,4.23c4.35,0,8.54-1.26,12.59-3.78c2.9-1.37,5.03-0.84,6.41,1.6l1.37,2.29c1.45,2.75,0.92,4.88-1.6,6.41
		c-6.1,3.89-12.7,5.84-19.8,5.84c-9.38,0-16.95-2.96-22.71-8.87C280.16,102.16,277.28,94.93,277.28,86.39z M292.5,79.75h25.86
		c-0.08-3.97-1.22-7.11-3.43-9.44c-2.21-2.33-5-3.49-8.35-3.49c-3.66,0-6.75,1.16-9.27,3.49C294.78,72.64,293.18,75.79,292.5,79.75z
		"/>
	<linearGradient id="SVGID_9_" gradientUnits="userSpaceOnUse" x1="338.5814" y1="86.3881" x2="394.0754" y2="86.3881">
		<stop  offset="0" style="stop-color:#4E00EC"/>
		<stop  offset="1" style="stop-color:#4E00EC"/>
	</linearGradient>
	<path class="st8" d="M338.58,86.39c0-9,2.75-16.34,8.24-22.03c5.49-5.68,12.62-8.52,21.4-8.52c8.08,0,14.42,2.57,18.99,7.72
		c4.58,5.15,6.87,11.84,6.87,20.08c0,1.3-0.5,2.44-1.49,3.43c-0.99,0.99-2.17,1.49-3.55,1.49h-35.59c0.46,5.03,2.33,8.96,5.61,11.79
		c3.28,2.82,7.25,4.23,11.9,4.23c4.35,0,8.54-1.26,12.59-3.78c2.9-1.37,5.03-0.84,6.41,1.6l1.37,2.29c1.45,2.75,0.92,4.88-1.6,6.41
		c-6.1,3.89-12.7,5.84-19.8,5.84c-9.38,0-16.95-2.96-22.71-8.87C341.46,102.16,338.58,94.93,338.58,86.39z M353.8,79.75h25.86
		c-0.08-3.97-1.22-7.11-3.43-9.44c-2.21-2.33-5-3.49-8.35-3.49c-3.66,0-6.75,1.16-9.27,3.49C356.09,72.64,354.49,75.79,353.8,79.75z
		"/>
	<linearGradient id="SVGID_10_" gradientUnits="userSpaceOnUse" x1="536.7294" y1="75.8433" x2="588.9432" y2="75.8433">
		<stop  offset="0" style="stop-color:#4E00EC"/>
		<stop  offset="1" style="stop-color:#4E00EC"/>
	</linearGradient>
	<path class="st9" d="M536.73,112.08V39.61c0-3.24,1.62-4.86,4.86-4.86h4.98c3.24,0,4.86,1.62,4.86,4.86v39.13h7.29L571,61.14
		c1.31-2.16,3.24-3.24,5.79-3.24h5.56c1.93,0,3.18,0.58,3.76,1.74c0.58,1.16,0.33,2.51-0.75,4.05l-14.7,20.61v0.23l17.36,26.63
		c1,1.7,1.2,3.09,0.58,4.17c-0.62,1.08-1.89,1.62-3.82,1.62h-6.25c-2.55,0-4.44-1.12-5.67-3.36l-13.78-22.46h-7.64v20.95
		c0,3.24-1.62,4.86-4.86,4.86h-4.98C538.35,116.94,536.73,115.32,536.73,112.08z"/>
</g>
</svg>
