<svg id="Meedok-Doctores" xmlns="http://www.w3.org/2000/svg" viewBox="0 0 16 16"><defs><style>.cls-1{fill:#fff;}</style></defs><path class="cls-1" d="M14.94,8.76a.47.47,0,0,1,0-.45,1.09,1.09,0,0,0-.17-1.13.52.52,0,0,1-.05-.58,1.16,1.16,0,0,0,0-1.07.47.47,0,0,1,0-.45,1.25,1.25,0,0,0,0-1,.59.59,0,0,1,.09-.61,2.69,2.69,0,0,0,.44-2.35,1.44,1.44,0,0,0-1-1.08h-.9a2,2,0,0,0-1,.81,1.1,1.1,0,0,1-.59.41,1,1,0,0,0-.52.34l-.07.09a.61.61,0,0,0-.07.1.31.31,0,0,1-.4.16,1.06,1.06,0,0,0-1.14.38.41.41,0,0,1-.5.14,1.35,1.35,0,0,0-1.14.12.38.38,0,0,1-.46,0,1.5,1.5,0,0,0-1-.28A.37.37,0,0,1,6,1.91a1.84,1.84,0,0,0-.54-.82A2.7,2.7,0,0,0,3.14.54,2.62,2.62,0,0,0,1.26,1.81a1.46,1.46,0,0,0,.1,1.73.33.33,0,0,1,.1.34,1.38,1.38,0,0,0,0,1,.39.39,0,0,1-.07.32v0a.84.84,0,0,0,0,.84.44.44,0,0,1-.07.52C1,6.9.89,7.18,1,7.41a1.53,1.53,0,0,1-.1,1.38,2,2,0,0,0-.08.35v0A1.52,1.52,0,0,0,1.63,11a.46.46,0,0,1,.25.33l.06.27a5.75,5.75,0,0,1,.2,1.56,2,2,0,0,0,.16.9.6.6,0,0,0,.56.4.62.62,0,0,0,.57-.33,1.23,1.23,0,0,0,.16-.48,4.37,4.37,0,0,0-.11-1.95A.48.48,0,0,1,3.79,11,2,2,0,0,0,4.87,9.81a2,2,0,0,0-.16-1.63.52.52,0,0,1,0-.47,1.38,1.38,0,0,0-.17-1.23l0-.05a.34.34,0,0,1-.09-.31,1.68,1.68,0,0,0,0-.74.26.26,0,0,1,0-.22.19.19,0,0,1,.13,0,.76.76,0,0,0,.26,0,.79.79,0,0,1,.65.11,1.63,1.63,0,0,0,1.62.23.65.65,0,0,1,.58.06,1.59,1.59,0,0,0,1.8-.08l.06,0a.4.4,0,0,1,.26-.12A2.34,2.34,0,0,0,11,4.87a.65.65,0,0,1,.75,0,.52.52,0,0,1,0,.72.69.69,0,0,0-.1.61,2.18,2.18,0,0,1,.1,1.39.62.62,0,0,0,.13.43.74.74,0,0,1,.09.71c0,.06,0,.12,0,.19-.1.67-.55.73-1,.79h0a.41.41,0,0,1-.37-.1,2.25,2.25,0,0,0-1.87-.54c-1.23.08-2,.7-2,1.76s0,2.32,0,3.41a1.83,1.83,0,0,0,1,1.7h.75a1.94,1.94,0,0,0,1-1.9v-.36A.81.81,0,0,1,9.88,13a.83.83,0,0,1,.82,0A1.45,1.45,0,0,0,12.19,13l0,0a.82.82,0,0,1,.39-.17,1.4,1.4,0,0,0,1.17-.64A.47.47,0,0,1,14,12a1.17,1.17,0,0,0,.75-1.4.8.8,0,0,1,.12-.6A1.07,1.07,0,0,0,14.94,8.76ZM14.4,9.92a.55.55,0,0,0-.1.46,2.21,2.21,0,0,1,0,.51.59.59,0,0,1-.59.66.29.29,0,0,0-.3.21.84.84,0,0,1-.82.58,1.07,1.07,0,0,0-.62.21,1,1,0,0,1-1.33,0,.38.38,0,0,0-.49,0,1.81,1.81,0,0,1-1.07.15,1,1,0,0,1-.87-.8.88.88,0,0,1,0-.16s0-.06,0-.09c0-.24-.12-.28-.24-.26s-.2.07-.19.32a1.38,1.38,0,0,0,.89,1.29.61.61,0,0,1,.45.7c0,.14,0,.28,0,.42v.29a1.48,1.48,0,0,1-.41,1,.74.74,0,0,1-.56.26h0a.77.77,0,0,1-.55-.24,1.5,1.5,0,0,1-.43-1.06V12.18c0-.3,0-.61,0-.91C7.05,9.89,8,9.63,8.79,9.56a1.71,1.71,0,0,1,1.73.7c.08.12.2.13.35,0a1.17,1.17,0,0,1,1.25,0c.16.09.24.09.32,0s.08-.16,0-.32a.85.85,0,0,1,.15-1.14c.27-.28.27-.28,0-.58s-.42-.84-.11-1.17c.08-.09.1-.18-.06-.36a.76.76,0,0,1,0-1.16.33.33,0,0,0,0-.47c-.14-.2-.23-.33-.19-.46s.18-.19.39-.29a1.13,1.13,0,0,0,.72-1A.33.33,0,0,0,13.29,3,.18.18,0,0,0,13.14,3c-.14,0-.19,0-.23.3a.75.75,0,0,1-.74.75h-.05a.36.36,0,0,0-.2.06A.81.81,0,0,1,11,4.3a.13.13,0,0,0-.17.07.86.86,0,0,1-.87.42A1.07,1.07,0,0,0,9.3,5,1.15,1.15,0,0,1,7.74,5a.42.42,0,0,0-.55,0,1.36,1.36,0,0,1-1.6-.21.49.49,0,0,0-.5-.13,1.89,1.89,0,0,1-2-.68c-.15-.18-.22-.2-.34-.12a.24.24,0,0,0-.09.12.34.34,0,0,0,.1.25,1.39,1.39,0,0,0,.54.51,1.47,1.47,0,0,1,.62.69.72.72,0,0,1-.11.84.29.29,0,0,0-.08.21.31.31,0,0,0,.16.16.84.84,0,0,1,.41.57.77.77,0,0,1-.18.64C4,8,4,8.05,4.14,8.2a1.41,1.41,0,0,1,.38,1.18,1.54,1.54,0,0,1-.72,1.11,1.46,1.46,0,0,1-.53.21.44.44,0,0,0-.28.14.48.48,0,0,0,0,.35l.12.63c0,.18.08.36.11.53a3.91,3.91,0,0,1,0,1.28c0,.08,0,.28-.23.3s-.24-.15-.27-.24v0a.79.79,0,0,1,0-.28,6.72,6.72,0,0,0-.16-1.61c-.05-.27-.11-.54-.14-.82s-.13-.26-.2-.28a1.07,1.07,0,0,1-.73-.5A1.69,1.69,0,0,1,1.3,8.88a1.14,1.14,0,0,1,.16-.35c.23-.34.36-.59.05-.94a.52.52,0,0,1-.12-.37.78.78,0,0,1,.34-.51C1.9,6.59,2,6.49,2,6.4a.46.46,0,0,0-.15-.32.54.54,0,0,1,0-.82C2.05,5.09,2,5,2,4.9a.85.85,0,0,1,0-1,.38.38,0,0,0-.09-.51,1.12,1.12,0,0,1-.11-1.53A2.23,2.23,0,0,1,3.92,1a1.62,1.62,0,0,1,1.7,1.56c0,.14.07.22.14.26a.31.31,0,0,0,.25,0,1.18,1.18,0,0,1,.84,0,.64.64,0,0,1,.4.38c0,.15.11.24.18.25s.14,0,.25-.13A1.09,1.09,0,0,1,9.2,3a.3.3,0,0,0,.19.05.37.37,0,0,0,.18-.16l0-.07a1.28,1.28,0,0,1,.14-.21.67.67,0,0,1,1-.2c.15.07.26.11.31.09s.11-.09.18-.25a1.22,1.22,0,0,1,1-.8c.17,0,.25-.12.32-.31a1.1,1.1,0,0,1,.88-.74,1.12,1.12,0,0,1,.89.16,1.1,1.1,0,0,1,.42.8,2.29,2.29,0,0,1-.58,2A.42.42,0,0,0,14.1,4a1,1,0,0,1,0,1.17.24.24,0,0,0,0,.35.9.9,0,0,1,0,1.25c-.12.15-.1.26.05.42.49.53.5.64.18,1.25-.07.12-.05.22.07.36A.76.76,0,0,1,14.4,9.92Z"/></svg>