<svg id="Meedok-Doctores" xmlns="http://www.w3.org/2000/svg" viewBox="0 0 16 16"><defs><style>.cls-1{fill:#fff;}</style></defs><path class="cls-1" d="M9,.51a5.73,5.73,0,0,1,.84.06,6,6,0,0,1,1.3.37,6.27,6.27,0,0,1,2.41,1.77,7,7,0,0,1,.78.07A6.55,6.55,0,0,0,10.62.24a6.79,6.79,0,0,0-3.38,0l-.11,0-.08,0L6.73.33a6.38,6.38,0,0,0-2,1A5.28,5.28,0,0,0,2.6,4.38a7,7,0,0,0-.19,1.08,1.35,1.35,0,0,0,0,.4c0,.1,0,.19,0,.28a1.66,1.66,0,0,1-.21.78l-.77,1.4a1.56,1.56,0,0,0-.19.7,1.2,1.2,0,0,0,.65,1.09l.14.07L2,10.32a.41.41,0,0,0,0,.16,1,1,0,0,0,.16.65l0,0,0,.07a.92.92,0,0,0,.17.74l0,0v1.12a.81.81,0,0,0,.21.56.8.8,0,0,0,.21.15l0,0a2.21,2.21,0,0,0,1.6.39,6.12,6.12,0,0,0,1.09-.15l.2,0h.14l.46,1.72a.24.24,0,0,0,.38.13.22.22,0,0,0,.08-.25l-.49-1.83A.31.31,0,0,0,6,13.64a1.62,1.62,0,0,0-.62,0c-.58.14-1.78.29-2.26-.12l-.08-.08A.66.66,0,0,1,2.93,13v-.05a1.31,1.31,0,0,0-.08-1.08l-.09-.11a.41.41,0,0,1-.09-.5l.06-.13L2.65,11a.69.69,0,0,1-.18-.46.31.31,0,0,1,.11-.2.23.23,0,0,0,.08-.18V10a.24.24,0,0,0-.19-.23A2.25,2.25,0,0,1,2,9.58a.59.59,0,0,1-.29-.48.65.65,0,0,1,.07-.34l1-1.85s.24-.36.14-1.36a.45.45,0,0,1,0-.13L3,5A5.34,5.34,0,0,1,7.16.72l.19,0A9,9,0,0,1,8.94.51Z"/><path class="cls-1" d="M14.62,4.54a.21.21,0,0,0-.17-.16S12.11,3.88,11,5c-1,1-.77,2.76-.69,3.29V8.4l-.9.9v-3a.21.21,0,0,0-.21-.22A.22.22,0,0,0,9,6.28V11l-.69-.69v-.08a3.35,3.35,0,0,0-.58-2.7c-1-1-2.88-.55-2.9-.55a.21.21,0,0,0-.17.17c0,.2-.38,2,.54,2.9a2.76,2.76,0,0,0,1.94.64,4.56,4.56,0,0,0,.76-.06H8l1,1v4.18l.43.08V14.6l1-1h.09a6,6,0,0,0,.77.06A2.73,2.73,0,0,0,13.16,13c.95-.95.56-2.82.54-2.9a.2.2,0,0,0-.16-.17c-.08,0-1.95-.41-2.91.54a3.36,3.36,0,0,0-.58,2.7l0,.09L9.38,14V9.92l1.21-1.21h.08a5.92,5.92,0,0,0,1,.08A3.3,3.3,0,0,0,14,8C15.11,6.9,14.64,4.64,14.62,4.54ZM7.7,10a.79.79,0,0,1-.52.21H7.11a2.35,2.35,0,0,1-1.64-.51A2.94,2.94,0,0,1,5,7.49l0-.13.13,0a2.94,2.94,0,0,1,2.23.47,2.39,2.39,0,0,1,.51,1.71A.66.66,0,0,1,7.7,10Zm3.24.8a3,3,0,0,1,2.24-.47l.13,0,0,.13a3,3,0,0,1-.48,2.23,2.31,2.31,0,0,1-1.63.51.78.78,0,0,1-.58-.19.82.82,0,0,1-.21-.52A2.44,2.44,0,0,1,10.94,10.82Zm2.72-3.09a2.81,2.81,0,0,1-2,.64h-.33a.69.69,0,0,1-.53-.21.78.78,0,0,1-.18-.52,3.18,3.18,0,0,1,.63-2.3,3.62,3.62,0,0,1,2.83-.58l.13,0,0,.13A3.62,3.62,0,0,1,13.66,7.73Z"/></svg>