<svg id="Meedok-Doctores" xmlns="http://www.w3.org/2000/svg" viewBox="0 0 16 16"><defs><style>.cls-1{fill:#fff;}</style></defs><path class="cls-1" d="M13.37,15.62V10.56l.05-.05A6.23,6.23,0,1,0,2.66,6.23l0,.39L.92,9.85a.36.36,0,0,0,0,.36.35.35,0,0,0,.31.18H2.66v2.15a1.89,1.89,0,0,0,1.89,1.89h2.5v1.2a.37.37,0,0,0,.74,0V14.06a.38.38,0,0,0-.37-.37H4.55A1.15,1.15,0,0,1,3.4,12.54V10A.38.38,0,0,0,3,9.65H1.86l1.5-2.8a.47.47,0,0,0,0-.17V6.23a5.5,5.5,0,1,1,11,0,5.41,5.41,0,0,1-1.59,3.86.38.38,0,0,0-.16.31v5.22a.37.37,0,0,0,.73,0Z"/><path class="cls-1" d="M9.23,9a3,3,0,0,0,3.22-2.68,3.36,3.36,0,0,0-.84-2.58A3.72,3.72,0,0,0,9.17,2.57C7,2.37,5.33,4,5.1,6.48a.38.38,0,0,0,.34.4.36.36,0,0,0,.39-.33A3.89,3.89,0,0,1,7.07,3.9a2.69,2.69,0,0,1,2-.6,3,3,0,0,1,2,1,2.64,2.64,0,0,1,.65,2,2.23,2.23,0,0,1-.79,1.51,2.26,2.26,0,0,1-1.64.51A1.71,1.71,0,0,1,7.75,6.43,1.35,1.35,0,0,1,9.16,5.19a.89.89,0,0,1,.89.89.67.67,0,0,1-.67.59.37.37,0,1,0,0,.73,1.4,1.4,0,0,0,1.44-1.25A1.48,1.48,0,0,0,10.39,5a1.76,1.76,0,0,0-1.16-.56H9.06A2.11,2.11,0,0,0,7,6.36,2.45,2.45,0,0,0,9.23,9Z"/></svg>