<?xml version="1.0" encoding="utf-8"?>
<!-- Generator: Adobe Illustrator 24.2.1, SVG Export Plug-In . SVG Version: 6.00 Build 0)  -->
<svg version="1.1" id="Meedok-Doctores" xmlns="http://www.w3.org/2000/svg" xmlns:xlink="http://www.w3.org/1999/xlink" x="0px"
	 y="0px" viewBox="0 0 16 16" style="enable-background:new 0 0 16 16;" xml:space="preserve">
<style type="text/css">
	.st0{fill:#FFFFFF;}
	.st1{fill:url(#SVGID_1_);}
	.st2{fill:url(#SVGID_2_);}
	.st3{fill:url(#SVGID_3_);}
	.st4{fill:url(#SVGID_4_);}
	.st5{fill:url(#SVGID_5_);}
	.st6{fill:url(#SVGID_6_);}
	.st7{fill:url(#SVGID_7_);}
	.st8{fill:url(#SVGID_8_);}
	.st9{fill:url(#SVGID_9_);}
	.st10{fill:url(#SVGID_10_);}
	.st11{opacity:0.7;fill:#FFFFFF;}
	.st12{fill-rule:evenodd;clip-rule:evenodd;fill:#FFFFFF;}
</style>
<g>
	<path class="st12" d="M6.65,1.75C6.09,0.59,6.04-0.42,4.17,0.18C3.42,0.43,3.01,0.94,2.56,1.5c-1.62,1.77-1.16,5.66,1.21,9.4
		c2.42,3.69,5.81,5.71,8.08,4.95c0.71-0.25,1.36-0.35,1.87-0.96c1.31-1.47,0.45-1.92-0.4-2.88c-0.76-0.86-1.36-1.77-2.68-1.01
		c-0.2,0.25-1.31,1.36-1.87,1.26c-0.81-0.4-1.97-1.57-2.78-2.83C5.24,8.21,4.58,6.65,4.58,5.79C4.73,5.23,6.14,4.68,6.5,4.58
		C7.71,3.67,7.15,2.76,6.65,1.75z"/>
</g>
</svg>
