<svg id="Meedok-Doctores" xmlns="http://www.w3.org/2000/svg" viewBox="0 0 16 16"><defs><style>.cls-1{fill:#fff;}</style></defs><g id="Group_3" data-name="Group 3"><g id="Group_3-2" data-name="Group 3-2"><path id="Fill_1" data-name="Fill 1" class="cls-1" d="M8,15.07C4.3,15.07,0,11.78,0,7.55V2.34a1.35,1.35,0,0,1,.37-1,1.56,1.56,0,0,1,1-.4H14.59A1.34,1.34,0,0,1,16,2.34V7.55a6.63,6.63,0,0,1-.66,2.87,7.9,7.9,0,0,1-1.78,2.39A8.42,8.42,0,0,1,8,15.07ZM6.22,10a.4.4,0,0,0-.32.2l-.24.32a.49.49,0,0,0-.11.35.45.45,0,0,0,.19.26,3.48,3.48,0,0,0,1.8.7v.6c0,.24.15.37.43.37H8c.28,0,.42-.15.42-.44v-.53A2.38,2.38,0,0,0,10,11.08a2,2,0,0,0,.55-1.42,1.78,1.78,0,0,0-.26-1A2,2,0,0,0,9.58,8c-.27-.16-.56-.31-.87-.46s-.6-.27-.87-.37a2,2,0,0,1-.66-.38.68.68,0,0,1-.26-.52.75.75,0,0,1,.32-.63,1.28,1.28,0,0,1,.82-.25,2.4,2.4,0,0,1,1.28.38.66.66,0,0,0,.28.09.38.38,0,0,0,.32-.22l.18-.36a.37.37,0,0,0,0-.53l-.07,0a3,3,0,0,0-1.54-.52v-.6q0-.36-.42-.36H8a.38.38,0,0,0-.43.32v.66A2.45,2.45,0,0,0,6.1,5a1.89,1.89,0,0,0-.55,1.37,1.66,1.66,0,0,0,.37,1.09,2.76,2.76,0,0,0,.9.72c.35.17.7.33,1,.47a4,4,0,0,1,.89.48.75.75,0,0,1,.06,1.27,1.31,1.31,0,0,1-.79.23,2.61,2.61,0,0,1-1.52-.52A.56.56,0,0,0,6.22,10Z"/></g></g></svg>