<?xml version="1.0" encoding="utf-8"?>
<!-- Generator: Adobe Illustrator 24.2.1, SVG Export Plug-In . SVG Version: 6.00 Build 0)  -->
<svg version="1.1" id="Meedok-Doctores" xmlns="http://www.w3.org/2000/svg" xmlns:xlink="http://www.w3.org/1999/xlink" x="0px"
	 y="0px" viewBox="0 0 16 16" style="enable-background:new 0 0 16 16;" xml:space="preserve">
<style type="text/css">
	.st0{fill:#FFFFFF;}
	.st1{fill:url(#SVGID_1_);}
	.st2{fill:url(#SVGID_2_);}
	.st3{fill:url(#SVGID_3_);}
	.st4{fill:url(#SVGID_4_);}
	.st5{fill:url(#SVGID_5_);}
	.st6{fill:url(#SVGID_6_);}
	.st7{fill:url(#SVGID_7_);}
	.st8{fill:url(#SVGID_8_);}
	.st9{fill:url(#SVGID_9_);}
	.st10{fill:url(#SVGID_10_);}
	.st11{opacity:0.7;fill:#FFFFFF;}
	.st12{fill-rule:evenodd;clip-rule:evenodd;fill:#FFFFFF;}
</style>
<path class="st0" d="M8,0C4.74-0.09,2.01,2.48,1.92,5.75c0,0.09,0,0.19,0,0.28c0,5.04,5.63,9.71,5.87,9.9c0.12,0.1,0.3,0.1,0.42,0
	c0.25-0.22,5.87-5.36,5.87-9.9c0.06-3.26-2.54-5.96-5.8-6.02C8.19,0,8.09,0,8,0z M8,8.96c-1.59,0-2.88-1.29-2.88-2.88
	S6.41,3.2,8,3.2s2.88,1.29,2.88,2.88S9.59,8.96,8,8.96z"/>
</svg>