<svg id="Meedok-Doctores" xmlns="http://www.w3.org/2000/svg" viewBox="0 0 16 16"><defs><style>.cls-1{fill:#fff;}</style></defs><path class="cls-1" d="M6.37,13.15a3.85,3.85,0,0,1-3-1.9,6.28,6.28,0,0,1-.65-4.6A2.59,2.59,0,0,1,5.15,4.54,2.3,2.3,0,0,1,7,5.43a3.72,3.72,0,0,1,.65,2.84,6.86,6.86,0,0,0,0,2,7.87,7.87,0,0,1,.1,1.7C7.75,12.71,7.23,13.15,6.37,13.15ZM5.15,5A2.14,2.14,0,0,0,3.21,6.78,5.78,5.78,0,0,0,3.78,11a3.52,3.52,0,0,0,2.59,1.69c.41,0,.9-.12.92-.7a6.93,6.93,0,0,0-.1-1.6,7.44,7.44,0,0,1-.06-2.14A3.23,3.23,0,0,0,6.6,5.74,1.87,1.87,0,0,0,5.15,5Z"/><path class="cls-1" d="M7.31,16s0-2.21,0-2.88a11.91,11.91,0,0,1,0-1.35.22.22,0,0,1,.25-.22.24.24,0,0,1,.23.26s0,.64,0,1.3,0,2.89,0,2.89Z"/><path class="cls-1" d="M5.38,5h0a7.29,7.29,0,0,1-1.94-.86A4.63,4.63,0,0,1,1,.26a.25.25,0,0,1,.49,0A4.12,4.12,0,0,0,3.64,3.75a7.32,7.32,0,0,0,1.79.81.25.25,0,0,1,.19.29A.26.26,0,0,1,5.38,5Z"/><path class="cls-1" d="M9.63,13.15c-.86,0-1.38-.44-1.4-1.18a7.87,7.87,0,0,1,.1-1.7,6.86,6.86,0,0,0,.05-2A3.72,3.72,0,0,1,9,5.43a2.3,2.3,0,0,1,1.82-.89,2.59,2.59,0,0,1,2.41,2.11,6.28,6.28,0,0,1-.65,4.6A3.85,3.85,0,0,1,9.63,13.15ZM10.85,5a1.87,1.87,0,0,0-1.45.72,3.23,3.23,0,0,0-.53,2.48,7.44,7.44,0,0,1-.06,2.14,6.93,6.93,0,0,0-.1,1.6c0,.58.51.7.92.7A3.52,3.52,0,0,0,12.22,11a5.78,5.78,0,0,0,.57-4.19A2.14,2.14,0,0,0,10.85,5Z"/><path class="cls-1" d="M8.69,16H8.21s0-2.22,0-2.89,0-1.3,0-1.3a.24.24,0,0,1,.23-.26.22.22,0,0,1,.25.22,11.91,11.91,0,0,1,0,1.35C8.71,13.79,8.69,16,8.69,16Z"/><path class="cls-1" d="M10.62,5a.26.26,0,0,1-.24-.19.25.25,0,0,1,.19-.29,7.32,7.32,0,0,0,1.79-.81A4.12,4.12,0,0,0,14.52.22a.25.25,0,0,1,.49,0,4.63,4.63,0,0,1-2.4,3.91A7.29,7.29,0,0,1,10.67,5Z"/></svg>