<svg xmlns="http://www.w3.org/2000/svg" xmlns:xlink="http://www.w3.org/1999/xlink" width="30" height="35" viewBox="0 0 30 35">
  <defs>
    <clipPath id="clip-path">
      <path id="Clip_2" data-name="Clip 2" d="M0,0H24V30H0Z" transform="translate(0 0.5)" fill="none"/>
    </clipPath>
    <clipPath id="clip-archivoBajar">
      <rect width="30" height="35"/>
    </clipPath>
  </defs>
  <g id="archivoBajar" clip-path="url(#clip-archivoBajar)">
    <g id="Group_3" data-name="Group 3" transform="translate(3 2.5)">
      <path id="Clip_2-2" data-name="Clip 2" d="M0,0H24V30H0Z" transform="translate(0 0.5)" fill="none"/>
      <g id="Group_3-2" data-name="Group 3" clip-path="url(#clip-path)">
        <path id="Fill_1" data-name="Fill 1" d="M19.715,30H15.427a1.7,1.7,0,0,1-1.215-.5,1.607,1.607,0,0,1-.474-1.149V28.3a1.67,1.67,0,0,1,1.69-1.634h4.286a.846.846,0,0,0,.857-.833V10H15.429a1.693,1.693,0,0,1-1.714-1.667v-5H4.286a.847.847,0,0,0-.858.833v7.5a1.693,1.693,0,0,1-1.714,1.667A1.693,1.693,0,0,1,0,11.667v-7.5A4.232,4.232,0,0,1,4.286,0H15.723a3.5,3.5,0,0,1,2.425.976L23,5.69A3.266,3.266,0,0,1,24,8.047V25.834A4.232,4.232,0,0,1,19.715,30ZM5.323,29.5a1.207,1.207,0,0,1-.967-.455L.274,23.09a1.471,1.471,0,0,1-.106-1.546,1.292,1.292,0,0,1,1.15-.793H3.6v-3.5a1.8,1.8,0,0,1,3.6,0v3.5H9.484a1.292,1.292,0,0,1,1.142.8,1.5,1.5,0,0,1-.1,1.581L6.444,28.958A1.444,1.444,0,0,1,5.323,29.5Z" transform="translate(0 0.5)" fill="#fff"/>
      </g>
    </g>
  </g>
</svg>
