<svg xmlns="http://www.w3.org/2000/svg" xmlns:xlink="http://www.w3.org/1999/xlink" width="40" height="32" viewBox="0 0 40 32">
  <defs>
    <clipPath id="clip-birrete">
      <rect width="40" height="32"/>
    </clipPath>
  </defs>
  <g id="birrete" clip-path="url(#clip-birrete)">
    <path id="Fill_9" data-name="Fill 9" d="M35.767,27H32.194a1.254,1.254,0,0,1-1.217-1.285V22.6A3.171,3.171,0,0,1,32.76,19.7v-8.6l-2.587,1.041-2.434.984-6.566,2.654a5.78,5.78,0,0,1-4.345,0L10.261,13.13l-2.434-.984L.786,9.306A1.311,1.311,0,0,1,.079,7.648,1.253,1.253,0,0,1,.786,6.9L16.828.423a5.788,5.788,0,0,1,4.345,0L37.215,6.9a1.313,1.313,0,0,1,0,2.4l-2.021.816V19.7a3.183,3.183,0,0,1,1.789,2.9v3.118A1.254,1.254,0,0,1,35.767,27ZM19.5,24A24,24,0,0,1,8.626,21.321,1.254,1.254,0,0,1,8,20.232V15l2.506.958,6.758,2.585a6.268,6.268,0,0,0,4.472,0l6.759-2.585L31,15v5.238a1.25,1.25,0,0,1-.626,1.089A24.005,24.005,0,0,1,19.5,24Z" transform="translate(0.999 2)" fill="#f300ab"/>
  </g>
</svg>
