<svg xmlns="http://www.w3.org/2000/svg" xmlns:xlink="http://www.w3.org/1999/xlink" width="36" height="37" viewBox="0 0 36 37">
  <defs>
    <clipPath id="clip-path">
      <path id="Clip_2" data-name="Clip 2" d="M0,0H33V33H0Z" transform="translate(0 -0.131)" fill="none"/>
    </clipPath>
    <clipPath id="clip-buscar">
      <rect width="36" height="37"/>
    </clipPath>
  </defs>
  <g id="buscar" clip-path="url(#clip-buscar)">
    <g id="Group_3" data-name="Group 3" transform="translate(2 2)">
      <path id="Clip_2-2" data-name="Clip 2" d="M0,0H33V33H0Z" transform="translate(0 -0.131)" fill="none"/>
      <g id="Group_3-2" data-name="Group 3" clip-path="url(#clip-path)">
        <path id="Fill_1" data-name="Fill 1" d="M31.229,33a1.759,1.759,0,0,1-1.251-.521l-6.7-6.67a14.264,14.264,0,1,1,2.535-2.5l6.67,6.67A1.772,1.772,0,0,1,31.229,33ZM14.45,3.508A10.908,10.908,0,1,0,25.323,14.416,10.92,10.92,0,0,0,14.45,3.508Z" transform="translate(0 -0.131)" fill="#fff"/>
      </g>
    </g>
  </g>
</svg>
