<svg xmlns="http://www.w3.org/2000/svg" xmlns:xlink="http://www.w3.org/1999/xlink" width="22" height="22" viewBox="0 0 22 22">
  <defs>
    <clipPath id="clip-path">
      <path id="Clip_2" data-name="Clip 2" d="M0,0H18.907V17.981H0Z" transform="translate(0 0.019)" fill="none"/>
    </clipPath>
    <clipPath id="clip-calendario">
      <rect width="22" height="22"/>
    </clipPath>
  </defs>
  <g id="calendario" clip-path="url(#clip-calendario)">
    <g id="Group_16" data-name="Group 16" transform="translate(1.441 1.981)">
      <g id="Group_3" data-name="Group 3" transform="translate(0.559)">
        <path id="Clip_2-2" data-name="Clip 2" d="M0,0H18.907V17.981H0Z" transform="translate(0 0.019)" fill="#C8C8C8"/>
        <g id="Group_3-2" data-name="Group 3" clip-path="url(#clip-path)">
          <path id="Fill_1" data-name="Fill 1" d="M16.754,17.981H2.153A2.153,2.153,0,0,1,0,15.832V3.723a2.154,2.154,0,0,1,2.153-2.15H4.5V.449a.45.45,0,0,1,.9,0V1.573h8.1V.449a.45.45,0,0,1,.9,0V1.573h2.349a2.154,2.154,0,0,1,2.153,2.15V15.832A2.153,2.153,0,0,1,16.754,17.981ZM3.053,2.472A2.154,2.154,0,0,0,.9,4.622v10.31a2.153,2.153,0,0,0,2.153,2.149h12.8a2.153,2.153,0,0,0,2.153-2.149V4.622a2.154,2.154,0,0,0-2.153-2.15H14.405V3.6a.45.45,0,0,1-.9,0V2.472H5.4V3.6a.45.45,0,0,1-.9,0V2.472Z" transform="translate(0 0.019)" fill="#C8C8C8"/>
        </g>
      </g>
      <path id="Fill_4" data-name="Fill 4" d="M1.219,0h.563A1.219,1.219,0,0,1,3,1.219v.563A1.219,1.219,0,0,1,1.781,3H1.219A1.219,1.219,0,0,1,0,1.781V1.219A1.219,1.219,0,0,1,1.219,0" transform="translate(8.559 6)" fill="#fff"/>
      <path id="Fill_6" data-name="Fill 6" d="M1.219,0h.563A1.219,1.219,0,0,1,3,1.219v.563A1.219,1.219,0,0,1,1.781,3H1.219A1.219,1.219,0,0,1,0,1.781V1.219A1.219,1.219,0,0,1,1.219,0" transform="translate(3.559 6)" fill="#fff"/>
      <path id="Fill_8" data-name="Fill 8" d="M1.219,0h.562A1.219,1.219,0,0,1,3,1.219v.563A1.219,1.219,0,0,1,1.781,3H1.219A1.219,1.219,0,0,1,0,1.781V1.219A1.219,1.219,0,0,1,1.219,0" transform="translate(13.559 6)" fill="#fff"/>
      <path id="Fill_10" data-name="Fill 10" d="M1.219,0h.563A1.219,1.219,0,0,1,3,1.219v.563A1.219,1.219,0,0,1,1.781,3H1.219A1.219,1.219,0,0,1,0,1.781V1.219A1.219,1.219,0,0,1,1.219,0" transform="translate(8.559 11)" fill="#fff"/>
      <path id="Fill_12" data-name="Fill 12" d="M1.219,0h.563A1.219,1.219,0,0,1,3,1.219v.563A1.219,1.219,0,0,1,1.781,3H1.219A1.219,1.219,0,0,1,0,1.781V1.219A1.219,1.219,0,0,1,1.219,0" transform="translate(3.559 11)" fill="#fff"/>
      <path id="Fill_14" data-name="Fill 14" d="M1.219,0h.562A1.219,1.219,0,0,1,3,1.219v.563A1.219,1.219,0,0,1,1.781,3H1.219A1.219,1.219,0,0,1,0,1.781V1.219A1.219,1.219,0,0,1,1.219,0" transform="translate(13.559 11)" fill="#fff"/>
    </g>
  </g>
</svg>
