<svg xmlns="http://www.w3.org/2000/svg" xmlns:xlink="http://www.w3.org/1999/xlink" width="26" height="30" viewBox="0 0 26 30">
  <defs>
    <clipPath id="clip-path">
      <path id="Clip_3" data-name="Clip 3" d="M0,0H23.957V27.93H0Z" transform="translate(0 0.07)" fill="none"/>
    </clipPath>
    <clipPath id="clip-calendarioConMas">
      <rect width="26" height="30"/>
    </clipPath>
  </defs>
  <g id="calendarioConMas" clip-path="url(#clip-calendarioConMas)">
    <g id="Group_5" data-name="Group 5" transform="translate(1 0.93)">
      <path id="Fill_1" data-name="Fill 1" d="M0,6.084v-2.8H3.175V0h2.75V3.271H9.143v2.77H5.936V9.333H3.207V6.084Z" transform="translate(6.857 11.667)" fill="#fff"/>
      <g id="Group_4" data-name="Group 4">
        <path id="Clip_3-2" data-name="Clip 3" d="M0,0H23.957V27.93H0Z" transform="translate(0 0.07)" fill="none"/>
        <g id="Group_4-2" data-name="Group 4" clip-path="url(#clip-path)">
          <path id="Fill_2" data-name="Fill 2" d="M11.994,27.93c-2.578,0-5.236,0-7.9-.008A4.1,4.1,0,0,1,0,23.639v-4.5C0,15.358,0,12.28,0,7.691H.023c0-1.046,0-1.646.007-2.128.006-.941.008-1.33-.025-3.51A2.2,2.2,0,0,1,.637.283,1.068,1.068,0,0,1,1.367,0H22.512a1.253,1.253,0,0,1,.913.4,2.226,2.226,0,0,1,.527,1.658c-.033,2.166-.03,2.554-.025,3.493,0,.485.007,1.088.007,2.145h.022q0,2.5,0,4.991V23.671a4.118,4.118,0,0,1-4.055,4.25C17.435,27.927,14.849,27.93,11.994,27.93ZM2.293,8.114c0,4.357,0,7.361,0,11.029v4.5A1.782,1.782,0,0,0,4.1,25.549c2.681.005,5.34.008,7.9.008,2.705,0,5.361,0,7.894-.009a1.769,1.769,0,0,0,1.769-1.877V14.345q0-3.114,0-6.231H2.293Zm15.8-5.147V5.246h2.53V2.967Zm-4.922,0V5.246H15.7V2.967Zm-4.906,0V5.246h2.53V2.967Zm-4.922,0V5.246h2.53V2.967Z" transform="translate(0 0.07)" fill="#fff"/>
        </g>
      </g>
    </g>
  </g>
</svg>
