<svg xmlns="http://www.w3.org/2000/svg" xmlns:xlink="http://www.w3.org/1999/xlink" width="28" height="32" viewBox="0 0 28 32">
  <defs>
    <clipPath id="clip-path">
      <path id="Clip_7" data-name="Clip 7" d="M11.265.318,1.235,6.246A2.56,2.56,0,0,0,0,8.413H0V20.268a2.492,2.492,0,0,0,1.235,2.167h0l10.031,5.928a2.364,2.364,0,0,0,1.2.334H12.5a2.364,2.364,0,0,0,1.2-.334h0l10.062-5.928A2.492,2.492,0,0,0,25,20.268h0V8.413a2.493,2.493,0,0,0-1.235-2.167h0L13.735.318A2.387,2.387,0,0,0,12.5,0h0a2.463,2.463,0,0,0-1.235.318" transform="translate(0 0.303)" fill="none"/>
    </clipPath>
    <linearGradient id="linear-gradient" y1="0.5" x2="1" y2="0.5" gradientUnits="objectBoundingBox">
      <stop offset="0" stop-color="#df0092"/>
      <stop offset="1" stop-color="#ff00a9"/>
    </linearGradient>
    <clipPath id="clip-colegiado">
      <rect width="28" height="32"/>
    </clipPath>
  </defs>
  <g id="colegiado" clip-path="url(#clip-colegiado)">
    <g id="Grupo_1" data-name="Grupo 1" transform="translate(2652 1035)">
      <g id="Group_8" data-name="Group 8" transform="translate(-2650 -1033.303)">
        <path id="Clip_7-2" data-name="Clip 7" d="M11.265.318,1.235,6.246A2.56,2.56,0,0,0,0,8.413H0V20.268a2.492,2.492,0,0,0,1.235,2.167h0l10.031,5.928a2.364,2.364,0,0,0,1.2.334H12.5a2.364,2.364,0,0,0,1.2-.334h0l10.062-5.928A2.492,2.492,0,0,0,25,20.268h0V8.413a2.493,2.493,0,0,0-1.235-2.167h0L13.735.318A2.387,2.387,0,0,0,12.5,0h0a2.463,2.463,0,0,0-1.235.318" transform="translate(0 0.303)" fill="none"/>
        <g id="Group_8-2" data-name="Group 8" clip-path="url(#clip-path)">
          <path id="Fill_6" data-name="Fill 6" d="M11.265.318,1.235,6.246A2.56,2.56,0,0,0,0,8.413H0V20.268a2.492,2.492,0,0,0,1.235,2.167h0l10.031,5.928a2.364,2.364,0,0,0,1.2.334H12.5a2.364,2.364,0,0,0,1.2-.334h0l10.062-5.928A2.492,2.492,0,0,0,25,20.268h0V8.413a2.493,2.493,0,0,0-1.235-2.167h0L13.735.318A2.387,2.387,0,0,0,12.5,0h0a2.463,2.463,0,0,0-1.235.318" transform="translate(0 0.303)" fill="url(#linear-gradient)"/>
        </g>
      </g>
      <path id="Fill_9" data-name="Fill 9" d="M18.824,13h-1.88a.631.631,0,0,1-.641-.618v-1.5a1.518,1.518,0,0,1,.939-1.392V5.347l-1.362.5L14.6,6.322,11.144,7.6a3.3,3.3,0,0,1-2.287,0L5.4,6.322,4.119,5.848.414,4.48a.626.626,0,0,1-.361-.332.6.6,0,0,1-.012-.466.635.635,0,0,1,.373-.36L8.857.2a3.319,3.319,0,0,1,2.287,0l8.443,3.119a.612.612,0,0,1,0,1.157l-1.063.393V9.484a1.525,1.525,0,0,1,.941,1.4v1.5A.631.631,0,0,1,18.824,13ZM10,11.536a12.62,12.62,0,0,1-5.56-1.325.616.616,0,0,1-.32-.538V7.087L5.4,7.56,8.857,8.838a3.309,3.309,0,0,0,2.287,0L14.6,7.56l1.281-.473v2.59a.615.615,0,0,1-.319.538A12.631,12.631,0,0,1,10,11.536Z" transform="translate(-2647 -1025)" fill="#fff"/>
    </g>
  </g>
</svg>
