<svg xmlns="http://www.w3.org/2000/svg" xmlns:xlink="http://www.w3.org/1999/xlink" width="50" height="50" viewBox="0 0 50 50">
  <defs>
    <clipPath id="clip-configuracion">
      <rect width="50" height="50"/>
    </clipPath>
  </defs>
  <g id="configuracion" clip-path="url(#clip-configuracion)">
    <g id="configuracion-2" data-name="configuracion" transform="translate(7.999 7.573)">
      <path id="Fill_1" data-name="Fill 1" d="M14.521,35h0a1.994,1.994,0,0,1-1.985-1.925l-.043-1.625a2.219,2.219,0,0,0-1.005-1.678L8.314,27.952a2.075,2.075,0,0,0-1.013-.24,2.043,2.043,0,0,0-.951.214L4.912,28.7a2,2,0,0,1-2.669-.748L.265,24.545A1.983,1.983,0,0,1,.95,21.872l1.393-.849a2.22,2.22,0,0,0,.958-1.7l0-3.64a2.22,2.22,0,0,0-.96-1.7L.947,13.126a1.981,1.981,0,0,1-.684-2.672l1.98-3.409A2,2,0,0,1,4.913,6.3l1.435.775a2.043,2.043,0,0,0,.952.214,2.072,2.072,0,0,0,1.012-.239L11.486,5.23a2.219,2.219,0,0,0,1.005-1.678l.043-1.624A2,2,0,0,1,14.521,0L18.48,0a2,2,0,0,1,1.986,1.924l.043,1.625a2.219,2.219,0,0,0,1,1.678l3.172,1.821a2.075,2.075,0,0,0,1.013.24,2.043,2.043,0,0,0,.951-.214L28.087,6.3a2,2,0,0,1,2.67.748l1.977,3.409a1.983,1.983,0,0,1-.685,2.673l-1.393.849a2.218,2.218,0,0,0-.958,1.7l0,3.641a2.218,2.218,0,0,0,.959,1.7l1.394.849a1.982,1.982,0,0,1,.684,2.672l-1.98,3.408a2,2,0,0,1-2.67.748l-1.436-.776a2.043,2.043,0,0,0-.951-.213,2.07,2.07,0,0,0-1.013.239L21.514,29.77a2.216,2.216,0,0,0-1.005,1.678l-.043,1.624A2,2,0,0,1,18.48,35ZM16.507,9.722a7.776,7.776,0,1,0,3.875,1.043A7.788,7.788,0,0,0,16.507,9.722Z" transform="translate(1 -0.573)" fill="#4d00ef"/>
    </g>
  </g>
</svg>
