<svg xmlns="http://www.w3.org/2000/svg" xmlns:xlink="http://www.w3.org/1999/xlink" width="25" height="25" viewBox="0 0 25 25">
  <defs>
    <clipPath id="clip-copiar-invitacion">
      <rect width="25" height="25"/>
    </clipPath>
  </defs>
  <g id="copiar-invitacion" clip-path="url(#clip-copiar-invitacion)">
    <g id="Fill_2" data-name="Fill 2" transform="translate(29 14)">
      <path id="Fill_1" data-name="Fill 1" d="M20.074,21H9.927A.921.921,0,0,1,9,20.066V14.6h2.979a2.158,2.158,0,0,0,1.363-.491,1.934,1.934,0,0,0,.142-.133l.012-.012a2.195,2.195,0,0,0,.375-.491v-.007c.036-.066.065-.122.092-.185a1.878,1.878,0,0,0,.065-.187l0-.012c.023-.073.041-.138.054-.2v-.007l.009-.046a1.587,1.587,0,0,0,.028-.161.012.012,0,0,0,0-.005,2.137,2.137,0,0,0,.008-.224V9h5.943A.9.9,0,0,1,21,9.919V20.066A.92.92,0,0,1,20.074,21Zm-9.008-9H.926A.908.908,0,0,1,0,11.07V.925A.905.905,0,0,1,.926,0L11.074,0A.905.905,0,0,1,12,.93V11.066a.966.966,0,0,1-.068.375.925.925,0,0,1-.2.291.88.88,0,0,1-.138.114A.941.941,0,0,1,11.066,12Z" transform="translate(-27 -12)" fill="#fff"/>
    </g>
  </g>
</svg>
