<svg xmlns="http://www.w3.org/2000/svg" xmlns:xlink="http://www.w3.org/1999/xlink" width="40" height="40" viewBox="0 0 40 40">
  <defs>
    <clipPath id="clip-facturacion">
      <rect width="40" height="40"/>
    </clipPath>
  </defs>
  <g id="facturacion" clip-path="url(#clip-facturacion)">
    <g id="Group_4" data-name="Group 4" transform="translate(4 0.905)">
      <path id="Fill_2" data-name="Fill 2" d="M16.492,37.905c-3.682,0-7.337,0-10.862-.012A5.6,5.6,0,0,1,0,32.082v-6.1c0-5.137,0-9.315,0-15.542H.032c0-1.432.006-2.252.01-2.91C.05,6.254.054,5.727.008,2.786A2.952,2.952,0,0,1,.877.383,1.477,1.477,0,0,1,1.88,0H30.954A1.734,1.734,0,0,1,32.21.536a3,3,0,0,1,.724,2.249c-.045,2.941-.042,3.468-.034,4.741,0,.659.01,1.478.01,2.911h.029c0,2.99,0,5.775,0,9.031V32.125a5.625,5.625,0,0,1-5.577,5.768C23.72,37.9,20.062,37.905,16.492,37.905ZM3.153,11.012c0,5.913,0,9.99,0,14.968v6.1a2.433,2.433,0,0,0,2.484,2.592c3.547.007,7.11.01,10.589.01,3.771,0,7.516,0,11.131-.012a2.415,2.415,0,0,0,2.433-2.548l0-12.656c0-3.408,0-6.016,0-8.456H3.153Zm21.72-6.985V7.12h3.479V4.028Zm-6.768,0V7.12h3.478V4.028Zm-6.745,0V7.12h3.478V4.028Zm-6.769,0V7.12H8.069V4.028Z" transform="translate(0 0.095)" fill="#ef00a5"/>
      <g id="Group_9" data-name="Group 9" transform="translate(9.913 14)">
        <g id="Group_3" data-name="Group 3" transform="translate(4.088)">
          <path id="Fill_1" data-name="Fill 1" d="M2.949,0A2.949,2.949,0,1,1,0,2.949,2.952,2.952,0,0,1,2.949,0" fill="#ef00a5"/>
        </g>
        <g id="Group_6" data-name="Group 6" transform="translate(0.087 8)">
          <path id="Fill_4" data-name="Fill 4" d="M11.425,2.283A6.485,6.485,0,0,0,0,6.505V8.377a.432.432,0,0,0,.436.429H2.585a.432.432,0,0,0,.436-.429V6.465A3.481,3.481,0,0,1,6.294,2.978a3.427,3.427,0,0,1,3.62,3.389V8.377a.432.432,0,0,0,.436.429H12.5a.432.432,0,0,0,.436-.429V6.366a6.277,6.277,0,0,0-1.51-4.083" fill="#ef00a5"/>
        </g>
      </g>
    </g>
  </g>
</svg>
