<svg xmlns="http://www.w3.org/2000/svg" xmlns:xlink="http://www.w3.org/1999/xlink" width="74" height="44" viewBox="0 0 74 44">
  <defs>
    <clipPath id="clip-path">
      <path id="Clip_2" data-name="Clip 2" d="M0,0H40V40H0Z" fill="none"/>
    </clipPath>
    <clipPath id="clip-INICIO">
      <rect width="74" height="44"/>
    </clipPath>
  </defs>
  <g id="INICIO" clip-path="url(#clip-INICIO)">
    <g id="Group_3" data-name="Group 3" transform="translate(17 9)">
      <path id="Clip_2-2" data-name="Clip 2" d="M0,0H40V40H0Z" fill="none"/>
      <g id="Group_3-2" data-name="Group 3" transform="translate(0 -7)" clip-path="url(#clip-path)">
        <path id="Fill_1" data-name="Fill 1" d="M6.3,40a6.338,6.338,0,0,1-4.443-1.79A6.049,6.049,0,0,1,0,33.878V17.512a6.086,6.086,0,0,1,2.275-4.689L15.928,1.468a6.383,6.383,0,0,1,8.145,0L37.725,12.823A6.077,6.077,0,0,1,40,17.512V33.856A6.237,6.237,0,0,1,33.7,40H6.3ZM19.99,4.448a1.741,1.741,0,0,0-1.138.421L5.2,16.234a1.646,1.646,0,0,0-.615,1.278V33.856a1.658,1.658,0,0,0,.5,1.2,1.739,1.739,0,0,0,1.22.5H33.641a1.714,1.714,0,0,0,1.729-1.678V17.512a1.652,1.652,0,0,0-.591-1.278L21.127,4.868A1.739,1.739,0,0,0,19.99,4.448Z" fill="#fff"/>
      </g>
    </g>
  </g>
</svg>
