<svg xmlns="http://www.w3.org/2000/svg" xmlns:xlink="http://www.w3.org/1999/xlink" width="341" height="74" viewBox="0 0 341 74">
  <defs>
    <clipPath id="clip-path">
      <path id="Clip_2" data-name="Clip 2" d="M12.114,0A12.159,12.159,0,0,0,0,12.176H0A12.159,12.159,0,0,0,12.114,24.352h0A12.159,12.159,0,0,0,24.229,12.176h0A12.159,12.159,0,0,0,12.114,0Z" transform="translate(0.077 0.003)" fill="none"/>
    </clipPath>
    <linearGradient id="linear-gradient" x1="0.5" y1="1.103" x2="0.5" y2="-0.103" gradientUnits="objectBoundingBox">
      <stop offset="0" stop-color="#ed00a3"/>
      <stop offset="1" stop-color="#ff00ba"/>
    </linearGradient>
    <clipPath id="clip-path-2">
      <path id="Clip_8" data-name="Clip 8" d="M0,9.086A25.741,25.741,0,0,1,5.719,25.334h0A13.27,13.27,0,0,1,19.429,11.85h0c7.011.358,12.395,6.615,12.395,13.876h0v7.611a1.679,1.679,0,0,0,1.65,1.706h8.139a1.679,1.679,0,0,0,1.649-1.706h0V25.888C43.262,12.016,32.709.3,19.3.006h0Q19.036,0,18.772,0h0A24.133,24.133,0,0,0,0,9.086" transform="translate(0.083 0.143)" fill="none"/>
    </clipPath>
    <linearGradient id="linear-gradient-2" x1="1" y1="0.5" x2="-0.132" y2="0.5" gradientUnits="objectBoundingBox">
      <stop offset="0" stop-color="#4d00ef"/>
      <stop offset="1" stop-color="#080041"/>
    </linearGradient>
    <clipPath id="clip-path-3">
      <path id="Clip_5" data-name="Clip 5" d="M11.974,0A12.09,12.09,0,0,0,0,12.176H0A12.09,12.09,0,0,0,11.974,24.352h0A12.09,12.09,0,0,0,23.947,12.176h0A12.09,12.09,0,0,0,11.974,0Z" transform="translate(0.085 0.003)" fill="none"/>
    </clipPath>
    <linearGradient id="linear-gradient-3" x1="0.5" y1="1.103" x2="0.5" y2="-0.103" gradientUnits="objectBoundingBox">
      <stop offset="0" stop-color="#4d00ef"/>
      <stop offset="1" stop-color="#4d00ef"/>
    </linearGradient>
    <clipPath id="clip-path-4">
      <path id="Clip_11" data-name="Clip 11" d="M24.343.006C10.722.3,0,12.017,0,25.888H0v7.449a1.691,1.691,0,0,0,1.676,1.706H9.945a1.692,1.692,0,0,0,1.676-1.706h0V25.726c0-7.261,5.47-13.519,12.593-13.876h0A13.383,13.383,0,0,1,38.142,25.334h0v8a1.692,1.692,0,0,0,1.676,1.706h8.269a1.691,1.691,0,0,0,1.676-1.706h0v-8A25.492,25.492,0,0,0,43.953,9.086h0A24.666,24.666,0,0,0,24.882,0h0c-.179,0-.358,0-.539.006" transform="translate(0 0.143)" fill="none"/>
    </clipPath>
    <linearGradient id="linear-gradient-4" x1="0" y1="0.5" x2="4.282" y2="0.5" xlink:href="#linear-gradient-3"/>
    <clipPath id="clip-path-5">
      <path id="Clip_14" data-name="Clip 14" d="M15.193,46a15.738,15.738,0,0,1-6.208-1.179A13.453,13.453,0,0,1,4.15,41.286a15.812,15.812,0,0,1-3.113-5.431A21.487,21.487,0,0,1,0,28.989a20.894,20.894,0,0,1,1.079-6.905,15.5,15.5,0,0,1,3.238-5.423,14.18,14.18,0,0,1,4.944-3.513,15.924,15.924,0,0,1,6.2-1.171,15.172,15.172,0,0,1,3.882.479A10.612,10.612,0,0,1,22.22,13.6a12.906,12.906,0,0,1,1.841,1.37,4.954,4.954,0,0,1,1.037,1.21l.335.446h.134a11.584,11.584,0,0,1-.134-1.848V2.676C25.433.9,26.356,0,28.177,0h2.945c1.821,0,2.745.9,2.745,2.676V42.559c0,1.775-.924,2.676-2.745,2.676H28.646c-1.821,0-2.744-.814-2.744-2.42V41.54l.133-1.148H25.9c-.093.176-.217.38-.368.606A14.844,14.844,0,0,1,24.4,42.337a10.342,10.342,0,0,1-2.041,1.72,12.962,12.962,0,0,1-3.045,1.337A13.613,13.613,0,0,1,15.193,46Zm1.941-27.077a7.967,7.967,0,0,0-6.091,2.707,10.539,10.539,0,0,0-2.477,7.359A11.2,11.2,0,0,0,10.91,36.38a7.663,7.663,0,0,0,6.157,2.8,8.143,8.143,0,0,0,6.09-2.581c1.644-1.713,2.478-4.3,2.478-7.677a11.5,11.5,0,0,0-2.209-7.04A7.412,7.412,0,0,0,17.134,18.923Z" transform="translate(0.125)" fill="none"/>
    </clipPath>
    <linearGradient id="linear-gradient-5" x1="0" y1="0.5" x2="1" y2="0.5" xlink:href="#linear-gradient"/>
    <clipPath id="clip-path-6">
      <path id="Clip_17" data-name="Clip 17" d="M18.4,35.161a20.043,20.043,0,0,1-7.145-1.242,18.073,18.073,0,0,1-5.93-3.729,16.469,16.469,0,0,1-3.992-5.637A17.834,17.834,0,0,1,0,17.581a17.833,17.833,0,0,1,1.331-6.971A16.482,16.482,0,0,1,5.323,4.971a18.092,18.092,0,0,1,5.93-3.728A20.04,20.04,0,0,1,18.4,0a19.987,19.987,0,0,1,7.153,1.251A18.245,18.245,0,0,1,31.506,5a16.666,16.666,0,0,1,4.016,5.647,17.591,17.591,0,0,1,1.339,6.93,17.738,17.738,0,0,1-1.339,6.972,16.476,16.476,0,0,1-4.016,5.637,18.245,18.245,0,0,1-5.956,3.729A20.108,20.108,0,0,1,18.4,35.161Zm0-28.05a9.5,9.5,0,0,0-7.031,2.963,10.355,10.355,0,0,0-2.891,7.507,10.389,10.389,0,0,0,2.858,7.539A9.513,9.513,0,0,0,18.4,28.049a9.626,9.626,0,0,0,7.1-2.929,10.327,10.327,0,0,0,2.891-7.539,10.3,10.3,0,0,0-2.924-7.507A9.6,9.6,0,0,0,18.4,7.111Z" transform="translate(0.001 0.02)" fill="none"/>
    </clipPath>
    <clipPath id="clip-path-7">
      <path id="Clip_20" data-name="Clip 20" d="M33.149,2.088a12.984,12.984,0,0,0-4.53,4.984h-.131Q26.4,0,18.774,0h0a10.785,10.785,0,0,0-6.551,2.189h0A13.528,13.528,0,0,0,7.888,7.274H7.758l.131-1.549V3.637Q7.888.808,5.215.808H2.673Q0,.808,0,3.637H0v28.7q0,2.829,2.673,2.829H5.541q2.672,0,2.673-2.829h0v-12.6a15.34,15.34,0,0,1,2.249-8.352h0a7.109,7.109,0,0,1,6.356-3.57h0q2.672,0,3.553,1.784h0a11.785,11.785,0,0,1,.88,5.086h0V32.332q0,2.829,2.738,2.829h2.868q2.673,0,2.673-2.829h0v-12.6A15.291,15.291,0,0,1,31.78,11.35h0a7.013,7.013,0,0,1,6.226-3.536h0q2.672,0,3.618,1.751h0a11.044,11.044,0,0,1,.945,5.119h0V32.332q0,2.829,2.738,2.829h2.8q2.738,0,2.738-2.829h0V13.067Q50.847,0,39.961,0h0a11.927,11.927,0,0,0-6.812,2.088" transform="translate(0.021 0.02)" fill="none"/>
    </clipPath>
    <linearGradient id="linear-gradient-7" x1="0" y1="0.5" x2="1" y2="0.5" xlink:href="#linear-gradient-3"/>
    <clipPath id="clip-path-8">
      <path id="Clip_23" data-name="Clip 23" d="M19.185,35.161A22.554,22.554,0,0,1,11.4,33.885a17.366,17.366,0,0,1-6.117-3.827,17.229,17.229,0,0,1-3.965-5.67A17.352,17.352,0,0,1,0,17.581a19.021,19.021,0,0,1,1.26-7.053A16.133,16.133,0,0,1,5.041,4.906a16.624,16.624,0,0,1,5.794-3.679A20.766,20.766,0,0,1,18.134,0a18.516,18.516,0,0,1,6.617,1.111,13.424,13.424,0,0,1,5.007,3.333,14.719,14.719,0,0,1,3.151,5.111A18.84,18.84,0,0,1,33.959,16a2.649,2.649,0,0,1-.911,1.976,3.068,3.068,0,0,1-2.17.856H9.1a9.524,9.524,0,0,0,3.431,6.782,11.252,11.252,0,0,0,7.282,2.435,15.111,15.111,0,0,0,7.7-2.172,4.337,4.337,0,0,1,1.735-.427A2.464,2.464,0,0,1,31.438,26.8l.841,1.318A2.4,2.4,0,0,1,31.3,31.8,23.252,23.252,0,0,1,19.185,35.161ZM17.924,6.322a8.386,8.386,0,0,0-5.672,2.007,9.17,9.17,0,0,0-2.94,5.433H25.136a7.564,7.564,0,0,0-2.1-5.433A7.008,7.008,0,0,0,17.924,6.322Z" transform="translate(0.011 0.02)" fill="none"/>
    </clipPath>
    <clipPath id="clip-path-9">
      <path id="Clip_26" data-name="Clip 26" d="M19.1,35.161a22.365,22.365,0,0,1-7.747-1.276A17.045,17.045,0,0,1,0,17.581a19.1,19.1,0,0,1,1.255-7.053A16.139,16.139,0,0,1,5.018,4.906a16.544,16.544,0,0,1,5.769-3.679A20.592,20.592,0,0,1,18.054,0a18.361,18.361,0,0,1,6.588,1.111,13.354,13.354,0,0,1,4.984,3.333,14.727,14.727,0,0,1,3.138,5.111A18.915,18.915,0,0,1,33.809,16a2.653,2.653,0,0,1-.906,1.976,3.048,3.048,0,0,1-2.161.856H9.062a9.54,9.54,0,0,0,3.415,6.782,11.173,11.173,0,0,0,7.249,2.435A15,15,0,0,0,27.4,25.878a4.3,4.3,0,0,1,1.726-.427A2.454,2.454,0,0,1,31.3,26.8l.837,1.318A2.406,2.406,0,0,1,31.16,31.8,23.075,23.075,0,0,1,19.1,35.161ZM17.845,6.322A8.321,8.321,0,0,0,12.2,8.329a9.182,9.182,0,0,0-2.929,5.433H25.025a7.584,7.584,0,0,0-2.092-5.433A6.959,6.959,0,0,0,17.845,6.322Z" transform="translate(0.108 0.02)" fill="none"/>
    </clipPath>
    <clipPath id="clip-path-10">
      <path id="Clip_29" data-name="Clip 29" d="M2.777,0Q0,0,0,2.721H0V43.279Q0,46,2.777,46H5.621Q8.4,46,8.4,43.279h0V31.552h4.365l7.87,12.569A3.477,3.477,0,0,0,23.875,46h3.571a2.318,2.318,0,0,0,2.182-.907h0a2.254,2.254,0,0,0-.33-2.332h0l-9.921-14.9V27.73l8.4-11.533a2.133,2.133,0,0,0,.43-2.268h0a2.18,2.18,0,0,0-2.149-.971H22.883a3.65,3.65,0,0,0-3.307,1.814h0L12.566,24.62H8.4V2.721Q8.4,0,5.621,0H2.777Z" transform="translate(0.118)" fill="none"/>
    </clipPath>
    <clipPath id="clip-meedok_color_icon">
      <rect width="341" height="74"/>
    </clipPath>
  </defs>
  <g id="meedok_color_icon" clip-path="url(#clip-meedok_color_icon)">
    <g id="Group_34" data-name="Group 34" transform="translate(3.132 3.997)">
      <g id="Group_19" data-name="Group 19" transform="translate(0.868)">
        <g id="Group_17" data-name="Group 17" transform="translate(43.742)">
          <g id="Group_3" data-name="Group 3" transform="translate(6.27)">
            <path id="Clip_2-2" data-name="Clip 2" d="M12.114,0A12.159,12.159,0,0,0,0,12.176H0A12.159,12.159,0,0,0,12.114,24.352h0A12.159,12.159,0,0,0,24.229,12.176h0A12.159,12.159,0,0,0,12.114,0Z" transform="translate(0.077 0.003)" fill="none"/>
            <g id="Group_3-2" data-name="Group 3" clip-path="url(#clip-path)">
              <path id="Fill_1" data-name="Fill 1" d="M12.114,0A12.159,12.159,0,0,0,0,12.176H0A12.159,12.159,0,0,0,12.114,24.352h0A12.159,12.159,0,0,0,24.229,12.176h0A12.159,12.159,0,0,0,12.114,0Z" transform="translate(0.077 0.003)" fill="url(#linear-gradient)"/>
            </g>
          </g>
          <g id="Group_9" data-name="Group 9" transform="translate(0 29.848)">
            <path id="Clip_8-2" data-name="Clip 8" d="M0,9.086A25.741,25.741,0,0,1,5.719,25.334h0A13.27,13.27,0,0,1,19.429,11.85h0c7.011.358,12.395,6.615,12.395,13.876h0v7.611a1.679,1.679,0,0,0,1.65,1.706h8.139a1.679,1.679,0,0,0,1.649-1.706h0V25.888C43.262,12.016,32.709.3,19.3.006h0Q19.036,0,18.772,0h0A24.133,24.133,0,0,0,0,9.086" transform="translate(0.083 0.143)" fill="none"/>
            <g id="Group_9-2" data-name="Group 9" clip-path="url(#clip-path-2)">
              <path id="Fill_7" data-name="Fill 7" d="M0,9.086A25.741,25.741,0,0,1,5.719,25.334h0A13.27,13.27,0,0,1,19.429,11.85h0c7.011.358,12.395,6.615,12.395,13.876h0v7.611a1.679,1.679,0,0,0,1.65,1.706h8.139a1.679,1.679,0,0,0,1.649-1.706h0V25.888C43.262,12.016,32.709.3,19.3.006h0Q19.036,0,18.772,0h0A24.133,24.133,0,0,0,0,9.086" transform="translate(0.083 0.143)" fill="url(#linear-gradient-2)"/>
            </g>
          </g>
        </g>
        <g id="Group_4" data-name="Group 4">
          <g id="Group_6" data-name="Group 6" transform="translate(12.966)">
            <path id="Clip_5-2" data-name="Clip 5" d="M11.974,0A12.09,12.09,0,0,0,0,12.176H0A12.09,12.09,0,0,0,11.974,24.352h0A12.09,12.09,0,0,0,23.947,12.176h0A12.09,12.09,0,0,0,11.974,0Z" transform="translate(0.085 0.003)" fill="none"/>
            <g id="Group_6-2" data-name="Group 6" clip-path="url(#clip-path-3)">
              <path id="Fill_4" data-name="Fill 4" d="M11.974,0A12.09,12.09,0,0,0,0,12.176H0A12.09,12.09,0,0,0,11.974,24.352h0A12.09,12.09,0,0,0,23.947,12.176h0A12.09,12.09,0,0,0,11.974,0Z" transform="translate(0.085 0.003)" fill="url(#linear-gradient-3)"/>
            </g>
          </g>
          <g id="Group_12" data-name="Group 12" transform="translate(0 29.848)">
            <path id="Clip_11-2" data-name="Clip 11" d="M24.343.006C10.722.3,0,12.017,0,25.888H0v7.449a1.691,1.691,0,0,0,1.676,1.706H9.945a1.692,1.692,0,0,0,1.676-1.706h0V25.726c0-7.261,5.47-13.519,12.593-13.876h0A13.383,13.383,0,0,1,38.142,25.334h0v8a1.692,1.692,0,0,0,1.676,1.706h8.269a1.691,1.691,0,0,0,1.676-1.706h0v-8A25.492,25.492,0,0,0,43.953,9.086h0A24.666,24.666,0,0,0,24.882,0h0c-.179,0-.358,0-.539.006" transform="translate(0 0.143)" fill="none"/>
            <g id="Group_12-2" data-name="Group 12" clip-path="url(#clip-path-4)">
              <path id="Fill_10" data-name="Fill 10" d="M24.343.006C10.722.3,0,12.017,0,25.888H0v7.449a1.691,1.691,0,0,0,1.676,1.706H9.945a1.692,1.692,0,0,0,1.676-1.706h0V25.726c0-7.261,5.47-13.519,12.593-13.876h0A13.383,13.383,0,0,1,38.142,25.334h0v8a1.692,1.692,0,0,0,1.676,1.706h8.269a1.691,1.691,0,0,0,1.676-1.706h0v-8A25.492,25.492,0,0,0,43.953,9.086h0A24.666,24.666,0,0,0,24.882,0h0c-.179,0-.358,0-.539.006" transform="translate(0 0.143)" fill="url(#linear-gradient-4)"/>
            </g>
          </g>
        </g>
      </g>
      <g id="Group_15" data-name="Group 15" transform="translate(225.868 19)">
        <path id="Clip_14-2" data-name="Clip 14" d="M15.193,46a15.738,15.738,0,0,1-6.208-1.179A13.453,13.453,0,0,1,4.15,41.286a15.812,15.812,0,0,1-3.113-5.431A21.487,21.487,0,0,1,0,28.989a20.894,20.894,0,0,1,1.079-6.905,15.5,15.5,0,0,1,3.238-5.423,14.18,14.18,0,0,1,4.944-3.513,15.924,15.924,0,0,1,6.2-1.171,15.172,15.172,0,0,1,3.882.479A10.612,10.612,0,0,1,22.22,13.6a12.906,12.906,0,0,1,1.841,1.37,4.954,4.954,0,0,1,1.037,1.21l.335.446h.134a11.584,11.584,0,0,1-.134-1.848V2.676C25.433.9,26.356,0,28.177,0h2.945c1.821,0,2.745.9,2.745,2.676V42.559c0,1.775-.924,2.676-2.745,2.676H28.646c-1.821,0-2.744-.814-2.744-2.42V41.54l.133-1.148H25.9c-.093.176-.217.38-.368.606A14.844,14.844,0,0,1,24.4,42.337a10.342,10.342,0,0,1-2.041,1.72,12.962,12.962,0,0,1-3.045,1.337A13.613,13.613,0,0,1,15.193,46Zm1.941-27.077a7.967,7.967,0,0,0-6.091,2.707,10.539,10.539,0,0,0-2.477,7.359A11.2,11.2,0,0,0,10.91,36.38a7.663,7.663,0,0,0,6.157,2.8,8.143,8.143,0,0,0,6.09-2.581c1.644-1.713,2.478-4.3,2.478-7.677a11.5,11.5,0,0,0-2.209-7.04A7.412,7.412,0,0,0,17.134,18.923Z" transform="translate(0.125)" fill="none"/>
        <g id="Group_15-2" data-name="Group 15" clip-path="url(#clip-path-5)">
          <path id="Fill_13" data-name="Fill 13" d="M15.193,46a15.738,15.738,0,0,1-6.208-1.179A13.453,13.453,0,0,1,4.15,41.286a15.812,15.812,0,0,1-3.113-5.431A21.487,21.487,0,0,1,0,28.989a20.894,20.894,0,0,1,1.079-6.905,15.5,15.5,0,0,1,3.238-5.423,14.18,14.18,0,0,1,4.944-3.513,15.924,15.924,0,0,1,6.2-1.171,15.172,15.172,0,0,1,3.882.479A10.612,10.612,0,0,1,22.22,13.6a12.906,12.906,0,0,1,1.841,1.37,4.954,4.954,0,0,1,1.037,1.21l.335.446h.134a11.584,11.584,0,0,1-.134-1.848V2.676C25.433.9,26.356,0,28.177,0h2.945c1.821,0,2.745.9,2.745,2.676V42.559c0,1.775-.924,2.676-2.745,2.676H28.646c-1.821,0-2.744-.814-2.744-2.42V41.54l.133-1.148H25.9c-.093.176-.217.38-.368.606A14.844,14.844,0,0,1,24.4,42.337a10.342,10.342,0,0,1-2.041,1.72,12.962,12.962,0,0,1-3.045,1.337A13.613,13.613,0,0,1,15.193,46Zm1.941-27.077a7.967,7.967,0,0,0-6.091,2.707,10.539,10.539,0,0,0-2.477,7.359A11.2,11.2,0,0,0,10.91,36.38a7.663,7.663,0,0,0,6.157,2.8,8.143,8.143,0,0,0,6.09-2.581c1.644-1.713,2.478-4.3,2.478-7.677a11.5,11.5,0,0,0-2.209-7.04A7.412,7.412,0,0,0,17.134,18.923Z" transform="translate(0.125)" fill="url(#linear-gradient-5)"/>
        </g>
      </g>
      <g id="Group_18" data-name="Group 18" transform="translate(262.868 29)">
        <path id="Clip_17-2" data-name="Clip 17" d="M18.4,35.161a20.043,20.043,0,0,1-7.145-1.242,18.073,18.073,0,0,1-5.93-3.729,16.469,16.469,0,0,1-3.992-5.637A17.834,17.834,0,0,1,0,17.581a17.833,17.833,0,0,1,1.331-6.971A16.482,16.482,0,0,1,5.323,4.971a18.092,18.092,0,0,1,5.93-3.728A20.04,20.04,0,0,1,18.4,0a19.987,19.987,0,0,1,7.153,1.251A18.245,18.245,0,0,1,31.506,5a16.666,16.666,0,0,1,4.016,5.647,17.591,17.591,0,0,1,1.339,6.93,17.738,17.738,0,0,1-1.339,6.972,16.476,16.476,0,0,1-4.016,5.637,18.245,18.245,0,0,1-5.956,3.729A20.108,20.108,0,0,1,18.4,35.161Zm0-28.05a9.5,9.5,0,0,0-7.031,2.963,10.355,10.355,0,0,0-2.891,7.507,10.389,10.389,0,0,0,2.858,7.539A9.513,9.513,0,0,0,18.4,28.049a9.626,9.626,0,0,0,7.1-2.929,10.327,10.327,0,0,0,2.891-7.539,10.3,10.3,0,0,0-2.924-7.507A9.6,9.6,0,0,0,18.4,7.111Z" transform="translate(0.001 0.02)" fill="none"/>
        <g id="Group_18-2" data-name="Group 18" clip-path="url(#clip-path-6)">
          <path id="Fill_16" data-name="Fill 16" d="M18.4,35.161a20.043,20.043,0,0,1-7.145-1.242,18.073,18.073,0,0,1-5.93-3.729,16.469,16.469,0,0,1-3.992-5.637A17.834,17.834,0,0,1,0,17.581a17.833,17.833,0,0,1,1.331-6.971A16.482,16.482,0,0,1,5.323,4.971a18.092,18.092,0,0,1,5.93-3.728A20.04,20.04,0,0,1,18.4,0a19.987,19.987,0,0,1,7.153,1.251A18.245,18.245,0,0,1,31.506,5a16.666,16.666,0,0,1,4.016,5.647,17.591,17.591,0,0,1,1.339,6.93,17.738,17.738,0,0,1-1.339,6.972,16.476,16.476,0,0,1-4.016,5.637,18.245,18.245,0,0,1-5.956,3.729A20.108,20.108,0,0,1,18.4,35.161Zm0-28.05a9.5,9.5,0,0,0-7.031,2.963,10.355,10.355,0,0,0-2.891,7.507,10.389,10.389,0,0,0,2.858,7.539A9.513,9.513,0,0,0,18.4,28.049a9.626,9.626,0,0,0,7.1-2.929,10.327,10.327,0,0,0,2.891-7.539,10.3,10.3,0,0,0-2.924-7.507A9.6,9.6,0,0,0,18.4,7.111Z" transform="translate(0.001 0.02)" fill="url(#linear-gradient-5)"/>
        </g>
      </g>
      <g id="Group_21" data-name="Group 21" transform="translate(101.868 29)">
        <path id="Clip_20-2" data-name="Clip 20" d="M33.149,2.088a12.984,12.984,0,0,0-4.53,4.984h-.131Q26.4,0,18.774,0h0a10.785,10.785,0,0,0-6.551,2.189h0A13.528,13.528,0,0,0,7.888,7.274H7.758l.131-1.549V3.637Q7.888.808,5.215.808H2.673Q0,.808,0,3.637H0v28.7q0,2.829,2.673,2.829H5.541q2.672,0,2.673-2.829h0v-12.6a15.34,15.34,0,0,1,2.249-8.352h0a7.109,7.109,0,0,1,6.356-3.57h0q2.672,0,3.553,1.784h0a11.785,11.785,0,0,1,.88,5.086h0V32.332q0,2.829,2.738,2.829h2.868q2.673,0,2.673-2.829h0v-12.6A15.291,15.291,0,0,1,31.78,11.35h0a7.013,7.013,0,0,1,6.226-3.536h0q2.672,0,3.618,1.751h0a11.044,11.044,0,0,1,.945,5.119h0V32.332q0,2.829,2.738,2.829h2.8q2.738,0,2.738-2.829h0V13.067Q50.847,0,39.961,0h0a11.927,11.927,0,0,0-6.812,2.088" transform="translate(0.021 0.02)" fill="none"/>
        <g id="Group_21-2" data-name="Group 21" clip-path="url(#clip-path-7)">
          <path id="Fill_19" data-name="Fill 19" d="M33.149,2.088a12.984,12.984,0,0,0-4.53,4.984h-.131Q26.4,0,18.774,0h0a10.785,10.785,0,0,0-6.551,2.189h0A13.528,13.528,0,0,0,7.888,7.274H7.758l.131-1.549V3.637Q7.888.808,5.215.808H2.673Q0,.808,0,3.637H0v28.7q0,2.829,2.673,2.829H5.541q2.672,0,2.673-2.829h0v-12.6a15.34,15.34,0,0,1,2.249-8.352h0a7.109,7.109,0,0,1,6.356-3.57h0q2.672,0,3.553,1.784h0a11.785,11.785,0,0,1,.88,5.086h0V32.332q0,2.829,2.738,2.829h2.868q2.673,0,2.673-2.829h0v-12.6A15.291,15.291,0,0,1,31.78,11.35h0a7.013,7.013,0,0,1,6.226-3.536h0q2.672,0,3.618,1.751h0a11.044,11.044,0,0,1,.945,5.119h0V32.332q0,2.829,2.738,2.829h2.8q2.738,0,2.738-2.829h0V13.067Q50.847,0,39.961,0h0a11.927,11.927,0,0,0-6.812,2.088" transform="translate(0.021 0.02)" fill="url(#linear-gradient-7)"/>
        </g>
      </g>
      <g id="Group_24" data-name="Group 24" transform="translate(156.868 29)">
        <path id="Clip_23-2" data-name="Clip 23" d="M19.185,35.161A22.554,22.554,0,0,1,11.4,33.885a17.366,17.366,0,0,1-6.117-3.827,17.229,17.229,0,0,1-3.965-5.67A17.352,17.352,0,0,1,0,17.581a19.021,19.021,0,0,1,1.26-7.053A16.133,16.133,0,0,1,5.041,4.906a16.624,16.624,0,0,1,5.794-3.679A20.766,20.766,0,0,1,18.134,0a18.516,18.516,0,0,1,6.617,1.111,13.424,13.424,0,0,1,5.007,3.333,14.719,14.719,0,0,1,3.151,5.111A18.84,18.84,0,0,1,33.959,16a2.649,2.649,0,0,1-.911,1.976,3.068,3.068,0,0,1-2.17.856H9.1a9.524,9.524,0,0,0,3.431,6.782,11.252,11.252,0,0,0,7.282,2.435,15.111,15.111,0,0,0,7.7-2.172,4.337,4.337,0,0,1,1.735-.427A2.464,2.464,0,0,1,31.438,26.8l.841,1.318A2.4,2.4,0,0,1,31.3,31.8,23.252,23.252,0,0,1,19.185,35.161ZM17.924,6.322a8.386,8.386,0,0,0-5.672,2.007,9.17,9.17,0,0,0-2.94,5.433H25.136a7.564,7.564,0,0,0-2.1-5.433A7.008,7.008,0,0,0,17.924,6.322Z" transform="translate(0.011 0.02)" fill="none"/>
        <g id="Group_24-2" data-name="Group 24" clip-path="url(#clip-path-8)">
          <path id="Fill_22" data-name="Fill 22" d="M19.185,35.161A22.554,22.554,0,0,1,11.4,33.885a17.366,17.366,0,0,1-6.117-3.827,17.229,17.229,0,0,1-3.965-5.67A17.352,17.352,0,0,1,0,17.581a19.021,19.021,0,0,1,1.26-7.053A16.133,16.133,0,0,1,5.041,4.906a16.624,16.624,0,0,1,5.794-3.679A20.766,20.766,0,0,1,18.134,0a18.516,18.516,0,0,1,6.617,1.111,13.424,13.424,0,0,1,5.007,3.333,14.719,14.719,0,0,1,3.151,5.111A18.84,18.84,0,0,1,33.959,16a2.649,2.649,0,0,1-.911,1.976,3.068,3.068,0,0,1-2.17.856H9.1a9.524,9.524,0,0,0,3.431,6.782,11.252,11.252,0,0,0,7.282,2.435,15.111,15.111,0,0,0,7.7-2.172,4.337,4.337,0,0,1,1.735-.427A2.464,2.464,0,0,1,31.438,26.8l.841,1.318A2.4,2.4,0,0,1,31.3,31.8,23.252,23.252,0,0,1,19.185,35.161ZM17.924,6.322a8.386,8.386,0,0,0-5.672,2.007,9.17,9.17,0,0,0-2.94,5.433H25.136a7.564,7.564,0,0,0-2.1-5.433A7.008,7.008,0,0,0,17.924,6.322Z" transform="translate(0.011 0.02)" fill="url(#linear-gradient-7)"/>
        </g>
      </g>
      <g id="Group_27" data-name="Group 27" transform="translate(190.868 29)">
        <path id="Clip_26-2" data-name="Clip 26" d="M19.1,35.161a22.365,22.365,0,0,1-7.747-1.276A17.045,17.045,0,0,1,0,17.581a19.1,19.1,0,0,1,1.255-7.053A16.139,16.139,0,0,1,5.018,4.906a16.544,16.544,0,0,1,5.769-3.679A20.592,20.592,0,0,1,18.054,0a18.361,18.361,0,0,1,6.588,1.111,13.354,13.354,0,0,1,4.984,3.333,14.727,14.727,0,0,1,3.138,5.111A18.915,18.915,0,0,1,33.809,16a2.653,2.653,0,0,1-.906,1.976,3.048,3.048,0,0,1-2.161.856H9.062a9.54,9.54,0,0,0,3.415,6.782,11.173,11.173,0,0,0,7.249,2.435A15,15,0,0,0,27.4,25.878a4.3,4.3,0,0,1,1.726-.427A2.454,2.454,0,0,1,31.3,26.8l.837,1.318A2.406,2.406,0,0,1,31.16,31.8,23.075,23.075,0,0,1,19.1,35.161ZM17.845,6.322A8.321,8.321,0,0,0,12.2,8.329a9.182,9.182,0,0,0-2.929,5.433H25.025a7.584,7.584,0,0,0-2.092-5.433A6.959,6.959,0,0,0,17.845,6.322Z" transform="translate(0.108 0.02)" fill="none"/>
        <g id="Group_27-2" data-name="Group 27" clip-path="url(#clip-path-9)">
          <path id="Fill_25" data-name="Fill 25" d="M19.1,35.161a22.365,22.365,0,0,1-7.747-1.276A17.045,17.045,0,0,1,0,17.581a19.1,19.1,0,0,1,1.255-7.053A16.139,16.139,0,0,1,5.018,4.906a16.544,16.544,0,0,1,5.769-3.679A20.592,20.592,0,0,1,18.054,0a18.361,18.361,0,0,1,6.588,1.111,13.354,13.354,0,0,1,4.984,3.333,14.727,14.727,0,0,1,3.138,5.111A18.915,18.915,0,0,1,33.809,16a2.653,2.653,0,0,1-.906,1.976,3.048,3.048,0,0,1-2.161.856H9.062a9.54,9.54,0,0,0,3.415,6.782,11.173,11.173,0,0,0,7.249,2.435A15,15,0,0,0,27.4,25.878a4.3,4.3,0,0,1,1.726-.427A2.454,2.454,0,0,1,31.3,26.8l.837,1.318A2.406,2.406,0,0,1,31.16,31.8,23.075,23.075,0,0,1,19.1,35.161ZM17.845,6.322A8.321,8.321,0,0,0,12.2,8.329a9.182,9.182,0,0,0-2.929,5.433H25.025a7.584,7.584,0,0,0-2.092-5.433A6.959,6.959,0,0,0,17.845,6.322Z" transform="translate(0.108 0.02)" fill="url(#linear-gradient-7)"/>
        </g>
      </g>
      <g id="Group_30" data-name="Group 30" transform="translate(304.868 19)">
        <path id="Clip_29-2" data-name="Clip 29" d="M2.777,0Q0,0,0,2.721H0V43.279Q0,46,2.777,46H5.621Q8.4,46,8.4,43.279h0V31.552h4.365l7.87,12.569A3.477,3.477,0,0,0,23.875,46h3.571a2.318,2.318,0,0,0,2.182-.907h0a2.254,2.254,0,0,0-.33-2.332h0l-9.921-14.9V27.73l8.4-11.533a2.133,2.133,0,0,0,.43-2.268h0a2.18,2.18,0,0,0-2.149-.971H22.883a3.65,3.65,0,0,0-3.307,1.814h0L12.566,24.62H8.4V2.721Q8.4,0,5.621,0H2.777Z" transform="translate(0.118)" fill="none"/>
        <g id="Group_30-2" data-name="Group 30" clip-path="url(#clip-path-10)">
          <path id="Fill_28" data-name="Fill 28" d="M2.777,0Q0,0,0,2.721H0V43.279Q0,46,2.777,46H5.621Q8.4,46,8.4,43.279h0V31.552h4.365l7.87,12.569A3.477,3.477,0,0,0,23.875,46h3.571a2.318,2.318,0,0,0,2.182-.907h0a2.254,2.254,0,0,0-.33-2.332h0l-9.921-14.9V27.73l8.4-11.533a2.133,2.133,0,0,0,.43-2.268h0a2.18,2.18,0,0,0-2.149-.971H22.883a3.65,3.65,0,0,0-3.307,1.814h0L12.566,24.62H8.4V2.721Q8.4,0,5.621,0H2.777Z" transform="translate(0.118)" fill="url(#linear-gradient-5)"/>
        </g>
      </g>
    </g>
  </g>
</svg>
