<svg xmlns="http://www.w3.org/2000/svg" xmlns:xlink="http://www.w3.org/1999/xlink" width="50" height="50" viewBox="0 0 50 50">
  <defs>
    <clipPath id="clip-notificacion_numero">
      <rect width="50" height="50"/>
    </clipPath>
  </defs>
  <g id="notificacion_numero" clip-path="url(#clip-notificacion_numero)">
    <g id="notification" transform="translate(2 7.689)">
      <path id="Fill_1" data-name="Fill 1" d="M16.5,32.673a7.3,7.3,0,0,1-6.887-4.792H4.6A4.563,4.563,0,0,1,0,23.361v-.535a6.11,6.11,0,0,1,3.247-5.371V12.712A13.162,13.162,0,0,1,16.5-.328,13.163,13.163,0,0,1,29.753,12.712v4.743A6.11,6.11,0,0,1,33,22.827v.535a4.564,4.564,0,0,1-4.6,4.52H23.387A7.3,7.3,0,0,1,16.5,32.673Zm0-28a8.362,8.362,0,0,0-8.291,8.413v7.062a1.883,1.883,0,0,1-1.867,1.9A1.351,1.351,0,0,0,5,23.4v.273H28V23.4a1.351,1.351,0,0,0-1.342-1.356,1.884,1.884,0,0,1-1.868-1.9V13.086A8.362,8.362,0,0,0,16.5,4.673Z" transform="translate(0 1.188)" fill="#4e00ef"/>
      <g id="Group_55" data-name="Group 55" transform="translate(17 0.311)">
        <g id="Rectangle" transform="translate(0 0)" fill="#ef00a5" stroke="#fff" stroke-miterlimit="10" stroke-width="1">
          <rect width="29" height="15.787" rx="7.893" stroke="none"/>
          <rect x="0.5" y="0.5" width="28" height="14.787" rx="7.393" fill="none"/>
        </g>
        <text id="_75" data-name="75" transform="translate(7 2.55)" fill="#fff" font-size="10" font-family="SegoeUI, Segoe UI"><tspan x="2.109" y="11">75</tspan></text>
      </g>
    </g>
  </g>
</svg>
