<svg xmlns="http://www.w3.org/2000/svg" xmlns:xlink="http://www.w3.org/1999/xlink" width="70" height="70" viewBox="0 0 70 70">
  <defs>
    <clipPath id="clip-recargar">
      <rect width="70" height="70"/>
    </clipPath>
  </defs>
  <g id="recargar" clip-path="url(#clip-recargar)">
    <g id="Group_7" data-name="Group 7" transform="translate(16.679 14.835)">
      <g id="Group_3" data-name="Group 3" transform="translate(0.321 0.067)">
        <path id="Fill_1" data-name="Fill 1" d="M4.653,23.011h0A12.686,12.686,0,0,1,9.062,9.431,13.443,13.443,0,0,1,23.5,8.082H20.951a2.023,2.023,0,1,0,0,4.045l8.277,0a.841.841,0,0,0,.109-.008c.06,0,.121-.01.19-.019s.121-.02.191-.036.125-.034.2-.06c.06-.022.12-.044.182-.072s.113-.056.172-.089.115-.068.166-.1a.9.9,0,0,0,.09-.061.852.852,0,0,0,.076-.069.888.888,0,0,0,.087-.074.935.935,0,0,0,.085-.1c.04-.045.078-.089.108-.13a1.722,1.722,0,0,0,.121-.178c.032-.054.061-.106.088-.161s.051-.112.079-.183.038-.115.055-.176a1.928,1.928,0,0,0,.043-.208,1.706,1.706,0,0,0,.018-.173.842.842,0,0,0,.01-.125V2.022a2.072,2.072,0,0,0-4.142,0v3.5a17.772,17.772,0,0,0-9.777-2.975h-.069A17.6,17.6,0,0,0,6.464,6.28,16.633,16.633,0,0,0,.672,24.12a2.017,2.017,0,0,0,.986,1.213,2.1,2.1,0,0,0,1.573.176,2.042,2.042,0,0,0,1.24-.958,1.967,1.967,0,0,0,.183-1.54" transform="translate(0 0.098)" fill="#ef00a6"/>
      </g>
      <g id="Group_6" data-name="Group 6" transform="translate(4.179 14.575)">
        <path id="Path" d="M30.633,1.48A2.029,2.029,0,0,0,29.648.258,2.091,2.091,0,0,0,28.073.079a2.052,2.052,0,0,0-1.244.972,1.987,1.987,0,0,0-.18,1.546,12.865,12.865,0,0,1-4.407,13.685A13.356,13.356,0,0,1,7.8,17.641h2.55a2.038,2.038,0,1,0,0-4.075H2.073a.787.787,0,0,0-.1.007,1.992,1.992,0,0,0-.211.022c-.056.009-.11.018-.165.03l-.021,0c-.066.017-.131.037-.187.057s-.13.047-.182.071a1.937,1.937,0,0,0-.182.1c-.049.029-.1.06-.157.1a.693.693,0,0,0-.1.069.763.763,0,0,0-.074.07,2.1,2.1,0,0,0-.183.183l-.041.048-.053.064L.4,14.408a2.4,2.4,0,0,0-.151.241,1,1,0,0,0-.064.122,2.149,2.149,0,0,0-.108.3,1.029,1.029,0,0,0-.029.1A2.068,2.068,0,0,0,0,15.6v8.142a2.057,2.057,0,0,0,2.071,2.038,2.06,2.06,0,0,0,2.074-2.039V20.225a17.677,17.677,0,0,0,9.777,3h.068a17.52,17.52,0,0,0,10.852-3.767A16.893,16.893,0,0,0,30.633,1.48" transform="translate(0.15 0.078)" fill="#ef00a6"/>
      </g>
    </g>
  </g>
</svg>
