<svg xmlns="http://www.w3.org/2000/svg" xmlns:xlink="http://www.w3.org/1999/xlink" width="160" height="160" viewBox="0 0 160 160">
  <defs>
    <clipPath id="clip-path">
      <circle id="Oval" cx="71" cy="71" r="71" transform="translate(0 0.082)" fill="#ffcaef" stroke="#ef00a5" stroke-miterlimit="10" stroke-width="4"/>
    </clipPath>
    <clipPath id="clip-reestablecer-acceso">
      <rect width="160" height="160"/>
    </clipPath>
  </defs>
  <g id="reestablecer-acceso" clip-path="url(#clip-reestablecer-acceso)">
    <g id="Group_8" data-name="Group 8" transform="translate(9 8.918)">
      <g id="Oval-2" data-name="Oval" transform="translate(0 0.082)" fill="#ffcaef" stroke="#ef00a5" stroke-miterlimit="10" stroke-width="4">
        <circle cx="71" cy="71" r="71" stroke="none"/>
        <circle cx="71" cy="71" r="73" fill="none"/>
      </g>
      <g id="Group_8-2" data-name="Group 8" clip-path="url(#clip-path)">
        <g id="noun_Lock_771677" transform="translate(34 26.878)">
          <g id="Group" transform="translate(0 0.122)">
            <path id="Shape" d="M6.53,88.727A6.545,6.545,0,0,1,0,82.235V43.282a6.545,6.545,0,0,1,6.53-6.493h6.53V23.805a23.941,23.941,0,0,1,47.882,0V36.789H67.47A6.545,6.545,0,0,1,74,43.282V82.235a6.545,6.545,0,0,1-6.53,6.493Z" transform="translate(0 0.19)" fill="#ef00a5"/>
          </g>
        </g>
      </g>
    </g>
  </g>
</svg>
