<svg xmlns="http://www.w3.org/2000/svg" xmlns:xlink="http://www.w3.org/1999/xlink" width="22" height="22" viewBox="0 0 22 22">
  <defs>
    <clipPath id="clip-path">
      <path id="Clip_2" data-name="Clip 2" d="M0,0H18V18H0Z" transform="translate(0 0.004)" fill="none"/>
    </clipPath>
    <clipPath id="clip-reloj">
      <rect width="22" height="22"/>
    </clipPath>
  </defs>
  <g id="reloj" clip-path="url(#clip-reloj)">
    <g id="Group_37" data-name="Group 37" transform="translate(1.494 -5.004)">
      <g id="Group_3" data-name="Group 3" transform="translate(0.506 7)">
        <path id="Clip_2-2" data-name="Clip 2" d="M0,0H18V18H0Z" transform="translate(0 0.004)" fill="none"/>
        <g id="Group_3-2" data-name="Group 3" clip-path="url(#clip-path)">
          <path id="Fill_1" data-name="Fill 1" d="M16.739,4.41A9,9,0,0,0,9,0H9A9.032,9.032,0,0,0,6.772.278,1.07,1.07,0,1,0,7.3,2.351,6.848,6.848,0,1,1,2.354,7.3,1.07,1.07,0,1,0,.282,6.768,9,9,0,1,0,16.739,4.41" transform="translate(0 0.004)" fill="#C8C8C8"/>
        </g>
      </g>
      <path id="Fill_4" data-name="Fill 4" d="M.789,0A.785.785,0,0,0,0,.779V3.818a.77.77,0,0,0,.015.151.488.488,0,0,0,.016.058l0,.005A.529.529,0,0,0,.1,4.195l0,0a.477.477,0,0,0,.029.05.8.8,0,0,0,.1.119l1.421,1.4a.8.8,0,0,0,1.116,0,.773.773,0,0,0,0-1.1L1.579,3.495V.779A.785.785,0,0,0,.789,0" transform="translate(8 12)" fill="#C8C8C8"/>
    </g>
  </g>
</svg>
