<svg xmlns="http://www.w3.org/2000/svg" xmlns:xlink="http://www.w3.org/1999/xlink" width="33" height="33" viewBox="0 0 33 33">
  <defs>
    <clipPath id="clip-path">
      <path id="Clip_2" data-name="Clip 2" d="M0,0H31.462V31.493H0Z" transform="translate(0 0.007)" fill="none"/>
    </clipPath>
    <clipPath id="clip-reloj-rosa">
      <rect width="33" height="33"/>
    </clipPath>
  </defs>
  <g id="reloj-rosa" clip-path="url(#clip-reloj-rosa)">
    <g id="Group_6" data-name="Group 6" transform="translate(1 0.756)">
      <g id="Group_3" data-name="Group 3" transform="translate(0 0.237)">
        <path id="Clip_2-2" data-name="Clip 2" d="M0,0H31.462V31.493H0Z" transform="translate(0 0.007)" fill="none"/>
        <g id="Group_3-2" data-name="Group 3" clip-path="url(#clip-path)">
          <path id="Fill_1" data-name="Fill 1" d="M19.625.491A15.708,15.708,0,0,0,15.731,0h-.006a15.77,15.77,0,0,0-3.888.487,1.873,1.873,0,0,0-.5,3.423,1.857,1.857,0,0,0,1.42.2A11.988,11.988,0,1,1,4.115,12.77a1.87,1.87,0,1,0-3.623-.926A15.72,15.72,0,1,0,19.625.491Z" transform="translate(0 0.007)" fill="#ef00a5"/>
        </g>
      </g>
      <path id="Fill_4" data-name="Fill 4" d="M1.478,0A1.405,1.405,0,0,0,0,1.315V6.443A1.176,1.176,0,0,0,.029,6.7a.76.76,0,0,0,.03.1l0,.009a.847.847,0,0,0,.128.274l0,.008a.789.789,0,0,0,.054.084,1.4,1.4,0,0,0,.185.2L3.1,9.74a1.613,1.613,0,0,0,2.09,0,1.216,1.216,0,0,0,0-1.859L2.957,5.9V1.315A1.405,1.405,0,0,0,1.478,0" transform="translate(12.36 9.237)" fill="#ef00a5"/>
    </g>
  </g>
</svg>
