<svg xmlns="http://www.w3.org/2000/svg" xmlns:xlink="http://www.w3.org/1999/xlink" width="45" height="45" viewBox="0 0 45 45">
  <defs>
    <clipPath id="clip-sintomas">
      <rect width="45" height="45"/>
    </clipPath>
  </defs>
  <g id="sintomas" clip-path="url(#clip-sintomas)">
    <g id="Group_3" data-name="Group 3" transform="translate(9.006 10.162)">
      <path id="Fill_1" data-name="Fill 1" d="M13.7,23.945h0a1.1,1.1,0,0,1-.811-.348L1.854,11.589A6.688,6.688,0,0,1,.573,4.248,6.661,6.661,0,0,1,2.922,1.317,7.391,7.391,0,0,1,6.583,0h.779a8.82,8.82,0,0,1,6.4,2.7,8.827,8.827,0,0,1,6.4-2.7h.78A7.4,7.4,0,0,1,24.6,1.313a6.681,6.681,0,0,1,2.35,2.915,6.8,6.8,0,0,1-1.335,7.441L14.5,23.607A1.112,1.112,0,0,1,13.7,23.945ZM5.9,12.932l7.8,8.5,8.827-9.491H18.57l-2.882,3.591a1.1,1.1,0,0,1-.854.4h-.1a1.062,1.062,0,0,1-.854-.546L11.5,10.943l-1.12,1.542a1.089,1.089,0,0,1-.887.447Zm5.765-4.967a1.073,1.073,0,0,1,.949.541l2.435,4.536,2.135-2.7a1.1,1.1,0,0,1,.853-.4h6.3a4.878,4.878,0,0,0,.63-4.973A4.99,4.99,0,0,0,20.759,1.99h-.62a6.475,6.475,0,0,0-5.454,2.894,1.049,1.049,0,0,1-.373.348,1.125,1.125,0,0,1-.543.139,1.093,1.093,0,0,1-.92-.487A6.473,6.473,0,0,0,7.395,1.99H6.818a5.015,5.015,0,0,0-4.27,2.984,4.851,4.851,0,0,0,.918,5.312l.608.657H8.921l1.858-2.537a1.031,1.031,0,0,1,.4-.33A1.114,1.114,0,0,1,11.664,7.965Z" transform="translate(0 0.838)" fill="#ef00a5"/>
    </g>
  </g>
</svg>
