<svg xmlns="http://www.w3.org/2000/svg" xmlns:xlink="http://www.w3.org/1999/xlink" width="53" height="40" viewBox="0 0 53 40">
  <defs>
    <clipPath id="clip-path">
      <path id="Clip_2" data-name="Clip 2" d="M44.43,37.2H5.585A5.618,5.618,0,0,1,0,31.6V5.8A5.6,5.6,0,0,1,5.552.2H44.464A5.6,5.6,0,0,1,50,5.8V31.6A5.59,5.59,0,0,1,44.43,37.2ZM3,18.2V31.729A2.446,2.446,0,0,0,5.474,34.2H44.542A2.411,2.411,0,0,0,47,31.729V18.2Zm0-7v3H47v-3Zm2.474-8A2.535,2.535,0,0,0,3,5.843V9.2H47V5.843A2.528,2.528,0,0,0,44.542,3.2Zm2.118,26H7.556a1.619,1.619,0,0,1-1.147-.5A1.444,1.444,0,0,1,6,27.667,1.56,1.56,0,0,1,7.591,26.2h4.853a1.619,1.619,0,0,1,1.147.5A1.444,1.444,0,0,1,14,27.733,1.559,1.559,0,0,1,12.41,29.2H7.592Zm-.041-4A1.537,1.537,0,0,1,6,23.809a1.461,1.461,0,0,1,.356-1.072A1.558,1.558,0,0,1,7.438,22.2c.026,0,.053,0,.08,0s.053,0,.08,0H18.485a1.559,1.559,0,0,1,1.1.48A1.464,1.464,0,0,1,20,23.734,1.534,1.534,0,0,1,18.452,25.2H7.55Z" transform="translate(0 0.8)" fill="none"/>
    </clipPath>
    <clipPath id="clip-tarjeta-debito">
      <rect width="53" height="40"/>
    </clipPath>
  </defs>
  <g id="tarjeta-debito" clip-path="url(#clip-tarjeta-debito)">
    <g id="Group_3" data-name="Group 3" transform="translate(1.44 0.5)">
      <path id="Clip_2-2" data-name="Clip 2" d="M44.43,37.2H5.585A5.618,5.618,0,0,1,0,31.6V5.8A5.6,5.6,0,0,1,5.552.2H44.464A5.6,5.6,0,0,1,50,5.8V31.6A5.59,5.59,0,0,1,44.43,37.2ZM3,18.2V31.729A2.446,2.446,0,0,0,5.474,34.2H44.542A2.411,2.411,0,0,0,47,31.729V18.2Zm0-7v3H47v-3Zm2.474-8A2.535,2.535,0,0,0,3,5.843V9.2H47V5.843A2.528,2.528,0,0,0,44.542,3.2Zm2.118,26H7.556a1.619,1.619,0,0,1-1.147-.5A1.444,1.444,0,0,1,6,27.667,1.56,1.56,0,0,1,7.591,26.2h4.853a1.619,1.619,0,0,1,1.147.5A1.444,1.444,0,0,1,14,27.733,1.559,1.559,0,0,1,12.41,29.2H7.592Zm-.041-4A1.537,1.537,0,0,1,6,23.809a1.461,1.461,0,0,1,.356-1.072A1.558,1.558,0,0,1,7.438,22.2c.026,0,.053,0,.08,0s.053,0,.08,0H18.485a1.559,1.559,0,0,1,1.1.48A1.464,1.464,0,0,1,20,23.734,1.534,1.534,0,0,1,18.452,25.2H7.55Z" transform="translate(0 0.8)" fill="none"/>
      <g id="Group_3-2" data-name="Group 3" clip-path="url(#clip-path)">
        <path id="Fill_1" data-name="Fill 1" d="M44.43,37.2H5.585A5.618,5.618,0,0,1,0,31.6V5.8A5.6,5.6,0,0,1,5.552.2H44.464A5.6,5.6,0,0,1,50,5.8V31.6A5.59,5.59,0,0,1,44.43,37.2ZM3,18.2V31.729A2.446,2.446,0,0,0,5.474,34.2H44.542A2.411,2.411,0,0,0,47,31.729V18.2Zm0-7v3H47v-3Zm2.474-8A2.535,2.535,0,0,0,3,5.843V9.2H47V5.843A2.528,2.528,0,0,0,44.542,3.2Zm2.118,26H7.556a1.619,1.619,0,0,1-1.147-.5A1.444,1.444,0,0,1,6,27.667,1.56,1.56,0,0,1,7.591,26.2h4.853a1.619,1.619,0,0,1,1.147.5A1.444,1.444,0,0,1,14,27.733,1.559,1.559,0,0,1,12.41,29.2H7.592Zm-.041-4A1.537,1.537,0,0,1,6,23.809a1.461,1.461,0,0,1,.356-1.072A1.558,1.558,0,0,1,7.438,22.2c.026,0,.053,0,.08,0s.053,0,.08,0H18.485a1.559,1.559,0,0,1,1.1.48A1.464,1.464,0,0,1,20,23.734,1.534,1.534,0,0,1,18.452,25.2H7.55Z" transform="translate(0 0.8)" fill="#fff"/>
      </g>
    </g>
  </g>
</svg>
