<svg xmlns="http://www.w3.org/2000/svg" xmlns:xlink="http://www.w3.org/1999/xlink" width="32" height="32" viewBox="0 0 32 32">
  <defs>
    <clipPath id="clip-telefono">
      <rect width="32" height="32"/>
    </clipPath>
  </defs>
  <g id="telefono" clip-path="url(#clip-telefono)">
    <path id="Fill_1" data-name="Fill 1" d="M2.29.978C3.055.259,5.169-.641,5.844.663l2.7,5.216a1.162,1.162,0,0,1-.09,1.259c-.9,1.259-2.429,2.7-2.114,4.361a8.078,8.078,0,0,0,1.349,2.968c.18.27.4.585.585.854a19.531,19.531,0,0,0,4.409,4.407,9.667,9.667,0,0,0,.855.584,8.9,8.9,0,0,0,2.969,1.349c1.709.315,3.1-1.214,4.364-2.114a1.261,1.261,0,0,1,1.26-.09l5.219,2.7c1.3.675.36,2.788-.315,3.552a7.588,7.588,0,0,1-4.049,2.248,7.9,7.9,0,0,1-3.914-.719A31.011,31.011,0,0,1,12.547,23.6c-1.124-.764-2.2-1.619-3.239-2.473a20.613,20.613,0,0,1-2.429-2.429A34.15,34.15,0,0,1,4.4,15.456,30.944,30.944,0,0,1,.76,8.937a8.415,8.415,0,0,1-.72-3.912A7.416,7.416,0,0,1,2.29.978" transform="translate(2 2)" fill="#ef00a5"/>
  </g>
</svg>
