<svg xmlns="http://www.w3.org/2000/svg" xmlns:xlink="http://www.w3.org/1999/xlink" width="74" height="40" viewBox="0 0 74 40">
  <defs>
    <clipPath id="clip-path">
      <path id="Clip_2" data-name="Clip 2" d="M0,0H43V38H0Z" fill="none"/>
    </clipPath>
    <clipPath id="clip-TRANSACCIONES">
      <rect width="74" height="40"/>
    </clipPath>
  </defs>
  <g id="TRANSACCIONES" clip-path="url(#clip-TRANSACCIONES)">
    <g id="Group_3" data-name="Group 3" transform="translate(16 1)">
      <path id="Clip_2-2" data-name="Clip 2" d="M0,0H43V38H0Z" fill="none"/>
      <g id="Group_3-2" data-name="Group 3" clip-path="url(#clip-path)">
        <path id="Fill_1" data-name="Fill 1" d="M21.351,38C11.477,38,0,29.167,0,17.781V3.8A3.659,3.659,0,0,1,1,1.079,4.178,4.178,0,0,1,3.762,0h35.37C41.59.136,43,1.52,43,3.8V17.781a17.836,17.836,0,0,1-1.791,7.729,21.174,21.174,0,0,1-4.779,6.422A22.609,22.609,0,0,1,21.466,38ZM16.658,24.277a1.093,1.093,0,0,0-.88.521l-.627.868a1.261,1.261,0,0,0-.3.929,1.094,1.094,0,0,0,.5.7A9.524,9.524,0,0,0,20.2,29.2v1.6c0,.651.384.981,1.142.981h.2c.739,0,1.113-.4,1.113-1.177V29.2a6.465,6.465,0,0,0,4.023-1.933,5.425,5.425,0,0,0,1.484-3.81,4.845,4.845,0,0,0-.713-2.62,5.276,5.276,0,0,0-1.784-1.764c-.709-.418-1.491-.828-2.326-1.219s-1.614-.724-2.326-.995a5.758,5.758,0,0,1-1.784-1.037,1.843,1.843,0,0,1-.714-1.387,2.069,2.069,0,0,1,.885-1.708,3.542,3.542,0,0,1,2.2-.672,6.6,6.6,0,0,1,3.424,1.036,1.61,1.61,0,0,0,.75.225,1,1,0,0,0,.878-.588l.485-.953a1.024,1.024,0,0,0-.343-1.569,8.252,8.252,0,0,0-4.137-1.4v-1.6c0-.65-.375-.98-1.113-.98h-.2A1.015,1.015,0,0,0,20.2,7.375V8.859a6.754,6.754,0,0,0-3.881,1.933,5.163,5.163,0,0,0-1.483,3.7,4.5,4.5,0,0,0,1,2.913,7.2,7.2,0,0,0,2.411,1.933c.939.465,1.89.893,2.825,1.274A11.75,11.75,0,0,1,23.483,21.9a2.026,2.026,0,0,1,1,1.638,2.089,2.089,0,0,1-.856,1.779,3.483,3.483,0,0,1-2.112.63,7.156,7.156,0,0,1-4.081-1.4A1.461,1.461,0,0,0,16.658,24.277Z" transform="translate(0 0)" fill="#fff"/>
      </g>
    </g>
  </g>
</svg>
