<svg xmlns="http://www.w3.org/2000/svg" xmlns:xlink="http://www.w3.org/1999/xlink" width="70" height="70" viewBox="0 0 70 70">
  <defs>
    <clipPath id="clip-path">
      <path id="Clip_2" data-name="Clip 2" d="M0,0H13.776V23.374H0Z" transform="translate(0.261 0.165)" fill="none"/>
    </clipPath>
    <clipPath id="clip-path-2">
      <path id="Clip_5" data-name="Clip 5" d="M0,0H43.787V34.222H0Z" transform="translate(0 0.02)" fill="none"/>
    </clipPath>
    <clipPath id="clip-video">
      <rect width="70" height="70"/>
    </clipPath>
  </defs>
  <g id="video" clip-path="url(#clip-video)">
    <g id="Grupo_2" data-name="Grupo 2" transform="translate(-18.5 -21.576)">
      <g id="Group_3" data-name="Group 3" transform="translate(71.025 44.537)">
        <path id="Clip_2-2" data-name="Clip 2" d="M0,0H13.776V23.374H0Z" transform="translate(0.261 0.165)" fill="none"/>
        <g id="Group_3-2" data-name="Group 3" clip-path="url(#clip-path)">
          <path id="Fill_1" data-name="Fill 1" d="M10.824.169,1.246,4.452A2.119,2.119,0,0,0,0,6.305V17.044A2.01,2.01,0,0,0,1.246,18.9l9.577,4.283a2.08,2.08,0,0,0,2.952-1.854V2.023A2.105,2.105,0,0,0,10.824.169" transform="translate(0.261 0.165)" fill="#606060"/>
        </g>
      </g>
      <g id="Group_6" data-name="Group 6" transform="translate(22.5 39.556)">
        <path id="Clip_5-2" data-name="Clip 5" d="M0,0H43.787V34.222H0Z" transform="translate(0 0.02)" fill="none"/>
        <g id="Group_6-2" data-name="Group 6" clip-path="url(#clip-path-2)">
          <path id="Fill_4" data-name="Fill 4" d="M39.4,0H4.385A4.318,4.318,0,0,0,0,4.246v25.73a4.318,4.318,0,0,0,4.385,4.246H39.4a4.318,4.318,0,0,0,4.385-4.246V4.246A4.277,4.277,0,0,0,39.4,0" transform="translate(0 0.02)" fill="#606060"/>
        </g>
      </g>
    </g>
  </g>
</svg>
