<svg xmlns="http://www.w3.org/2000/svg" xmlns:xlink="http://www.w3.org/1999/xlink" width="70" height="70" viewBox="0 0 70 70">
  <defs>
    <clipPath id="clip-path">
      <path id="Clip_2" data-name="Clip 2" d="M0,0H27.266V38.576H0Z" transform="translate(0 0.063)" fill="none"/>
    </clipPath>
    <clipPath id="clip-volumen">
      <rect width="70" height="70"/>
    </clipPath>
  </defs>
  <g id="volumen" clip-path="url(#clip-volumen)">
    <g id="Grupo_4" data-name="Grupo 4" transform="translate(-20 -21.092)">
      <g id="Group_3" data-name="Group 3" transform="translate(25 37.029)">
        <path id="Clip_2-2" data-name="Clip 2" d="M0,0H27.266V38.576H0Z" transform="translate(0 0.063)" fill="none"/>
        <g id="Group_3-2" data-name="Group 3" clip-path="url(#clip-path)">
          <path id="Fill_1" data-name="Fill 1" d="M12.387,29.119,24.38,38.211a1.813,1.813,0,0,0,2.886-1.526V1.892A1.813,1.813,0,0,0,24.38.366L12.387,9.457a1.376,1.376,0,0,1-.733.228H1.816A1.854,1.854,0,0,0,0,11.574V26.926a1.853,1.853,0,0,0,1.816,1.889h9.838a1.274,1.274,0,0,1,.733.3" transform="translate(0 0.063)" fill="#606060"/>
        </g>
      </g>
      <path id="Fill_4" data-name="Fill 4" d="M.459,16.1l-.1-.132A1.618,1.618,0,0,1,.609,13.7a7,7,0,0,0,2.5-5.241,7,7,0,0,0-2.5-5.24A1.618,1.618,0,0,1,.356.944L.471.8A2.312,2.312,0,0,1,3.68.52,10.468,10.468,0,0,1,7.5,8.458a10.578,10.578,0,0,1-3.843,7.93,2.3,2.3,0,0,1-3.2-.284" transform="translate(65 46.689)" fill="#606060"/>
      <path id="Fill_6" data-name="Fill 6" d="M.513,30.578l-.121-.147A1.62,1.62,0,0,1,.811,28C5.188,24.976,7.8,20.485,7.8,15.7S5.18,6.464.791,3.4A1.618,1.618,0,0,1,.382.975L.513.816a2.551,2.551,0,0,1,3.272-.4C9.289,4.181,12.5,9.759,12.5,15.7S9.289,27.214,3.784,30.979a2.551,2.551,0,0,1-3.272-.4" transform="translate(72.5 39.444)" fill="#606060"/>
    </g>
  </g>
</svg>
