<svg xmlns="http://www.w3.org/2000/svg" xmlns:xlink="http://www.w3.org/1999/xlink" viewBox="0 0 616.89 690.44"><defs><style>.cls-1{isolation:isolate;}.cls-2{fill:#cab2f6;}.cls-3{fill:#231f20;opacity:0.2;mix-blend-mode:multiply;}.cls-4{fill:url(#linear-gradient);}.cls-5{fill:#fff;}.cls-6{fill:url(#linear-gradient-2);}.cls-7{fill:url(#linear-gradient-3);}.cls-8{fill:#19006b;}.cls-9{fill:url(#linear-gradient-4);}.cls-10{fill:url(#linear-gradient-5);}.cls-11{fill:url(#linear-gradient-6);}.cls-12{fill:url(#linear-gradient-7);}.cls-13{fill:url(#linear-gradient-8);}.cls-14{fill:#4f00ec;}.cls-15{fill:url(#linear-gradient-9);}.cls-16{fill:url(#linear-gradient-10);}.cls-17{fill:url(#linear-gradient-11);}.cls-18{fill:#a4a6a8;}.cls-19{fill:url(#linear-gradient-12);}.cls-20{fill:url(#linear-gradient-13);}.cls-21{fill:url(#linear-gradient-14);}.cls-22{fill:url(#linear-gradient-15);}.cls-23{fill:url(#linear-gradient-16);}.cls-24{fill:url(#linear-gradient-17);}.cls-25{fill:url(#linear-gradient-18);}.cls-26{fill:#4e00e2;}</style><linearGradient id="linear-gradient" x1="168.12" y1="265.49" x2="205.12" y2="265.49" gradientTransform="translate(369.17 -2.81) rotate(69.34)" gradientUnits="userSpaceOnUse"><stop offset="0" stop-color="#e50099"/><stop offset="1" stop-color="#ff00b0"/></linearGradient><linearGradient id="linear-gradient-2" x1="95.26" y1="202.43" x2="126.61" y2="202.43" gradientTransform="translate(-18.18 396.61) rotate(-119.5)" xlink:href="#linear-gradient"/><linearGradient id="linear-gradient-3" x1="234.3" y1="667.35" x2="286.41" y2="667.35" gradientTransform="matrix(1, 0, 0, 1, 0, 0)" xlink:href="#linear-gradient"/><linearGradient id="linear-gradient-4" x1="233.62" y1="525.65" x2="256.19" y2="525.65" gradientTransform="matrix(1, 0, 0, 1, 0, 0)" xlink:href="#linear-gradient"/><linearGradient id="linear-gradient-5" x1="246.57" y1="524.37" x2="286.41" y2="524.37" gradientTransform="translate(532.98 1048.73) rotate(-180)" xlink:href="#linear-gradient"/><linearGradient id="linear-gradient-6" x1="303.76" y1="524.37" x2="355.5" y2="524.37" gradientTransform="matrix(1, 0, 0, 1, 0, 0)" xlink:href="#linear-gradient"/><linearGradient id="linear-gradient-7" x1="314.76" y1="524.42" x2="346.81" y2="524.42" gradientTransform="matrix(1, 0, 0, 1, 0, 0)" xlink:href="#linear-gradient"/><linearGradient id="linear-gradient-8" x1="365.8" y1="258.64" x2="402.79" y2="258.64" gradientTransform="matrix(1, 0, 0, 1, 0, 0)" xlink:href="#linear-gradient"/><linearGradient id="linear-gradient-9" x1="327.87" y1="667.36" x2="355.5" y2="667.36" gradientTransform="translate(683.37 1334.72) rotate(-180)" xlink:href="#linear-gradient"/><linearGradient id="linear-gradient-10" x1="386" y1="368.1" x2="415" y2="368.1" gradientTransform="matrix(1, 0, 0, 1, 0, 0)" xlink:href="#linear-gradient"/><linearGradient id="linear-gradient-11" x1="222.1" y1="158.12" x2="259.58" y2="158.12" gradientTransform="matrix(1, 0, 0, 1, 0, 0)" xlink:href="#linear-gradient"/><linearGradient id="linear-gradient-12" x1="286.91" y1="154.01" x2="352.58" y2="154.01" gradientTransform="matrix(1, 0, 0, 1, 0, 0)" xlink:href="#linear-gradient"/><linearGradient id="linear-gradient-13" x1="306.19" y1="252.86" x2="312.91" y2="252.86" gradientTransform="matrix(1, 0, 0, 1, 0, 0)" xlink:href="#linear-gradient"/><linearGradient id="linear-gradient-14" x1="327.36" y1="253" x2="334.08" y2="253" gradientTransform="matrix(1, 0, 0, 1, 0, 0)" xlink:href="#linear-gradient"/><linearGradient id="linear-gradient-15" x1="-7790.07" y1="185.98" x2="-7790.07" y2="178.19" gradientTransform="matrix(-1, 0, 0, 1, -7470.14, 0)" xlink:href="#linear-gradient"/><linearGradient id="linear-gradient-16" x1="-8748.46" y1="8984.3" x2="-8735.15" y2="8984.3" gradientTransform="translate(-8421.87 9176.16) rotate(180)" gradientUnits="userSpaceOnUse"><stop offset="0" stop-color="#4d00e8"/><stop offset="1" stop-color="#080042"/></linearGradient><linearGradient id="linear-gradient-17" x1="-7779.86" y1="185.98" x2="-7779.86" y2="178.19" gradientTransform="matrix(-1, 0, 0, 1, -7470.14, 0)" gradientUnits="userSpaceOnUse"><stop offset="0" stop-color="#4e00e7"/><stop offset="1" stop-color="#4e00e7"/></linearGradient><linearGradient id="linear-gradient-18" x1="303.07" y1="191.86" x2="360.07" y2="191.86" gradientTransform="matrix(1, 0, 0, 1, 0, 0)" xlink:href="#linear-gradient-17"/></defs><g class="cls-1"><g id="freepik--background-simple--inject-82"><path class="cls-2" d="M53.2,241c-12.46,122.16-85,161.68-36.9,267.26s160.41,115.86,262.18,66S501.81,534.65,565.41,456s67.73-184.6,15.4-267S423.54,53.18,423.54,53.18C175.81-60,65.67,118.82,53.2,241Z"/></g><ellipse class="cls-3" cx="287.78" cy="675.91" rx="259.35" ry="14.52"/><circle class="cls-4" cx="186.62" cy="265.49" r="18.5" transform="translate(-127.64 346.42) rotate(-69.34)"/><path class="cls-5" d="M126.63,199.36l-20.69,16.1,71.11,88,8.83-7.85a28.06,28.06,0,0,0,.32-41.67Z"/><path class="cls-6" d="M93,188.24h20.67a6.51,6.51,0,0,1,6.51,6.51v0A24.21,24.21,0,0,1,95.93,219H93a0,0,0,0,1,0,0V188.24A0,0,0,0,1,93,188.24Z" transform="translate(336.22 211.15) rotate(119.5)"/><path class="cls-5" d="M171.93,250.82l37.51,13.73,35.07-87.33c5.56-13.87-.53-29.29-13.46-34h0c-13.22-4.84-28.14,3.48-32.5,18.14Z"/><path class="cls-7" d="M234.3,676.41h52.11V658.3h-23.1C234.3,658.3,234.3,676.41,234.3,676.41Z"/><circle class="cls-8" cx="231.37" cy="160.33" r="32.6" transform="translate(-30.65 57.45) rotate(-13.28)"/><path class="cls-8" d="M355.51,169.93V378.6H210.29V169.93a64.61,64.61,0,0,1,25.29-51.66,63.66,63.66,0,0,1,8.63-5.55,58.06,58.06,0,0,1,11.62-4.66,52.31,52.31,0,0,1,6.37-1.5,61.22,61.22,0,0,1,10.47-.89h20.46c.9,0,1.88,0,2.78,0a57.72,57.72,0,0,1,13.42,2.18C335.9,115.24,355.51,140.23,355.51,169.93Z"/><polygon class="cls-8" points="210.27 378.62 233.62 504.43 241.15 547.68 260.36 658.31 286.41 658.31 286.41 378.62 210.27 378.62"/><path class="cls-9" d="M233.62,504.42l7.53,43.26c8.52-1.66,15-10.81,15-21.88,0-12.25-8-22.19-17.86-22.19A14.13,14.13,0,0,0,233.62,504.42Z"/><rect class="cls-10" x="246.57" y="521.1" width="39.84" height="6.53" transform="translate(532.98 1048.73) rotate(180)"/><polygon class="cls-8" points="279.36 378.62 329.45 671.13 355.5 671.13 355.5 378.62 279.36 378.62"/><polygon class="cls-11" points="304.88 527.63 355.5 527.63 355.5 521.1 303.76 521.1 304.88 527.63"/><ellipse class="cls-12" cx="330.78" cy="524.42" rx="16.02" ry="20.71"/><path class="cls-5" d="M355.51,169.93V487.39H279.12V209.49c0-81.77,14-103.82,14-103.82.9,0,1.88,0,2.78,0a57.72,57.72,0,0,1,13.42,2.18C335.9,115.24,355.51,140.23,355.51,169.93Z"/><polygon class="cls-8" points="257.62 123.7 301.73 106.26 301.73 68.38 257.57 67.19 257.62 123.7"/><circle class="cls-13" cx="384.29" cy="258.64" r="18.5"/><circle class="cls-8" cx="347.03" cy="153.25" r="32.6" transform="translate(-6.72 290.27) rotate(-45)"/><path class="cls-5" d="M359.19,263.13,397.83,253l-21.08-91.71c-3.35-14.57-17.16-23.74-30.47-20.25h0C332.66,144.6,325.17,160,330,174.47Z"/><path class="cls-8" d="M322.79,247.26H355.5a0,0,0,0,1,0,0v87.13a32.71,32.71,0,0,1-32.71,32.71h0a0,0,0,0,1,0,0V247.26a0,0,0,0,1,0,0Z" transform="translate(678.29 614.36) rotate(180)"/><path class="cls-14" d="M308,38.11V48.92a33.9,33.9,0,0,1-27.6,33.24,32.73,32.73,0,0,1-6.2.56h-8.59a33.79,33.79,0,0,1-33.75-32c0-.59,0-1.15,0-1.75V38.11c0-.64,0-1.32,0-2a38.07,38.07,0,0,1,74.77-8.08A37.15,37.15,0,0,1,308,38.11Z"/><path class="cls-14" d="M231.82,48.92h66.72a0,0,0,0,1,0,0V66.39a33.36,33.36,0,0,1-33.36,33.36h0a33.36,33.36,0,0,1-33.36-33.36V48.92A0,0,0,0,1,231.82,48.92Z"/><path class="cls-8" d="M306.65,28.07a28.31,28.31,0,0,0-15.59,20.85,27.47,27.47,0,0,0-.39,4.66V59.9a29.4,29.4,0,0,1-58.79,0V36.15a38.07,38.07,0,0,1,74.77-8.08Z"/><path class="cls-8" d="M304.48,73h0a6,6,0,0,1-6-6V50.54a6,6,0,0,1,6-6h0a6,6,0,0,1,6,6V67A6,6,0,0,1,304.48,73Z"/><rect class="cls-5" x="266.66" y="44.56" width="6.53" height="17.14" rx="3.27"/><rect class="cls-5" x="238.97" y="44.56" width="6.53" height="17.14" rx="3.27"/><path class="cls-15" d="M327.87,658.31H355.5a0,0,0,0,1,0,0v4.28a13.82,13.82,0,0,1-13.82,13.82h0a13.82,13.82,0,0,1-13.82-13.82v-4.28a0,0,0,0,1,0,0Z" transform="translate(683.37 1334.72) rotate(180)"/><polygon class="cls-14" points="249.06 153.91 272.72 138.81 257.62 123.7 242.51 138.81 249.06 153.91"/><path class="cls-14" d="M254.38,138.81s-.64,93.11,1.53,186.57l-14.16,18.25L231.37,326.1c0-44.33,17.08-187.29,17.08-187.29Z"/><path class="cls-5" d="M415,354.13l-24.72,8.73L354.52,255.53l11.38-3.2a28.06,28.06,0,0,1,35.26,22.22Z"/><path class="cls-16" d="M406.46,387.39h0a27.19,27.19,0,0,1-19.61-33.07h0a7.32,7.32,0,0,1,8.9-5.27L415,354Z"/><path class="cls-5" d="M255.92,108.06s-33.24,9.91-33.24,90.28v289H210.29V169.93a64.61,64.61,0,0,1,25.29-51.66,63.66,63.66,0,0,1,8.63-5.55,58.06,58.06,0,0,1,11.62-4.66Z"/><path class="cls-17" d="M259.58,216.75h-2a35.55,35.55,0,0,1-35.51-35.51V135a35.55,35.55,0,0,1,35.51-35.51v6A29.57,29.57,0,0,0,228.07,135v46.24a29.57,29.57,0,0,0,29.54,29.54h2Z"/><path class="cls-5" d="M260.52,202.87a10.9,10.9,0,1,1-10.86,10.95v0a10.93,10.93,0,0,1,10.87-10.92Z"/><path class="cls-18" d="M314.6,154.94l9.58-.08A26.91,26.91,0,0,1,351.3,181.5l.41,46.17c.14,16.08-8.91,27-22.51,27.08l0-4.13c13.74-.13,18.5-12.42,18.41-22.91l-.41-46.18A22.77,22.77,0,0,0,324.22,159l-9.59.09A22.77,22.77,0,0,0,292.09,182l.41,46.17c.09,10.5,5.07,22.7,18.81,22.58l0,4.14c-13.6.12-22.83-10.6-23-26.68l-.4-46.17A26.91,26.91,0,0,1,314.6,154.94Z"/><path class="cls-19" d="M314.6,153.91l3.09,0-.21-25.47c-.08-8.94-7-17.62-15.74-23.22V98.39c12.2,6.44,21.83,17.94,21.94,30l.21,25.47h.28a27.89,27.89,0,0,1,28.15,27.66l.26,27.57-6.2.06-.26-27.58A21.69,21.69,0,0,0,324.23,160l-9.6.08A21.74,21.74,0,0,0,293.11,182l.26,27.57-6.2.06-.26-27.58A28,28,0,0,1,314.6,153.91Z"/><path class="cls-20" d="M309.52,249.5a3.36,3.36,0,1,1-3.33,3.39A3.35,3.35,0,0,1,309.52,249.5Z"/><path class="cls-21" d="M330.69,249.64a3.36,3.36,0,1,1-3.33,3.39A3.35,3.35,0,0,1,330.69,249.64Z"/><path class="cls-22" d="M319.93,178.85a3.23,3.23,0,1,1-3.23,3.23A3.23,3.23,0,0,1,319.93,178.85Z"/><path class="cls-23" d="M320.07,187.26a6.62,6.62,0,0,0-5.24,2.38,6.63,6.63,0,0,1,1.55,4.27,3.55,3.55,0,0,1,3.73-3.54,3.62,3.62,0,0,1,3.37,3.64v2a.45.45,0,0,0,.45.45h2.21a.45.45,0,0,0,.44-.45v-1.95A6.74,6.74,0,0,0,320.07,187.26Z"/><path class="cls-24" d="M309.73,178.85a3.23,3.23,0,1,1-3.23,3.23A3.23,3.23,0,0,1,309.73,178.85Z"/><path class="cls-25" d="M314.83,189.64a6.62,6.62,0,0,0-5.24-2.38,6.75,6.75,0,0,0-6.52,6.8V196a.45.45,0,0,0,.45.45h2.21a.45.45,0,0,0,.45-.45v-2a3.62,3.62,0,0,1,3.37-3.64,3.55,3.55,0,0,1,3.73,3.54V196a.45.45,0,0,0,.44.45h2.22a.45.45,0,0,0,.44-.45v-2.1A6.63,6.63,0,0,0,314.83,189.64Z"/><g id="freepik--pulse-icon--inject-2"><path class="cls-26" d="M336.19,9.77,335.51,9A30.72,30.72,0,0,1,352.32.94l.14,1A29.76,29.76,0,0,0,336.19,9.77Z"/><path class="cls-26" d="M328.79,20.7l-.93-.36a30.91,30.91,0,0,1,4-7.14l.8.6A30.77,30.77,0,0,0,328.79,20.7Z"/><circle class="cls-26" cx="356.69" cy="31.57" r="27.44"/><path class="cls-5" d="M345.93,31.71l3.14-9.17a1,1,0,0,1,1.28-.62,1,1,0,0,1,.61.62l5.89,17.23,5.72-13.47a1,1,0,0,1,1.79-.1l3,5.5h7.93a11.69,11.69,0,0,0-2.23-12.49,11.45,11.45,0,0,0-16.2-.3l-.16.15a11.45,11.45,0,0,0-16.19,0c0,.05-.1.11-.16.16a11.72,11.72,0,0,0-2.19,12.5Z"/><path class="cls-5" d="M366.8,33.7a1,1,0,0,1-.88-.51L363.55,29l-5.94,14a1,1,0,0,1-1.83-.06L350,26,347.57,33a1,1,0,0,1-.95.67h-7.35a12.26,12.26,0,0,0,1.51,1.82l13,13a4.2,4.2,0,0,0,5.94,0h0l13-13a11.91,11.91,0,0,0,1.52-1.83Z"/></g><g id="freepik--pulse-icon--inject-2-2" data-name="freepik--pulse-icon--inject-2"><path class="cls-26" d="M418.71,45.7,418,45a30.69,30.69,0,0,1,16.81-8.1l.14,1A29.73,29.73,0,0,0,418.71,45.7Z"/><path class="cls-26" d="M411.31,56.63l-.93-.36a30.54,30.54,0,0,1,4-7.14l.8.6A30,30,0,0,0,411.31,56.63Z"/><circle class="cls-26" cx="439.21" cy="67.5" r="27.44"/><g id="Group_9" data-name="Group 9"><g id="Group_3" data-name="Group 3"><g id="Group_3-2" data-name="Group 3-2"><path id="Fill_1" data-name="Fill 1" class="cls-5" d="M439.13,52.66a5.75,5.75,0,1,1-5.75,5.75h0a5.76,5.76,0,0,1,5.75-5.75"/></g></g><g id="Group_6" data-name="Group 6"><g id="Group_6-2" data-name="Group 6-2"><path id="Fill_4" data-name="Fill 4" class="cls-5" d="M448.06,71.64a11.63,11.63,0,0,0-9.18-4.16,11.77,11.77,0,0,0-11.39,11.84v3.41a.78.78,0,0,0,.78.78h3.87a.77.77,0,0,0,.78-.77h0V79.25a6.32,6.32,0,0,1,5.9-6.35,6.21,6.21,0,0,1,6.51,5.87c0,.1,0,.2,0,.3v3.66a.78.78,0,0,0,.78.78H450a.77.77,0,0,0,.79-.77h0V79.07a11.49,11.49,0,0,0-2.72-7.43"/></g></g><path id="Fill_7" data-name="Fill 7" class="cls-5" d="M436.33,80.11c-.36,0-.55-.17-.55-.51v-.19c0-.34.19-.51.55-.51h2.29V76.5c0-.34.18-.51.55-.51h.26q.54,0,.54.51v2.4h2.3q.54,0,.54.51v.19q0,.51-.54.51H440V82.5q0,.51-.54.51h-.26c-.37,0-.55-.17-.55-.51V80.11Z"/></g></g><g id="freepik--pulse-icon--inject-2-3" data-name="freepik--pulse-icon--inject-2"><path class="cls-26" d="M488.31,102.57l-.68-.73a30.69,30.69,0,0,1,16.81-8.1l.14,1A29.76,29.76,0,0,0,488.31,102.57Z"/><path class="cls-26" d="M480.91,113.5l-.93-.36a30.91,30.91,0,0,1,4-7.14l.8.6A30.38,30.38,0,0,0,480.91,113.5Z"/><circle class="cls-26" cx="508.81" cy="124.37" r="27.44"/><path class="cls-5" d="M509.72,121a3.21,3.21,0,0,0-2.3,1l-4.13,4.13a3.26,3.26,0,0,0,3.9,5.16,3.84,3.84,0,0,0,1,1.85h0a3.89,3.89,0,1,0,3.79-6.49l0,0a3.26,3.26,0,0,0-2.32-5.57Zm0,.81a2.45,2.45,0,0,1,1.73,4.18l-.59.58h0l-.23.24-.94.94-3.45-3.45L508,122.5A2.42,2.42,0,0,1,509.72,121.78Zm-4.08,3.08,3.45,3.45-1.77,1.77-.1.09a2.44,2.44,0,0,1-3.35-3.54Zm5.62,2.45a3.17,3.17,0,0,1,1.55.57l-4.27,4.27a3.17,3.17,0,0,1-.57-1.55l.28-.28Zm2.14,1.15a3.05,3.05,0,0,1-4.28,4.28Z"/><path class="cls-5" d="M523.58,136.79l-2-18.32a2.52,2.52,0,0,0-2.45-2.19h-4.37v-1.76a6.08,6.08,0,0,0-12.16,0v1.76H498.2a2.53,2.53,0,0,0-2.46,2.19l-2,18.32a1.89,1.89,0,0,0,.45,1.48,1.86,1.86,0,0,0,1.43.61h26.1a1.84,1.84,0,0,0,1.89-2.09Zm-19.3-21v-1.31a4.37,4.37,0,0,1,8.73,0v1.76h-8.73Zm17.11,21.34h-26l.06-.5,2-18a.84.84,0,0,1,.75-.67h20.89a.84.84,0,0,1,.75.67l2,18,0,.5Z"/></g><path class="cls-26" d="M62,109.37l-.68-.73a30.76,30.76,0,0,1,16.81-8.1l.14,1A29.73,29.73,0,0,0,62,109.37Z"/><path class="cls-26" d="M54.55,120.3l-.93-.36a30.54,30.54,0,0,1,4-7.14l.8.6A30,30,0,0,0,54.55,120.3Z"/><circle class="cls-26" cx="82.45" cy="131.17" r="27.44"/><g id="Group_3-2-2" data-name="Group 3-2"><path id="Fill_1-2" data-name="Fill 1" class="cls-5" d="M98.32,148.63a1.72,1.72,0,0,1-1.23-.51l-6.63-6.6A14.09,14.09,0,1,1,93,139.05l6.59,6.59a1.75,1.75,0,0,1-1.24,3ZM81.73,119.46a10.79,10.79,0,1,0,10.75,10.83v0A10.8,10.8,0,0,0,81.73,119.46Z"/></g><path class="cls-26" d="M153.07,25.84l-.68-.73A30.72,30.72,0,0,1,169.2,17l.14,1A29.8,29.8,0,0,0,153.07,25.84Z"/><path class="cls-26" d="M145.67,36.77l-.93-.36a30.91,30.91,0,0,1,4-7.14l.8.6A30.77,30.77,0,0,0,145.67,36.77Z"/><circle class="cls-26" cx="173.57" cy="47.64" r="27.44"/><g id="Group_14" data-name="Group 14"><g id="Group_3-2-3" data-name="Group 3"><g id="Group_3-2-4" data-name="Group 3-2"><path id="Fill_1-3" data-name="Fill 1" class="cls-5" d="M178.18,60.92a8.4,8.4,0,0,1-8.41-8.38V51.6a9.27,9.27,0,0,1-8.12-9.16V37.81a.85.85,0,0,1,0-.23,1.73,1.73,0,1,1,3.44.45A1.76,1.76,0,0,1,164,39.44v3a7,7,0,0,0,13.92,0v-3a1.73,1.73,0,1,1,2.29-1.86.86.86,0,0,1,0,.23v4.63a9.26,9.26,0,0,1-8.11,9.16v.94a6.08,6.08,0,0,0,12.13.69,4.07,4.07,0,1,1,2.32,0A8.38,8.38,0,0,1,178.18,60.92Zm7.24-13.29a1.74,1.74,0,1,0,1.74,1.74A1.74,1.74,0,0,0,185.42,47.63Z"/></g></g></g></g></svg>